<svg width="155" height="166" viewBox="0 0 155 166" fill="none" xmlns="http://www.w3.org/2000/svg">
<mask id="path-1-outside-1_1066_17135" maskUnits="userSpaceOnUse" x="-51.7226" y="-32.6979" width="228.107" height="230.871" fill="black">
<rect fill="white" x="-51.7226" y="-32.6979" width="228.107" height="230.871"/>
<path fill-rule="evenodd" clip-rule="evenodd" d="M87.1506 5.21466C87.6121 4.21113 88.8046 3.76111 89.814 4.2095L94.8316 6.43821C95.841 6.8866 96.2852 8.06361 95.8237 9.06714L93.575 13.9566C93.294 14.5676 92.742 14.9734 92.1253 15.0962L88.4741 18.6522C87.6828 19.4228 86.4055 19.417 85.6212 18.6393L81.7618 14.8119C80.9775 14.0341 80.9832 12.7789 81.7745 12.0082L85.6694 8.21488C85.7236 8.1621 85.7801 8.11297 85.8385 8.06747L87.1506 5.21466ZM42.0791 5.13808C42.6233 4.17685 43.85 3.82718 44.8192 4.35708L48.4439 6.33888C49.413 6.86878 49.7576 8.07757 49.2134 9.0388L47.2148 12.5692C46.6707 13.5304 45.4439 13.8801 44.4747 13.3502L40.85 11.3684C39.8809 10.8385 39.5363 9.62969 40.0805 8.66846L42.0791 5.13808ZM92.466 18.2226C92.7018 17.1435 93.7691 16.4536 94.8499 16.6817L100.242 17.8197C101.323 18.0477 102.008 19.1074 101.772 20.1865L100.627 25.424C100.391 26.5031 99.3242 27.193 98.2434 26.9649L92.8515 25.827C91.7707 25.5989 91.0857 24.5392 91.3216 23.4601L92.466 18.2226ZM89.3263 59.1457C90.4426 57.2947 91.5256 55.2346 92.4447 53.2105C93.3712 51.17 94.0864 49.2628 94.4905 47.7455C94.5353 47.5775 94.5754 47.4173 94.6111 47.2651L94.2029 47.2766L93.9426 47.284C93.0411 47.3094 92.0172 47.3343 90.9478 47.3085C88.1169 47.2404 84.6193 46.8095 81.6127 44.8273C79.4063 43.8633 77.3204 42.266 75.7482 39.6314L75.7445 39.6252L75.7408 39.6189C73.1868 35.2824 74.6944 30.9734 76.3618 28.169C77.2168 26.7308 78.1973 25.531 78.9572 24.6811C79.3399 24.2531 79.6739 23.906 79.9089 23.6637L79.9893 23.5808C80.0271 23.5419 80.0591 23.5089 80.0869 23.4802C80.1132 23.4529 80.1356 23.4296 80.1555 23.4087C80.9221 22.442 82.3116 22.1749 83.4047 22.8325C83.7115 23.0171 83.9649 23.2565 84.1598 23.5303C84.8165 23.5568 85.4635 23.8392 85.9374 24.368C86.8606 25.3979 86.7778 26.9728 85.7533 27.8883L85.7526 27.8889L85.7513 27.8901L85.7503 27.891L85.7492 27.892L85.7465 27.8944L85.7336 27.9062L85.7019 27.9355C85.659 27.9755 85.5906 28.0401 85.5015 28.1274C85.3228 28.3023 85.063 28.5663 84.7583 28.9042C84.1426 29.5869 83.3754 30.5367 82.7223 31.6349C81.3563 33.932 80.8527 36.1998 82.005 38.1628C82.575 39.1163 83.2591 39.8591 84.0356 40.4352C85.5415 41.0088 87.2567 41.2164 89.082 41.2604C90.0088 41.2827 90.9183 41.2617 91.8144 41.2364L92.0867 41.2287L92.0871 41.2286C92.8699 41.2061 93.6723 41.183 94.3907 41.1972C95.167 41.2126 96.0687 41.2715 96.888 41.5154C97.435 41.6782 98.112 41.9768 98.6786 42.5264C98.7334 42.5409 98.7879 42.5562 98.842 42.5724C99.68 42.8218 100.823 43.3898 101.407 44.6911C101.824 45.6223 101.84 46.6387 101.78 47.4179C101.716 48.2617 101.533 49.1816 101.285 50.1135C100.787 51.9834 99.9574 54.1604 98.9627 56.3511C97.8543 58.7922 96.4844 61.3721 95.0338 63.6763C96.388 64.8006 97.7444 65.9623 99.0985 67.1593C120.018 85.6522 132.47 105.568 126.91 111.642C126.503 112.086 126.012 112.444 125.442 112.718L34.64 159.396C28.7696 162.414 21.6165 161.533 16.6989 157.185C11.7814 152.838 10.1347 145.941 12.5689 139.885L18.5795 124.933C15.7214 121.835 13.2643 118.883 11.2527 116.053C7.62793 111.114 5.27474 106.257 4.63717 101.429C4.02627 96.8032 4.99337 92.2485 7.79104 87.8307C10.548 83.4771 14.9908 79.3976 21.1166 75.4843C22.3394 74.7032 23.8751 74.9786 24.5466 76.0995C24.6652 76.2974 24.7489 76.5084 24.7996 76.726C25.77 76.6258 26.695 77.078 27.1109 77.9552C27.6728 79.1402 27.0932 80.6521 25.8163 81.332C19.7893 84.5415 15.7094 87.6349 13.1921 90.6705C10.7424 93.6244 9.72807 96.5691 9.87646 99.7513C10.0298 103.039 11.4362 106.775 14.2591 111.124C14.634 111.702 15.0321 112.288 15.4531 112.882C16.9733 114.952 18.7737 117.091 20.841 119.307L50.2093 46.249C50.4274 45.6516 50.7409 45.1243 51.1537 44.6733C55.8457 39.5471 71.8661 45.9171 89.3263 59.1457ZM137.978 36.7104C138.986 36.7954 139.804 37.4676 140.123 38.3623C141.472 38.4976 142.471 39.6867 142.365 41.0446C142.258 42.4211 141.054 43.4497 139.678 43.3421C139.067 43.2943 138.423 43.2626 137.794 43.2507C140.213 44.9024 142.916 46.8395 145.107 48.7764C146.555 50.0564 147.919 51.4553 148.821 52.8801C149.676 54.2293 150.497 56.2263 149.599 58.2725C149.139 59.3209 148.286 60.0768 147.577 60.5956C146.817 61.1516 145.909 61.6572 144.979 62.1177C143.408 62.8954 141.508 63.6702 139.69 64.4114L139.681 64.4152L139.663 64.4226L139.657 64.4248C139.346 64.5516 139.038 64.6774 138.734 64.802C136.564 65.6922 134.614 66.5282 133.199 67.3554C132.526 67.7488 132.083 68.0782 131.823 68.3313C131.906 68.4501 132.041 68.6188 132.259 68.8395C132.886 69.4728 133.872 70.1948 135.134 70.9497C137.637 72.4467 140.77 73.8047 143.005 74.6528C144.296 75.1427 144.945 76.5863 144.455 77.8772C144.078 78.8723 143.133 79.4862 142.129 79.4908C141.495 80.5007 140.208 80.9394 139.067 80.4724C136.672 79.493 133.082 77.7955 130.076 75.8569C128.581 74.8935 127.124 73.8026 126.026 72.639C125.019 71.5712 123.85 69.9569 123.977 67.999C124.064 66.6423 124.784 65.5794 125.473 64.8378C126.179 64.0769 127.079 63.4093 127.999 62.8245C129.839 61.655 132.213 60.5388 134.454 59.5152C134.815 59.3498 135.174 59.1867 135.528 59.0257L135.53 59.0251C137.443 58.1551 139.227 57.3439 140.689 56.5501C141.55 56.0826 142.209 55.6681 142.667 55.3074C142.932 55.0993 143.065 54.9586 143.124 54.8903C143.105 54.7791 143.027 54.5303 142.735 54.0902C142.198 53.2785 141.23 52.2873 139.869 51.1482C137.982 49.5685 135.727 48.0069 133.513 46.4744L133.513 46.4743C132.505 45.7766 131.506 45.0849 130.555 44.4003C129.885 43.9187 129.28 43.3985 128.824 42.8241C128.388 42.274 127.88 41.4072 127.936 40.308C127.996 39.102 128.69 38.2808 129.312 37.8195C129.892 37.3892 130.547 37.1539 131.068 37.0116C133.068 36.4658 136.049 36.5479 137.978 36.7104ZM131.631 68.5513C131.63 68.5517 131.63 68.5519 131.63 68.5519C131.63 68.5519 131.632 68.5491 131.635 68.5436C131.633 68.5477 131.631 68.5503 131.631 68.5513ZM143.128 54.9617C143.127 54.9614 143.127 54.9533 143.13 54.9383C143.13 54.9545 143.129 54.962 143.128 54.9617ZM117.231 45.2097C116.155 45.4623 115.495 46.5372 115.756 47.6105L117.024 52.8212C117.285 53.8945 118.368 54.5598 119.444 54.3071L124.807 53.0472C125.882 52.7945 126.542 51.7197 126.281 50.6464L125.013 45.4357C124.752 44.3624 123.669 43.6971 122.594 43.9497L117.231 45.2097ZM48.2179 28.2315C47.1198 28.3513 46.3302 29.3382 46.4542 30.4358L47.0554 35.7577C47.1794 36.8553 48.1701 37.6479 49.2682 37.5281L54.7515 36.9298C55.8495 36.81 56.6392 35.8231 56.5152 34.7255L55.9139 29.4036C55.7899 28.306 54.7992 27.5133 53.7012 27.6331L48.2179 28.2315ZM22.4907 37.9026C21.3899 37.8114 20.4209 38.6296 20.3265 39.7301L19.901 44.6908C19.8065 45.7914 20.6224 46.7575 21.7232 46.8487L26.8399 47.2726C27.9406 47.3638 28.9096 46.5456 29.004 45.4451L29.4295 40.4844C29.524 39.3839 28.7081 38.4178 27.6073 38.3266L22.4907 37.9026ZM114.435 30.4347C114.307 29.3377 115.092 28.3474 116.189 28.2229L121.67 27.601C122.767 27.4764 123.762 28.2648 123.89 29.3618L124.515 34.6811C124.644 35.7782 123.859 36.7684 122.762 36.893L117.281 37.5149C116.184 37.6394 115.189 36.8511 115.06 35.7541L114.435 30.4347Z"/>
</mask>
<path fill-rule="evenodd" clip-rule="evenodd" d="M87.1506 5.21466C87.6121 4.21113 88.8046 3.76111 89.814 4.2095L94.8316 6.43821C95.841 6.8866 96.2852 8.06361 95.8237 9.06714L93.575 13.9566C93.294 14.5676 92.742 14.9734 92.1253 15.0962L88.4741 18.6522C87.6828 19.4228 86.4055 19.417 85.6212 18.6393L81.7618 14.8119C80.9775 14.0341 80.9832 12.7789 81.7745 12.0082L85.6694 8.21488C85.7236 8.1621 85.7801 8.11297 85.8385 8.06747L87.1506 5.21466ZM42.0791 5.13808C42.6233 4.17685 43.85 3.82718 44.8192 4.35708L48.4439 6.33888C49.413 6.86878 49.7576 8.07757 49.2134 9.0388L47.2148 12.5692C46.6707 13.5304 45.4439 13.8801 44.4747 13.3502L40.85 11.3684C39.8809 10.8385 39.5363 9.62969 40.0805 8.66846L42.0791 5.13808ZM92.466 18.2226C92.7018 17.1435 93.7691 16.4536 94.8499 16.6817L100.242 17.8197C101.323 18.0477 102.008 19.1074 101.772 20.1865L100.627 25.424C100.391 26.5031 99.3242 27.193 98.2434 26.9649L92.8515 25.827C91.7707 25.5989 91.0857 24.5392 91.3216 23.4601L92.466 18.2226ZM89.3263 59.1457C90.4426 57.2947 91.5256 55.2346 92.4447 53.2105C93.3712 51.17 94.0864 49.2628 94.4905 47.7455C94.5353 47.5775 94.5754 47.4173 94.6111 47.2651L94.2029 47.2766L93.9426 47.284C93.0411 47.3094 92.0172 47.3343 90.9478 47.3085C88.1169 47.2404 84.6193 46.8095 81.6127 44.8273C79.4063 43.8633 77.3204 42.266 75.7482 39.6314L75.7445 39.6252L75.7408 39.6189C73.1868 35.2824 74.6944 30.9734 76.3618 28.169C77.2168 26.7308 78.1973 25.531 78.9572 24.6811C79.3399 24.2531 79.6739 23.906 79.9089 23.6637L79.9893 23.5808C80.0271 23.5419 80.0591 23.5089 80.0869 23.4802C80.1132 23.4529 80.1356 23.4296 80.1555 23.4087C80.9221 22.442 82.3116 22.1749 83.4047 22.8325C83.7115 23.0171 83.9649 23.2565 84.1598 23.5303C84.8165 23.5568 85.4635 23.8392 85.9374 24.368C86.8606 25.3979 86.7778 26.9728 85.7533 27.8883L85.7526 27.8889L85.7513 27.8901L85.7503 27.891L85.7492 27.892L85.7465 27.8944L85.7336 27.9062L85.7019 27.9355C85.659 27.9755 85.5906 28.0401 85.5015 28.1274C85.3228 28.3023 85.063 28.5663 84.7583 28.9042C84.1426 29.5869 83.3754 30.5367 82.7223 31.6349C81.3563 33.932 80.8527 36.1998 82.005 38.1628C82.575 39.1163 83.2591 39.8591 84.0356 40.4352C85.5415 41.0088 87.2567 41.2164 89.082 41.2604C90.0088 41.2827 90.9183 41.2617 91.8144 41.2364L92.0867 41.2287L92.0871 41.2286C92.8699 41.2061 93.6723 41.183 94.3907 41.1972C95.167 41.2126 96.0687 41.2715 96.888 41.5154C97.435 41.6782 98.112 41.9768 98.6786 42.5264C98.7334 42.5409 98.7879 42.5562 98.842 42.5724C99.68 42.8218 100.823 43.3898 101.407 44.6911C101.824 45.6223 101.84 46.6387 101.78 47.4179C101.716 48.2617 101.533 49.1816 101.285 50.1135C100.787 51.9834 99.9574 54.1604 98.9627 56.3511C97.8543 58.7922 96.4844 61.3721 95.0338 63.6763C96.388 64.8006 97.7444 65.9623 99.0985 67.1593C120.018 85.6522 132.47 105.568 126.91 111.642C126.503 112.086 126.012 112.444 125.442 112.718L34.64 159.396C28.7696 162.414 21.6165 161.533 16.6989 157.185C11.7814 152.838 10.1347 145.941 12.5689 139.885L18.5795 124.933C15.7214 121.835 13.2643 118.883 11.2527 116.053C7.62793 111.114 5.27474 106.257 4.63717 101.429C4.02627 96.8032 4.99337 92.2485 7.79104 87.8307C10.548 83.4771 14.9908 79.3976 21.1166 75.4843C22.3394 74.7032 23.8751 74.9786 24.5466 76.0995C24.6652 76.2974 24.7489 76.5084 24.7996 76.726C25.77 76.6258 26.695 77.078 27.1109 77.9552C27.6728 79.1402 27.0932 80.6521 25.8163 81.332C19.7893 84.5415 15.7094 87.6349 13.1921 90.6705C10.7424 93.6244 9.72807 96.5691 9.87646 99.7513C10.0298 103.039 11.4362 106.775 14.2591 111.124C14.634 111.702 15.0321 112.288 15.4531 112.882C16.9733 114.952 18.7737 117.091 20.841 119.307L50.2093 46.249C50.4274 45.6516 50.7409 45.1243 51.1537 44.6733C55.8457 39.5471 71.8661 45.9171 89.3263 59.1457ZM137.978 36.7104C138.986 36.7954 139.804 37.4676 140.123 38.3623C141.472 38.4976 142.471 39.6867 142.365 41.0446C142.258 42.4211 141.054 43.4497 139.678 43.3421C139.067 43.2943 138.423 43.2626 137.794 43.2507C140.213 44.9024 142.916 46.8395 145.107 48.7764C146.555 50.0564 147.919 51.4553 148.821 52.8801C149.676 54.2293 150.497 56.2263 149.599 58.2725C149.139 59.3209 148.286 60.0768 147.577 60.5956C146.817 61.1516 145.909 61.6572 144.979 62.1177C143.408 62.8954 141.508 63.6702 139.69 64.4114L139.681 64.4152L139.663 64.4226L139.657 64.4248C139.346 64.5516 139.038 64.6774 138.734 64.802C136.564 65.6922 134.614 66.5282 133.199 67.3554C132.526 67.7488 132.083 68.0782 131.823 68.3313C131.906 68.4501 132.041 68.6188 132.259 68.8395C132.886 69.4728 133.872 70.1948 135.134 70.9497C137.637 72.4467 140.77 73.8047 143.005 74.6528C144.296 75.1427 144.945 76.5863 144.455 77.8772C144.078 78.8723 143.133 79.4862 142.129 79.4908C141.495 80.5007 140.208 80.9394 139.067 80.4724C136.672 79.493 133.082 77.7955 130.076 75.8569C128.581 74.8935 127.124 73.8026 126.026 72.639C125.019 71.5712 123.85 69.9569 123.977 67.999C124.064 66.6423 124.784 65.5794 125.473 64.8378C126.179 64.0769 127.079 63.4093 127.999 62.8245C129.839 61.655 132.213 60.5388 134.454 59.5152C134.815 59.3498 135.174 59.1867 135.528 59.0257L135.53 59.0251C137.443 58.1551 139.227 57.3439 140.689 56.5501C141.55 56.0826 142.209 55.6681 142.667 55.3074C142.932 55.0993 143.065 54.9586 143.124 54.8903C143.105 54.7791 143.027 54.5303 142.735 54.0902C142.198 53.2785 141.23 52.2873 139.869 51.1482C137.982 49.5685 135.727 48.0069 133.513 46.4744L133.513 46.4743C132.505 45.7766 131.506 45.0849 130.555 44.4003C129.885 43.9187 129.28 43.3985 128.824 42.8241C128.388 42.274 127.88 41.4072 127.936 40.308C127.996 39.102 128.69 38.2808 129.312 37.8195C129.892 37.3892 130.547 37.1539 131.068 37.0116C133.068 36.4658 136.049 36.5479 137.978 36.7104ZM131.631 68.5513C131.63 68.5517 131.63 68.5519 131.63 68.5519C131.63 68.5519 131.632 68.5491 131.635 68.5436C131.633 68.5477 131.631 68.5503 131.631 68.5513ZM143.128 54.9617C143.127 54.9614 143.127 54.9533 143.13 54.9383C143.13 54.9545 143.129 54.962 143.128 54.9617ZM117.231 45.2097C116.155 45.4623 115.495 46.5372 115.756 47.6105L117.024 52.8212C117.285 53.8945 118.368 54.5598 119.444 54.3071L124.807 53.0472C125.882 52.7945 126.542 51.7197 126.281 50.6464L125.013 45.4357C124.752 44.3624 123.669 43.6971 122.594 43.9497L117.231 45.2097ZM48.2179 28.2315C47.1198 28.3513 46.3302 29.3382 46.4542 30.4358L47.0554 35.7577C47.1794 36.8553 48.1701 37.6479 49.2682 37.5281L54.7515 36.9298C55.8495 36.81 56.6392 35.8231 56.5152 34.7255L55.9139 29.4036C55.7899 28.306 54.7992 27.5133 53.7012 27.6331L48.2179 28.2315ZM22.4907 37.9026C21.3899 37.8114 20.4209 38.6296 20.3265 39.7301L19.901 44.6908C19.8065 45.7914 20.6224 46.7575 21.7232 46.8487L26.8399 47.2726C27.9406 47.3638 28.9096 46.5456 29.004 45.4451L29.4295 40.4844C29.524 39.3839 28.7081 38.4178 27.6073 38.3266L22.4907 37.9026ZM114.435 30.4347C114.307 29.3377 115.092 28.3474 116.189 28.2229L121.67 27.601C122.767 27.4764 123.762 28.2648 123.89 29.3618L124.515 34.6811C124.644 35.7782 123.859 36.7684 122.762 36.893L117.281 37.5149C116.184 37.6394 115.189 36.8511 115.06 35.7541L114.435 30.4347Z" fill="#9B826B"/>
<path d="M89.814 4.2095L88.1903 7.86509L88.1903 7.86509L89.814 4.2095ZM87.1506 5.21466L83.5165 3.5433L83.5165 3.54331L87.1506 5.21466ZM94.8316 6.43821L93.2078 10.0938L93.2078 10.0938L94.8316 6.43821ZM95.8237 9.06714L92.1896 7.39578L92.1896 7.39579L95.8237 9.06714ZM93.575 13.9566L97.209 15.628L97.209 15.628L93.575 13.9566ZM92.1253 15.0962L91.3442 11.1732L90.1829 11.4045L89.3345 12.2307L92.1253 15.0962ZM88.4741 18.6522L91.2649 21.5177L91.2649 21.5177L88.4741 18.6522ZM85.6212 18.6393L82.8046 21.4795L82.8046 21.4795L85.6212 18.6393ZM81.7618 14.8119L78.9452 17.6521L78.9452 17.6521L81.7618 14.8119ZM81.7745 12.0082L84.5653 14.8738L84.5653 14.8738L81.7745 12.0082ZM85.6694 8.21488L88.4602 11.0804L88.4603 11.0804L85.6694 8.21488ZM85.8385 8.06747L88.2957 11.2238L89.0652 10.6248L89.4726 9.73882L85.8385 8.06747ZM44.8192 4.35708L42.9003 7.86674L42.9003 7.86674L44.8192 4.35708ZM42.0791 5.13808L38.5982 3.16749L38.5982 3.1675L42.0791 5.13808ZM48.4439 6.33888L50.3628 2.82922L50.3628 2.82922L48.4439 6.33888ZM49.2134 9.0388L45.7325 7.06822L45.7325 7.06823L49.2134 9.0388ZM47.2148 12.5692L43.7339 10.5986L43.7339 10.5986L47.2148 12.5692ZM44.4747 13.3502L42.5558 16.8599L42.5558 16.8599L44.4747 13.3502ZM40.85 11.3684L38.9311 14.878L38.9311 14.8781L40.85 11.3684ZM40.0805 8.66846L43.5614 10.639L43.5614 10.639L40.0805 8.66846ZM94.8499 16.6817L94.0239 20.5955L94.0239 20.5955L94.8499 16.6817ZM92.466 18.2226L96.3738 19.0765L96.3738 19.0765L92.466 18.2226ZM100.242 17.8197L99.4158 21.7334L100.242 17.8197ZM101.772 20.1865L105.68 21.0405L105.68 21.0405L101.772 20.1865ZM100.627 25.424L104.535 26.278L104.535 26.2779L100.627 25.424ZM98.2434 26.9649L99.0694 23.0511L99.0694 23.0511L98.2434 26.9649ZM92.8515 25.827L92.0255 29.7407L92.0255 29.7407L92.8515 25.827ZM91.3216 23.4601L95.2293 24.314L95.2293 24.314L91.3216 23.4601ZM89.3263 59.1457L86.9108 62.334L90.4553 65.0195L92.7517 61.2113L89.3263 59.1457ZM92.4447 53.2105L96.0869 54.8642L96.0869 54.8642L92.4447 53.2105ZM94.4905 47.7455L98.3558 48.7751L98.3558 48.775L94.4905 47.7455ZM94.6111 47.2651L98.5056 48.1777L99.6906 43.1203L94.4984 43.2667L94.6111 47.2651ZM94.2029 47.2766L94.0902 43.2782L94.0893 43.2783L94.2029 47.2766ZM93.9426 47.284L94.0552 51.2824L94.0562 51.2824L93.9426 47.284ZM90.9478 47.3085L90.8516 51.3073L90.8516 51.3074L90.9478 47.3085ZM81.6127 44.8273L83.8144 41.4878L83.5282 41.2991L83.2141 41.1619L81.6127 44.8273ZM75.7482 39.6314L72.3123 41.6794L72.3133 41.6812L75.7482 39.6314ZM75.7445 39.6252L72.2984 41.6561L72.3035 41.6647L72.3085 41.6732L75.7445 39.6252ZM75.7408 39.6189L72.2941 41.6488L72.2947 41.6498L75.7408 39.6189ZM76.3618 28.169L79.8 30.2132L76.3618 28.169ZM78.9572 24.6811L81.939 27.3474L81.939 27.3474L78.9572 24.6811ZM79.9089 23.6637L77.038 20.8783L77.0372 20.8792L79.9089 23.6637ZM79.9893 23.5808L77.119 20.7949L77.1184 20.7955L79.9893 23.5808ZM80.0869 23.4802L77.2106 20.7004L77.2105 20.7005L80.0869 23.4802ZM80.1555 23.4087L83.0568 26.1623L83.179 26.0335L83.2894 25.8943L80.1555 23.4087ZM83.4047 22.8325L81.3426 26.26L81.3426 26.26L83.4047 22.8325ZM84.1598 23.5303L80.901 25.8499L82.0387 27.4482L83.9989 27.5271L84.1598 23.5303ZM85.9374 24.368L88.9161 21.6982L88.9161 21.6982L85.9374 24.368ZM85.7533 27.8883L88.4107 30.878L88.4186 30.871L85.7533 27.8883ZM85.7526 27.8889L83.0953 24.8991L83.0886 24.9051L83.0818 24.9111L85.7526 27.8889ZM85.7513 27.8901L88.4135 30.8755L88.4221 30.8678L85.7513 27.8901ZM85.7503 27.891L88.4032 30.8847L88.4126 30.8763L85.7503 27.891ZM85.7492 27.892L83.0963 24.8982L83.061 24.9295L83.0264 24.9617L85.7492 27.892ZM85.7465 27.8944L88.4443 30.8478L88.4568 30.8363L88.4693 30.8247L85.7465 27.8944ZM85.7336 27.9062L83.0359 24.9529L83.0268 24.9612L83.0177 24.9696L85.7336 27.9062ZM85.7019 27.9355L82.9861 24.9988L82.977 25.0073L85.7019 27.9355ZM85.5015 28.1274L82.7029 25.2694L82.7027 25.2696L85.5015 28.1274ZM84.7583 28.9042L81.7878 26.2254L81.7877 26.2254L84.7583 28.9042ZM82.7223 31.6349L79.2843 29.5904L79.2843 29.5904L82.7223 31.6349ZM82.005 38.1628L78.5554 40.1878L78.5636 40.2017L78.5718 40.2155L82.005 38.1628ZM84.0356 40.4352L81.6519 43.6474L82.0956 43.9766L82.6118 44.1733L84.0356 40.4352ZM89.082 41.2604L88.9858 45.2592L88.9858 45.2592L89.082 41.2604ZM91.8144 41.2364L91.9271 45.2349L91.9288 45.2348L91.8144 41.2364ZM92.0867 41.2287L92.2011 45.227L92.2092 45.2268L92.0867 41.2287ZM92.0871 41.2286L91.972 37.2303L91.9646 37.2305L92.0871 41.2286ZM94.3907 41.1972L94.4698 37.198L94.4697 37.198L94.3907 41.1972ZM96.888 41.5154L95.7467 45.3491L95.7468 45.3491L96.888 41.5154ZM98.6786 42.5264L95.8933 45.3973L96.6429 46.1246L97.6524 46.3925L98.6786 42.5264ZM98.842 42.5724L99.9833 38.7386L99.9832 38.7386L98.842 42.5724ZM101.407 44.6911L97.7569 46.3278L97.7569 46.3279L101.407 44.6911ZM101.78 47.4179L97.792 47.1151L97.792 47.1151L101.78 47.4179ZM101.285 50.1135L97.4195 49.0839L97.4195 49.0839L101.285 50.1135ZM98.9627 56.3511L95.3206 54.6974L95.3206 54.6974L98.9627 56.3511ZM95.0338 63.6763L91.6488 61.5452L89.7802 64.5133L92.4787 66.7538L95.0338 63.6763ZM99.0985 67.1593L101.748 64.1624L99.0985 67.1593ZM126.91 111.642L129.86 114.343L129.861 114.343L126.91 111.642ZM125.442 112.718L123.706 109.115L123.659 109.137L123.613 109.161L125.442 112.718ZM34.64 159.396L36.4687 162.954L34.64 159.396ZM12.5689 139.885L16.2802 141.377L12.5689 139.885ZM18.5795 124.933L22.2909 126.425L23.2339 124.079L21.5195 122.221L18.5795 124.933ZM11.2527 116.053L14.5129 113.735L14.4954 113.711L14.4775 113.686L11.2527 116.053ZM4.63717 101.429L0.671598 101.953L0.671603 101.953L4.63717 101.429ZM7.79104 87.8307L4.41166 85.6906L7.79104 87.8307ZM21.1166 75.4843L23.27 78.8552L21.1166 75.4843ZM24.5466 76.0995L27.9779 74.0437L27.9779 74.0437L24.5466 76.0995ZM24.7996 76.726L20.9041 77.6341L21.7042 81.0667L25.2103 80.7049L24.7996 76.726ZM27.1109 77.9552L30.7252 76.2415L30.7252 76.2415L27.1109 77.9552ZM25.8163 81.332L23.9362 77.8014L23.9362 77.8014L25.8163 81.332ZM13.1921 90.6705L16.2711 93.2239L16.2711 93.2239L13.1921 90.6705ZM9.87646 99.7513L13.8721 99.565L13.8721 99.565L9.87646 99.7513ZM14.2591 111.124L17.6143 108.946L17.6143 108.946L14.2591 111.124ZM15.4531 112.882L12.1896 115.195L12.2091 115.222L12.2291 115.249L15.4531 112.882ZM20.841 119.307L17.9162 122.036L22.2065 126.635L24.5524 120.799L20.841 119.307ZM50.2093 46.249L53.9206 47.7409L53.9446 47.6813L53.9667 47.6209L50.2093 46.249ZM51.1537 44.6733L48.2031 41.9726L51.1537 44.6733ZM140.123 38.3623L136.356 39.7071L137.207 42.0898L139.724 42.3423L140.123 38.3623ZM137.978 36.7104L137.642 40.6963L137.642 40.6963L137.978 36.7104ZM142.365 41.0446L146.353 41.3564L146.353 41.3563L142.365 41.0446ZM139.678 43.3421L139.366 47.3299L139.366 47.3299L139.678 43.3421ZM137.794 43.2507L137.87 39.2515L124.472 38.9984L135.539 46.5542L137.794 43.2507ZM145.107 48.7764L142.458 51.7734L145.107 48.7764ZM148.821 52.8801L152.201 50.7398L152.201 50.7397L148.821 52.8801ZM149.599 58.2725L153.262 59.8796L153.262 59.8796L149.599 58.2725ZM147.577 60.5956L149.939 63.8237L149.939 63.8237L147.577 60.5956ZM144.979 62.1177L146.753 65.7026L146.753 65.7026L144.979 62.1177ZM139.69 64.4114L141.197 68.1166L141.2 68.1153L139.69 64.4114ZM139.681 64.4152L138.173 60.71L138.169 60.712L139.681 64.4152ZM139.663 64.4226L141.173 68.1264L141.175 68.1259L139.663 64.4226ZM139.657 64.4248L138.147 60.7209L138.147 60.721L139.657 64.4248ZM138.734 64.802L137.216 61.1013L137.216 61.1013L138.734 64.802ZM133.199 67.3554L131.181 63.9018L131.181 63.9019L133.199 67.3554ZM131.823 68.3313L129.035 65.4635L126.601 67.8297L128.54 70.6159L131.823 68.3313ZM132.259 68.8395L129.416 71.6534L129.416 71.6534L132.259 68.8395ZM135.134 70.9497L137.187 67.5168L137.187 67.5167L135.134 70.9497ZM143.005 74.6528L141.586 78.3926L141.586 78.3926L143.005 74.6528ZM144.455 77.8772L140.716 76.4579L140.716 76.4579L144.455 77.8772ZM142.129 79.4908L142.111 75.4909L139.911 75.501L138.742 77.3634L142.129 79.4908ZM139.067 80.4724L137.552 84.1746L137.552 84.1746L139.067 80.4724ZM130.076 75.8569L132.243 72.4951L130.076 75.8569ZM126.026 72.639L123.117 75.3839L123.117 75.3839L126.026 72.639ZM123.977 67.999L119.985 67.7411L119.985 67.7411L123.977 67.999ZM125.473 64.8378L128.404 67.5593L128.404 67.5592L125.473 64.8378ZM127.999 62.8245L125.853 59.4486L125.853 59.4486L127.999 62.8245ZM134.454 59.5152L132.791 55.8769L132.791 55.877L134.454 59.5152ZM135.528 59.0257L137.184 62.667L137.196 62.6613L137.209 62.6556L135.528 59.0257ZM135.53 59.0251L133.874 55.3838L133.862 55.3895L133.849 55.3952L135.53 59.0251ZM140.689 56.5501L138.78 53.035L138.78 53.035L140.689 56.5501ZM142.667 55.3074L145.141 58.4508L145.141 58.4508L142.667 55.3074ZM143.124 54.8903L146.143 57.5146L147.388 56.0825L147.067 54.2124L143.124 54.8903ZM142.735 54.0902L139.4 56.2976L139.4 56.2977L142.735 54.0902ZM139.869 51.1482L137.302 54.2152L137.302 54.2152L139.869 51.1482ZM133.513 46.4744L130.953 49.5479L131.09 49.6618L131.236 49.7632L133.513 46.4744ZM133.513 46.4743L136.073 43.4009L135.936 43.2869L135.79 43.1855L133.513 46.4743ZM130.555 44.4003L128.219 47.6473L128.219 47.6473L130.555 44.4003ZM128.824 42.8241L131.958 40.3389L131.958 40.3388L128.824 42.8241ZM127.936 40.308L131.93 40.5086L131.93 40.5085L127.936 40.308ZM129.312 37.8195L126.93 34.6063L126.93 34.6063L129.312 37.8195ZM131.068 37.0116L130.015 33.1528L130.015 33.1528L131.068 37.0116ZM131.63 68.5519L131.581 64.5522L131.5 64.5532L131.419 64.5575L131.63 68.5519ZM131.631 68.5513L128.057 66.755L128.047 66.7733L128.038 66.7917L131.631 68.5513ZM131.635 68.5436L135.167 70.4209L128.277 66.3711L131.635 68.5436ZM143.128 54.9617L141.82 58.7417L141.824 58.7432L143.128 54.9617ZM143.13 54.9383L147.127 54.7922L139.212 54.1326L143.13 54.9383ZM115.756 47.6105L119.643 46.665L119.643 46.665L115.756 47.6105ZM117.231 45.2097L118.145 49.1037L118.145 49.1037L117.231 45.2097ZM117.024 52.8212L113.137 53.7667L113.137 53.7667L117.024 52.8212ZM119.444 54.3071L120.358 58.2011L120.358 58.2011L119.444 54.3071ZM124.807 53.0472L125.721 56.9411L125.721 56.9411L124.807 53.0472ZM126.281 50.6464L122.394 51.5918L122.394 51.5919L126.281 50.6464ZM125.013 45.4357L128.9 44.4902L128.9 44.4902L125.013 45.4357ZM122.594 43.9497L121.679 40.0558L121.679 40.0558L122.594 43.9497ZM46.4542 30.4358L50.4289 29.9867L50.4289 29.9867L46.4542 30.4358ZM48.2179 28.2315L47.784 24.2551L47.784 24.2551L48.2179 28.2315ZM47.0554 35.7577L43.0807 36.2067L43.0807 36.2067L47.0554 35.7577ZM49.2682 37.5281L49.702 41.5045L49.702 41.5045L49.2682 37.5281ZM54.7515 36.9298L55.1854 40.9062L55.1854 40.9062L54.7515 36.9298ZM56.5152 34.7255L52.5405 35.1745L56.5152 34.7255ZM55.9139 29.4036L51.9392 29.8526L51.9392 29.8526L55.9139 29.4036ZM53.7012 27.6331L53.2673 23.6567L53.2673 23.6567L53.7012 27.6331ZM20.3265 39.7301L24.3119 40.072L24.3119 40.072L20.3265 39.7301ZM22.4907 37.9026L22.821 33.9163L22.8209 33.9163L22.4907 37.9026ZM19.901 44.6908L15.9156 44.3489L19.901 44.6908ZM21.7232 46.8487L21.3929 50.835L21.3929 50.835L21.7232 46.8487ZM26.8399 47.2726L27.1702 43.2863L27.1701 43.2863L26.8399 47.2726ZM29.004 45.4451L25.0186 45.1032L25.0186 45.1032L29.004 45.4451ZM29.4295 40.4844L25.4442 40.1425L25.4442 40.1425L29.4295 40.4844ZM27.6073 38.3266L27.277 42.3129L27.277 42.3129L27.6073 38.3266ZM116.189 28.2229L115.738 24.2484L115.738 24.2484L116.189 28.2229ZM114.435 30.4347L110.463 30.9015L110.463 30.9015L114.435 30.4347ZM121.67 27.601L122.121 31.5754L122.121 31.5754L121.67 27.601ZM123.89 29.3618L127.863 28.895L127.863 28.895L123.89 29.3618ZM124.515 34.6811L128.488 34.2144L128.488 34.2144L124.515 34.6811ZM122.762 36.893L123.213 40.8675L123.213 40.8675L122.762 36.893ZM117.281 37.5149L117.732 41.4894L117.732 41.4894L117.281 37.5149ZM115.06 35.7541L111.088 36.2208L111.088 36.2209L115.06 35.7541ZM91.4378 0.553905C88.428 -0.783004 84.8926 0.551226 83.5165 3.5433L90.7847 6.88601C90.3316 7.87103 89.1811 8.30522 88.1903 7.86509L91.4378 0.553905ZM96.4553 2.78262L91.4378 0.553904L88.1903 7.86509L93.2078 10.0938L96.4553 2.78262ZM99.4578 10.7385C100.851 7.70938 99.5024 4.13608 96.4553 2.78261L93.2078 10.0938C92.1797 9.63713 91.7195 8.41785 92.1896 7.39578L99.4578 10.7385ZM97.209 15.628L99.4578 10.7385L92.1896 7.39579L89.9409 12.2853L97.209 15.628ZM92.9064 19.0192C94.7167 18.6588 96.3663 17.4605 97.209 15.628L89.9409 12.2853C90.2216 11.6748 90.7673 11.2881 91.3442 11.1732L92.9064 19.0192ZM91.2649 21.5177L94.9161 17.9618L89.3345 12.2307L85.6833 15.7866L91.2649 21.5177ZM82.8046 21.4795C85.1383 23.7937 88.9104 23.8108 91.2649 21.5177L85.6833 15.7866C86.4552 15.0349 87.6728 15.0404 88.4378 15.7991L82.8046 21.4795ZM78.9452 17.6521L82.8046 21.4795L88.4378 15.7991L84.5784 11.9717L78.9452 17.6521ZM78.9837 9.14264C76.5903 11.4736 76.573 15.2996 78.9452 17.6521L84.5784 11.9717C85.382 12.7687 85.3761 14.0841 84.5653 14.8738L78.9837 9.14264ZM82.8786 5.34932L78.9837 9.14265L84.5653 14.8738L88.4602 11.0804L82.8786 5.34932ZM83.3814 4.91116C83.2069 5.04702 83.0389 5.19318 82.8786 5.34935L88.4603 11.0804C88.4083 11.131 88.3533 11.1789 88.2957 11.2238L83.3814 4.91116ZM83.5165 3.54331L82.2044 6.39612L89.4726 9.73882L90.7847 6.886L83.5165 3.54331ZM46.7381 0.847419C43.8509 -0.731225 40.2193 0.303875 38.5982 3.16749L45.56 7.10866C45.0272 8.04982 43.8492 8.38558 42.9003 7.86674L46.7381 0.847419ZM50.3628 2.82922L46.7381 0.847415L42.9003 7.86674L46.5249 9.84854L50.3628 2.82922ZM52.6943 11.0094C54.3382 8.10558 53.2906 4.43 50.3628 2.82922L46.5249 9.84854C45.5355 9.30755 45.1769 8.04957 45.7325 7.06822L52.6943 11.0094ZM50.6957 14.5398L52.6943 11.0094L45.7325 7.06823L43.7339 10.5986L50.6957 14.5398ZM42.5558 16.8599C45.4431 18.4385 49.0746 17.4034 50.6957 14.5398L43.7339 10.5986C44.2667 9.65743 45.4447 9.32169 46.3936 9.84052L42.5558 16.8599ZM38.9311 14.8781L42.5558 16.8599L46.3936 9.84053L42.769 7.85873L38.9311 14.8781ZM36.5996 6.69788C34.9557 9.60169 36.0033 13.2773 38.9311 14.878L42.769 7.85873C43.7584 8.39972 44.117 9.6577 43.5614 10.639L36.5996 6.69788ZM38.5982 3.1675L36.5996 6.69788L43.5614 10.639L45.56 7.10865L38.5982 3.1675ZM95.6759 12.7679C92.4445 12.0859 89.2633 14.1422 88.5582 17.3687L96.3738 19.0765C96.1404 20.1447 95.0937 20.8213 94.0239 20.5955L95.6759 12.7679ZM101.068 13.9059L95.6759 12.7679L94.0239 20.5955L99.4158 21.7334L101.068 13.9059ZM105.68 21.0405C106.389 17.7922 104.321 14.5924 101.068 13.9059L99.4158 21.7334C98.3241 21.503 97.6258 20.4226 97.8639 19.3326L105.68 21.0405ZM104.535 26.2779L105.68 21.0405L97.8639 19.3326L96.7195 24.5701L104.535 26.2779ZM97.4174 30.8787C100.649 31.5607 103.83 29.5043 104.535 26.278L96.7195 24.5701C96.9529 23.5019 97.9995 22.8253 99.0694 23.0511L97.4174 30.8787ZM92.0255 29.7407L97.4174 30.8787L99.0694 23.0511L93.6775 21.9132L92.0255 29.7407ZM87.4138 22.6061C86.7039 25.8544 88.7723 29.0542 92.0255 29.7407L93.6775 21.9132C94.7691 22.1436 95.4675 23.224 95.2293 24.314L87.4138 22.6061ZM88.5582 17.3687L87.4138 22.6061L95.2293 24.314L96.3738 19.0765L88.5582 17.3687ZM92.7517 61.2113C93.9498 59.2246 95.1049 57.0268 96.0869 54.8642L88.8026 51.5567C87.9464 53.4424 86.9353 55.3647 85.9009 57.0801L92.7517 61.2113ZM96.0869 54.8642C97.0685 52.7023 97.8758 50.5772 98.3558 48.7751L90.6253 46.716C90.297 47.9485 89.674 49.6376 88.8026 51.5568L96.0869 54.8642ZM98.3558 48.775C98.4102 48.5707 98.4602 48.3715 98.5056 48.1777L90.7166 46.3526C90.6906 46.4632 90.6604 46.5843 90.6253 46.716L98.3558 48.775ZM94.4984 43.2667L94.0902 43.2782L94.3156 51.275L94.7238 51.2635L94.4984 43.2667ZM94.0893 43.2783L93.8289 43.2857L94.0562 51.2824L94.3166 51.275L94.0893 43.2783ZM93.8299 43.2856C92.933 43.3109 92 43.3327 91.0441 43.3097L90.8516 51.3074C92.0344 51.3358 93.1493 51.308 94.0552 51.2824L93.8299 43.2856ZM91.0441 43.3097C88.4555 43.2473 85.8752 42.8464 83.8144 41.4878L79.4109 48.1668C83.3633 50.7726 87.7784 51.2334 90.8516 51.3073L91.0441 43.3097ZM83.2141 41.1619C81.6923 40.497 80.2849 39.4279 79.1831 37.5816L72.3133 41.6812C74.356 45.104 77.1204 47.2297 80.0112 48.4927L83.2141 41.1619ZM79.1841 37.5834L79.1804 37.5771L72.3085 41.6732L72.3123 41.6794L79.1841 37.5834ZM79.1905 37.5942L79.1868 37.5879L72.2947 41.6498L72.2984 41.6561L79.1905 37.5942ZM79.1874 37.589C77.7424 35.1354 78.4146 32.5434 79.8 30.2132L72.9235 26.1249C70.9743 29.4034 68.6312 35.4293 72.2941 41.6488L79.1874 37.589ZM79.8 30.2132C80.4771 29.0743 81.2779 28.0868 81.939 27.3474L75.9754 22.0149C75.1168 22.9751 73.9565 24.3874 72.9235 26.1249L79.8 30.2132ZM81.939 27.3474C82.268 26.9795 82.5581 26.6776 82.7807 26.4481L77.0372 20.8792C76.7898 21.1344 76.4119 21.5267 75.9754 22.0149L81.939 27.3474ZM82.7798 26.449L82.8602 26.3662L77.1184 20.7955L77.038 20.8783L82.7798 26.449ZM82.8596 26.3668C82.8963 26.3289 82.9318 26.2924 82.9633 26.2598L77.2105 20.7005C77.1865 20.7254 77.1579 20.7548 77.119 20.7949L82.8596 26.3668ZM82.9632 26.2599C82.9933 26.2288 83.0251 26.1957 83.0568 26.1623L77.2541 20.6551C77.2462 20.6635 77.2331 20.6771 77.2106 20.7004L82.9632 26.2599ZM83.2894 25.8943C82.8091 26.4999 81.9753 26.6407 81.3426 26.26L85.4668 19.405C82.648 17.7091 79.0352 18.3842 77.0215 20.923L83.2894 25.8943ZM81.3426 26.26C81.1703 26.1563 81.019 26.0156 80.901 25.8499L87.4186 21.2108C86.9108 20.4974 86.2527 19.8779 85.4668 19.405L81.3426 26.26ZM83.9989 27.5271C83.6186 27.5118 83.2345 27.3453 82.9588 27.0378L88.9161 21.6982C87.6925 20.3331 86.0143 19.6018 84.3208 19.5336L83.9989 27.5271ZM82.9588 27.0377C82.4212 26.4379 82.4464 25.479 83.088 24.9057L88.4186 30.871C91.1091 28.4667 91.3 24.3579 88.9161 21.6982L82.9588 27.0377ZM83.0959 24.8986L83.0953 24.8991L88.41 30.8786L88.4106 30.878L83.0959 24.8986ZM83.0818 24.9111L83.0805 24.9124L88.4221 30.8678L88.4234 30.8666L83.0818 24.9111ZM83.089 24.9047L83.0881 24.9056L88.4126 30.8763L88.4135 30.8755L83.089 24.9047ZM83.0975 24.8972L83.0963 24.8982L88.402 30.8857L88.4031 30.8847L83.0975 24.8972ZM83.0264 24.9617L83.0238 24.9641L88.4693 30.8247L88.4719 30.8223L83.0264 24.9617ZM83.0488 24.9411L83.0359 24.9529L88.4313 30.8596L88.4443 30.8478L83.0488 24.9411ZM83.0177 24.9696L82.9861 24.9988L88.4178 30.8722L88.4495 30.8429L83.0177 24.9696ZM82.977 25.0073C82.9106 25.0691 82.8176 25.1571 82.7029 25.2694L88.3001 30.9853C88.3637 30.923 88.4074 30.8819 88.4269 30.8637L82.977 25.0073ZM82.7027 25.2696C82.4734 25.4942 82.1552 25.818 81.7878 26.2254L87.7288 31.583C87.9708 31.3146 88.1723 31.1104 88.3003 30.9851L82.7027 25.2696ZM81.7877 26.2254C81.0568 27.0359 80.1117 28.1991 79.2843 29.5904L86.1603 33.6794C86.6391 32.8743 87.2284 32.1379 87.7289 31.5829L81.7877 26.2254ZM79.2843 29.5904C77.6484 32.3413 76.291 36.3304 78.5554 40.1878L85.4545 36.1378C85.3898 36.0275 85.3364 35.8976 85.3813 35.5741C85.4365 35.1765 85.643 34.5493 86.1603 33.6794L79.2843 29.5904ZM78.5718 40.2155C79.4046 41.6084 80.4413 42.7491 81.6519 43.6474L86.4192 37.223C86.0769 36.969 85.7455 36.6242 85.4381 36.1101L78.5718 40.2155ZM82.6118 44.1733C84.7302 44.9801 86.9641 45.2105 88.9858 45.2592L89.1783 37.2615C87.5492 37.2223 86.3528 37.0375 85.4593 36.6972L82.6118 44.1733ZM88.9858 45.2592C90.0262 45.2843 91.027 45.2602 91.9271 45.2349L91.7018 37.238C90.8096 37.2632 89.9914 37.2811 89.1783 37.2615L88.9858 45.2592ZM91.9288 45.2348L92.2011 45.227L91.9723 37.2303L91.7001 37.2381L91.9288 45.2348ZM92.2092 45.2268L92.2096 45.2268L91.9646 37.2305L91.9642 37.2305L92.2092 45.2268ZM92.2021 45.227C93.0085 45.2038 93.7088 45.1845 94.3117 45.1964L94.4697 37.198C93.6357 37.1815 92.7313 37.2084 91.972 37.2303L92.2021 45.227ZM94.3116 45.1964C95.0037 45.2101 95.4628 45.2646 95.7467 45.3491L98.0293 37.6816C96.6746 37.2783 95.3302 37.215 94.4698 37.198L94.3116 45.1964ZM95.7468 45.3491C95.8168 45.37 95.8688 45.3921 95.9008 45.4091C95.9311 45.4252 95.9219 45.4251 95.8933 45.3973L101.464 39.6555C100.284 38.5108 98.9547 37.9571 98.0293 37.6816L95.7468 45.3491ZM97.6524 46.3925C97.6703 46.3973 97.6864 46.4018 97.7008 46.4061L99.9832 38.7386C99.8893 38.7106 99.7964 38.6846 99.7048 38.6603L97.6524 46.3925ZM97.7007 46.4061C97.7528 46.4216 97.7966 46.4383 97.8303 46.4539C97.8637 46.4695 97.876 46.4787 97.8727 46.4763C97.8678 46.4728 97.8461 46.4561 97.8186 46.4234C97.8051 46.4075 97.7924 46.3901 97.781 46.3721C97.7696 46.3541 97.7617 46.3387 97.7569 46.3278L105.056 43.0543C103.798 40.2471 101.367 39.1507 99.9833 38.7386L97.7007 46.4061ZM97.7569 46.3279C97.7523 46.3176 97.7778 46.3715 97.7938 46.5251C97.8099 46.6794 97.8103 46.8741 97.792 47.1151L105.769 47.7207C105.846 46.7087 105.881 44.8939 105.056 43.0542L97.7569 46.3279ZM97.792 47.1151C97.753 47.628 97.631 48.2898 97.4195 49.0839L105.15 51.143C105.435 50.0734 105.68 48.8954 105.769 47.7207L97.792 47.1151ZM97.4195 49.0839C96.9972 50.6692 96.2601 52.6282 95.3206 54.6974L102.605 58.0049C103.655 55.6926 104.576 53.2976 105.15 51.143L97.4195 49.0839ZM95.3206 54.6974C94.2806 56.9877 92.9951 59.4067 91.6488 61.5452L98.4189 65.8073C99.9737 63.3376 101.428 60.5967 102.605 58.0048L95.3206 54.6974ZM101.748 64.1624C100.363 62.9381 98.975 61.7495 97.589 60.5987L92.4787 66.7538C93.801 67.8517 95.126 68.9865 96.4492 70.1562L101.748 64.1624ZM129.861 114.343C132.594 111.356 132.567 107.286 131.744 103.808C130.89 100.201 128.955 96.1432 126.326 91.9371C121.036 83.477 112.411 73.5885 101.748 64.1624L96.4492 70.1562C106.706 79.2229 114.766 88.5387 119.542 96.1781C121.945 100.022 123.388 103.238 123.959 105.651C124.561 108.194 124.006 108.89 123.959 108.941L129.861 114.343ZM127.177 116.322C128.17 115.844 129.084 115.191 129.86 114.343L123.959 108.941C123.923 108.981 123.854 109.043 123.706 109.115L127.177 116.322ZM36.4687 162.954L127.271 116.276L123.613 109.161L32.8112 155.839L36.4687 162.954ZM14.0497 160.182C20.2112 165.629 29.1438 166.719 36.4687 162.954L32.8112 155.839C28.3955 158.109 23.0218 157.436 19.3482 154.189L14.0497 160.182ZM8.85751 138.394C5.78727 146.031 7.87401 154.723 14.0497 160.182L19.3482 154.189C15.6889 150.954 14.4822 145.85 16.2802 141.377L8.85751 138.394ZM14.8682 123.441L8.85751 138.394L16.2802 141.377L22.2909 126.425L14.8682 123.441ZM7.99255 118.371C10.1292 121.376 12.7029 124.462 15.6395 127.645L21.5195 122.221C18.74 119.208 16.3994 116.389 14.5129 113.735L7.99255 118.371ZM0.671603 101.953C1.42932 107.691 4.18102 113.178 8.02796 118.42L14.4775 113.686C11.0748 109.05 9.12017 104.824 8.60274 100.906L0.671603 101.953ZM4.41166 85.6906C1.13283 90.8683 -0.0668838 96.3608 0.671598 101.953L8.60274 100.906C8.11941 97.2455 8.85392 93.6287 11.1704 89.9707L4.41166 85.6906ZM18.9632 72.1134C12.5508 76.2098 7.59151 80.6693 4.41166 85.6906L11.1704 89.9707C13.5046 86.2848 17.4307 82.5854 23.27 78.8552L18.9632 72.1134ZM27.9779 74.0437C25.9418 70.6454 21.7297 70.3462 18.9632 72.1134L23.27 78.8552C23.0601 78.9893 22.7328 79.0877 22.3322 79.0158C21.9177 78.9415 21.4249 78.672 21.1154 78.1553L27.9779 74.0437ZM28.6952 75.8179C28.5528 75.2074 28.3158 74.6077 27.9779 74.0437L21.1153 78.1553C21.0145 77.987 20.9449 77.8093 20.9041 77.6341L28.6952 75.8179ZM30.7252 76.2415C29.4917 73.6402 26.8232 72.4959 24.389 72.7471L25.2103 80.7049C24.7168 80.7558 23.8982 80.5159 23.4967 79.669L30.7252 76.2415ZM27.6964 84.8626C30.5477 83.3443 32.3466 79.6609 30.7252 76.2415L23.4967 79.669C23.2522 79.1536 23.3113 78.6801 23.4182 78.4011C23.5245 78.1238 23.7125 77.9205 23.9362 77.8014L27.6964 84.8626ZM16.2711 93.2239C18.3204 90.7527 21.8937 87.9526 27.6964 84.8626L23.9362 77.8014C17.6848 81.1303 13.0985 84.5171 10.1131 88.1171L16.2711 93.2239ZM13.8721 99.565C13.776 97.5044 14.3722 95.5137 16.2711 93.2239L10.1131 88.1171C7.11269 91.7351 5.68011 95.6338 5.88079 99.9376L13.8721 99.565ZM17.6143 108.946C14.9965 104.913 13.9797 101.872 13.8721 99.565L5.8808 99.9376C6.07981 104.206 7.87587 108.637 10.9039 113.302L17.6143 108.946ZM18.7166 110.569C18.3249 110.016 17.9576 109.475 17.6143 108.946L10.9039 113.302C11.3105 113.928 11.7393 114.559 12.1896 115.195L18.7166 110.569ZM23.7659 116.579C21.7816 114.452 20.0863 112.433 18.6772 110.514L12.2291 115.249C13.8603 117.471 15.7659 119.731 17.9162 122.036L23.7659 116.579ZM46.4979 44.7571L17.1297 117.815L24.5524 120.799L53.9206 47.7409L46.4979 44.7571ZM48.2031 41.9726C47.4133 42.8354 46.837 43.8224 46.4519 44.8771L53.9667 47.6209C54.0178 47.4808 54.0685 47.4131 54.1044 47.3739L48.2031 41.9726ZM91.7419 55.9574C82.83 49.2054 74.1276 44.0775 66.8878 41.293C63.2859 39.9077 59.8313 39.0181 56.7786 38.914C53.7694 38.8114 50.4944 39.4692 48.2031 41.9726L54.1044 47.3739C54.159 47.3142 54.6461 46.8459 56.5059 46.9094C58.3223 46.9713 60.8439 47.5398 64.0161 48.7598C70.3245 51.1861 78.3625 55.8574 86.9108 62.334L91.7419 55.9574ZM143.891 37.0175C143.063 34.7005 140.941 32.946 138.314 32.7246L137.642 40.6963C137.031 40.6448 136.545 40.2348 136.356 39.7071L143.891 37.0175ZM146.353 41.3563C146.629 37.8254 144.03 34.7342 140.523 34.3823L139.724 42.3423C138.913 42.261 138.314 41.548 138.377 40.7328L146.353 41.3563ZM139.366 47.3299C142.945 47.6097 146.073 44.9353 146.353 41.3564L138.377 40.7328C138.442 39.9069 139.164 39.2897 139.99 39.3543L139.366 47.3299ZM137.719 47.25C138.267 47.2604 138.832 47.2882 139.366 47.3299L139.99 39.3543C139.301 39.3004 138.578 39.2648 137.87 39.2515L137.719 47.25ZM147.756 45.7794C145.37 43.6702 142.498 41.6186 140.05 39.9472L135.539 46.5542C137.929 48.1862 140.461 50.0087 142.458 51.7734L147.756 45.7794ZM152.201 50.7397C150.998 48.8414 149.305 47.1483 147.756 45.7794L142.458 51.7734C143.805 52.9645 144.84 54.0691 145.442 55.0204L152.201 50.7397ZM153.262 59.8796C154.985 55.9543 153.266 52.4225 152.201 50.7398L145.442 55.0204C145.72 55.4588 145.891 55.8516 145.958 56.1611C146.014 56.421 145.987 56.5508 145.936 56.6654L153.262 59.8796ZM149.939 63.8237C150.836 63.1674 152.376 61.8999 153.262 59.8796L145.936 56.6654C145.929 56.6815 145.889 56.7623 145.758 56.9022C145.626 57.0436 145.447 57.1976 145.215 57.3676L149.939 63.8237ZM146.753 65.7026C147.774 65.1971 148.913 64.5743 149.939 63.8237L145.215 57.3676C144.721 57.7289 144.044 58.1174 143.204 58.5328L146.753 65.7026ZM141.2 68.1153C142.982 67.389 145.026 66.5574 146.753 65.7026L143.204 58.5328C141.789 59.2334 140.034 59.9514 138.18 60.7076L141.2 68.1153ZM141.188 68.1204L141.197 68.1166L138.183 60.7063L138.173 60.7101L141.188 68.1204ZM141.175 68.1259L141.193 68.1185L138.169 60.712L138.151 60.7194L141.175 68.1259ZM141.168 68.1286L141.173 68.1264L138.152 60.7188L138.147 60.7209L141.168 68.1286ZM140.252 68.5028C140.552 68.3799 140.856 68.2556 141.168 68.1285L138.147 60.721C137.837 60.8475 137.524 60.9748 137.216 61.1013L140.252 68.5028ZM135.217 70.809C136.353 70.1449 138.046 69.4076 140.252 68.5028L137.216 61.1013C135.082 61.9768 132.875 62.9115 131.181 63.9018L135.217 70.809ZM134.612 71.1992C134.563 71.2467 134.575 71.2272 134.689 71.1452C134.797 71.0677 134.968 70.9545 135.217 70.8089L131.181 63.9019C130.369 64.376 129.621 64.8936 129.035 65.4635L134.612 71.1992ZM135.102 66.0257C135.061 65.9846 135.045 65.9654 135.048 65.9683C135.05 65.9713 135.072 65.9974 135.106 66.0467L128.54 70.6159C128.773 70.9512 129.062 71.2952 129.416 71.6534L135.102 66.0257ZM137.187 67.5167C136.048 66.8355 135.387 66.314 135.102 66.0257L129.416 71.6534C130.384 72.6316 131.695 73.5542 133.081 74.3827L137.187 67.5167ZM144.424 70.913C142.299 70.1066 139.408 68.8448 137.187 67.5168L133.081 74.3827C135.867 76.0486 139.241 77.5027 141.586 78.3926L144.424 70.913ZM148.195 79.2964C149.469 75.9401 147.781 72.1867 144.424 70.913L141.586 78.3926C140.811 78.0986 140.422 77.2325 140.716 76.4579L148.195 79.2964ZM142.147 83.4908C144.751 83.4788 147.211 81.8896 148.195 79.2964L140.716 76.4579C140.944 75.855 141.515 75.4936 142.111 75.4909L142.147 83.4908ZM137.552 84.1746C140.524 85.3903 143.866 84.2462 145.516 81.6182L138.742 77.3634C139.124 76.7551 139.892 76.4884 140.581 76.7702L137.552 84.1746ZM127.908 79.2187C131.185 81.3316 135.013 83.1359 137.552 84.1746L140.581 76.7702C138.332 75.85 134.979 74.2593 132.243 72.4951L127.908 79.2187ZM123.117 75.3839C124.532 76.884 126.293 78.1773 127.908 79.2187L132.243 72.4951C130.87 71.6098 129.716 70.7211 128.936 69.8942L123.117 75.3839ZM119.985 67.7411C119.746 71.4439 121.939 74.1355 123.117 75.3839L128.936 69.8942C128.576 69.5123 128.301 69.1495 128.133 68.8226C127.975 68.5151 127.963 68.3441 127.968 68.2568L119.985 67.7411ZM122.541 62.1164C121.553 63.1806 120.157 65.0797 119.985 67.7411L127.968 68.2569C127.97 68.2289 127.979 68.1658 128.042 68.0457C128.111 67.9142 128.227 67.7495 128.404 67.5593L122.541 62.1164ZM125.853 59.4486C124.799 60.1189 123.578 60.9989 122.541 62.1164L128.404 67.5592C128.779 67.1549 129.359 66.6996 130.145 66.2004L125.853 59.4486ZM132.791 55.877C130.581 56.8869 127.961 58.1092 125.853 59.4486L130.144 66.2004C131.717 65.2008 133.846 64.1906 136.116 63.1533L132.791 55.877ZM133.873 55.3843C133.519 55.5452 133.157 55.7098 132.791 55.8769L136.116 63.1534C136.474 62.9898 136.829 62.8283 137.184 62.667L133.873 55.3843ZM133.849 55.3952L133.848 55.3958L137.209 62.6556L137.21 62.6551L133.849 55.3952ZM138.78 53.035C137.469 53.7471 135.827 54.496 133.874 55.3838L137.185 62.6664C139.059 61.8143 140.986 60.9407 142.598 60.0652L138.78 53.035ZM140.193 52.1641C139.99 52.3239 139.554 52.6145 138.78 53.035L142.598 60.0652C143.545 59.5507 144.427 59.0124 145.141 58.4508L140.193 52.1641ZM140.106 52.2659C140.161 52.2024 140.203 52.16 140.226 52.139C140.246 52.1201 140.238 52.129 140.193 52.1641L145.141 58.4508C145.586 58.1005 145.905 57.7883 146.143 57.5146L140.106 52.2659ZM139.4 56.2977C139.448 56.371 139.426 56.3495 139.379 56.2425C139.333 56.1411 139.241 55.9092 139.182 55.5681L147.067 54.2124C146.919 53.3519 146.529 52.5753 146.071 51.8827L139.4 56.2977ZM137.302 54.2152C138.573 55.2793 139.186 55.9742 139.4 56.2976L146.071 51.8827C145.211 50.5827 143.887 49.2953 142.437 48.0811L137.302 54.2152ZM131.236 49.7632C133.486 51.321 135.582 52.7755 137.302 54.2152L142.437 48.0811C140.383 46.3615 137.967 44.6928 135.79 43.1856L131.236 49.7632ZM130.953 49.5477L130.953 49.5479L136.073 43.401L136.073 43.4009L130.953 49.5477ZM128.219 47.6473C129.205 48.3568 130.234 49.0694 131.236 49.7631L135.79 43.1855C134.776 42.4838 133.808 41.813 132.891 41.1533L128.219 47.6473ZM125.69 45.3093C126.466 46.2883 127.398 47.0567 128.219 47.6473L132.891 41.1533C132.373 40.7806 132.093 40.5087 131.958 40.3389L125.69 45.3093ZM123.941 40.1075C123.816 42.5889 124.969 44.3998 125.69 45.3093L131.958 40.3388C131.932 40.3051 131.913 40.2781 131.901 40.2588C131.889 40.2394 131.888 40.2349 131.893 40.246C131.898 40.258 131.91 40.2893 131.919 40.3379C131.928 40.3883 131.934 40.4472 131.93 40.5086L123.941 40.1075ZM126.93 34.6063C125.689 35.5263 124.08 37.3376 123.941 40.1075L131.93 40.5085C131.927 40.5708 131.915 40.645 131.889 40.7224C131.865 40.7978 131.833 40.8596 131.804 40.9058C131.752 40.9886 131.71 41.0214 131.694 41.0327L126.93 34.6063ZM130.015 33.1528C129.271 33.3559 128.078 33.7549 126.93 34.6063L131.694 41.0327C131.69 41.0362 131.719 41.014 131.801 40.9787C131.882 40.9435 131.987 40.9071 132.122 40.8704L130.015 33.1528ZM138.314 32.7246C136.363 32.5602 132.757 32.4043 130.015 33.1528L132.122 40.8704C133.379 40.5272 135.735 40.5356 137.642 40.6963L138.314 32.7246ZM131.419 64.5575C132.157 64.5184 133.107 64.6809 133.981 65.3155C134.817 65.9229 135.22 66.6993 135.407 67.2328C135.726 68.1478 135.616 68.9222 135.597 69.0633C135.538 69.5278 135.405 69.8761 135.389 69.921C135.314 70.1257 135.238 70.2789 135.223 70.311L128.038 66.7917C128.022 66.8241 127.947 66.9776 127.872 67.1825C127.856 67.2275 127.723 67.5759 127.663 68.0404C127.645 68.1815 127.534 68.956 127.854 69.871C128.04 70.4044 128.443 71.1809 129.28 71.7883C130.153 72.4229 131.103 72.5854 131.842 72.5463L131.419 64.5575ZM128.103 66.6663C128.126 66.6235 128.16 66.5618 128.204 66.4885C128.222 66.4582 128.265 66.3878 128.324 66.3009C128.346 66.268 128.418 66.163 128.52 66.0365C128.562 65.9851 128.687 65.8314 128.87 65.6566C128.956 65.5746 129.151 65.3955 129.43 65.2115C129.573 65.117 129.805 64.9772 130.112 64.8514C130.402 64.7322 130.916 64.5603 131.581 64.5522L131.679 72.5516C132.875 72.537 133.685 71.988 133.831 71.8923C134.11 71.7083 134.304 71.5292 134.39 71.4471C134.574 71.2723 134.699 71.1185 134.741 71.067C134.843 70.9403 134.915 70.8351 134.938 70.8019C134.997 70.7142 135.041 70.6428 135.06 70.6112C135.105 70.5351 135.142 70.4693 135.167 70.4209L128.103 66.6663ZM135.205 70.3476C135.166 70.4233 135.134 70.4819 135.117 70.5117C135.097 70.5468 135.08 70.5767 135.066 70.5997C135.039 70.6459 135.014 70.685 134.994 70.716L128.277 66.3711C128.258 66.3996 128.159 66.5516 128.057 66.755L135.205 70.3476ZM144.436 51.1817C145.649 51.6014 146.269 52.451 146.494 52.8005C146.754 53.2051 146.881 53.5662 146.939 53.7463C147.058 54.1195 147.093 54.4253 147.106 54.5438C147.135 54.825 147.128 55.048 147.123 55.1532C147.11 55.3988 147.077 55.6009 147.048 55.744L139.212 54.1326C139.179 54.2907 139.145 54.5044 139.132 54.7578C139.127 54.8669 139.12 55.0929 139.149 55.3763C139.162 55.4958 139.198 55.8024 139.317 56.1761C139.374 56.3566 139.502 56.7179 139.762 57.1226C139.986 57.4723 140.607 58.322 141.82 58.7417L144.436 51.1817ZM139.133 55.0843C139.128 54.9646 139.126 54.7661 139.153 54.5204C139.164 54.4255 139.194 54.1655 139.288 53.8441C139.321 53.7311 139.444 53.3047 139.745 52.8284C139.885 52.6052 140.248 52.0715 140.921 51.626C141.721 51.0961 143.011 50.6903 144.432 51.1803L141.824 58.7432C143.245 59.2332 144.535 58.8273 145.336 58.2974C146.009 57.8518 146.371 57.318 146.512 57.0945C146.813 56.6178 146.937 56.1907 146.97 56.0768C147.064 55.7537 147.095 55.4908 147.106 55.3921C147.133 55.1386 147.132 54.9282 147.127 54.7922L139.133 55.0843ZM119.643 46.665C119.907 47.7502 119.233 48.8483 118.145 49.1037L116.316 41.3157C113.078 42.0764 111.084 45.3242 111.87 48.5559L119.643 46.665ZM120.911 51.8758L119.643 46.665L111.87 48.5559L113.137 53.7667L120.911 51.8758ZM118.529 50.4132C119.592 50.1633 120.652 50.8145 120.911 51.8758L113.137 53.7667C113.918 56.9746 117.144 58.9562 120.358 58.2011L118.529 50.4132ZM123.892 49.1532L118.529 50.4132L120.358 58.2011L125.721 56.9411L123.892 49.1532ZM122.394 51.5919C122.13 50.5066 122.805 49.4086 123.892 49.1532L125.721 56.9411C128.959 56.1804 130.954 52.9328 130.168 49.701L122.394 51.5919ZM121.127 46.3811L122.394 51.5918L130.168 49.701L128.9 44.4902L121.127 46.3811ZM123.508 47.8437C122.445 48.0935 121.385 47.4424 121.127 46.3811L128.9 44.4902C128.12 41.2823 124.893 39.3007 121.679 40.0558L123.508 47.8437ZM118.145 49.1037L123.508 47.8437L121.679 40.0558L116.316 41.3157L118.145 49.1037ZM50.4289 29.9867C50.5536 31.0902 49.7557 32.0874 48.6517 32.2079L47.784 24.2551C44.4839 24.6151 42.1068 27.5861 42.4795 30.8848L50.4289 29.9867ZM51.0301 35.3086L50.4289 29.9867L42.4795 30.8848L43.0807 36.2067L51.0301 35.3086ZM48.8343 33.5517C49.9264 33.4325 50.9068 34.217 51.0301 35.3086L43.0807 36.2067C43.4521 39.4936 46.4138 41.8633 49.702 41.5045L48.8343 33.5517ZM54.3176 32.9534L48.8343 33.5517L49.702 41.5045L55.1854 40.9062L54.3176 32.9534ZM52.5405 35.1745C52.4158 34.071 53.2136 33.0738 54.3176 32.9534L55.1854 40.9062C58.4855 40.5461 60.8626 37.5751 60.4899 34.2764L52.5405 35.1745ZM51.9392 29.8526L52.5405 35.1745L60.4899 34.2764L59.8886 28.9545L51.9392 29.8526ZM54.1351 31.6095C53.043 31.7287 52.0625 30.9443 51.9392 29.8526L59.8886 28.9545C59.5173 25.6677 56.5555 23.298 53.2673 23.6567L54.1351 31.6095ZM48.6517 32.2079L54.1351 31.6095L53.2673 23.6567L47.784 24.2551L48.6517 32.2079ZM24.3119 40.072C24.2179 41.168 23.2566 41.9798 22.1604 41.8889L22.8209 33.9163C19.5231 33.643 16.624 36.0912 16.3412 39.3882L24.3119 40.072ZM23.8863 45.0327L24.3119 40.072L16.3412 39.3882L15.9156 44.3489L23.8863 45.0327ZM22.0535 42.8623C23.1588 42.9539 23.9811 43.9277 23.8863 45.0327L15.9156 44.3489C15.632 47.6551 18.086 50.561 21.3929 50.835L22.0535 42.8623ZM27.1701 43.2863L22.0535 42.8623L21.3929 50.835L26.5096 51.259L27.1701 43.2863ZM25.0186 45.1032C25.1126 44.0072 26.0739 43.1954 27.1702 43.2863L26.5096 51.259C29.8074 51.5322 32.7065 49.084 32.9893 45.787L25.0186 45.1032ZM25.4442 40.1425L25.0186 45.1032L32.9893 45.787L33.4149 40.8263L25.4442 40.1425ZM27.277 42.3129C26.1717 42.2213 25.3494 41.2475 25.4442 40.1425L33.4149 40.8263C33.6985 37.5202 31.2446 34.6142 27.9376 34.3402L27.277 42.3129ZM22.1604 41.8889L27.277 42.3129L27.9376 34.3402L22.821 33.9163L22.1604 41.8889ZM115.738 24.2484C112.44 24.6227 110.075 27.6043 110.463 30.9015L118.408 29.968C118.538 31.0711 117.744 32.0721 116.64 32.1974L115.738 24.2484ZM121.219 23.6265L115.738 24.2484L116.64 32.1974L122.121 31.5754L121.219 23.6265ZM127.863 28.895C127.477 25.6101 124.505 23.2535 121.219 23.6265L122.121 31.5754C121.029 31.6993 120.046 30.9194 119.918 29.8286L127.863 28.895ZM128.488 34.2144L127.863 28.895L119.918 29.8286L120.543 35.1479L128.488 34.2144ZM123.213 40.8675C126.511 40.4931 128.876 37.5116 128.488 34.2144L120.543 35.1479C120.413 34.0447 121.207 33.0437 122.311 32.9185L123.213 40.8675ZM117.732 41.4894L123.213 40.8675L122.311 32.9185L116.83 33.5404L117.732 41.4894ZM111.088 36.2209C111.474 39.5058 114.446 41.8623 117.732 41.4894L116.83 33.5404C117.921 33.4166 118.905 34.1964 119.033 35.2873L111.088 36.2209ZM110.463 30.9015L111.088 36.2208L119.033 35.2873L118.408 29.968L110.463 30.9015Z" fill="white" mask="url(#path-1-outside-1_1066_17135)"/>
<path d="M89.7175 66.6863C94.452 61.4469 100.417 48.5852 99.1222 45.6984C97.8276 42.8116 85.1598 48.3179 79.8517 39.4232C76.1264 33.0977 84.0755 26.0254 84.0755 26.0254" stroke="#DD9917" stroke-width="5" stroke-linecap="round"/>
<path d="M87.7636 65.6277C92.4982 60.3883 98.463 47.5266 97.1684 44.6398C95.8737 41.753 83.2059 47.2593 77.8978 38.3646C74.1725 32.0391 82.1216 24.9668 82.1216 24.9668" stroke="#FFBC3B" stroke-width="5" stroke-linecap="round"/>
<path d="M22.3326 77.5147C-1.32328 92.6264 4.58545 108.103 25.026 127.177" stroke="#DF3549" stroke-width="5" stroke-linecap="round"/>
<path d="M24.799 79.1873C0.0420348 92.3707 3.09253 105.757 24.6223 127.433" stroke="#FF4056" stroke-width="5" stroke-linecap="round"/>
<path d="M139.873 40.8466C136.038 40.5468 129.517 40.715 134.12 43.7868C139.873 47.6266 148.854 53.7467 147.31 57.265C145.767 60.7833 129.489 64.0608 129.208 68.0908C128.984 71.3148 137.511 75.2386 142.118 76.9871" stroke="#C2175F" stroke-width="5" stroke-linecap="round"/>
<path fill-rule="evenodd" clip-rule="evenodd" d="M125.596 112.64C126.101 112.377 126.541 112.044 126.91 111.641C132.47 105.567 120.018 85.651 99.0986 67.1581C78.1791 48.6652 56.7135 38.5979 51.1539 44.6721C50.7092 45.1578 50.3798 45.7321 50.1607 46.3871L12.5697 139.886C10.1352 145.941 11.7817 152.839 16.6993 157.186C21.6167 161.533 28.7697 162.415 34.6398 159.397L125.596 112.64L125.596 112.64Z" fill="#C2D72F"/>
<mask id="mask0_1066_17135" style="mask-type:alpha" maskUnits="userSpaceOnUse" x="11" y="46" width="115" height="116">
<path d="M50.2886 46.0703L125.596 112.642L34.6395 159.399C28.7694 162.417 21.6164 161.535 16.699 157.188C11.7814 152.841 10.1349 145.943 12.5694 139.888L50.2886 46.0703Z" fill="#D9D9D9"/>
</mask>
<g mask="url(#mask0_1066_17135)">
<path d="M148.136 141.12C115.66 176.602 60.0553 179.5 23.9391 147.573C-12.1772 115.646 -15.1122 60.9992 17.3642 25.5172C49.8407 -9.96485 105.445 -12.8622 141.562 19.0647C177.678 50.9916 180.613 105.638 148.136 141.12Z" stroke="#F01F77" stroke-width="7"/>
</g>
<mask id="mask1_1066_17135" style="mask-type:alpha" maskUnits="userSpaceOnUse" x="11" y="46" width="115" height="116">
<path d="M50.2886 46.0703L125.596 112.642L34.6395 159.399C28.7694 162.417 21.6164 161.535 16.699 157.188C11.7814 152.841 10.1349 145.943 12.5694 139.888L50.2886 46.0703Z" fill="#D9D9D9"/>
</mask>
<g mask="url(#mask1_1066_17135)">
<path d="M187.691 120.988C149.414 162.808 83.8788 166.222 41.3125 128.593C-1.2537 90.9648 -4.71316 26.5587 33.5636 -15.2605C71.8403 -57.0796 137.376 -60.4942 179.942 -22.8655C222.508 14.7632 225.967 79.1693 187.691 120.988Z" stroke="#F01F77" stroke-width="8"/>
</g>
<mask id="mask2_1066_17135" style="mask-type:alpha" maskUnits="userSpaceOnUse" x="11" y="46" width="115" height="116">
<path d="M50.2886 46.0703L125.596 112.642L34.6395 159.399C28.7694 162.417 21.6164 161.535 16.699 157.188C11.7814 152.841 10.1349 145.943 12.5694 139.888L50.2886 46.0703Z" fill="#D9D9D9"/>
</mask>
<g mask="url(#mask2_1066_17135)">
<path d="M250.353 96.0266C201.357 149.556 117.472 153.926 62.9883 105.762C8.50454 57.598 4.07526 -24.8418 53.0705 -78.3713C102.066 -131.901 185.951 -136.27 240.435 -88.1066C294.918 -39.9428 299.348 42.497 250.353 96.0266Z" stroke="#F01F77" stroke-width="9"/>
</g>
<mask id="mask3_1066_17135" style="mask-type:alpha" maskUnits="userSpaceOnUse" x="11" y="46" width="115" height="116">
<path fill-rule="evenodd" clip-rule="evenodd" d="M50.1592 46.3901L12.5685 139.888C10.134 145.943 11.7805 152.841 16.6981 157.188C21.6155 161.535 28.7685 162.417 34.6386 159.399L125.595 112.642L125.595 112.642C118.499 116.342 98.4936 106.421 78.964 89.1568C59.7182 72.1435 47.6396 53.926 50.1592 46.3901Z" fill="#D9D9D9"/>
</mask>
<g mask="url(#mask3_1066_17135)">
<path d="M14.9951 165.003L94.371 93.5953L111.716 103.571L16.7168 166.525L14.9951 165.003Z" fill="#FFE175" style="mix-blend-mode:soft-light"/>
</g>
<mask id="mask4_1066_17135" style="mask-type:alpha" maskUnits="userSpaceOnUse" x="11" y="46" width="115" height="116">
<path fill-rule="evenodd" clip-rule="evenodd" d="M50.1592 46.3901L12.5685 139.888C10.134 145.943 11.7805 152.841 16.6981 157.188C21.6155 161.535 28.7685 162.417 34.6386 159.399L125.595 112.642L125.595 112.642C118.499 116.342 98.4936 106.421 78.964 89.1568C59.7182 72.1435 47.6396 53.926 50.1592 46.3901Z" fill="#B78E25"/>
</mask>
<g mask="url(#mask4_1066_17135)">
<path d="M15.1258 167.412L112.491 102.723L129.836 112.699L27.909 176.416L15.1258 167.412Z" fill="#DED9CC" style="mix-blend-mode:multiply"/>
</g>
<mask id="mask5_1066_17135" style="mask-type:alpha" maskUnits="userSpaceOnUse" x="11" y="46" width="115" height="116">
<path fill-rule="evenodd" clip-rule="evenodd" d="M50.1592 46.3901L12.5685 139.888C10.134 145.943 11.7805 152.841 16.6981 157.188C21.6155 161.535 28.7685 162.417 34.6386 159.399L125.595 112.642L125.595 112.642C118.499 116.342 98.4936 106.421 78.964 89.1568C59.7182 72.1435 47.6396 53.926 50.1592 46.3901Z" fill="#D9D9D9"/>
</mask>
<g mask="url(#mask5_1066_17135)">
<path d="M9.82988 160.436L67.6842 70.0032L55.63 51.6945L7.93513 155.7L9.82988 160.436Z" fill="#DED9CC" style="mix-blend-mode:multiply"/>
</g>
<ellipse cx="50.5564" cy="14.9097" rx="50.5564" ry="14.9097" transform="matrix(0.749224 0.662316 -0.675174 0.737659 61.2205 33.6758)" fill="#C2D72F"/>
<mask id="mask6_1066_17135" style="mask-type:alpha" maskUnits="userSpaceOnUse" x="49" y="42" width="80" height="72">
<path d="M126.892 111.668C121.332 117.742 99.8664 107.675 78.947 89.1821C58.0275 70.6892 45.5759 50.7736 51.1355 44.6994C56.6952 38.6252 78.1608 48.6926 99.0803 67.1855C120 85.6783 132.451 105.594 126.892 111.668Z" fill="#D9D9D9"/>
</mask>
<g mask="url(#mask6_1066_17135)">
<path d="M21.1708 150.601L99.7207 48.6172L123.395 69.5449L26.8508 149.5L21.1708 150.601Z" fill="#FFE175" style="mix-blend-mode:soft-light"/>
</g>
<mask id="mask7_1066_17135" style="mask-type:alpha" maskUnits="userSpaceOnUse" x="49" y="42" width="80" height="72">
<path d="M126.892 111.668C121.332 117.742 99.8664 107.675 78.947 89.1821C58.0275 70.6892 45.5759 50.7736 51.1355 44.6994C56.6952 38.6252 78.1608 48.6926 99.0803 67.1855C120 85.6783 132.451 105.594 126.892 111.668Z" fill="#B78E25"/>
</mask>
<g mask="url(#mask7_1066_17135)">
<path d="M14.1172 164.264L144.228 91.0239L134.81 114.075L27.891 176.44L14.1172 164.264Z" fill="#D8FFC6" style="mix-blend-mode:multiply"/>
</g>
<mask id="mask8_1066_17135" style="mask-type:alpha" maskUnits="userSpaceOnUse" x="49" y="42" width="80" height="72">
<path d="M126.892 111.668C121.332 117.742 99.8664 107.675 78.947 89.1821C58.0275 70.6892 45.5759 50.7736 51.1355 44.6994C56.6952 38.6252 78.1608 48.6926 99.0803 67.1855C120 85.6783 132.451 105.594 126.892 111.668Z" fill="#D9D9D9"/>
</mask>
<g mask="url(#mask8_1066_17135)">
<path d="M9.81192 160.461L77.1684 40.9293L54.8313 29.6012L7.91717 155.725L9.81192 160.461Z" fill="#DED9CC" style="mix-blend-mode:multiply"/>
</g>
<mask id="mask9_1066_17135" style="mask-type:alpha" maskUnits="userSpaceOnUse" x="49" y="42" width="80" height="72">
<ellipse cx="50.5564" cy="14.9097" rx="50.5564" ry="14.9097" transform="matrix(0.749224 0.662316 -0.675174 0.737659 61.2205 33.6758)" fill="#9B826B"/>
</mask>
<g mask="url(#mask9_1066_17135)">
<path d="M52.3472 43.3516C66.2419 72.3688 99.2419 103.662 127.61 111.057L109.1 131.103L33.3435 64.1346L52.3472 43.3516Z" fill="#DBEA9F" style="mix-blend-mode:multiply"/>
</g>
<mask id="mask10_1066_17135" style="mask-type:alpha" maskUnits="userSpaceOnUse" x="49" y="42" width="80" height="72">
<ellipse cx="50.5564" cy="14.9097" rx="50.5564" ry="14.9097" transform="matrix(0.749224 0.662316 -0.675174 0.737659 61.2205 33.6758)" fill="#9B826B"/>
</mask>
<g mask="url(#mask10_1066_17135)">
<path d="M50.1619 46.3689C47.1666 67.1249 107.799 118.521 125.404 112.758L107.114 133.273L31.3579 66.3043L50.1619 46.3689Z" fill="#F0FBC3"/>
</g>
<path d="M137.768 39.2024C133.933 38.8792 127.412 39.0605 132.015 42.3717C137.768 46.5108 146.539 51.7499 144.995 55.5423C143.452 59.3348 126.752 63.8168 126.472 68.161C126.247 71.6363 135.406 76.2746 140.013 78.1593" stroke="#F01F77" stroke-width="5" stroke-linecap="round"/>
<g filter="url(#filter0_i_1066_17135)">
<rect width="9.50906" height="9.3627" rx="2" transform="matrix(0.973494 -0.228711 0.236361 0.971665 115.284 45.668)" fill="#C2D72F"/>
</g>
<g filter="url(#filter1_i_1066_17135)">
<rect width="9.51069" height="9.36105" rx="2" transform="matrix(0.978447 0.206498 -0.21348 0.976947 92.8933 16.2695)" fill="#C2D72F"/>
</g>
<g filter="url(#filter2_i_1066_17135)">
<rect width="9.51588" height="9.35577" rx="2" transform="matrix(0.9941 -0.10847 0.112262 0.993679 46.2297 28.4492)" fill="#F01F77"/>
</g>
<g filter="url(#filter3_i_1066_17135)">
<rect width="8.13106" height="8.05684" rx="2" transform="matrix(0.877415 0.479732 -0.492645 0.87023 43.0645 3.39453)" fill="#F01F77"/>
</g>
<g filter="url(#filter4_i_1066_17135)">
<rect width="9.13421" height="8.97892" rx="2" transform="matrix(0.996585 0.0825732 -0.0854749 0.99634 20.4978 37.7383)" fill="#F01F77"/>
</g>
<g filter="url(#filter5_i_1066_17135)">
<rect width="9.51572" height="9.35594" rx="2" transform="matrix(0.993623 -0.112755 0.116693 0.993168 114.202 28.4492)" fill="#F01F77"/>
</g>
<g filter="url(#filter6_i_1066_17135)">
<rect width="9.43542" height="9.43691" rx="2" transform="matrix(0.710051 0.704151 -0.716391 0.697699 87.1023 6.82031)" fill="#FFBC3B"/>
</g>
<g filter="url(#filter7_i_1066_17135)">
<rect width="9.35475" height="9.51689" rx="2" transform="matrix(0.0786553 0.996902 -0.997109 0.0759823 57.4548 55.625)" fill="#FFBC3B"/>
</g>
<g filter="url(#filter8_i_1066_17135)">
<rect width="9.49022" height="9.3818" rx="2" transform="matrix(0.913899 0.405942 -0.417838 0.908522 87.9863 3.39453)" fill="#F01F77"/>
</g>
<defs>
<filter id="filter0_i_1066_17135" x="115.699" y="43.8984" width="10.6384" height="10.4648" filterUnits="userSpaceOnUse" color-interpolation-filters="sRGB">
<feFlood flood-opacity="0" result="BackgroundImageFix"/>
<feBlend mode="normal" in="SourceGraphic" in2="BackgroundImageFix" result="shape"/>
<feColorMatrix in="SourceAlpha" type="matrix" values="0 0 0 0 0 0 0 0 0 0 0 0 0 0 0 0 0 0 127 0" result="hardAlpha"/>
<feOffset dx="-1" dy="1"/>
<feComposite in2="hardAlpha" operator="arithmetic" k2="-1" k3="1"/>
<feColorMatrix type="matrix" values="0 0 0 0 0 0 0 0 0 0 0 0 0 0 0 0 0 0 0.25 0"/>
<feBlend mode="normal" in2="shape" result="effect1_innerShadow_1066_17135"/>
</filter>
<filter id="filter1_i_1066_17135" x="91.2754" y="16.6406" width="10.5432" height="10.3672" filterUnits="userSpaceOnUse" color-interpolation-filters="sRGB">
<feFlood flood-opacity="0" result="BackgroundImageFix"/>
<feBlend mode="normal" in="SourceGraphic" in2="BackgroundImageFix" result="shape"/>
<feColorMatrix in="SourceAlpha" type="matrix" values="0 0 0 0 0 0 0 0 0 0 0 0 0 0 0 0 0 0 127 0" result="hardAlpha"/>
<feOffset dx="-1" dy="1"/>
<feComposite in2="hardAlpha" operator="arithmetic" k2="-1" k3="1"/>
<feColorMatrix type="matrix" values="0 0 0 0 0 0 0 0 0 0 0 0 0 0 0 0 0 0 0.25 0"/>
<feBlend mode="normal" in2="shape" result="effect1_innerShadow_1066_17135"/>
</filter>
<filter id="filter2_i_1066_17135" x="46.4414" y="27.6211" width="10.0867" height="9.91797" filterUnits="userSpaceOnUse" color-interpolation-filters="sRGB">
<feFlood flood-opacity="0" result="BackgroundImageFix"/>
<feBlend mode="normal" in="SourceGraphic" in2="BackgroundImageFix" result="shape"/>
<feColorMatrix in="SourceAlpha" type="matrix" values="0 0 0 0 0 0 0 0 0 0 0 0 0 0 0 0 0 0 127 0" result="hardAlpha"/>
<feOffset dx="-1" dy="1"/>
<feComposite in2="hardAlpha" operator="arithmetic" k2="-1" k3="1"/>
<feColorMatrix type="matrix" values="0 0 0 0 0 0 0 0 0 0 0 0 0 0 0 0 0 0 0.25 0"/>
<feBlend mode="normal" in2="shape" result="effect1_innerShadow_1066_17135"/>
</filter>
<filter id="filter3_i_1066_17135" x="39.8225" y="4.10547" width="9.64893" height="9.48828" filterUnits="userSpaceOnUse" color-interpolation-filters="sRGB">
<feFlood flood-opacity="0" result="BackgroundImageFix"/>
<feBlend mode="normal" in="SourceGraphic" in2="BackgroundImageFix" result="shape"/>
<feColorMatrix in="SourceAlpha" type="matrix" values="0 0 0 0 0 0 0 0 0 0 0 0 0 0 0 0 0 0 127 0" result="hardAlpha"/>
<feOffset dx="-1" dy="1"/>
<feComposite in2="hardAlpha" operator="arithmetic" k2="-1" k3="1"/>
<feColorMatrix type="matrix" values="0 0 0 0 0 0 0 0 0 0 0 0 0 0 0 0 0 0 0.25 0"/>
<feBlend mode="normal" in2="shape" result="effect1_innerShadow_1066_17135"/>
</filter>
<filter id="filter4_i_1066_17135" x="19.8938" y="37.8984" width="9.54346" height="9.38281" filterUnits="userSpaceOnUse" color-interpolation-filters="sRGB">
<feFlood flood-opacity="0" result="BackgroundImageFix"/>
<feBlend mode="normal" in="SourceGraphic" in2="BackgroundImageFix" result="shape"/>
<feColorMatrix in="SourceAlpha" type="matrix" values="0 0 0 0 0 0 0 0 0 0 0 0 0 0 0 0 0 0 127 0" result="hardAlpha"/>
<feOffset dx="-1" dy="1"/>
<feComposite in2="hardAlpha" operator="arithmetic" k2="-1" k3="1"/>
<feColorMatrix type="matrix" values="0 0 0 0 0 0 0 0 0 0 0 0 0 0 0 0 0 0 0.25 0"/>
<feBlend mode="normal" in2="shape" result="effect1_innerShadow_1066_17135"/>
</filter>
<filter id="filter5_i_1066_17135" x="114.422" y="27.5898" width="10.1079" height="9.9375" filterUnits="userSpaceOnUse" color-interpolation-filters="sRGB">
<feFlood flood-opacity="0" result="BackgroundImageFix"/>
<feBlend mode="normal" in="SourceGraphic" in2="BackgroundImageFix" result="shape"/>
<feColorMatrix in="SourceAlpha" type="matrix" values="0 0 0 0 0 0 0 0 0 0 0 0 0 0 0 0 0 0 127 0" result="hardAlpha"/>
<feOffset dx="1" dy="1"/>
<feComposite in2="hardAlpha" operator="arithmetic" k2="-1" k3="1"/>
<feColorMatrix type="matrix" values="0 0 0 0 0 0 0 0 0 0 0 0 0 0 0 0 0 0 0.25 0"/>
<feBlend mode="normal" in2="shape" result="effect1_innerShadow_1066_17135"/>
</filter>
<filter id="filter6_i_1066_17135" x="81.1772" y="7.64062" width="11.7891" height="11.5859" filterUnits="userSpaceOnUse" color-interpolation-filters="sRGB">
<feFlood flood-opacity="0" result="BackgroundImageFix"/>
<feBlend mode="normal" in="SourceGraphic" in2="BackgroundImageFix" result="shape"/>
<feColorMatrix in="SourceAlpha" type="matrix" values="0 0 0 0 0 0 0 0 0 0 0 0 0 0 0 0 0 0 127 0" result="hardAlpha"/>
<feOffset dx="-1"/>
<feComposite in2="hardAlpha" operator="arithmetic" k2="-1" k3="1"/>
<feColorMatrix type="matrix" values="0 0 0 0 0 0 0 0 0 0 0 0 0 0 0 0 0 0 0.25 0"/>
<feBlend mode="normal" in2="shape" result="effect1_innerShadow_1066_17135"/>
</filter>
<filter id="filter7_i_1066_17135" x="48.1165" y="55.7695" width="9.9231" height="9.75781" filterUnits="userSpaceOnUse" color-interpolation-filters="sRGB">
<feFlood flood-opacity="0" result="BackgroundImageFix"/>
<feBlend mode="normal" in="SourceGraphic" in2="BackgroundImageFix" result="shape"/>
<feColorMatrix in="SourceAlpha" type="matrix" values="0 0 0 0 0 0 0 0 0 0 0 0 0 0 0 0 0 0 127 0" result="hardAlpha"/>
<feOffset dx="1" dy="-1"/>
<feComposite in2="hardAlpha" operator="arithmetic" k2="-1" k3="1"/>
<feColorMatrix type="matrix" values="0 0 0 0 0 0 0 0 0 0 0 0 0 0 0 0 0 0 0.25 0"/>
<feBlend mode="normal" in2="shape" result="effect1_innerShadow_1066_17135"/>
</filter>
<filter id="filter8_i_1066_17135" x="84.7195" y="4.03125" width="11.2866" height="11.1016" filterUnits="userSpaceOnUse" color-interpolation-filters="sRGB">
<feFlood flood-opacity="0" result="BackgroundImageFix"/>
<feBlend mode="normal" in="SourceGraphic" in2="BackgroundImageFix" result="shape"/>
<feColorMatrix in="SourceAlpha" type="matrix" values="0 0 0 0 0 0 0 0 0 0 0 0 0 0 0 0 0 0 127 0" result="hardAlpha"/>
<feOffset dx="1"/>
<feComposite in2="hardAlpha" operator="arithmetic" k2="-1" k3="1"/>
<feColorMatrix type="matrix" values="0 0 0 0 0 0 0 0 0 0 0 0 0 0 0 0 0 0 0.25 0"/>
<feBlend mode="normal" in2="shape" result="effect1_innerShadow_1066_17135"/>
</filter>
</defs>
</svg>
