<svg width="157" height="165" viewBox="0 0 157 165" fill="none" xmlns="http://www.w3.org/2000/svg">
<mask id="path-1-outside-1_1066_17116" maskUnits="userSpaceOnUse" x="6.01562" y="6.25391" width="146" height="153" fill="black">
<rect fill="white" x="6.01562" y="6.25391" width="146" height="153"/>
<path fill-rule="evenodd" clip-rule="evenodd" d="M80.7428 32.3722C83.4055 26.909 85.9899 21.4041 86.7346 19.2037C86.7636 19.1179 86.7927 19.0318 86.8218 18.9455C88.398 14.274 90.1841 8.9801 103.548 10.5287C104.721 10.6646 105.941 10.7947 107.187 10.9274C120.401 12.3356 136.486 14.0498 129.17 26.3014C127.496 29.1043 126.137 31.8727 124.851 34.4914C123.999 36.2279 123.179 37.8986 122.321 39.4698C134.692 44.7539 145.81 52.2441 146.904 56.6322C148.511 63.0784 146.634 75.6367 144.158 92.2045L144.158 92.2047V92.2048L144.155 92.223C143.891 93.9914 143.619 95.8055 143.345 97.6628C139.787 121.745 135.339 136.908 125.553 142.26C123.914 143.157 121.601 144.103 118.839 145.058C118.654 146.613 118.404 147.608 117.849 148.385C117.015 149.552 115.49 150.227 112.461 151.567C112.102 151.725 111.722 151.893 111.319 152.073C104.914 154.927 97.9753 153.262 95.3064 152.073L97.0383 150.915C86.7677 153.157 76.7962 154.747 72.1769 154.747C67.3913 154.747 60.6907 153.253 53.6361 151.101C54.7145 152.552 55.7135 152.965 56.1642 152.965C54.385 152.965 49.2253 152.608 42.8202 151.181C39.2632 150.388 37.4621 147.45 36.5636 144.994C35.0351 144.375 33.5557 143.758 32.1448 143.151C20.4328 138.119 17.3745 117.311 14.8321 100.013C14.6709 98.9159 14.5118 97.8334 14.3527 96.77C14.0993 95.0765 13.8217 93.2858 13.5333 91.4251C11.3908 77.6052 8.64931 59.921 10.7943 49.4967C11.3099 46.9909 14.9138 44.6268 20.4198 42.499C18.7005 36.344 18.5456 30.6372 19.4791 27.8787C21.0804 23.1469 27.4859 15.2606 38.6952 22.3583C41.8539 24.3584 45.5213 27.2352 49.3389 30.23C51.2366 31.7186 53.1714 33.2364 55.0994 34.6901C64.0164 33.4658 73.0128 32.6574 80.7428 32.3722Z"/>
</mask>
<path fill-rule="evenodd" clip-rule="evenodd" d="M80.7428 32.3722C83.4055 26.909 85.9899 21.4041 86.7346 19.2037C86.7636 19.1179 86.7927 19.0318 86.8218 18.9455C88.398 14.274 90.1841 8.9801 103.548 10.5287C104.721 10.6646 105.941 10.7947 107.187 10.9274C120.401 12.3356 136.486 14.0498 129.17 26.3014C127.496 29.1043 126.137 31.8727 124.851 34.4914C123.999 36.2279 123.179 37.8986 122.321 39.4698C134.692 44.7539 145.81 52.2441 146.904 56.6322C148.511 63.0784 146.634 75.6367 144.158 92.2045L144.158 92.2047V92.2048L144.155 92.223C143.891 93.9914 143.619 95.8055 143.345 97.6628C139.787 121.745 135.339 136.908 125.553 142.26C123.914 143.157 121.601 144.103 118.839 145.058C118.654 146.613 118.404 147.608 117.849 148.385C117.015 149.552 115.49 150.227 112.461 151.567C112.102 151.725 111.722 151.893 111.319 152.073C104.914 154.927 97.9753 153.262 95.3064 152.073L97.0383 150.915C86.7677 153.157 76.7962 154.747 72.1769 154.747C67.3913 154.747 60.6907 153.253 53.6361 151.101C54.7145 152.552 55.7135 152.965 56.1642 152.965C54.385 152.965 49.2253 152.608 42.8202 151.181C39.2632 150.388 37.4621 147.45 36.5636 144.994C35.0351 144.375 33.5557 143.758 32.1448 143.151C20.4328 138.119 17.3745 117.311 14.8321 100.013C14.6709 98.9159 14.5118 97.8334 14.3527 96.77C14.0993 95.0765 13.8217 93.2858 13.5333 91.4251C11.3908 77.6052 8.64931 59.921 10.7943 49.4967C11.3099 46.9909 14.9138 44.6268 20.4198 42.499C18.7005 36.344 18.5456 30.6372 19.4791 27.8787C21.0804 23.1469 27.4859 15.2606 38.6952 22.3583C41.8539 24.3584 45.5213 27.2352 49.3389 30.23C51.2366 31.7186 53.1714 33.2364 55.0994 34.6901C64.0164 33.4658 73.0128 32.6574 80.7428 32.3722Z" fill="#D9D9D9"/>
<path d="M86.7346 19.2037L82.9457 17.9214L82.9457 17.9214L86.7346 19.2037ZM80.7428 32.3722L80.8902 36.3695L83.2875 36.2811L84.3385 34.1247L80.7428 32.3722ZM86.8218 18.9455L83.0317 17.6667L83.0317 17.6668L86.8218 18.9455ZM103.548 10.5287L103.088 14.5022L103.548 10.5287ZM107.187 10.9274L106.763 14.9049L107.187 10.9274ZM129.17 26.3014L132.604 28.3524L132.604 28.3524L129.17 26.3014ZM124.851 34.4914L121.261 32.7288V32.7288L124.851 34.4914ZM122.321 39.4698L118.81 37.5524L116.699 41.4181L120.749 43.1483L122.321 39.4698ZM146.904 56.6322L150.785 55.6647V55.6647L146.904 56.6322ZM144.158 92.2045L148.038 93.1747L148.085 92.987L148.114 92.7958L144.158 92.2045ZM144.158 92.2047L140.277 91.2346L140.158 91.7123V92.2047H144.158ZM144.158 92.2048L148.114 92.7943L148.158 92.5012V92.2048H144.158ZM144.155 92.223L148.111 92.8142L148.111 92.8124L144.155 92.223ZM143.345 97.6628L139.388 97.078V97.0781L143.345 97.6628ZM125.553 142.26L127.472 145.77H127.472L125.553 142.26ZM118.839 145.058L117.533 141.277L115.164 142.096L114.867 144.585L118.839 145.058ZM117.849 148.385L114.595 146.059L114.595 146.059L117.849 148.385ZM112.461 151.567L110.843 147.908H110.843L112.461 151.567ZM111.319 152.073L112.947 155.726L112.947 155.726L111.319 152.073ZM95.3064 152.073L93.0836 148.747L87.0568 152.776L93.6783 155.726L95.3064 152.073ZM97.0383 150.915L99.2612 154.241L96.1854 147.007L97.0383 150.915ZM53.6361 151.101L54.8032 147.275L43.1725 143.728L50.4256 153.487L53.6361 151.101ZM42.8202 151.181L43.6901 147.277H43.6901L42.8202 151.181ZM36.5636 144.994L40.3201 143.62L39.7102 141.953L38.0646 141.286L36.5636 144.994ZM32.1448 143.151L33.7239 139.476H33.7239L32.1448 143.151ZM14.8321 100.013L18.7895 99.4309L14.8321 100.013ZM14.3527 96.77L10.3967 97.3618H10.3967L14.3527 96.77ZM13.5333 91.4251L9.58049 92.0379H9.58049L13.5333 91.4251ZM10.7943 49.4967L6.87635 48.6905H6.87635L10.7943 49.4967ZM20.4198 42.499L21.8617 46.2301L25.2494 44.9209L24.2723 41.4229L20.4198 42.499ZM19.4791 27.8787L23.268 29.1609L19.4791 27.8787ZM38.6952 22.3583L36.5553 25.7378L36.5553 25.7378L38.6952 22.3583ZM49.3389 30.23L46.8701 33.3772L49.3389 30.23ZM55.0994 34.6901L52.6912 37.8839L54.0087 38.8773L55.6434 38.6529L55.0994 34.6901ZM82.9457 17.9214C82.3028 19.8212 79.861 25.0516 77.1471 30.6198L84.3385 34.1247C86.9501 28.7663 89.6771 22.9871 90.5235 20.4859L82.9457 17.9214ZM83.0317 17.6668C83.0025 17.7533 82.974 17.8376 82.9457 17.9214L90.5235 20.486C90.5532 20.3981 90.5829 20.3103 90.6119 20.2242L83.0317 17.6668ZM104.009 6.55534C96.9087 5.73257 91.8918 6.59221 88.3839 9.19011C84.921 11.7548 83.7698 15.479 83.0317 17.6667L90.6119 20.2242C91.4499 17.7404 91.9799 16.482 93.1452 15.619C94.2655 14.7892 96.8239 13.7763 103.088 14.5022L104.009 6.55534ZM107.611 6.94995C106.362 6.8168 105.16 6.68873 104.009 6.55534L103.088 14.5022C104.282 14.6405 105.521 14.7725 106.763 14.9049L107.611 6.94995ZM132.604 28.3524C134.738 24.7785 135.702 21.0727 134.444 17.5745C133.219 14.1698 130.3 12.1489 127.515 10.8989C122.041 8.44169 113.963 7.62691 107.611 6.94995L106.763 14.9049C113.624 15.6361 120.196 16.3825 124.239 18.1973C126.213 19.0833 126.77 19.8763 126.916 20.2827C127.029 20.5958 127.259 21.6985 125.735 24.2505L132.604 28.3524ZM128.442 36.254C129.735 33.619 131.026 30.9936 132.604 28.3524L125.735 24.2505C123.965 27.2151 122.538 30.1264 121.261 32.7288L128.442 36.254ZM125.831 41.3872C126.739 39.7257 127.598 37.9744 128.442 36.254L121.261 32.7288C120.4 34.4814 119.619 36.0714 118.81 37.5524L125.831 41.3872ZM120.749 43.1483C126.731 45.7032 132.361 48.7731 136.568 51.6785C138.678 53.135 140.343 54.4908 141.5 55.6582C142.076 56.2399 142.477 56.725 142.735 57.1044C143.006 57.5013 143.038 57.6608 143.022 57.5998L150.785 55.6647C150.241 53.4818 148.693 51.5515 147.182 50.0266C145.56 48.3903 143.468 46.7206 141.114 45.0955C136.396 41.8377 130.282 38.5204 123.892 35.7912L120.749 43.1483ZM143.022 57.5998C143.644 60.0912 143.658 64.2271 143.08 70.2403C142.515 76.129 141.445 83.2938 140.202 91.6133L148.114 92.7958C149.346 84.5475 150.453 77.1492 151.043 71.0052C151.622 64.9858 151.771 59.6194 150.785 55.6647L143.022 57.5998ZM140.277 91.2344L140.277 91.2346L148.038 93.1749L148.038 93.1747L140.277 91.2344ZM140.158 92.2047V92.2048H148.158V92.2047H140.158ZM140.201 91.6154L140.199 91.6335L148.111 92.8124L148.114 92.7943L140.201 91.6154ZM140.199 91.6317C139.935 93.3998 139.663 95.217 139.388 97.078L147.302 98.2475C147.576 96.394 147.847 94.5831 148.111 92.8142L140.199 91.6317ZM139.388 97.0781C137.617 109.067 135.662 118.533 133.035 125.59C130.401 132.67 127.302 136.744 123.634 138.751L127.472 145.77C133.589 142.424 137.608 136.241 140.533 128.381C143.467 120.498 145.515 110.341 147.302 98.2474L139.388 97.0781ZM123.634 138.751C122.286 139.488 120.218 140.349 117.533 141.277L120.146 148.838C122.984 147.857 125.542 146.825 127.472 145.77L123.634 138.751ZM114.867 144.585C114.785 145.279 114.707 145.672 114.638 145.91C114.58 146.114 114.552 146.119 114.595 146.059L121.103 150.712C122.287 149.055 122.616 147.176 122.811 145.53L114.867 144.585ZM114.595 146.059C114.663 145.963 114.645 146.075 114.03 146.418C113.365 146.789 112.426 147.208 110.843 147.908L114.079 155.225C115.525 154.585 116.863 153.997 117.927 153.404C119.04 152.784 120.2 151.974 121.103 150.712L114.595 146.059ZM110.843 147.908C110.484 148.067 110.099 148.237 109.691 148.419L112.947 155.726C113.344 155.55 113.719 155.384 114.079 155.225L110.843 147.908ZM109.691 148.419C104.677 150.654 98.9843 149.333 96.9346 148.419L93.6783 155.726C96.9662 157.192 105.151 159.2 112.947 155.726L109.691 148.419ZM97.5293 155.398L99.2612 154.241L94.8155 147.59L93.0836 148.747L97.5293 155.398ZM96.1854 147.007C85.8954 149.253 76.3125 150.747 72.1769 150.747V158.747C77.28 158.747 87.64 157.061 97.8913 154.823L96.1854 147.007ZM72.1769 150.747C68.0209 150.747 61.7999 149.41 54.8032 147.275L52.469 154.927C59.5816 157.097 66.7616 158.747 72.1769 158.747V150.747ZM50.4256 153.487C51.2052 154.536 52.0635 155.355 52.967 155.938C53.7871 156.467 54.9037 156.965 56.1642 156.965V148.965C56.4048 148.965 56.5982 148.991 56.7337 149.018C56.8731 149.045 56.9826 149.078 57.0609 149.105C57.2157 149.16 57.2943 149.21 57.304 149.216C57.3258 149.23 57.1454 149.117 56.8466 148.715L50.4256 153.487ZM56.1642 148.965C54.7067 148.965 49.8395 148.647 43.6901 147.277L41.9503 155.085C48.6111 156.569 54.0633 156.965 56.1642 156.965V148.965ZM43.6901 147.277C42.1311 146.929 41.0475 145.608 40.3201 143.62L32.807 146.368C33.8766 149.292 36.3954 153.847 41.9503 155.085L43.6901 147.277ZM38.0646 141.286C36.562 140.678 35.1087 140.071 33.7239 139.476L30.5656 146.826C32.0027 147.444 33.5081 148.072 35.0625 148.702L38.0646 141.286ZM33.7239 139.476C29.5835 137.697 26.3505 132.782 23.8611 124.967C21.4325 117.344 20.0725 108.16 18.7895 99.4309L10.8746 100.594C12.134 109.163 13.5744 119.032 16.2385 127.396C18.8419 135.568 22.994 143.573 30.5656 146.826L33.7239 139.476ZM18.7895 99.4309C18.6285 98.3352 18.4687 97.2476 18.3087 96.1781L10.3967 97.3618C10.5549 98.4193 10.7133 99.4967 10.8746 100.594L18.7895 99.4309ZM18.3087 96.1781C18.0535 94.4723 17.7742 92.6708 17.4861 90.8123L9.58049 92.0379C9.8693 93.9009 10.1452 95.6807 10.3967 97.3618L18.3087 96.1781ZM17.4861 90.8123C16.4113 83.8799 15.2109 76.1279 14.5392 68.8214C13.8598 61.4316 13.7658 54.9022 14.7122 50.3028L6.87635 48.6905C5.67777 54.5155 5.88204 62.0404 6.57279 69.5537C7.27119 77.1504 8.51275 85.1504 9.58049 92.0379L17.4861 90.8123ZM14.7122 50.3028C14.6593 50.5596 14.6569 50.1044 16.0462 49.1213C17.3192 48.2204 19.2557 47.2371 21.8617 46.2301L18.9779 38.7679C16.0779 39.8886 13.4594 41.1513 11.4251 42.5909C9.50695 43.9483 7.44478 45.9279 6.87635 48.6905L14.7122 50.3028ZM15.6902 26.5965C14.987 28.6744 14.812 31.3763 14.9604 34.1304C15.1139 36.9772 15.6332 40.2312 16.5672 43.5751L24.2723 41.4229C23.4871 38.6118 23.0693 35.9348 22.9488 33.6999C22.8234 31.3722 23.0377 29.8416 23.268 29.1609L15.6902 26.5965ZM40.8351 18.9788C34.2533 14.8113 28.3213 14.6834 23.6297 17.1383C19.2806 19.414 16.7247 23.5395 15.6902 26.5965L23.268 29.1609C23.8348 27.4862 25.2824 25.3026 27.3387 24.2266C29.0525 23.3298 31.9278 22.8077 36.5553 25.7378L40.8351 18.9788ZM51.8077 27.0828C48.0436 24.13 44.2011 21.1102 40.8351 18.9788L36.5553 25.7378C39.5067 27.6066 42.9989 30.3404 46.8701 33.3772L51.8077 27.0828ZM57.5075 31.4962C55.6153 30.0695 53.7107 28.5755 51.8077 27.0828L46.8701 33.3772C48.7625 34.8617 50.7275 36.4033 52.6912 37.8839L57.5075 31.4962ZM55.6434 38.6529C64.4473 37.4442 73.3102 36.6491 80.8902 36.3695L80.5954 28.375C72.7154 28.6656 63.5856 29.4874 54.5553 30.7272L55.6434 38.6529Z" fill="white" mask="url(#path-1-outside-1_1066_17116)"/>
<path d="M14.3529 96.77C12.2179 82.4988 8.36076 61.3245 10.7945 49.4967C13.2283 37.6688 84.4759 28.996 99.7549 33.4416C116.835 34.1551 145.125 49.4958 146.904 56.6322C148.683 63.7687 146.192 78.3967 143.345 97.6628C139.787 121.745 135.339 136.908 125.553 142.26C115.768 147.612 81.9628 154.747 72.1772 154.747C62.3915 154.747 44.5995 148.503 32.145 143.151C19.6906 137.8 17.0217 114.609 14.3529 96.77Z" fill="url(#paint0_linear_1066_17116)"/>
<path d="M97.0857 110.152L73.0664 76.2582L100.644 107.476L121.995 103.017L146.014 60.2031L125.553 104.801L131.78 133.343L123.774 106.584L101.534 111.044L73.0664 152.966L97.0857 110.152Z" fill="url(#paint1_linear_1066_17116)"/>
<path d="M73.0666 75.365L72.177 148.505C70.6943 125.611 67.5511 78.9328 66.8394 75.365C66.1277 71.7972 44.0062 62.5804 33.0344 58.418C41.6339 61.3911 60.968 67.8726 69.5082 70.0133C78.0484 72.154 118.733 64.3643 138.008 60.2019L73.0666 75.365Z" fill="url(#paint2_linear_1066_17116)"/>
<path d="M23.2491 58.4181C24.3126 54.2717 25.0283 53.0664 25.9179 53.0664C32.7382 54.8503 45.845 59.1317 43.71 61.9859C41.0411 65.5537 50.8268 145.829 52.606 149.397C54.0294 152.251 55.5713 152.965 56.1644 152.965C54.3852 152.965 49.2255 152.608 42.8204 151.181C36.4152 149.754 35.7035 141.369 35.7035 141.369C35.7035 141.369 22.0382 63.1389 23.2491 58.4181Z" fill="url(#paint3_linear_1066_17116)"/>
<path d="M103.313 66.4457L80.1833 53.9584V51.2826L98.865 50.3906C105.685 52.7692 120.216 57.883 123.774 59.3101C127.332 60.7372 127.036 64.6618 126.443 66.4457C124.367 87.5552 120.038 131.736 119.326 139.586C118.436 149.397 119.326 148.505 111.319 152.073C104.914 154.927 97.9754 153.262 95.3066 152.073L100.644 148.505L103.313 66.4457Z" fill="#91129D"/>
<path d="M103.313 66.4457L80.1833 53.9584V51.2826L98.865 50.3906C105.685 52.7692 120.216 57.883 123.774 59.3101C127.332 60.7372 127.036 64.6618 126.443 66.4457C124.367 87.5552 120.038 131.736 119.326 139.586C118.436 149.397 119.326 148.505 111.319 152.073C104.914 154.927 97.9754 153.262 95.3066 152.073L100.644 148.505L103.313 66.4457Z" fill="url(#paint4_linear_1066_17116)"/>
<path d="M86.7348 19.2037C85.4537 22.9891 78.7282 36.5535 75.5255 42.8626C67.5187 47.5942 49.9046 29.456 38.6954 22.3583C27.4861 15.2606 21.0806 23.1469 19.4793 27.8787C17.878 32.6105 19.4793 46.0172 26.6852 55.4807C33.8912 64.9443 56.3097 62.5784 65.1169 57.8466C73.9242 53.1149 80.3295 50.749 100.346 51.5376C120.363 52.3262 121.163 39.7081 129.17 26.3014C137.176 12.8947 117.16 12.106 103.549 10.5287C89.9374 8.95149 88.3361 14.4719 86.7348 19.2037Z" fill="url(#paint5_linear_1066_17116)"/>
<path d="M75.3653 42.3633L72.2881 44.1115C75.3653 47.608 75.3653 51.9786 75.3653 52.8528C75.3653 53.7269 83.0583 58.0975 84.5969 50.2304C85.8278 43.9367 78.9554 42.3633 75.3653 42.3633Z" fill="#C8135F"/>
<path d="M49.9202 59.866C45.4127 57.8941 42.676 32.7515 44.2858 31.93C45.8957 31.1084 45.0907 31.93 51.53 37.6815C56.6814 42.2827 68.7013 48.3629 74.0673 50.8279C67.8964 54.6622 54.4277 61.838 49.9202 59.866Z" fill="#C8135F"/>
<path d="M112.133 32.6236C106.413 39.8341 93.8618 46.0068 88.301 48.1918C106.572 52.2887 112.133 45.7337 118.488 42.4562C124.843 39.1787 129.61 24.4298 126.432 20.3329C123.255 16.236 119.283 23.6104 112.133 32.6236Z" fill="#C8135F"/>
<defs>
<linearGradient id="paint0_linear_1066_17116" x1="78.7587" y1="48.6056" x2="78.7587" y2="154.747" gradientUnits="userSpaceOnUse">
<stop stop-color="#DCF148"/>
<stop offset="0.238086" stop-color="#BBD027"/>
<stop offset="1" stop-color="#96AA0B"/>
</linearGradient>
<linearGradient id="paint1_linear_1066_17116" x1="109.54" y1="60.2031" x2="109.54" y2="152.966" gradientUnits="userSpaceOnUse">
<stop stop-color="#A5B918"/>
<stop offset="1" stop-color="#87980F"/>
</linearGradient>
<linearGradient id="paint2_linear_1066_17116" x1="85.5211" y1="58.418" x2="85.5211" y2="148.505" gradientUnits="userSpaceOnUse">
<stop stop-color="#F6FFBA"/>
<stop offset="1" stop-color="#F6FFBA" stop-opacity="0"/>
</linearGradient>
<linearGradient id="paint3_linear_1066_17116" x1="39.6688" y1="53.0664" x2="39.6688" y2="152.965" gradientUnits="userSpaceOnUse">
<stop stop-color="#FF378B"/>
<stop offset="1" stop-color="#CD1A66"/>
</linearGradient>
<linearGradient id="paint4_linear_1066_17116" x1="103.494" y1="50.3906" x2="103.494" y2="153.649" gradientUnits="userSpaceOnUse">
<stop stop-color="#FF378B"/>
<stop offset="1" stop-color="#CD1A66"/>
</linearGradient>
<linearGradient id="paint5_linear_1066_17116" x1="130.771" y1="27.0901" x2="18.6817" y2="30.3415" gradientUnits="userSpaceOnUse">
<stop stop-color="#DE0D65"/>
<stop offset="0.119792" stop-color="#FD529A"/>
<stop offset="0.515625" stop-color="#E41D71"/>
<stop offset="0.776974" stop-color="#F75E9E"/>
<stop offset="1" stop-color="#E9136D"/>
</linearGradient>
</defs>
</svg>
