<svg width="174" height="70" viewBox="0 0 174 70" fill="none" xmlns="http://www.w3.org/2000/svg">
<path d="M4.04109 13.3192C2.96545 15.4454 2.45573 17.8457 2.20465 20.931C1.95553 23.9922 1.95553 27.8252 1.95553 32.8406V32.8934V38.5262V38.5792C1.95553 43.6384 1.95553 47.5047 2.20765 50.5905C2.46173 53.7003 2.97755 56.1177 4.06633 58.2545C5.92305 61.8985 8.88571 64.8612 12.5297 66.7179C14.6666 67.8067 17.0839 68.3225 20.1938 68.5766C23.2795 68.8287 27.1456 68.8287 32.2046 68.8287H32.2581H140.77H140.821C145.493 68.8287 149.065 68.8287 151.933 68.6033C154.824 68.376 157.088 67.9145 159.126 66.9426C162.609 65.2816 165.517 62.618 167.475 59.2935C168.622 57.3482 169.279 55.1327 169.758 52.2721C170.233 49.4354 170.545 45.8762 170.953 41.222L170.957 41.1722L171.543 34.4923L171.548 34.4369C172.03 28.935 172.398 24.7341 172.408 21.3783C172.418 17.9991 172.067 15.3644 171.042 13.0235C169.297 9.04181 166.264 5.7628 162.43 3.71411C160.176 2.50964 157.576 1.95531 154.207 1.7023C150.86 1.45104 146.643 1.49152 141.121 1.54453L141.065 1.54506L31.9673 2.59221L31.9145 2.59271C26.8993 2.64085 23.0665 2.67763 20.0078 2.95612C16.9251 3.2368 14.5297 3.76954 12.414 4.86554C8.80509 6.735 5.87583 9.69251 4.04109 13.3192Z" fill="#FF4056" stroke="white" stroke-width="2.27839"/>
</svg>
