<svg width="1392" height="450" viewBox="0 0 1392 450" fill="none" xmlns="http://www.w3.org/2000/svg">
<path d="M18.134 96.0097C20.2477 62.2048 21.3046 45.3024 28.5602 32.4805C34.9477 21.1927 44.6139 12.1119 56.2784 6.4413C69.528 0 86.4635 0 120.334 0H1287C1324.91 0 1343.87 0 1357.99 7.52987C1370.4 14.1476 1380.28 24.6677 1386.11 37.4642C1392.75 52.0246 1391.56 70.9465 1389.2 108.79L1373.87 353.99C1371.75 387.795 1370.7 404.698 1363.44 417.52C1357.05 428.807 1347.39 437.888 1335.72 443.559C1322.47 450 1305.54 450 1271.67 450H105.003C67.0851 450 48.1262 450 34.0082 442.47C21.6004 435.852 11.7176 425.332 5.88711 412.536C-0.747054 397.975 0.436077 379.054 2.80234 341.21L18.134 96.0097Z" fill="url(#paint0_linear_1862_11700)"/>
<defs>
<linearGradient id="paint0_linear_1862_11700" x1="-617.987" y1="375.771" x2="1867.48" y2="-203.024" gradientUnits="userSpaceOnUse">
<stop stop-color="#FF921C"/>
<stop offset="0.505208" stop-color="#FF2F62"/>
<stop offset="1" stop-color="#BC099C"/>
</linearGradient>
</defs>
</svg>
