<svg width="658" height="400" viewBox="0 0 658 400" fill="none" xmlns="http://www.w3.org/2000/svg">
<path d="M620.792 279.901C626.564 271.583 631.587 262.724 635.721 253.318C670.348 174.533 647.875 88.4025 612.725 15L605.489 88.8938C619.309 134.3 628.987 181.64 628.804 229.347C628.746 244.404 626 261.998 620.792 279.901ZM620.792 279.901C593.287 319.54 548.755 346.907 502.182 362.702C472.417 372.796 397.278 376.017 319.831 375.309M620.792 279.901C609.851 317.514 588.047 356.499 557.486 376.219C514.414 404.014 452.024 396.703 404.821 388.985C386.073 385.92 355.724 381.235 319.831 375.309M319.831 375.309C234.97 374.533 147.338 369.04 113.588 362.702C-37.4598 334.337 13.1466 300.29 13.1466 300.29C60.1558 329.607 214.062 357.846 319.831 375.309Z" stroke="#F01F77" stroke-width="8"/>
</svg>
