<svg width="16" height="16" viewBox="0 0 16 16" fill="none" xmlns="http://www.w3.org/2000/svg">
<g clip-path="url(#clip0_288_4068)">
<path d="M9.85419 13.1337L9.26401 12.6709L9.85419 13.1337ZM6.14646 13.1337L5.55629 13.5965L6.14646 13.1337ZM8.00033 14.6704V13.9204V14.6704ZM12.5837 6.40588C12.5837 7.1545 12.1865 8.20015 11.5186 9.38102C10.8672 10.5325 10.0227 11.7035 9.26401 12.6709L10.4444 13.5965C11.2256 12.6004 12.1207 11.3632 12.8242 10.1195C13.511 8.90522 14.0837 7.56873 14.0837 6.40588H12.5837ZM6.73664 12.6709C5.978 11.7035 5.13343 10.5325 4.4821 9.38102C3.81416 8.20015 3.41699 7.1545 3.41699 6.40588H1.91699C1.91699 7.56873 2.48964 8.90522 3.17648 10.1195C3.87992 11.3632 4.77509 12.6004 5.55629 13.5965L6.73664 12.6709ZM3.41699 6.40588C3.41699 3.59771 5.51987 1.41675 8.00033 1.41675V-0.083252C4.58975 -0.083252 1.91699 2.87477 1.91699 6.40588H3.41699ZM8.00033 1.41675C10.4808 1.41675 12.5837 3.59771 12.5837 6.40588H14.0837C14.0837 2.87477 11.4109 -0.083252 8.00033 -0.083252V1.41675ZM9.26401 12.6709C8.84589 13.2041 8.58899 13.5276 8.36502 13.7311C8.17316 13.9054 8.0823 13.9204 8.00033 13.9204V15.4204C8.56718 15.4204 9.00157 15.1793 9.37359 14.8414C9.71351 14.5326 10.0591 14.0878 10.4444 13.5965L9.26401 12.6709ZM5.55629 13.5965C5.94153 14.0878 6.28715 14.5326 6.62706 14.8414C6.99908 15.1793 7.43347 15.4204 8.00033 15.4204V13.9204C7.91835 13.9204 7.82749 13.9054 7.63563 13.7311C7.41166 13.5276 7.15476 13.2041 6.73664 12.6709L5.55629 13.5965ZM5.25033 6.66675C5.25033 8.18553 6.48154 9.41675 8.00033 9.41675V7.91675C7.30997 7.91675 6.75033 7.3571 6.75033 6.66675H5.25033ZM8.00033 9.41675C9.51911 9.41675 10.7503 8.18553 10.7503 6.66675H9.25033C9.25033 7.3571 8.69068 7.91675 8.00033 7.91675V9.41675ZM10.7503 6.66675C10.7503 5.14796 9.51911 3.91675 8.00033 3.91675V5.41675C8.69068 5.41675 9.25033 5.97639 9.25033 6.66675H10.7503ZM8.00033 3.91675C6.48154 3.91675 5.25033 5.14796 5.25033 6.66675H6.75033C6.75033 5.97639 7.30997 5.41675 8.00033 5.41675V3.91675Z" fill="white"/>
</g>
<defs>
<clipPath id="clip0_288_4068">
<rect width="16" height="16" fill="white"/>
</clipPath>
</defs>
</svg>
