<svg width="24" height="25" viewBox="0 0 24 25" fill="none" xmlns="http://www.w3.org/2000/svg">
<path d="M22 8.94444C22 6.48985 20.0102 4.5 17.5556 4.5H6.44444C3.98984 4.5 2 6.48985 2 8.94444C2 9.48773 2.31156 9.98288 2.80135 10.218L3.28872 10.4519C5.00702 11.2767 5.00702 13.7233 3.28872 14.5481L2.80135 14.782C2.31156 15.0171 2 15.5123 2 16.0556C2 18.5102 3.98984 20.5 6.44444 20.5H17.5556C20.0102 20.5 22 18.5102 22 16.0556C22 15.5123 21.6884 15.0171 21.1986 14.782L20.7113 14.5481C18.993 13.7233 18.993 11.2767 20.7113 10.4519L21.1986 10.218C21.6884 9.98288 22 9.48773 22 8.94444Z" stroke="#374151" stroke-width="2"/>
<path d="M10 4.5L10 20.5" stroke="#374151" stroke-width="2" stroke-linecap="round" stroke-dasharray="2 3"/>
</svg>
