<svg width="16" height="16" viewBox="0 0 16 16" fill="none" xmlns="http://www.w3.org/2000/svg">
<path d="M14.667 5.62971C14.667 3.99331 13.3404 2.66675 11.704 2.66675H4.29662C2.66022 2.66675 1.33366 3.99331 1.33366 5.62971C1.33366 5.9919 1.54137 6.322 1.8679 6.47874L2.19281 6.63469C3.33834 7.18455 3.33834 8.81561 2.19281 9.36547L1.8679 9.52143C1.54137 9.67816 1.33366 10.0083 1.33366 10.3705C1.33366 12.0069 2.66022 13.3334 4.29662 13.3334H11.704C13.3404 13.3334 14.667 12.0069 14.667 10.3705C14.667 10.0083 14.4593 9.67816 14.1328 9.52143L13.8078 9.36547C12.6623 8.81561 12.6623 7.18455 13.8078 6.63469L14.1328 6.47874C14.4593 6.322 14.667 5.9919 14.667 5.62971Z" stroke="white" stroke-width="1.5"/>
<path d="M6.66699 2.66675L6.66699 13.3334" stroke="white" stroke-width="1.5" stroke-linecap="round" stroke-dasharray="2 3"/>
</svg>
