<svg width="408" height="296" viewBox="0 0 408 296" fill="none" xmlns="http://www.w3.org/2000/svg">
<g opacity="0.6" filter="url(#filter0_f_3122_3405)">
<path fill-rule="evenodd" clip-rule="evenodd" d="M199.334 216.256C75.2227 215.174 47.7678 184.528 116.969 124.316C186.169 64.1041 248.225 64.6447 303.135 125.938C358.046 187.231 323.445 217.337 199.334 216.256Z" fill="#FF4056"/>
</g>
<mask id="path-2-outside-1_3122_3405" maskUnits="userSpaceOnUse" x="59.5157" y="44.7344" width="280" height="191" fill="black">
<rect fill="white" x="59.5157" y="44.7344" width="280" height="191"/>
<path fill-rule="evenodd" clip-rule="evenodd" d="M64.5578 61.2616C61.9698 66.7112 62.3219 73.8668 63.0261 88.1782L67.1744 172.488C67.8062 185.328 68.1221 191.749 70.8226 196.626C73.1995 200.919 76.8353 204.38 81.2399 206.543C86.2441 209.001 92.6721 209.001 105.528 209.001H180.459C181.442 209.001 181.934 209.001 182.377 209.141C182.768 209.265 183.13 209.469 183.44 209.738C183.79 210.043 184.046 210.463 184.558 211.303L194.901 228.275C196.256 230.498 196.933 231.61 197.806 231.988C198.568 232.319 199.432 232.319 200.194 231.988C201.067 231.61 201.744 230.498 203.099 228.275L213.442 211.303C213.954 210.463 214.21 210.043 214.56 209.738C214.87 209.469 215.232 209.265 215.623 209.141C216.066 209.001 216.557 209.001 217.541 209.001H297.6C311.041 209.001 317.762 209.001 322.896 206.385C327.412 204.084 331.083 200.413 333.384 195.897C336 190.763 336 184.042 336 170.601V90.5722C336 77.3935 336 70.8041 333.455 65.7274C331.216 61.2605 327.638 57.6039 323.221 55.2677C318.201 52.6126 311.613 52.4688 298.438 52.1814L102.217 47.9002C87.892 47.5876 80.7294 47.4314 75.3527 50.1674C70.6278 52.5717 66.832 56.4728 64.5578 61.2616Z"/>
</mask>
<path fill-rule="evenodd" clip-rule="evenodd" d="M64.5578 61.2616C61.9698 66.7112 62.3219 73.8668 63.0261 88.1782L67.1744 172.488C67.8062 185.328 68.1221 191.749 70.8226 196.626C73.1995 200.919 76.8353 204.38 81.2399 206.543C86.2441 209.001 92.6721 209.001 105.528 209.001H180.459C181.442 209.001 181.934 209.001 182.377 209.141C182.768 209.265 183.13 209.469 183.44 209.738C183.79 210.043 184.046 210.463 184.558 211.303L194.901 228.275C196.256 230.498 196.933 231.61 197.806 231.988C198.568 232.319 199.432 232.319 200.194 231.988C201.067 231.61 201.744 230.498 203.099 228.275L213.442 211.303C213.954 210.463 214.21 210.043 214.56 209.738C214.87 209.469 215.232 209.265 215.623 209.141C216.066 209.001 216.557 209.001 217.541 209.001H297.6C311.041 209.001 317.762 209.001 322.896 206.385C327.412 204.084 331.083 200.413 333.384 195.897C336 190.763 336 184.042 336 170.601V90.5722C336 77.3935 336 70.8041 333.455 65.7274C331.216 61.2605 327.638 57.6039 323.221 55.2677C318.201 52.6126 311.613 52.4688 298.438 52.1814L102.217 47.9002C87.892 47.5876 80.7294 47.4314 75.3527 50.1674C70.6278 52.5717 66.832 56.4728 64.5578 61.2616Z" fill="#FF4056"/>
<path d="M63.0261 88.1782L66.0224 88.0308L63.0261 88.1782ZM64.5578 61.2616L67.2677 62.5486H67.2677L64.5578 61.2616ZM67.1744 172.488L64.1781 172.635L67.1744 172.488ZM70.8226 196.626L73.4471 195.173H73.4471L70.8226 196.626ZM81.2399 206.543L82.5623 203.851H82.5623L81.2399 206.543ZM322.896 206.385L321.534 203.712L322.896 206.385ZM333.384 195.897L336.057 197.259H336.057L333.384 195.897ZM333.455 65.7274L330.773 67.0718V67.0718L333.455 65.7274ZM323.221 55.2677L321.818 57.9196V57.9196L323.221 55.2677ZM298.438 52.1814L298.503 49.1821L298.438 52.1814ZM102.217 47.9002L102.283 44.9009L102.217 47.9002ZM75.3527 50.1674L73.9921 47.4937L75.3527 50.1674ZM213.442 211.303L210.88 209.742L213.442 211.303ZM214.56 209.738L212.59 207.476L214.56 209.738ZM215.623 209.141L214.717 206.282L215.623 209.141ZM194.901 228.275L197.463 226.714L194.901 228.275ZM197.806 231.988L196.612 234.74L197.806 231.988ZM203.099 228.275L200.537 226.714L203.099 228.275ZM200.194 231.988L199 229.236L200.194 231.988ZM182.377 209.141L183.283 206.282L182.377 209.141ZM184.558 211.303L187.12 209.742L184.558 211.303ZM183.44 209.738L185.41 207.476L183.44 209.738ZM66.0224 88.0308C65.6678 80.8239 65.4135 75.6044 65.5556 71.5005C65.6965 67.4294 66.225 64.7443 67.2677 62.5486L61.8479 59.9747C60.3026 63.2284 59.7131 66.846 59.5592 71.2929C59.4063 75.7071 59.6801 81.2212 60.0297 88.3257L66.0224 88.0308ZM70.1708 172.341L66.0224 88.0308L60.0297 88.3257L64.1781 172.635L70.1708 172.341ZM73.4471 195.173C72.3548 193.2 71.6696 190.794 71.1978 187.157C70.7213 183.484 70.4891 178.809 70.1708 172.341L64.1781 172.635C64.4916 179.007 64.7332 183.963 65.2477 187.929C65.7669 191.931 66.5899 195.175 68.198 198.079L73.4471 195.173ZM82.5623 203.851C78.7082 201.958 75.5269 198.929 73.4471 195.173L68.198 198.079C70.872 202.909 74.9623 206.803 79.9175 209.236L82.5623 203.851ZM105.528 206.001C99.0518 206.001 94.371 205.999 90.6788 205.703C87.0229 205.411 84.5866 204.845 82.5623 203.851L79.9175 209.236C82.8975 210.7 86.1773 211.362 90.2003 211.684C94.1872 212.003 99.1483 212.001 105.528 212.001V206.001ZM180.459 206.001H105.528V212.001H180.459V206.001ZM197.463 226.714L187.12 209.742L181.996 212.864L192.339 229.836L197.463 226.714ZM210.88 209.742L200.537 226.714L205.661 229.836L216.004 212.864L210.88 209.742ZM297.6 206.001H217.541V212.001H297.6V206.001ZM321.534 203.712C319.46 204.769 316.935 205.372 313.119 205.684C309.267 205.999 304.37 206.001 297.6 206.001V212.001C304.271 212.001 309.455 212.003 313.607 211.664C317.795 211.322 321.197 210.617 324.258 209.058L321.534 203.712ZM330.711 194.535C328.698 198.486 325.485 201.699 321.534 203.712L324.258 209.058C329.338 206.469 333.469 202.339 336.057 197.259L330.711 194.535ZM333 170.601C333 177.371 332.998 182.268 332.683 186.12C332.371 189.936 331.768 192.461 330.711 194.535L336.057 197.259C337.616 194.198 338.321 190.796 338.663 186.608C339.002 182.456 339 177.272 339 170.601H333ZM333 90.5722V170.601H339V90.5722H333ZM330.773 67.0718C331.802 69.1237 332.388 71.6091 332.692 75.3536C332.998 79.1338 333 83.9339 333 90.5722H339C339 84.0318 339.002 78.9478 338.672 74.8694C338.339 70.7554 337.653 67.4078 336.137 64.3829L330.773 67.0718ZM321.818 57.9196C325.683 59.9638 328.814 63.1633 330.773 67.0718L336.137 64.3829C333.618 59.3577 329.593 55.244 324.624 52.6158L321.818 57.9196ZM298.372 55.1806C305.009 55.3254 309.808 55.4324 313.58 55.8209C317.317 56.2057 319.789 56.8465 321.818 57.9196L324.624 52.6158C321.633 51.0338 318.301 50.2752 314.195 49.8524C310.125 49.4333 305.042 49.3247 298.503 49.1821L298.372 55.1806ZM102.152 50.8995L298.372 55.1806L298.503 49.1821L102.283 44.9009L102.152 50.8995ZM76.7132 52.8411C78.8797 51.7387 81.5493 51.137 85.615 50.8848C89.7135 50.6306 94.938 50.7421 102.152 50.8995L102.283 44.9009C95.1713 44.7457 89.6519 44.6229 85.2435 44.8963C80.8024 45.1718 77.2024 45.8601 73.9921 47.4937L76.7132 52.8411ZM67.2677 62.5486C69.2577 58.3584 72.579 54.9449 76.7132 52.8411L73.9921 47.4937C68.6766 50.1986 64.4064 54.5872 61.8479 59.9747L67.2677 62.5486ZM216.004 212.864C216.277 212.415 216.418 212.187 216.528 212.028C216.62 211.896 216.61 211.931 216.53 212.001L212.59 207.476C211.807 208.158 211.29 209.07 210.88 209.742L216.004 212.864ZM217.541 206.001C216.754 206.001 215.706 205.968 214.717 206.282L216.53 212.001C216.429 212.033 216.393 212.023 216.554 212.013C216.748 212.002 217.015 212.001 217.541 212.001V206.001ZM216.53 212.001L214.717 206.282C213.933 206.53 213.209 206.936 212.59 207.476L216.53 212.001ZM192.339 229.836C192.986 230.898 193.577 231.872 194.126 232.612C194.671 233.346 195.444 234.234 196.612 234.74L199 229.236C199.295 229.364 199.293 229.507 198.943 229.035C198.597 228.568 198.171 227.876 197.463 226.714L192.339 229.836ZM200.537 226.714C199.829 227.876 199.403 228.568 199.057 229.035C198.707 229.507 198.705 229.364 199 229.236L201.388 234.74C202.556 234.234 203.329 233.346 203.874 232.612C204.423 231.872 205.014 230.898 205.661 229.836L200.537 226.714ZM196.612 234.74C198.135 235.401 199.865 235.401 201.388 234.74L199 229.236L196.612 234.74ZM180.459 212.001C180.984 212.001 181.252 212.002 181.446 212.013C181.607 212.023 181.571 212.033 181.47 212.001L183.283 206.282C182.294 205.968 181.246 206.001 180.459 206.001V212.001ZM187.12 209.742C186.71 209.07 186.193 208.158 185.41 207.476L181.47 212.001C181.39 211.931 181.38 211.896 181.472 212.028C181.582 212.187 181.723 212.415 181.996 212.864L187.12 209.742ZM181.47 212.001L185.41 207.476C184.791 206.936 184.067 206.53 183.283 206.282L181.47 212.001Z" fill="white" mask="url(#path-2-outside-1_3122_3405)"/>
<mask id="path-4-outside-2_3122_3405" maskUnits="userSpaceOnUse" x="292" y="38" width="71" height="71" fill="black">
<rect fill="white" x="292" y="38" width="71" height="71"/>
<path fill-rule="evenodd" clip-rule="evenodd" d="M296.744 49.7362C295 53.1587 295 57.6392 295 66.6V72.4C295 81.3608 295 85.8413 296.744 89.2638C298.278 92.2744 300.726 94.7221 303.736 96.2561C307.159 98 311.639 98 320.6 98H334.4C336.145 98 337.72 98 339.15 97.9871C339.833 97.981 340.174 97.9779 340.473 98.0704C340.739 98.1532 340.978 98.2858 341.189 98.4688C341.425 98.6732 341.6 98.9598 341.949 99.533L343.767 102.516C344.671 103.998 345.122 104.739 345.704 104.992C346.212 105.212 346.788 105.212 347.296 104.992C347.878 104.739 348.329 103.998 349.233 102.516L353.971 94.7411C354.072 94.5753 354.122 94.4924 354.175 94.4211C354.227 94.3506 354.266 94.3036 354.326 94.2398C354.387 94.1751 354.474 94.0975 354.648 93.9421C356.122 92.6279 357.349 91.0443 358.256 89.2638C360 85.8413 360 81.3608 360 72.4V66.6C360 57.6392 360 53.1587 358.256 49.7362C356.722 46.7256 354.274 44.2779 351.264 42.7439C347.841 41 343.361 41 334.4 41H320.6C311.639 41 307.159 41 303.736 42.7439C300.726 44.2779 298.278 46.7256 296.744 49.7362Z"/>
</mask>
<path fill-rule="evenodd" clip-rule="evenodd" d="M296.744 49.7362C295 53.1587 295 57.6392 295 66.6V72.4C295 81.3608 295 85.8413 296.744 89.2638C298.278 92.2744 300.726 94.7221 303.736 96.2561C307.159 98 311.639 98 320.6 98H334.4C336.145 98 337.72 98 339.15 97.9871C339.833 97.981 340.174 97.9779 340.473 98.0704C340.739 98.1532 340.978 98.2858 341.189 98.4688C341.425 98.6732 341.6 98.9598 341.949 99.533L343.767 102.516C344.671 103.998 345.122 104.739 345.704 104.992C346.212 105.212 346.788 105.212 347.296 104.992C347.878 104.739 348.329 103.998 349.233 102.516L353.971 94.7411C354.072 94.5753 354.122 94.4924 354.175 94.4211C354.227 94.3506 354.266 94.3036 354.326 94.2398C354.387 94.1751 354.474 94.0975 354.648 93.9421C356.122 92.6279 357.349 91.0443 358.256 89.2638C360 85.8413 360 81.3608 360 72.4V66.6C360 57.6392 360 53.1587 358.256 49.7362C356.722 46.7256 354.274 44.2779 351.264 42.7439C347.841 41 343.361 41 334.4 41H320.6C311.639 41 307.159 41 303.736 42.7439C300.726 44.2779 298.278 46.7256 296.744 49.7362Z" fill="#F01F77"/>
<path d="M296.744 49.7362L294.071 48.3742L294.071 48.3742L296.744 49.7362ZM296.744 89.2638L294.071 90.6258L296.744 89.2638ZM303.736 96.2561L305.098 93.5831L303.736 96.2561ZM358.256 89.2638L355.583 87.9019V87.9019L358.256 89.2638ZM358.256 49.7362L355.583 51.0981L358.256 49.7362ZM351.264 42.7439L352.626 40.0709L351.264 42.7439ZM303.736 42.7439L302.374 40.0709L302.374 40.0709L303.736 42.7439ZM353.971 94.7411L351.409 93.1799L353.971 94.7411ZM354.175 94.4211L351.761 92.6394L354.175 94.4211ZM354.648 93.9421L352.652 91.7029L354.648 93.9421ZM354.326 94.2398L352.139 92.1861L354.326 94.2398ZM345.704 104.992L346.898 102.239L345.704 104.992ZM349.233 102.516L351.794 104.077L349.233 102.516ZM347.296 104.992L348.49 107.744L347.296 104.992ZM339.15 97.9871L339.123 94.9872L339.15 97.9871ZM340.473 98.0704L341.361 95.205L340.473 98.0704ZM341.949 99.533L344.511 97.9718L341.949 99.533ZM341.189 98.4688L339.225 100.737L341.189 98.4688ZM298 66.6C298 62.0701 298.002 58.8531 298.208 56.3355C298.411 53.853 298.796 52.316 299.417 51.0981L294.071 48.3742C292.948 50.5789 292.461 52.9934 292.228 55.8469C291.998 58.6655 292 62.1691 292 66.6H298ZM298 72.4V66.6H292V72.4H298ZM299.417 87.9019C298.796 86.684 298.411 85.147 298.208 82.6645C298.002 80.1469 298 76.9299 298 72.4H292C292 76.8309 291.998 80.3345 292.228 83.1531C292.461 86.0066 292.948 88.4211 294.071 90.6258L299.417 87.9019ZM305.098 93.5831C302.652 92.3367 300.663 90.348 299.417 87.9019L294.071 90.6258C295.892 94.2009 298.799 97.1075 302.374 98.9291L305.098 93.5831ZM320.6 95C316.07 95 312.853 94.9977 310.336 94.792C307.853 94.5891 306.316 94.2036 305.098 93.5831L302.374 98.9291C304.579 100.052 306.993 100.539 309.847 100.772C312.665 101.002 316.169 101 320.6 101V95ZM334.4 95H320.6V101H334.4V95ZM339.123 94.9872C337.709 95 336.149 95 334.4 95V101C336.141 101 337.731 101 339.178 100.987L339.123 94.9872ZM346.329 100.955L344.511 97.9718L339.388 101.094L341.206 104.077L346.329 100.955ZM351.409 93.1799L346.671 100.955L351.794 104.077L356.533 96.3023L351.409 93.1799ZM355.583 87.9019C354.846 89.3485 353.849 90.6351 352.652 91.7029L356.645 96.1812C358.395 94.6207 359.852 92.7401 360.929 90.6258L355.583 87.9019ZM357 72.4C357 76.9299 356.998 80.1469 356.792 82.6645C356.589 85.147 356.204 86.684 355.583 87.9019L360.929 90.6258C362.052 88.4211 362.539 86.0066 362.772 83.1531C363.002 80.3345 363 76.8309 363 72.4H357ZM357 66.6V72.4H363V66.6H357ZM355.583 51.0981C356.204 52.316 356.589 53.853 356.792 56.3355C356.998 58.8531 357 62.0701 357 66.6H363C363 62.1691 363.002 58.6655 362.772 55.8469C362.539 52.9934 362.052 50.5789 360.929 48.3742L355.583 51.0981ZM349.902 45.4169C352.348 46.6633 354.337 48.652 355.583 51.0981L360.929 48.3742C359.108 44.7991 356.201 41.8925 352.626 40.0709L349.902 45.4169ZM334.4 44C338.93 44 342.147 44.0023 344.664 44.208C347.147 44.4109 348.684 44.7964 349.902 45.4169L352.626 40.0709C350.421 38.9475 348.007 38.4611 345.153 38.228C342.335 37.9977 338.831 38 334.4 38V44ZM320.6 44H334.4V38H320.6V44ZM305.098 45.4169C306.316 44.7964 307.853 44.4109 310.336 44.208C312.853 44.0023 316.07 44 320.6 44V38C316.169 38 312.665 37.9977 309.847 38.228C306.993 38.4611 304.579 38.9475 302.374 40.0709L305.098 45.4169ZM299.417 51.0981C300.663 48.652 302.652 46.6633 305.098 45.4169L302.374 40.0709C298.799 41.8925 295.892 44.7991 294.071 48.3742L299.417 51.0981ZM356.533 96.3023C356.559 96.2597 356.578 96.2279 356.595 96.2007C356.611 96.1736 356.621 96.1581 356.627 96.1488C356.638 96.1309 356.621 96.1584 356.589 96.2028L351.761 92.6394C351.611 92.8435 351.48 93.0635 351.409 93.1799L356.533 96.3023ZM352.652 91.7029C352.532 91.8096 352.315 91.9988 352.139 92.1861L356.513 96.2935C356.488 96.3197 356.471 96.3373 356.464 96.3436C356.458 96.3494 356.459 96.3481 356.473 96.3357C356.486 96.3233 356.506 96.3056 356.536 96.2787C356.566 96.2519 356.6 96.2208 356.645 96.1812L352.652 91.7029ZM356.589 96.2028C356.589 96.2021 356.575 96.2213 356.552 96.249C356.529 96.2767 356.513 96.2941 356.513 96.2935L352.139 92.1861C351.999 92.336 351.884 92.4738 351.761 92.6394L356.589 96.2028ZM341.206 104.077C341.627 104.768 342.048 105.465 342.448 106.003C342.843 106.537 343.488 107.3 344.51 107.744L346.898 102.239C347.339 102.431 347.466 102.697 347.265 102.427C347.18 102.313 347.067 102.145 346.904 101.888C346.742 101.632 346.559 101.332 346.329 100.955L341.206 104.077ZM346.671 100.955C346.441 101.332 346.258 101.632 346.096 101.888C345.933 102.145 345.82 102.313 345.735 102.427C345.534 102.697 345.661 102.431 346.102 102.239L348.49 107.744C349.512 107.3 350.157 106.537 350.552 106.003C350.952 105.465 351.373 104.768 351.794 104.077L346.671 100.955ZM344.51 107.744C345.779 108.295 347.221 108.295 348.49 107.744L346.102 102.239C346.356 102.129 346.644 102.129 346.898 102.239L344.51 107.744ZM339.178 100.987C339.353 100.985 339.484 100.984 339.596 100.985C339.708 100.985 339.773 100.986 339.811 100.988C339.884 100.992 339.767 100.993 339.584 100.936L341.361 95.205C340.508 94.9403 339.598 94.983 339.123 94.9872L339.178 100.987ZM344.511 97.9718C344.267 97.5719 343.828 96.7854 343.153 96.201L339.225 100.737C339.083 100.613 339.022 100.515 339.06 100.57C339.08 100.599 339.115 100.651 339.173 100.744C339.231 100.837 339.298 100.947 339.388 101.094L344.511 97.9718ZM339.584 100.936C339.455 100.896 339.327 100.825 339.225 100.737L343.153 96.201C342.629 95.7467 342.024 95.4106 341.361 95.205L339.584 100.936Z" fill="white" mask="url(#path-4-outside-2_3122_3405)"/>
<path d="M312.001 54.3024L341.432 53.1406L342.207 60.1112H312.001V54.3024Z" fill="white"/>
<path d="M313.184 79.1758L342.474 76.8627L343.791 83.3931L313.637 84.6444L313.184 79.1758Z" fill="white"/>
<path d="M342.235 65.3969L312.773 65.9361L312.729 72.5325L342.842 70.8582L342.235 65.3969Z" fill="white"/>
<mask id="path-9-outside-3_3122_3405" maskUnits="userSpaceOnUse" x="239" y="12" width="71" height="71" fill="black">
<rect fill="white" x="239" y="12" width="71" height="71"/>
<path fill-rule="evenodd" clip-rule="evenodd" d="M243.744 23.7362C242 27.1587 242 31.6392 242 40.6V46.4C242 55.3608 242 59.8413 243.744 63.2638C244.682 65.1043 245.961 66.7343 247.501 68.0739C247.685 68.2337 247.777 68.3136 247.841 68.3804C247.904 68.4464 247.945 68.4951 248 68.5684C248.055 68.6425 248.107 68.7289 248.213 68.9019L252.767 76.3756C253.671 77.8575 254.122 78.5985 254.704 78.8509C255.212 79.0713 255.788 79.0713 256.296 78.8509C256.878 78.5985 257.329 77.8575 258.233 76.3756L259.965 73.5325C260.315 72.9589 260.49 72.672 260.726 72.4676C260.937 72.2845 261.176 72.1519 261.443 72.0692C261.741 71.9767 262.083 71.9799 262.766 71.9864C264.219 72 265.821 72 267.6 72H281.4C290.361 72 294.841 72 298.264 70.2561C301.274 68.7221 303.722 66.2744 305.256 63.2638C307 59.8413 307 55.3608 307 46.4V40.6C307 31.6392 307 27.1587 305.256 23.7362C303.722 20.7256 301.274 18.2779 298.264 16.7439C294.841 15 290.361 15 281.4 15H267.6C258.639 15 254.159 15 250.736 16.7439C247.726 18.2779 245.278 20.7256 243.744 23.7362Z"/>
</mask>
<path fill-rule="evenodd" clip-rule="evenodd" d="M243.744 23.7362C242 27.1587 242 31.6392 242 40.6V46.4C242 55.3608 242 59.8413 243.744 63.2638C244.682 65.1043 245.961 66.7343 247.501 68.0739C247.685 68.2337 247.777 68.3136 247.841 68.3804C247.904 68.4464 247.945 68.4951 248 68.5684C248.055 68.6425 248.107 68.7289 248.213 68.9019L252.767 76.3756C253.671 77.8575 254.122 78.5985 254.704 78.8509C255.212 79.0713 255.788 79.0713 256.296 78.8509C256.878 78.5985 257.329 77.8575 258.233 76.3756L259.965 73.5325C260.315 72.9589 260.49 72.672 260.726 72.4676C260.937 72.2845 261.176 72.1519 261.443 72.0692C261.741 71.9767 262.083 71.9799 262.766 71.9864C264.219 72 265.821 72 267.6 72H281.4C290.361 72 294.841 72 298.264 70.2561C301.274 68.7221 303.722 66.2744 305.256 63.2638C307 59.8413 307 55.3608 307 46.4V40.6C307 31.6392 307 27.1587 305.256 23.7362C303.722 20.7256 301.274 18.2779 298.264 16.7439C294.841 15 290.361 15 281.4 15H267.6C258.639 15 254.159 15 250.736 16.7439C247.726 18.2779 245.278 20.7256 243.744 23.7362Z" fill="#C2D72F"/>
<path d="M243.744 23.7362L241.071 22.3742L241.071 22.3742L243.744 23.7362ZM243.744 63.2638L241.071 64.6258H241.071L243.744 63.2638ZM298.264 70.2561L296.902 67.5831L298.264 70.2561ZM305.256 63.2638L302.583 61.9019L305.256 63.2638ZM305.256 23.7362L302.583 25.0981L305.256 23.7362ZM298.264 16.7439L299.626 14.0709L298.264 16.7439ZM250.736 16.7439L249.374 14.0709L249.374 14.0709L250.736 16.7439ZM260.726 72.4676L262.689 74.7356L260.726 72.4676ZM262.766 71.9864L262.738 74.9862L262.766 71.9864ZM261.443 72.0692L262.331 74.9348L261.443 72.0692ZM252.767 76.3756L255.329 74.8144L252.767 76.3756ZM254.704 78.8509L253.51 81.603L254.704 78.8509ZM256.296 78.8509L255.102 76.0988L256.296 78.8509ZM247.501 68.0739L245.533 70.3377L247.501 68.0739ZM247.841 68.3804L245.672 70.4531L247.841 68.3804ZM248.213 68.9019L245.651 70.4631L248.213 68.9019ZM248 68.5684L245.593 70.3591L248 68.5684ZM245 40.6C245 36.0701 245.002 32.8531 245.208 30.3355C245.411 27.853 245.796 26.316 246.417 25.0981L241.071 22.3742C239.948 24.5789 239.461 26.9934 239.228 29.8469C238.998 32.6655 239 36.1691 239 40.6H245ZM245 46.4V40.6H239V46.4H245ZM246.417 61.9019C245.796 60.684 245.411 59.147 245.208 56.6645C245.002 54.1469 245 50.9299 245 46.4H239C239 50.8309 238.998 54.3345 239.228 57.1531C239.461 60.0066 239.948 62.4211 241.071 64.6258L246.417 61.9019ZM249.47 65.8101C248.218 64.7216 247.179 63.3972 246.417 61.9019L241.071 64.6258C242.184 66.8113 243.704 68.7471 245.533 70.3377L249.47 65.8101ZM255.329 74.8144L250.775 67.3407L245.651 70.4631L250.206 77.9368L255.329 74.8144ZM257.403 71.9713L255.671 74.8144L260.794 77.9368L262.527 75.0937L257.403 71.9713ZM267.6 69C265.817 69 264.23 69 262.795 68.9865L262.738 74.9862C264.208 75 265.825 75 267.6 75V69ZM281.4 69H267.6V75H281.4V69ZM296.902 67.5831C295.684 68.2036 294.147 68.5891 291.664 68.792C289.147 68.9977 285.93 69 281.4 69V75C285.831 75 289.335 75.0023 292.153 74.772C295.007 74.5389 297.421 74.0525 299.626 72.9291L296.902 67.5831ZM302.583 61.9019C301.337 64.348 299.348 66.3367 296.902 67.5831L299.626 72.9291C303.201 71.1075 306.108 68.2009 307.929 64.6258L302.583 61.9019ZM304 46.4C304 50.9299 303.998 54.1469 303.792 56.6645C303.589 59.147 303.204 60.684 302.583 61.9019L307.929 64.6258C309.052 62.4211 309.539 60.0066 309.772 57.1531C310.002 54.3345 310 50.8309 310 46.4H304ZM304 40.6V46.4H310V40.6H304ZM302.583 25.0981C303.204 26.316 303.589 27.853 303.792 30.3355C303.998 32.8531 304 36.0701 304 40.6H310C310 36.1691 310.002 32.6655 309.772 29.8469C309.539 26.9934 309.052 24.5789 307.929 22.3742L302.583 25.0981ZM296.902 19.4169C299.348 20.6633 301.337 22.652 302.583 25.0981L307.929 22.3742C306.108 18.7991 303.201 15.8925 299.626 14.0709L296.902 19.4169ZM281.4 18C285.93 18 289.147 18.0023 291.664 18.208C294.147 18.4109 295.684 18.7964 296.902 19.4169L299.626 14.0709C297.421 12.9475 295.007 12.4611 292.153 12.228C289.335 11.9977 285.831 12 281.4 12V18ZM267.6 18H281.4V12H267.6V18ZM252.098 19.4169C253.316 18.7964 254.853 18.4109 257.336 18.208C259.853 18.0023 263.07 18 267.6 18V12C263.169 12 259.665 11.9977 256.847 12.228C253.993 12.4611 251.579 12.9475 249.374 14.0709L252.098 19.4169ZM246.417 25.0981C247.663 22.652 249.652 20.6633 252.098 19.4169L249.374 14.0709C245.799 15.8925 242.892 18.7991 241.071 22.3742L246.417 25.0981ZM262.527 75.0937C262.617 74.9461 262.684 74.8364 262.742 74.7431C262.8 74.6503 262.834 74.5984 262.855 74.5686C262.893 74.5142 262.832 74.6123 262.689 74.7356L258.762 70.1996C258.087 70.7841 257.647 71.5711 257.403 71.9713L262.527 75.0937ZM262.795 68.9865C262.32 68.982 261.409 68.9389 260.555 69.2036L262.331 74.9348C262.147 74.9917 262.031 74.9907 262.104 74.9873C262.142 74.9854 262.207 74.9838 262.319 74.9836C262.431 74.9834 262.562 74.9846 262.738 74.9862L262.795 68.9865ZM262.689 74.7356C262.587 74.8239 262.46 74.8948 262.331 74.9348L260.555 69.2036C259.892 69.4091 259.287 69.7451 258.762 70.1996L262.689 74.7356ZM250.206 77.9368C250.627 78.6276 251.048 79.3242 251.448 79.8627C251.843 80.396 252.488 81.1595 253.51 81.603L255.898 76.0988C256.339 76.29 256.466 76.5568 256.265 76.2859C256.18 76.172 256.067 76.0041 255.904 75.7472C255.742 75.4916 255.559 75.1913 255.329 74.8144L250.206 77.9368ZM255.671 74.8144C255.441 75.1913 255.258 75.4916 255.096 75.7472C254.933 76.0041 254.82 76.172 254.735 76.2859C254.534 76.5568 254.661 76.29 255.102 76.0988L257.49 81.603C258.512 81.1595 259.157 80.396 259.552 79.8627C259.952 79.3242 260.373 78.6276 260.794 77.9368L255.671 74.8144ZM253.51 81.603C254.779 82.1539 256.221 82.1539 257.49 81.603L255.102 76.0988C255.356 75.9886 255.644 75.9886 255.898 76.0988L253.51 81.603ZM245.533 70.3377C245.58 70.3785 245.616 70.4104 245.648 70.4381C245.68 70.4657 245.7 70.484 245.714 70.4966C245.729 70.5094 245.73 70.5108 245.724 70.5049C245.717 70.4984 245.698 70.4802 245.672 70.4531L250.01 66.3077C249.825 66.1141 249.596 65.9197 249.47 65.8101L245.533 70.3377ZM250.775 67.3407C250.701 67.2193 250.564 66.9898 250.406 66.7776L245.593 70.3591C245.558 70.313 245.541 70.2842 245.553 70.3029C245.559 70.3126 245.569 70.3288 245.586 70.3571C245.604 70.3855 245.624 70.4186 245.651 70.4631L250.775 67.3407ZM245.672 70.4531C245.673 70.4537 245.655 70.4358 245.631 70.407C245.607 70.3783 245.592 70.3584 245.593 70.3591L250.406 66.7776C250.278 66.6056 250.158 66.4627 250.01 66.3077L245.672 70.4531Z" fill="white" mask="url(#path-9-outside-3_3122_3405)"/>
<path d="M277.378 47.1767V46.8314C277.378 45.5267 277.838 45.0279 279.603 44.4907L281.522 43.9151C286.856 42.3802 288.851 40.0779 288.851 36.5093V36.164C288.851 32.1733 286.319 28.1058 275.076 28.1058H273.195C260.609 28.1058 259.497 33.8616 259.497 37.2384V37.7372H268.898C269.013 36.7395 269.013 34.3221 274.27 34.3221C278.721 34.3221 279.488 35.243 279.488 36.3558C279.488 37.3151 278.913 37.8523 276.495 38.6198L274.462 39.2721C269.665 40.807 268.783 42.457 268.783 45.4884V47.1767H277.378ZM277.8 49.4791H268.399V57H277.8V49.4791Z" fill="white"/>
<defs>
<filter id="filter0_f_3122_3405" x="0.810272" y="0.558594" width="406.589" height="294.727" filterUnits="userSpaceOnUse" color-interpolation-filters="sRGB">
<feFlood flood-opacity="0" result="BackgroundImageFix"/>
<feBlend mode="normal" in="SourceGraphic" in2="BackgroundImageFix" result="shape"/>
<feGaussianBlur stdDeviation="39.5" result="effect1_foregroundBlur_3122_3405"/>
</filter>
</defs>
</svg>
