<?xml version="1.0" encoding="UTF-8" standalone="no" ?>
<!DOCTYPE svg PUBLIC "-//W3C//DTD SVG 1.1//EN" "http://www.w3.org/Graphics/SVG/1.1/DTD/svg11.dtd">
<svg xmlns="http://www.w3.org/2000/svg" xmlns:xlink="http://www.w3.org/1999/xlink" version="1.1" width="302" height="224" viewBox="0 0 302 224" xml:space="preserve">
<desc>Created with Fabric.js 3.6.6</desc>
<defs>
</defs>
<g transform="matrix(1 0 0 1 225.5 75.5)"  >
<linearGradient id="SVGID_0" gradientUnits="userSpaceOnUse" gradientTransform="matrix(1 0 0 1 -45 -25)"  x1="0" y1="0" x2="90" y2="0">
<stop offset="0%" style="stop-color:rgb(255,0,0);stop-opacity: 1"/>
<stop offset="100%" style="stop-color:rgb(255,165,0);stop-opacity: 1"/>
</linearGradient>
<rect style="stroke: none; stroke-width: 1; stroke-dasharray: none; stroke-linecap: butt; stroke-dashoffset: 0; stroke-linejoin: miter; stroke-miterlimit: 4; fill: url(#SVGID_0); fill-rule: nonzero; opacity: 1;"  x="-45" y="-25" rx="0" ry="0" width="90" height="50" />
</g>
<g transform="matrix(1.01 0 0 1.01 149.32 117.32)"  >
<g style=""   >
		<g transform="matrix(1 0 0 1 8.63 -6.75)"  >
<path style="stroke: rgb(255,255,255); stroke-width: 3; stroke-dasharray: none; stroke-linecap: butt; stroke-dashoffset: 0; stroke-linejoin: miter; stroke-miterlimit: 4; fill: rgb(255,64,86); fill-rule: nonzero; opacity: 1;"  transform=" translate(-157.63, -83.25)" d="M 22.229 19.1759 C 20.8216 21.9682 20.1546 25.1173 19.826 29.1632 C 19.5 33.1773 19.5 38.2019 19.5 44.7762 V 44.8455 V 124.6 V 124.67 C 19.5 131.331 19.5 136.422 19.832 140.485 C 20.1665 144.58 20.8457 147.763 22.2793 150.577 C 24.7241 155.375 28.6251 159.276 33.4232 161.721 C 36.2369 163.154 39.4199 163.833 43.5147 164.168 C 47.5779 164.5 52.6688 164.5 59.3306 164.5 H 59.4 H 250.502 H 250.57 C 256.891 164.5 261.723 164.5 265.594 164.191 C 269.497 163.88 272.546 163.249 275.275 161.918 C 279.933 159.645 283.789 156.006 286.327 151.486 C 287.814 148.839 288.62 145.832 289.156 141.953 C 289.688 138.106 289.967 133.282 290.332 126.972 L 290.336 126.904 L 295.114 44.3004 L 295.118 44.2272 C 295.528 37.1277 295.842 31.7057 295.729 27.378 C 295.616 23.0191 295.07 19.6266 293.674 16.6231 C 291.297 11.5111 287.294 7.33063 282.289 4.73543 C 279.349 3.21069 275.983 2.51853 271.633 2.21673 C 267.314 1.91708 261.883 1.99608 254.772 2.09952 L 254.7 2.10057 L 58.8197 4.94974 L 58.7504 4.95074 C 52.1768 5.04636 47.1527 5.11943 43.1437 5.50377 C 39.103 5.89115 35.9641 6.60392 33.1925 8.05182 C 28.4644 10.5218 24.63 14.4124 22.229 19.1759 Z" stroke-linecap="round" />
</g>
		<g transform="matrix(1 0 0 1 121.09 22)"  >
<path style="stroke: none; stroke-width: 1; stroke-dasharray: none; stroke-linecap: butt; stroke-dashoffset: 0; stroke-linejoin: miter; stroke-miterlimit: 4; fill: rgb(240,31,119); fill-rule: nonzero; opacity: 1;"  transform=" translate(-270.09, -112)" d="M 279.759 106.792 C 281.04 109.171 282.124 111.767 284.152 113.552 C 285.888 115.081 285.313 117.918 283.118 118.65 L 279.758 119.77 C 277.712 120.452 275.844 121.609 273.818 122.344 C 272.647 122.769 271.384 123 270.067 123 C 268.75 123 267.488 122.769 266.317 122.344 C 264.291 121.609 262.423 120.452 260.378 119.77 L 257.052 118.662 C 254.849 117.927 254.28 115.076 256.033 113.552 C 258.02 111.824 259.08 109.297 260.289 106.957 C 262.117 103.419 265.81 101 270.067 101 C 274.258 101 277.902 103.344 279.759 106.792 Z" stroke-linecap="round" />
</g>
		<g transform="matrix(1 0 0 1 121.12 56.59)"  >
<path style="stroke: none; stroke-width: 1; stroke-dasharray: none; stroke-linecap: butt; stroke-dashoffset: 0; stroke-linejoin: miter; stroke-miterlimit: 4; fill: rgb(240,31,119); fill-rule: nonzero; opacity: 1;"  transform=" translate(-270.12, -146.59)" d="M 254.619 134.885 C 257.323 130.018 262.453 127 268.02 127 H 273.185 C 278.625 127 283.639 129.95 286.281 134.706 C 286.759 135.566 287.134 136.478 287.399 137.425 L 291.894 153.478 C 293.073 157.69 290.68 162.107 286.53 163.49 C 275.885 167.038 264.245 167.082 253.6 163.533 C 249.388 162.129 247.088 157.599 248.442 153.37 L 253.611 137.215 C 253.87 136.407 254.207 135.627 254.619 134.885 Z" stroke-linecap="round" />
</g>
		<g transform="matrix(1 0 0 1 121.12 43.59)"  >
<path style="stroke: none; stroke-width: 1; stroke-dasharray: none; stroke-linecap: butt; stroke-dashoffset: 0; stroke-linejoin: miter; stroke-miterlimit: 4; fill: rgb(255,255,255); fill-rule: evenodd; opacity: 1;"  transform=" translate(-270.12, -133.59)" d="M 286.134 111.301 C 289.608 114.359 288.457 120.032 284.066 121.496 L 280.707 122.616 C 279.884 122.89 279.062 123.272 278.074 123.744 C 278.01 123.775 277.944 123.806 277.878 123.838 C 277.53 124.004 277.159 124.182 276.77 124.361 C 281.861 125.396 286.324 128.605 288.904 133.249 C 289.495 134.314 289.96 135.444 290.288 136.616 L 294.783 152.669 C 296.401 158.45 293.12 164.456 287.479 166.336 C 276.226 170.087 263.92 170.136 252.651 166.379 C 246.881 164.456 243.73 158.249 245.584 152.456 L 250.754 136.3 C 251.073 135.304 251.489 134.342 251.997 133.428 C 254.515 128.896 258.791 125.705 263.705 124.515 C 263.192 124.286 262.706 124.053 262.257 123.838 C 262.191 123.806 262.125 123.775 262.061 123.744 C 261.073 123.272 260.252 122.89 259.429 122.616 L 256.104 121.508 C 251.697 120.039 250.559 114.336 254.064 111.288 C 255.26 110.248 255.975 108.832 256.988 106.829 C 257.186 106.436 257.396 106.02 257.624 105.58 C 259.947 101.084 264.644 98 270.067 98 C 275.406 98 280.041 100.989 282.4 105.37 C 282.698 105.923 282.949 106.411 283.184 106.87 C 283.541 107.567 283.864 108.195 284.264 108.879 C 284.869 109.913 285.458 110.705 286.134 111.301 Z M 280.456 108.127 C 280.226 107.679 279.996 107.232 279.759 106.792 C 277.902 103.344 274.259 101 270.067 101 C 265.81 101 262.117 103.419 260.289 106.957 C 260.102 107.319 259.918 107.685 259.735 108.053 C 258.73 110.059 257.712 112.091 256.033 113.552 C 254.28 115.076 254.849 117.927 257.052 118.662 L 260.378 119.77 C 261.46 120.131 262.493 120.625 263.526 121.119 C 264.444 121.559 265.363 121.998 266.317 122.344 C 267.488 122.769 268.75 123 270.067 123 C 271.384 123 272.647 122.769 273.818 122.344 C 274.772 121.998 275.691 121.559 276.609 121.119 C 277.642 120.625 278.675 120.131 279.758 119.77 L 283.118 118.65 C 285.313 117.918 285.888 115.081 284.152 113.552 C 282.499 112.097 281.473 110.103 280.456 108.127 Z M 268.02 127 C 262.453 127 257.323 130.018 254.619 134.885 C 254.207 135.627 253.87 136.407 253.611 137.215 L 248.442 153.37 C 247.088 157.599 249.388 162.129 253.6 163.533 C 264.245 167.082 275.885 167.038 286.531 163.49 C 290.68 162.107 293.073 157.69 291.894 153.478 L 287.399 137.425 C 287.134 136.478 286.759 135.566 286.281 134.706 C 283.639 129.95 278.626 127 273.185 127 H 268.02 Z" stroke-linecap="round" />
</g>
		<g transform="matrix(1 0 0 1 -123 -14.09)"  >
<path style="stroke: none; stroke-width: 1; stroke-dasharray: none; stroke-linecap: butt; stroke-dashoffset: 0; stroke-linejoin: miter; stroke-miterlimit: 4; fill: rgb(194,215,47); fill-rule: nonzero; opacity: 1;"  transform=" translate(-26, -75.91)" d="M 5.11854 63.7212 C 7.94551 58.9359 13.09 56 18.6479 56 H 33.3521 C 38.91 56 44.0544 58.9359 46.8814 63.7212 C 48.859 67.0687 49.2607 71.1178 47.9792 74.7886 L 43.7931 86.78 C 42.8493 89.4838 40.878 91.7069 38.3065 92.9674 C 30.5434 96.7728 21.4565 96.7728 13.6934 92.9674 C 11.1219 91.7069 9.15069 89.4838 8.20681 86.78 L 4.02072 74.7886 C 2.73927 71.1178 3.14091 67.0687 5.11854 63.7212 Z" stroke-linecap="round" />
</g>
		<g transform="matrix(1 0 0 1 -123 -49)"  >
<path style="stroke: none; stroke-width: 1; stroke-dasharray: none; stroke-linecap: butt; stroke-dashoffset: 0; stroke-linejoin: miter; stroke-miterlimit: 4; fill: rgb(194,215,47); fill-rule: nonzero; opacity: 1;"  transform=" translate(-26, -41)" d="M 37 41 C 37 47.0751 32.0751 52 26 52 C 19.9248 52 15 47.0751 15 41 C 15 34.9249 19.9248 30 26 30 C 32.0751 30 37 34.9249 37 41 Z" stroke-linecap="round" />
</g>
		<g transform="matrix(1 0 0 1 -123 -27.09)"  >
<path style="stroke: none; stroke-width: 1; stroke-dasharray: none; stroke-linecap: butt; stroke-dashoffset: 0; stroke-linejoin: miter; stroke-miterlimit: 4; fill: rgb(255,255,255); fill-rule: evenodd; opacity: 1;"  transform=" translate(-26, -62.91)" d="M 33.2152 53 H 33.3521 C 39.9711 53 46.0977 56.4965 49.4644 62.1953 C 51.8913 66.3034 52.3842 71.2725 50.8116 75.7774 L 46.6255 87.7688 C 45.4215 91.2177 42.9071 94.0533 39.627 95.6611 C 31.0309 99.8749 20.969 99.8749 12.373 95.6611 C 9.09287 94.0533 6.57842 91.2177 5.37444 87.7688 L 1.18835 75.7774 C -0.384267 71.2725 0.10863 66.3034 2.53561 62.1953 C 5.90229 56.4965 12.0289 53 18.6479 53 H 18.7848 C 14.7191 50.5502 12 46.0927 12 41 C 12 33.268 18.268 27 26 27 C 33.732 27 40 33.268 40 41 C 40 46.0926 37.2808 50.5502 33.2152 53 Z M 26 52 C 32.0751 52 37 47.0751 37 41 C 37 34.9249 32.0751 30 26 30 C 19.9249 30 15 34.9249 15 41 C 15 47.0751 19.9249 52 26 52 Z M 18.6479 56 C 13.09 56 7.94552 58.9359 5.11855 63.7212 C 3.14091 67.0687 2.73927 71.1178 4.02073 74.7886 L 8.20682 86.78 C 9.1507 89.4838 11.122 91.7068 13.6934 92.9674 C 21.4565 96.7728 30.5434 96.7728 38.3065 92.9674 C 40.878 91.7068 42.8493 89.4838 43.7931 86.78 L 47.9792 74.7886 C 49.2607 71.1178 48.859 67.0687 46.8814 63.7212 C 44.0544 58.9359 38.91 56 33.3521 56 H 18.6479 Z" stroke-linecap="round" />
</g>
</g>
</g>
</svg>