<svg width="304" height="224" viewBox="0 0 304 224" fill="none" xmlns="http://www.w3.org/2000/svg">
<path fill-rule="evenodd" clip-rule="evenodd" d="M5.55778 49.2608C2.96978 54.7103 3.32186 61.866 4.02604 76.1774L8.1744 160.487C8.8062 173.328 9.1221 179.748 11.8225 184.625C14.1994 188.918 17.8352 192.38 22.2399 194.543C27.2441 197 33.6721 197 46.528 197H121.459C122.443 197 122.934 197 123.377 197.14C123.768 197.265 124.13 197.468 124.44 197.738C124.79 198.042 125.046 198.462 125.558 199.302L135.901 216.274C137.256 218.497 137.933 219.609 138.806 219.987C139.568 220.318 140.432 220.318 141.194 219.987C142.067 219.609 142.744 218.497 144.099 216.274L154.442 199.302C154.954 198.462 155.21 198.042 155.56 197.738C155.87 197.468 156.232 197.265 156.623 197.14C157.066 197 157.557 197 158.541 197H238.6C252.041 197 258.762 197 263.896 194.384C268.412 192.083 272.083 188.412 274.384 183.896C277 178.762 277 172.041 277 158.6V78.5714C277 65.3926 277 58.8032 274.455 53.7265C272.216 49.2596 268.638 45.603 264.221 43.2668C259.201 40.6117 252.613 40.468 239.438 40.1805L43.2173 35.8993C28.892 35.5868 21.7294 35.4305 16.3526 38.1666C11.6278 40.5709 7.83199 44.4719 5.55778 49.2608Z" fill="#FF4056"/>
<path fill-rule="evenodd" clip-rule="evenodd" d="M0.559133 59.2921C0.713095 54.8452 1.3026 51.2276 2.84783 47.9738C5.40633 42.5864 9.67661 38.1977 14.992 35.4929C18.2024 33.8592 21.8024 33.171 26.2435 32.8955C30.6227 32.6238 36.0984 32.7433 43.1419 32.897L239.637 37.1842C246.111 37.3254 251.153 37.4354 255.195 37.8516C259.301 38.2743 262.633 39.033 265.624 40.615C270.593 43.2432 274.618 47.3568 277.137 52.3821C278.653 55.4069 279.339 58.7546 279.672 62.8686C280 66.9191 280 71.9614 280 78.4373V158.735C280 165.341 280 170.483 279.663 174.608C279.321 178.795 278.616 182.197 277.057 185.258C274.469 190.338 270.338 194.469 265.258 197.057C262.197 198.617 258.795 199.321 254.607 199.663C250.483 200 245.342 200 238.736 200H158.541C158.015 200 157.748 200.001 157.554 200.013C157.548 200.013 157.543 200.013 157.538 200.014C157.535 200.018 157.531 200.022 157.528 200.027C157.418 200.187 157.277 200.415 157.004 200.863L146.596 217.941C145.975 218.962 145.405 219.896 144.874 220.611C144.329 221.345 143.556 222.233 142.388 222.739C140.865 223.401 139.135 223.401 137.612 222.739C136.444 222.233 135.671 221.345 135.126 220.611C134.595 219.896 134.026 218.962 133.404 217.941L122.996 200.863C122.723 200.415 122.582 200.187 122.472 200.027C122.469 200.022 122.465 200.018 122.462 200.014C122.457 200.013 122.452 200.013 122.446 200.013C122.252 200.001 121.985 200 121.459 200H46.3962C40.0799 200 35.1596 200 31.2003 199.683C27.1773 199.361 23.8974 198.699 20.9175 197.235C15.9622 194.802 11.872 190.908 9.19795 186.078C7.58987 183.174 6.76683 179.931 6.24765 175.928C5.73669 171.989 5.4949 167.075 5.18452 160.767L1.02274 76.1842C0.67649 69.1475 0.407314 63.6772 0.559133 59.2921ZM4.02603 76.1774C3.32186 61.866 2.96977 54.7103 5.55777 49.2608C7.83199 44.472 11.6278 40.5709 16.3526 38.1666C21.7294 35.4305 28.892 35.5868 43.2172 35.8994L239.438 40.1805C252.613 40.468 259.201 40.6117 264.221 43.2669C268.638 45.6031 272.216 49.2597 274.455 53.7266C277 58.8033 277 65.3926 277 78.5714V158.6C277 172.041 277 178.762 274.384 183.896C272.083 188.412 268.412 192.083 263.896 194.384C258.762 197 252.041 197 238.6 197H158.541C157.557 197 157.066 197 156.623 197.14C156.232 197.265 155.87 197.468 155.56 197.738C155.21 198.042 154.954 198.462 154.442 199.302L144.099 216.274C142.744 218.497 142.067 219.609 141.194 219.987C140.432 220.318 139.568 220.318 138.806 219.987C137.933 219.609 137.256 218.497 135.901 216.274L125.558 199.302C125.046 198.462 124.79 198.042 124.44 197.738C124.13 197.468 123.768 197.265 123.377 197.14C122.934 197 122.443 197 121.459 197H46.528C33.6721 197 27.2441 197 22.2399 194.543C17.8352 192.38 14.1994 188.918 11.8225 184.625C9.12209 179.748 8.80619 173.328 8.1744 160.487L4.02603 76.1774Z" fill="white"/>
<path fill-rule="evenodd" clip-rule="evenodd" d="M237.744 37.7362C236 41.1587 236 45.6392 236 54.6V60.4C236 69.3608 236 73.8413 237.744 77.2638C239.278 80.2744 241.726 82.7221 244.736 84.2561C248.159 86 252.639 86 261.6 86H275.4C277.145 86 278.72 86 280.15 85.9871C280.833 85.981 281.174 85.9779 281.473 86.0704C281.739 86.1532 281.978 86.2858 282.189 86.4688C282.425 86.6732 282.6 86.9598 282.949 87.533L284.767 90.5162C285.671 91.9981 286.122 92.7391 286.704 92.9915C287.212 93.2119 287.788 93.2119 288.296 92.9915C288.878 92.7391 289.329 91.9981 290.233 90.5162L294.971 82.7411C295.072 82.5753 295.122 82.4924 295.175 82.4211C295.227 82.3506 295.266 82.3036 295.326 82.2398C295.387 82.1751 295.474 82.0975 295.648 81.9421C297.122 80.6279 298.349 79.0443 299.256 77.2638C301 73.8413 301 69.3608 301 60.4V54.6C301 45.6392 301 41.1587 299.256 37.7362C297.722 34.7256 295.274 32.2779 292.264 30.7439C288.841 29 284.361 29 275.4 29H261.6C252.639 29 248.159 29 244.736 30.7439C241.726 32.2779 239.278 34.7256 237.744 37.7362Z" fill="#F01F77"/>
<path fill-rule="evenodd" clip-rule="evenodd" d="M237.744 37.7362L235.071 36.3742C236.892 32.7991 239.799 29.8925 243.374 28.0709L244.736 30.7439C241.726 32.2779 239.278 34.7256 237.744 37.7362ZM297.561 84.2564L297.645 84.1812C299.395 82.6207 300.852 80.7401 301.929 78.6258C303.052 76.4211 303.539 74.0066 303.772 71.1531C304 68.3626 304 64.9006 304 60.5321V54.4679C304 50.0994 304 46.6374 303.772 43.8469C303.539 40.9934 303.052 38.5789 301.929 36.3742C300.108 32.7991 297.201 29.8925 293.626 28.0709C291.421 26.9475 289.007 26.4611 286.153 26.228C283.363 26 279.901 26 275.532 26H261.468C257.099 26 253.637 26 250.847 26.228C247.993 26.4611 245.579 26.9475 243.374 28.0709L244.736 30.7439C248.159 29 252.639 29 261.6 29H275.4C284.361 29 288.841 29 292.264 30.7439C295.274 32.2779 297.722 34.7256 299.256 37.7362C301 41.1587 301 45.6392 301 54.6V60.4C301 69.3608 301 73.8413 299.256 77.2638C298.349 79.0443 297.122 80.6279 295.648 81.9421C295.474 82.0975 295.387 82.1751 295.326 82.2398C295.266 82.3036 295.227 82.3506 295.175 82.4211C295.122 82.4924 295.072 82.5753 294.971 82.7411L290.233 90.5162C289.329 91.9982 288.878 92.7391 288.296 92.9915C287.788 93.2119 287.212 93.2119 286.704 92.9915C286.122 92.7391 285.671 91.9981 284.767 90.5162L282.949 87.533C282.6 86.9598 282.425 86.6732 282.189 86.4688C281.978 86.2858 281.739 86.1532 281.473 86.0704C281.174 85.9779 280.833 85.981 280.15 85.9871C278.72 86 277.145 86 275.4 86H261.6C252.639 86 248.159 86 244.736 84.2561C241.726 82.7221 239.278 80.2744 237.744 77.2638C236 73.8413 236 69.3608 236 60.4V54.6C236 45.6392 236 41.1587 237.744 37.7362L235.071 36.3742C233.948 38.5789 233.461 40.9934 233.228 43.8469C233 46.6374 233 50.0994 233 54.468V60.532C233 64.9006 233 68.3626 233.228 71.1531C233.461 74.0066 233.948 76.4211 235.071 78.6258C236.892 82.2009 239.799 85.1075 243.374 86.9291C245.579 88.0525 247.993 88.5389 250.847 88.772C253.637 89 257.099 89 261.468 89H275.409C277.147 89 278.733 89 280.178 88.987C280.229 88.9865 280.277 88.9861 280.322 88.9857C280.342 89.0195 280.364 89.0556 280.388 89.0942L282.262 92.1699C282.664 92.8301 283.066 93.4888 283.448 94.0033C283.843 94.5366 284.488 95.3001 285.51 95.7436C286.779 96.2945 288.221 96.2945 289.49 95.7436C290.512 95.3001 291.157 94.5366 291.552 94.0033C291.934 93.4888 292.336 92.8301 292.738 92.1698L297.561 84.2564Z" fill="white"/>
<path d="M253.001 42.3013L282.432 41.1395L283.207 48.1101H253.001V42.3013Z" fill="white"/>
<path d="M254.184 67.1742L283.474 64.8612L284.791 71.3915L254.637 72.6428L254.184 67.1742Z" fill="white"/>
<path d="M283.235 53.3986L253.773 53.9378L253.729 60.5342L283.842 58.8599L283.235 53.3986Z" fill="white"/>
<path fill-rule="evenodd" clip-rule="evenodd" d="M184.744 11.7362C183 15.1587 183 19.6392 183 28.6V34.4C183 43.3608 183 47.8413 184.744 51.2638C185.681 53.1038 186.96 54.7335 188.5 56.0729C188.684 56.2327 188.776 56.3125 188.84 56.3793C188.903 56.4453 188.944 56.494 188.998 56.5672C189.053 56.6413 189.106 56.7278 189.211 56.9006L193.767 64.3767C194.671 65.8586 195.122 66.5996 195.704 66.852C196.212 67.0724 196.788 67.0724 197.296 66.852C197.878 66.5996 198.329 65.8586 199.233 64.3767L200.966 61.5325C201.315 60.9589 201.49 60.672 201.726 60.4676C201.938 60.2845 202.176 60.152 202.444 60.0692C202.742 59.9767 203.084 59.9799 203.767 59.9864C205.219 60 206.821 60 208.6 60H222.4C231.361 60 235.841 60 239.264 58.2561C242.274 56.7221 244.722 54.2744 246.256 51.2638C248 47.8413 248 43.3608 248 34.4V28.6C248 19.6392 248 15.1587 246.256 11.7362C244.722 8.72556 242.274 6.27787 239.264 4.7439C235.841 3 231.361 3 222.4 3H208.6C199.639 3 195.159 3 191.736 4.7439C188.726 6.27787 186.278 8.72556 184.744 11.7362Z" fill="#C2D72F"/>
<path fill-rule="evenodd" clip-rule="evenodd" d="M184.744 11.7362L182.071 10.3742C183.892 6.7991 186.799 3.89247 190.374 2.07088L191.736 4.7439C188.726 6.27787 186.278 8.72556 184.744 11.7362ZM203.594 62.9849C203.639 62.9853 203.687 62.9857 203.739 62.9862C205.205 63 206.819 63 208.59 63H222.532C226.901 63 230.363 63 233.153 62.772C236.007 62.5389 238.421 62.0525 240.626 60.9291C244.201 59.1075 247.108 56.2009 248.929 52.6258C250.052 50.4211 250.539 48.0066 250.772 45.1531C251 42.3626 251 38.9006 251 34.5321V28.4679C251 24.0994 251 20.6374 250.772 17.8469C250.539 14.9934 250.052 12.5789 248.929 10.3742C247.108 6.7991 244.201 3.89247 240.626 2.07088C238.421 0.947528 236.007 0.461096 233.153 0.227951C230.363 -4.05461e-05 226.901 -2.2431e-05 222.532 4.5721e-07H208.468C204.099 -2.2431e-05 200.637 -4.05461e-05 197.847 0.227951C194.993 0.461096 192.579 0.947528 190.374 2.07088L191.736 4.7439C195.159 3 199.639 3 208.6 3H222.4C231.361 3 235.841 3 239.264 4.7439C242.274 6.27787 244.722 8.72556 246.256 11.7362C248 15.1587 248 19.6392 248 28.6V34.4C248 43.3608 248 47.8413 246.256 51.2638C244.722 54.2744 242.274 56.7221 239.264 58.2561C235.841 60 231.361 60 222.4 60H208.6C206.821 60 205.219 60 203.767 59.9864C203.084 59.9799 202.742 59.9767 202.444 60.0692C202.176 60.152 201.938 60.2845 201.726 60.4676C201.49 60.672 201.315 60.9589 200.966 61.5325L199.233 64.3767C198.329 65.8586 197.878 66.5996 197.296 66.852C196.788 67.0724 196.212 67.0724 195.704 66.852C195.122 66.5996 194.671 65.8586 193.767 64.3767L189.211 56.9006C189.106 56.7278 189.053 56.6413 188.998 56.5672C188.944 56.494 188.903 56.4453 188.84 56.3793C188.776 56.3125 188.684 56.2327 188.5 56.0729C186.96 54.7335 185.681 53.1038 184.744 51.2638C183 47.8413 183 43.3608 183 34.4V28.6C183 19.6392 183 15.1587 184.744 11.7362L182.071 10.3742C180.948 12.5789 180.461 14.9934 180.228 17.8469C180 20.6374 180 24.0994 180 28.468V34.532C180 38.9006 180 42.3626 180.228 45.1531C180.461 48.0066 180.948 50.4211 182.071 52.6258C183.184 54.8108 184.703 56.7461 186.531 58.3365L186.62 58.414L191.262 66.0304C191.664 66.6906 192.066 67.3493 192.448 67.8638C192.843 68.397 193.488 69.1606 194.51 69.6041C195.779 70.155 197.221 70.155 198.49 69.6041C199.512 69.1606 200.157 68.397 200.552 67.8638C200.934 67.3493 201.336 66.6906 201.738 66.0304L203.528 63.0937C203.551 63.055 203.573 63.0188 203.594 62.9849Z" fill="white"/>
<path d="M218.378 35.1768V34.8314C218.378 33.5268 218.838 33.0279 220.603 32.4907L222.522 31.9151C227.856 30.3803 229.851 28.0779 229.851 24.5093V24.164C229.851 20.1733 227.319 16.1058 216.076 16.1058H214.195C201.609 16.1058 200.497 21.8616 200.497 25.2384V25.7372H209.898C210.013 24.7396 210.013 22.3221 215.27 22.3221C219.721 22.3221 220.488 23.243 220.488 24.3558C220.488 25.3151 219.913 25.8523 217.495 26.6198L215.462 27.2721C210.665 28.807 209.783 30.457 209.783 33.4884V35.1768H218.378ZM218.8 37.4791H209.399V45H218.8V37.4791Z" fill="white"/>
</svg>
