<svg width="304" height="184" viewBox="0 0 304 184" fill="none" xmlns="http://www.w3.org/2000/svg">
<path d="M16.1916 21.9939C14.8036 24.7701 14.1457 27.8938 13.8215 31.9033C13.5 35.881 13.5 40.8566 13.5 47.3661V47.435V128.3V128.369C13.5 134.92 13.5 139.928 13.8244 143.929C14.1514 147.962 14.8153 151.102 16.2158 153.889C18.6053 158.643 22.4222 162.531 27.1317 165.007C29.8921 166.459 33.0194 167.18 37.0458 167.581C41.0405 167.979 46.047 168.071 52.5975 168.192L52.6662 168.193L248.44 171.794L248.509 171.795C255.167 171.918 260.256 172.011 264.323 171.754C268.422 171.495 271.616 170.875 274.455 169.494C279.296 167.139 283.268 163.312 285.801 158.561C287.287 155.776 288.025 152.607 288.437 148.52C288.845 144.466 288.94 139.378 289.065 132.719L289.066 132.65L290.746 43.1578L290.748 43.0858C290.878 36.1538 290.977 30.8583 290.706 26.6375C290.433 22.3853 289.778 19.0847 288.317 16.179C285.83 11.2297 281.798 7.22501 276.832 4.77054C273.917 3.32957 270.612 2.69674 266.358 2.45186C262.136 2.20878 256.841 2.34356 249.91 2.52L249.838 2.52182L52.3847 7.5479L52.3158 7.54966C45.8084 7.7153 40.8345 7.8419 36.8663 8.26456C32.8663 8.6906 29.7604 9.42787 27.0203 10.886C22.3448 13.3742 18.56 17.2566 16.1916 21.9939Z" fill="#F01F77" stroke="white" stroke-width="3"/>
<path d="M34.759 82.7924C36.0398 85.1711 37.124 87.7668 39.1516 89.5522C40.8883 91.0815 40.313 93.918 38.1177 94.6498L34.7578 95.7698C32.7124 96.4516 30.8445 97.6092 28.8175 98.3442C27.6471 98.7686 26.3843 99 25.0674 99C23.7505 99 22.4876 98.7686 21.3172 98.3442C19.2906 97.6093 17.4228 96.4519 15.3777 95.7702L12.0524 94.6618C9.84923 93.9274 9.28011 91.0757 11.0326 89.5519C13.0197 87.824 14.0799 85.2965 15.2888 82.9572C17.1173 79.4188 20.8098 77 25.0674 77C29.2585 77 32.9021 79.3439 34.759 82.7924Z" fill="#FF4056"/>
<path d="M9.61939 110.885C12.3231 106.018 17.4528 103 23.0202 103H28.1845C33.6255 103 38.6388 105.95 41.2811 110.706C41.7587 111.566 42.1339 112.478 42.3991 113.425L46.8938 129.478C48.0732 133.69 45.6804 138.107 41.5305 139.49C30.885 143.038 19.2454 143.082 8.59992 139.533C4.38786 138.129 2.08837 133.599 3.44155 129.37L8.61125 113.215C8.86977 112.407 9.20746 111.627 9.61939 110.885Z" fill="#FF4056"/>
<path fill-rule="evenodd" clip-rule="evenodd" d="M41.1342 87.3007C44.6076 90.3592 43.457 96.0323 39.0664 97.4959L35.7066 98.6158C34.8838 98.8901 34.0619 99.2718 33.0745 99.7438C33.0098 99.7746 32.9443 99.806 32.878 99.8378C32.5298 100.004 32.1586 100.182 31.7701 100.361C36.8607 101.396 41.3237 104.605 43.9036 109.249C44.495 110.314 44.9597 111.444 45.288 112.616L49.7827 128.669C51.4014 134.45 48.1195 140.456 42.4792 142.336C31.2258 146.087 18.9203 146.136 7.65128 142.379C1.88076 140.456 -1.26953 134.249 0.584317 128.456L5.75402 112.3C6.07275 111.304 6.48908 110.342 6.99696 109.428C9.51458 104.896 13.7914 101.705 18.7046 100.515C18.1922 100.286 17.7057 100.053 17.2572 99.838C17.1909 99.8062 17.1254 99.7749 17.0608 99.744C16.0734 99.2721 15.2516 98.8904 14.429 98.6162L11.1038 97.5078C6.6974 96.039 5.55914 90.3358 9.06416 87.288C10.26 86.2482 10.9754 84.8322 11.9876 82.8289C12.1862 82.4357 12.3963 82.0199 12.6237 81.5799C14.9469 77.084 19.6445 74 25.0674 74C30.4056 74 35.0413 76.9888 37.4004 81.3701C37.6984 81.9233 37.9487 82.4114 38.1839 82.8697C38.5415 83.5668 38.8638 84.195 39.2643 84.8792C39.8693 85.9127 40.4578 86.7051 41.1342 87.3007ZM35.4561 84.1268C35.2257 83.6789 34.9957 83.232 34.759 82.7924C32.9022 79.3439 29.2585 77 25.0674 77C20.8099 77 17.1173 79.4188 15.2888 82.9571C15.1019 83.319 14.9184 83.6853 14.7346 84.0525C13.7298 86.0593 12.7124 88.0913 11.0327 89.5519C9.28015 91.0757 9.84927 93.9274 12.0525 94.6618L15.3777 95.7702C16.4602 96.131 17.4929 96.6251 18.5259 97.1192C19.4445 97.5587 20.3633 97.9983 21.3173 98.3442C22.4876 98.7686 23.7505 99 25.0674 99C26.3843 99 27.6472 98.7686 28.8176 98.3442C29.7717 97.9982 30.6906 97.5586 31.6093 97.119C32.6424 96.6248 33.6753 96.1306 34.7579 95.7698L38.1177 94.6498C40.313 93.918 40.8883 91.0815 39.1516 89.5522C37.4987 88.0967 36.4728 86.1028 35.4561 84.1268ZM23.0202 103C17.4529 103 12.3232 106.018 9.61943 110.885C9.2075 111.627 8.86981 112.407 8.61129 113.215L3.44159 129.37C2.08841 133.599 4.3879 138.129 8.59996 139.533C19.2454 143.082 30.8851 143.038 41.5305 139.49C45.6804 138.107 48.0733 133.69 46.8938 129.478L42.3991 113.425C42.134 112.478 41.7588 111.566 41.2812 110.706C38.6388 105.95 33.6255 103 28.1846 103H23.0202Z" fill="white"/>
<path d="M257.119 82.7212C259.946 77.9359 265.09 75 270.648 75H285.352C290.91 75 296.054 77.9359 298.881 82.7212C300.859 86.0687 301.261 90.1178 299.979 93.7886L295.793 105.78C294.849 108.484 292.878 110.707 290.307 111.967C282.543 115.773 273.457 115.773 265.693 111.967C263.122 110.707 261.151 108.484 260.207 105.78L256.021 93.7886C254.739 90.1178 255.141 86.0687 257.119 82.7212Z" fill="#C2D72F"/>
<path d="M289 60C289 66.0751 284.075 71 278 71C271.925 71 267 66.0751 267 60C267 53.9249 271.925 49 278 49C284.075 49 289 53.9249 289 60Z" fill="#C2D72F"/>
<path fill-rule="evenodd" clip-rule="evenodd" d="M285.215 72H285.352C291.971 72 298.098 75.4965 301.464 81.1953C303.891 85.3034 304.384 90.2725 302.812 94.7774L298.626 106.769C297.422 110.218 294.907 113.053 291.627 114.661C283.031 118.875 272.969 118.875 264.373 114.661C261.093 113.053 258.578 110.218 257.374 106.769L253.188 94.7774C251.616 90.2725 252.109 85.3034 254.536 81.1953C257.902 75.4965 264.029 72 270.648 72H270.785C266.719 69.5502 264 65.0927 264 60C264 52.268 270.268 46 278 46C285.732 46 292 52.268 292 60C292 65.0926 289.281 69.5502 285.215 72ZM278 71C284.075 71 289 66.0751 289 60C289 53.9249 284.075 49 278 49C271.925 49 267 53.9249 267 60C267 66.0751 271.925 71 278 71ZM270.648 75C265.09 75 259.946 77.9359 257.119 82.7212C255.141 86.0687 254.739 90.1178 256.021 93.7886L260.207 105.78C261.151 108.484 263.122 110.707 265.693 111.967C273.457 115.773 282.543 115.773 290.307 111.967C292.878 110.707 294.849 108.484 295.793 105.78L299.979 93.7886C301.261 90.1178 300.859 86.0687 298.881 82.7212C296.054 77.9359 290.91 75 285.352 75H270.648Z" fill="white"/>
</svg>
