<svg width="416" height="301" viewBox="0 0 416 301" fill="none" xmlns="http://www.w3.org/2000/svg">
<g opacity="0.6" filter="url(#filter0_f_3123_3407)">
<path fill-rule="evenodd" clip-rule="evenodd" d="M203.584 221.502C75.2698 219.581 46.6575 187.585 117.746 125.512C188.835 63.4395 252.991 64.3999 310.217 128.393C367.442 192.386 331.898 223.422 203.584 221.502Z" fill="#FF4056"/>
</g>
<path d="M75.8957 66.1759C74.4883 68.9682 73.8212 72.1173 73.4927 76.1632C73.1667 80.1773 73.1667 85.2019 73.1667 91.7762V91.8455V171.6V171.67C73.1667 178.331 73.1667 183.422 73.4986 187.485C73.8332 191.58 74.5124 194.763 75.946 197.577C78.3908 202.375 82.2918 206.276 87.0899 208.721C89.9036 210.154 93.0866 210.833 97.1814 211.168C101.245 211.5 106.335 211.5 112.997 211.5H113.067H304.169H304.237C310.557 211.5 315.39 211.5 319.261 211.191C323.164 210.88 326.213 210.249 328.941 208.918C333.6 206.645 337.456 203.006 339.994 198.486C341.48 195.839 342.287 192.832 342.823 188.953C343.354 185.106 343.633 180.282 343.998 173.972L344.002 173.904L348.78 91.3004L348.784 91.2272C349.195 84.1277 349.509 78.7057 349.396 74.378C349.283 70.0191 348.737 66.6266 347.34 63.6231C344.964 58.5111 340.96 54.3306 335.956 51.7354C333.015 50.2107 329.65 49.5185 325.3 49.2167C320.981 48.9171 315.55 48.9961 308.439 49.0995L308.367 49.1006L112.486 51.9497L112.417 51.9507C105.843 52.0464 100.819 52.1194 96.8104 52.5038C92.7697 52.8912 89.6308 53.6039 86.8592 55.0518C82.1311 57.5218 78.2967 61.4124 75.8957 66.1759Z" fill="#FF4056" stroke="white" stroke-width="3"/>
<path d="M72.3146 101.5C66.2262 101.5 60.5906 104.716 57.4938 109.958C55.2915 113.686 54.8442 118.195 56.2712 122.283L60.4573 134.274C61.5313 137.351 63.7741 139.88 66.6999 141.314C74.8795 145.324 84.4539 145.324 92.6335 141.314C95.5593 139.88 97.8021 137.351 98.876 134.274L103.062 122.283C104.489 118.195 104.042 113.686 101.84 109.958C98.7428 104.716 93.1072 101.5 87.0188 101.5H72.3146Z" fill="#C2D72F" stroke="white" stroke-width="3"/>
<circle cx="79.6667" cy="88" r="12.5" fill="#C2D72F" stroke="white" stroke-width="3"/>
<mask id="path-5-outside-1_3123_3407" maskUnits="userSpaceOnUse" x="304.667" y="140" width="38" height="28" fill="black">
<rect fill="white" x="304.667" y="140" width="38" height="28"/>
<path fill-rule="evenodd" clip-rule="evenodd" d="M333.426 148.792C334.707 151.171 335.791 153.767 337.818 155.552C339.555 157.081 338.98 159.918 336.784 160.65L333.425 161.77C331.379 162.452 329.511 163.609 327.484 164.344C326.314 164.769 325.051 165 323.734 165C322.417 165 321.154 164.769 319.984 164.344C317.957 163.609 316.09 162.452 314.044 161.77L310.719 160.662C308.516 159.927 307.947 157.076 309.699 155.552C311.686 153.824 312.747 151.297 313.956 148.957C315.784 145.419 319.477 143 323.734 143C327.925 143 331.569 145.344 333.426 148.792Z"/>
</mask>
<path fill-rule="evenodd" clip-rule="evenodd" d="M333.426 148.792C334.707 151.171 335.791 153.767 337.818 155.552C339.555 157.081 338.98 159.918 336.784 160.65L333.425 161.77C331.379 162.452 329.511 163.609 327.484 164.344C326.314 164.769 325.051 165 323.734 165C322.417 165 321.154 164.769 319.984 164.344C317.957 163.609 316.09 162.452 314.044 161.77L310.719 160.662C308.516 159.927 307.947 157.076 309.699 155.552C311.686 153.824 312.747 151.297 313.956 148.957C315.784 145.419 319.477 143 323.734 143C327.925 143 331.569 145.344 333.426 148.792Z" fill="#F01F77"/>
<path d="M336.784 160.65L337.733 163.496H337.733L336.784 160.65ZM310.719 160.662L309.77 163.508H309.77L310.719 160.662ZM309.699 155.552L307.731 153.288H307.731L309.699 155.552ZM337.818 155.552L339.801 153.301L337.818 155.552ZM333.426 148.792L330.784 150.215L333.426 148.792ZM335.836 157.804H335.836L337.733 163.496C342.124 162.032 343.274 156.359 339.801 153.301L335.836 157.804ZM335.836 157.804L332.476 158.924L334.373 164.616L337.733 163.496L335.836 157.804ZM326.462 161.524C325.614 161.831 324.697 162 323.734 162V168C325.405 168 327.013 167.706 328.507 167.164L326.462 161.524ZM323.734 162C322.771 162 321.854 161.831 321.007 161.524L318.961 167.165C320.455 167.706 322.063 168 323.734 168V162ZM314.993 158.924L311.668 157.816L309.77 163.508L313.096 164.616L314.993 158.924ZM311.668 157.816L311.668 157.816L307.731 153.288C304.226 156.336 305.364 162.039 309.77 163.508L311.668 157.816ZM316.621 150.334C317.954 147.754 320.642 146 323.734 146V140C318.311 140 313.614 143.084 311.29 147.58L316.621 150.334ZM323.734 146C326.778 146 329.43 147.699 330.784 150.215L336.067 147.37C333.708 142.989 329.072 140 323.734 140V146ZM311.668 157.816C314.211 155.604 315.589 152.331 316.621 150.334L311.29 147.58C309.904 150.262 309.161 152.044 307.731 153.288L311.668 157.816ZM332.476 158.924C331.253 159.331 330.118 159.869 329.154 160.33C328.137 160.816 327.308 161.217 326.462 161.524L328.507 167.164C329.688 166.736 330.806 166.191 331.741 165.744C332.729 165.272 333.551 164.89 334.373 164.616L332.476 158.924ZM321.007 161.524C320.16 161.217 319.331 160.816 318.315 160.331C317.35 159.87 316.216 159.332 314.993 158.924L313.096 164.616C313.918 164.89 314.74 165.272 315.727 165.744C316.663 166.191 317.781 166.736 318.961 167.165L321.007 161.524ZM339.801 153.301C339.124 152.705 338.536 151.913 337.931 150.879C337.267 149.745 336.818 148.765 336.067 147.37L330.784 150.215C331.314 151.199 332.048 152.706 332.753 153.91C333.517 155.216 334.484 156.614 335.836 157.804L339.801 153.301Z" fill="white" mask="url(#path-5-outside-1_3123_3407)"/>
<path d="M323.154 167.5C316.866 167.5 311.282 171.508 309.266 177.458L301.756 194.528C299.542 199.558 302.133 205.403 307.347 207.141C317.944 210.674 329.518 210.631 340.107 207.101C345.236 205.391 347.958 199.69 345.938 194.64L339.075 177.483C337.067 171.519 331.476 167.5 325.18 167.5H323.154Z" fill="#F01F77" stroke="white" stroke-width="3"/>
<defs>
<filter id="filter0_f_3123_3407" x="0.730499" y="0.667969" width="414.961" height="299.918" filterUnits="userSpaceOnUse" color-interpolation-filters="sRGB">
<feFlood flood-opacity="0" result="BackgroundImageFix"/>
<feBlend mode="normal" in="SourceGraphic" in2="BackgroundImageFix" result="shape"/>
<feGaussianBlur stdDeviation="39.5" result="effect1_foregroundBlur_3123_3407"/>
</filter>
</defs>
</svg>
