<svg width="298" height="198" viewBox="0 0 298 198" fill="none" xmlns="http://www.w3.org/2000/svg">
<path d="M8 61.4C8 47.9587 8 41.2381 10.6158 36.1042C12.9168 31.5883 16.5883 27.9168 21.1042 25.6158C26.2381 23 32.9587 23 46.4 23H237.502C250.258 23 256.636 23 261.617 25.4302C266.002 27.5695 269.63 30.9944 272.019 35.2485C274.733 40.081 275.102 46.4482 275.838 59.1826L280.616 141.786C281.445 156.108 281.859 163.269 279.313 168.745C277.077 173.556 273.309 177.49 268.599 179.933C263.238 182.713 256.066 182.608 241.722 182.4L45.8415 179.55C32.5772 179.357 25.945 179.261 20.8871 176.619C16.4371 174.294 12.8283 170.632 10.5685 166.149C8 161.053 8 154.42 8 141.154V61.4Z" fill="#F01F77"/>
<path fill-rule="evenodd" clip-rule="evenodd" d="M237.634 20C243.9 20 248.782 20 252.713 20.3133C256.708 20.6316 259.967 21.2871 262.932 22.734C267.865 25.1407 271.948 28.9937 274.635 33.7796C276.251 36.6567 277.093 39.8721 277.642 43.8417C278.182 47.7481 278.464 52.6224 278.826 58.8789L283.619 141.754C284.027 148.796 284.343 154.27 284.229 158.661C284.113 163.114 283.554 166.74 282.034 170.009C279.518 175.422 275.279 179.848 269.98 182.596C266.779 184.256 263.181 184.971 258.737 185.28C254.355 185.584 248.872 185.504 241.819 185.401L45.6631 182.548C39.1449 182.453 34.0703 182.38 30.0006 181.989C25.8675 181.593 22.5121 180.852 19.498 179.278C14.4918 176.662 10.4318 172.543 7.88957 167.499C6.35895 164.463 5.66699 161.097 5.33091 156.958C4.99997 152.883 4.99998 147.808 5 141.289V61.2642C4.99998 54.6585 4.99997 49.5169 5.33694 45.3926C5.67908 41.205 6.3835 37.8026 7.94282 34.7423C10.5314 29.6619 14.6619 25.5314 19.7423 22.9428C22.8026 21.3835 26.205 20.6791 30.3926 20.3369C34.5169 20 39.6585 20 46.2642 20H237.634ZM10.6158 36.1042C8 41.2381 8 47.9587 8 61.4V141.154C8 154.42 8 161.053 10.5685 166.149C12.8283 170.632 16.4371 174.294 20.8871 176.619C25.945 179.261 32.5772 179.357 45.8415 179.55L241.722 182.4C256.066 182.608 263.238 182.713 268.599 179.933C273.309 177.49 277.077 173.556 279.313 168.745C281.859 163.269 281.445 156.108 280.616 141.786L275.838 59.1826C275.102 46.4482 274.733 40.081 272.019 35.2485C269.63 30.9944 266.002 27.5695 261.617 25.4302C256.636 23 250.258 23 237.502 23H46.4C32.9587 23 26.2381 23 21.1042 25.6158C16.5883 27.9168 12.9168 31.5883 10.6158 36.1042Z" fill="white"/>
<path d="M147.429 27.0375L147.943 40.0458L145.029 40.5154L145 27.143L147.429 27.0375Z" fill="white"/>
<path d="M32.3602 39.5976L42.7367 47.4595L41.2493 50.0092L30.8996 41.5414L32.3602 39.5976Z" fill="white"/>
<path d="M270.478 98.5536L257.47 99.0672L257 96.153L270.372 96.1245L270.478 98.5536Z" fill="white"/>
<path d="M145.429 161.037L145.943 174.046L143.029 174.515L143 161.143L145.429 161.037Z" fill="white"/>
<path d="M246.461 156.249L256.837 164.111L255.35 166.661L245 158.193L246.461 156.249Z" fill="white"/>
<path d="M28.5014 104.923L15.493 105.437L15.0235 102.522L28.3958 102.494L28.5014 104.923Z" fill="white"/>
<path d="M230 35.5C230 17.5507 244.551 3 262.5 3C280.449 3 295 17.5507 295 35.5C295 53.4492 280.449 68 262.5 68C244.551 68 230 53.4492 230 35.5Z" fill="#C2D72F"/>
<path fill-rule="evenodd" clip-rule="evenodd" d="M262.5 71C242.894 71 227 55.1061 227 35.5C227 15.8939 242.894 0 262.5 0C282.106 0 298 15.8939 298 35.5C298 55.1061 282.106 71 262.5 71ZM262.5 3C244.551 3 230 17.5507 230 35.5C230 53.4493 244.551 68 262.5 68C280.449 68 295 53.4493 295 35.5C295 17.5507 280.449 3 262.5 3Z" fill="white"/>
<path d="M262.791 4.84305L262.972 9.69106L261.886 9.86372L261.886 4.88045L262.791 4.84305Z" fill="white"/>
<path d="M241.466 13.3755L245.022 16.6755L244.376 17.5658L240.853 14.0421L241.466 13.3755Z" fill="white"/>
<path d="M292.435 35.2116L287.587 35.3927L287.415 34.3063L292.398 34.3063L292.435 35.2116Z" fill="white"/>
<path d="M283.903 13.8878L280.602 17.4438L279.712 16.7978L283.236 13.2741L283.903 13.8878Z" fill="white"/>
<path d="M262.791 59.8431L262.972 64.6911L261.886 64.8637L261.886 59.8805L262.791 59.8431Z" fill="white"/>
<path d="M280.358 52.2664L283.914 55.5664L283.268 56.4567L279.744 52.933L280.358 52.2664Z" fill="white"/>
<path d="M237.435 35.2116L232.587 35.3927L232.415 34.3063L237.398 34.3063L237.435 35.2116Z" fill="white"/>
<path d="M245.012 52.7785L241.712 56.3346L240.821 55.6885L244.345 52.1648L245.012 52.7785Z" fill="white"/>
<path d="M259.82 16.6719L264.715 45.7165L257.9 47.3712L254.058 17.4106L259.82 16.6719Z" fill="white"/>
<path d="M282.674 34.3075L253.52 38.5891L254.315 45.1375L283.971 39.6472L282.674 34.3075Z" fill="white"/>
<path fill-rule="evenodd" clip-rule="evenodd" d="M16.3535 185.664L16.2751 185.625C5.27913 180.126 0.844674 172.329 0.448035 164.324C0.0663051 156.62 3.45123 149.285 6.89095 144.348C8.03605 142.705 9.92818 142.407 11.3375 142.849C12.4839 143.208 13.5331 144.096 14.0136 145.369C14.3571 144.385 14.6168 143.006 14.6168 141.242C14.6168 133.744 19.1858 126.761 22.3093 123.072C23.5646 121.59 25.3799 121.476 26.6337 121.882C27.8493 122.275 29.0329 123.276 29.4604 124.793C30.3325 127.889 33.0675 132.178 36.0421 136.364C36.57 137.107 37.2667 137.952 38.0619 138.917C42.0705 143.78 48.5814 151.68 48.5814 164.796C48.5814 178.1 38.788 183.874 33.6076 185.135C31.7894 185.72 29.1164 186.495 26.1733 186.832C23.191 187.173 19.6864 187.094 16.434 185.698L16.3535 185.664Z" fill="white"/>
<path d="M17.6168 141.242C17.6168 134.828 21.6138 128.536 24.5987 125.011C25.1705 124.336 26.3329 124.755 26.5728 125.607C27.6083 129.282 30.6687 133.981 33.5966 138.102C37.192 143.161 45.5814 150.315 45.5814 164.796C45.5814 173.546 40.7204 178.467 36.5052 180.778C35.5923 181.278 34.3531 179.738 34.5205 178.711C34.9348 176.167 34.1844 172.637 30.0012 168.983C26.5329 165.954 25.9067 162.365 26.3125 159.466C26.4611 158.404 24.994 157.257 24.2055 157.984C19.282 162.52 18.0952 167.393 18.2621 170.791C18.3057 171.679 17.1287 172.481 16.4067 171.962C15.9161 171.609 15.223 171.832 15.075 172.418C14.3624 175.239 14.6545 177.603 15.31 179.406C15.5126 179.963 14.4058 181.152 13.9087 180.828C-1.94521 170.509 3.31334 154.73 9.35233 146.063C9.88776 145.295 11.082 145.706 11.2625 146.625C12.4419 152.631 17.6168 149.745 17.6168 141.242Z" fill="#FF4056"/>
</svg>
