<svg width="304" height="174" viewBox="0 0 304 174" fill="none" xmlns="http://www.w3.org/2000/svg">
<path d="M16.1916 21.9939C14.8036 24.7701 14.1457 27.8938 13.8215 31.9033C13.5 35.881 13.5 40.8566 13.5 47.3661V47.435V128.3V128.369C13.5 134.92 13.5 139.928 13.8244 143.929C14.1514 147.962 14.8153 151.102 16.2158 153.889C18.6053 158.643 22.4222 162.531 27.1317 165.007C29.8921 166.459 33.0194 167.18 37.0458 167.581C41.0405 167.979 46.047 168.071 52.5975 168.192L52.6662 168.193L248.44 171.794L248.509 171.795C255.167 171.918 260.256 172.011 264.323 171.754C268.422 171.495 271.616 170.875 274.455 169.494C279.296 167.139 283.268 163.312 285.801 158.561C287.287 155.776 288.025 152.607 288.437 148.52C288.845 144.466 288.94 139.378 289.065 132.719L289.066 132.65L290.746 43.1578L290.748 43.0858C290.878 36.1538 290.977 30.8583 290.706 26.6375C290.433 22.3853 289.778 19.0847 288.317 16.179C285.83 11.2297 281.798 7.22501 276.832 4.77054C273.917 3.32957 270.612 2.69674 266.358 2.45186C262.136 2.20878 256.841 2.34356 249.91 2.52L249.838 2.52182L52.3847 7.5479L52.3158 7.54966C45.8084 7.7153 40.8345 7.8419 36.8663 8.26456C32.8663 8.6906 29.7604 9.42787 27.0203 10.886C22.3448 13.3742 18.56 17.2566 16.1916 21.9939Z" fill="#F01F77" stroke="white" stroke-width="3"/>
<mask id="path-2-outside-1_3107_3407" maskUnits="userSpaceOnUse" x="6.31982" y="106.238" width="30" height="24" fill="black">
<rect fill="white" x="6.31982" y="106.238" width="30" height="24"/>
<path fill-rule="evenodd" clip-rule="evenodd" d="M12.5912 114.821C12.07 116.156 11.4577 117.5 10.3752 118.438C8.61461 119.965 9.19086 122.828 11.405 123.555L12.4742 123.906C14.5051 124.573 16.3644 125.747 18.4226 126.323C19.1932 126.539 20.0068 126.655 20.8478 126.655C21.6888 126.655 22.5024 126.539 23.273 126.323C25.3309 125.747 27.19 124.573 29.2206 123.907L30.2543 123.567C32.4764 122.838 33.0463 119.959 31.2699 118.438C30.2261 117.544 29.6363 116.256 29.1597 114.967C27.9239 111.625 24.6688 109.238 20.8478 109.238C17.0824 109.238 13.8667 111.556 12.5912 114.821Z"/>
</mask>
<path fill-rule="evenodd" clip-rule="evenodd" d="M12.5912 114.821C12.07 116.156 11.4577 117.5 10.3752 118.438C8.61461 119.965 9.19086 122.828 11.405 123.555L12.4742 123.906C14.5051 124.573 16.3644 125.747 18.4226 126.323C19.1932 126.539 20.0068 126.655 20.8478 126.655C21.6888 126.655 22.5024 126.539 23.273 126.323C25.3309 125.747 27.19 124.573 29.2206 123.907L30.2543 123.567C32.4764 122.838 33.0463 119.959 31.2699 118.438C30.2261 117.544 29.6363 116.256 29.1597 114.967C27.9239 111.625 24.6688 109.238 20.8478 109.238C17.0824 109.238 13.8667 111.556 12.5912 114.821Z" fill="#FF4056"/>
<path d="M11.405 123.555L10.4693 126.406L11.405 123.555ZM30.2543 123.567L31.1899 126.418L30.2543 123.567ZM29.1597 114.967L31.9734 113.926L29.1597 114.967ZM12.4742 123.906L13.4099 121.056L12.4742 123.906ZM23.273 126.323L22.4635 123.435L23.273 126.323ZM29.2206 123.907L30.1562 126.757L29.2206 123.907ZM10.3752 118.438L12.3406 120.705L10.3752 118.438ZM12.5912 114.821L9.79685 113.73L12.5912 114.821ZM12.3406 120.705L12.3406 120.705L10.4693 126.406C6.04109 124.952 4.88861 119.225 8.40988 116.172L12.3406 120.705ZM12.3406 120.705L13.4099 121.056L11.5386 126.757L10.4693 126.406L12.3406 120.705ZM19.232 123.435C19.7415 123.577 20.2828 123.655 20.8478 123.655V129.655C19.7308 129.655 18.6449 129.501 17.6131 129.212L19.232 123.435ZM20.8478 123.655C21.4127 123.655 21.9541 123.577 22.4635 123.435L24.0825 129.212C23.0507 129.501 21.9648 129.655 20.8478 129.655V123.655ZM28.2849 121.056L29.3187 120.717L31.1899 126.418L30.1562 126.757L28.2849 121.056ZM29.3187 120.717L29.3187 120.717L33.2212 116.159C36.774 119.202 35.634 124.959 31.1899 126.418L29.3187 120.717ZM26.3459 116.007C25.5396 113.827 23.3964 112.238 20.8478 112.238V106.238C25.9413 106.238 30.3081 109.423 31.9734 113.926L26.3459 116.007ZM20.8478 112.238C18.3367 112.238 16.2184 113.781 15.3856 115.913L9.79685 113.73C11.5151 109.331 15.8282 106.238 20.8478 106.238V112.238ZM29.3187 120.717C27.6483 119.287 26.8439 117.354 26.3459 116.007L31.9734 113.926C32.4286 115.157 32.8038 115.802 33.2212 116.159L29.3187 120.717ZM13.4099 121.056C14.6244 121.455 15.7732 122.001 16.6917 122.423C17.6758 122.876 18.4586 123.218 19.232 123.435L17.6131 129.212C16.3284 128.852 15.1524 128.319 14.1846 127.874C13.1512 127.399 12.3549 127.025 11.5386 126.757L13.4099 121.056ZM22.4635 123.435C23.2368 123.218 24.0195 122.876 25.0036 122.423C25.922 122.001 27.0705 121.455 28.2849 121.056L30.1562 126.757C29.3401 127.025 28.5438 127.399 27.5106 127.874C26.5429 128.319 25.3671 128.852 24.0825 129.212L22.4635 123.435ZM8.40988 116.172C8.88397 115.761 9.28034 115.052 9.79685 113.73L15.3856 115.913C14.8596 117.259 14.0315 119.239 12.3406 120.705L8.40988 116.172Z" fill="white" mask="url(#path-2-outside-1_3107_3407)"/>
<path d="M21.4191 128.32C26.5342 128.32 31.0829 131.565 32.7503 136.396L38.7028 149.718C40.5967 153.957 38.4073 158.903 33.9963 160.351C25.4862 163.144 16.2114 163.109 7.70899 160.318C3.37426 158.896 1.0703 154.075 2.79982 149.817L8.24113 136.421C9.90138 131.577 14.457 128.32 19.581 128.32H21.4191Z" fill="#FF4056" stroke="white" stroke-width="3"/>
<path d="M25.8496 141.668L27.1402 142.433L25.8496 141.668C28.3997 137.363 33.0322 134.723 38.036 134.723H49.964C54.9678 134.723 59.6003 137.363 62.1505 141.668C63.9768 144.751 64.3477 148.484 63.1638 151.866L59.7921 161.499C58.8962 164.059 57.0277 166.162 54.5915 167.353C47.9085 170.62 40.0916 170.62 33.4086 167.353C30.9724 166.162 29.1038 164.059 28.208 161.499L24.8363 151.866C23.6524 148.484 24.0233 144.751 25.8496 141.668Z" fill="#C2D72F" stroke="white" stroke-width="3"/>
<path d="M44 134.503C38.2685 134.503 33.6154 129.868 33.6154 124.142C33.6154 118.416 38.2685 113.781 44 113.781C49.7315 113.781 54.3846 118.416 54.3846 124.142C54.3846 129.868 49.7315 134.503 44 134.503Z" fill="#C2D72F" stroke="white" stroke-width="3"/>
<path d="M250.792 80.3086C245.551 80.3086 240.7 83.0788 238.036 87.5929C236.14 90.8062 235.755 94.6912 236.984 98.2141L240.53 108.387C241.457 111.046 243.395 113.232 245.922 114.473C252.909 117.902 261.091 117.902 268.078 114.473C270.606 113.232 272.543 111.046 273.47 108.387L277.016 98.2141C278.245 94.6912 277.86 90.8062 275.964 87.5929C273.3 83.0788 268.449 80.3086 263.208 80.3086H250.792Z" fill="#C2D72F" stroke="white" stroke-width="3"/>
<path d="M257 79.9201C262.971 79.9201 267.808 75.0743 267.808 69.1007C267.808 63.1271 262.971 58.2812 257 58.2812C251.029 58.2812 246.192 63.1271 246.192 69.1007C246.192 75.0743 251.029 79.9201 257 79.9201Z" fill="#C2D72F" stroke="white" stroke-width="3"/>
<mask id="path-9-outside-2_3107_3407" maskUnits="userSpaceOnUse" x="265.871" y="62.7812" width="32" height="25" fill="black">
<rect fill="white" x="265.871" y="62.7812" width="32" height="25"/>
<path fill-rule="evenodd" clip-rule="evenodd" d="M290.651 71.4036C291.354 73.036 292.09 74.7172 293.422 75.895C295.151 77.425 294.576 80.2531 292.386 80.9864L290.797 81.5188C288.747 82.2055 286.877 83.403 284.807 84.0276C283.961 84.2829 283.064 84.4201 282.135 84.4201C281.206 84.4201 280.309 84.2829 279.463 84.0276C277.394 83.403 275.524 82.2057 273.474 81.5192L271.919 80.9984C269.722 80.2624 269.153 77.4193 270.898 75.8946C272.191 74.7651 272.905 73.1426 273.556 71.5542C274.944 68.1663 278.263 65.7812 282.135 65.7812C285.95 65.7812 289.227 68.0957 290.651 71.4036Z"/>
</mask>
<path fill-rule="evenodd" clip-rule="evenodd" d="M290.651 71.4036C291.354 73.036 292.09 74.7172 293.422 75.895C295.151 77.425 294.576 80.2531 292.386 80.9864L290.797 81.5188C288.747 82.2055 286.877 83.403 284.807 84.0276C283.961 84.2829 283.064 84.4201 282.135 84.4201C281.206 84.4201 280.309 84.2829 279.463 84.0276C277.394 83.403 275.524 82.2057 273.474 81.5192L271.919 80.9984C269.722 80.2624 269.153 77.4193 270.898 75.8946C272.191 74.7651 272.905 73.1426 273.556 71.5542C274.944 68.1663 278.263 65.7812 282.135 65.7812C285.95 65.7812 289.227 68.0957 290.651 71.4036Z" fill="#FF4056"/>
<path d="M292.386 80.9864L291.434 78.1418L292.386 80.9864ZM271.919 80.9984L270.966 83.8431H270.966L271.919 80.9984ZM270.898 75.8946L268.924 73.6355L268.924 73.6355L270.898 75.8946ZM273.556 71.5542L270.78 70.4166L273.556 71.5542ZM290.797 81.5188L289.844 78.6741L290.797 81.5188ZM273.474 81.5192L272.521 84.3639L273.474 81.5192ZM293.422 75.895L295.41 73.6482V73.6482L293.422 75.895ZM290.651 71.4036L293.407 70.2172L290.651 71.4036ZM291.434 78.1418L291.434 78.1418L293.339 83.8311C297.718 82.3645 298.868 76.7082 295.41 73.6482L291.434 78.1418ZM291.434 78.1418L289.844 78.6741L291.75 84.3635L293.339 83.8311L291.434 78.1418ZM283.94 81.1555C283.372 81.327 282.767 81.4201 282.135 81.4201V87.4201C283.361 87.4201 284.55 87.2389 285.674 86.8996L283.94 81.1555ZM282.135 81.4201C281.503 81.4201 280.898 81.327 280.33 81.1555L278.597 86.8996C279.721 87.2389 280.909 87.4201 282.135 87.4201V81.4201ZM274.427 78.6745L272.872 78.1537L270.966 83.8431L272.521 84.3639L274.427 78.6745ZM272.872 78.1537L272.872 78.1537L268.924 73.6355C265.434 76.6848 266.572 82.3711 270.966 83.8431L272.872 78.1537ZM276.332 72.6919C277.277 70.385 279.529 68.7812 282.135 68.7812V62.7812C276.997 62.7812 272.612 65.9476 270.78 70.4166L276.332 72.6919ZM282.135 68.7812C284.703 68.7812 286.926 70.3372 287.896 72.5899L293.407 70.2172C291.528 65.8543 287.197 62.7812 282.135 62.7812V68.7812ZM272.872 78.1537C274.77 76.4957 275.707 74.2175 276.332 72.6919L270.78 70.4166C270.103 72.0676 269.612 73.0346 268.924 73.6355L272.872 78.1537ZM289.844 78.6741C288.617 79.0851 287.464 79.6424 286.53 80.083C285.533 80.5532 284.735 80.9158 283.94 81.1555L285.674 86.8996C286.949 86.5148 288.121 85.9663 289.089 85.5099C290.12 85.0239 290.927 84.6392 291.75 84.3635L289.844 78.6741ZM280.33 81.1555C279.536 80.9158 278.738 80.5532 277.741 80.0831C276.807 79.6426 275.654 79.0854 274.427 78.6745L272.521 84.3639C273.344 84.6395 274.151 85.0242 275.182 85.5101C276.15 85.9664 277.321 86.5148 278.597 86.8996L280.33 81.1555ZM295.41 73.6482C294.663 72.9877 294.156 71.9584 293.407 70.2172L287.896 72.5899C288.552 74.1137 289.518 76.4468 291.434 78.1418L295.41 73.6482Z" fill="white" mask="url(#path-9-outside-2_3107_3407)"/>
<path d="M281.681 86.3086C276.262 86.3086 271.45 89.765 269.717 94.8935L263.362 109.405C261.454 113.762 263.696 118.817 268.206 120.327C277.212 123.344 287.054 123.307 296.053 120.293C300.485 118.808 302.84 113.881 301.099 109.508L295.292 94.9184C293.566 89.7762 288.747 86.3086 283.319 86.3086H281.681Z" fill="#FF4056" stroke="white" stroke-width="3"/>
</svg>
