<svg width="230" height="131" viewBox="0 0 230 131" fill="none" xmlns="http://www.w3.org/2000/svg">
<path d="M12.6972 16.1399C11.6517 18.2312 11.156 20.5842 10.9118 23.6046C10.6696 26.6009 10.6696 30.349 10.6696 35.2525V35.3044V96.2189V96.271C10.6696 101.206 10.6696 104.978 10.914 107.992C11.1603 111.03 11.6604 113.396 12.7154 115.495C14.5154 119.076 17.3906 122.005 20.9382 123.87C23.0176 124.964 25.3734 125.507 28.4064 125.809C31.4155 126.109 35.1868 126.178 40.1211 126.269L40.1731 126.27L187.647 128.983L187.7 128.983C192.715 129.076 196.548 129.146 199.612 128.953C202.699 128.757 205.106 128.29 207.244 127.25C210.891 125.476 213.883 122.593 215.791 119.015C216.91 116.916 217.466 114.529 217.776 111.451C218.084 108.396 218.156 104.563 218.25 99.5477L218.251 99.4955L219.516 32.0824L219.517 32.0284C219.615 26.8064 219.69 22.8174 219.486 19.6379C219.28 16.4347 218.787 13.9484 217.686 11.7597C215.813 8.03139 212.776 5.01469 209.035 3.16576C206.839 2.0803 204.349 1.60359 201.145 1.41912C197.964 1.23601 193.976 1.33754 188.754 1.47045L188.7 1.47182L39.961 5.25792L39.9091 5.25924C35.0072 5.38401 31.2604 5.47938 28.2712 5.79776C25.258 6.1187 22.9184 6.67407 20.8544 7.77248C17.3323 9.64682 14.4813 12.5713 12.6972 16.1399Z" fill="#F01F77" stroke="white" stroke-width="2.25987"/>
<mask id="path-2-outside-1_3121_3406" maskUnits="userSpaceOnUse" x="5.0332" y="54.5742" width="28" height="22" fill="black">
<rect fill="white" x="5.0332" y="54.5742" width="28" height="22"/>
<path fill-rule="evenodd" clip-rule="evenodd" d="M26.681 61.9338C27.6471 63.7257 28.4643 65.6814 29.9921 67.0267C31.3004 68.1787 30.867 70.3154 29.2133 70.8667L26.695 71.7061C25.1498 72.2211 23.7391 73.0967 22.2079 73.652C21.3262 73.9718 20.3748 74.1462 19.3826 74.1462C18.3904 74.1462 17.439 73.9718 16.5573 73.652C15.0259 73.0966 13.615 72.2209 12.0696 71.7058L9.57929 70.8757C7.91964 70.3225 7.49094 68.1743 8.81108 67.0264C10.3079 65.7249 11.1067 63.8213 12.0178 62.0594C13.3955 59.3952 16.1764 57.5742 19.3826 57.5742C22.5382 57.5742 25.2817 59.3381 26.681 61.9338Z"/>
</mask>
<path fill-rule="evenodd" clip-rule="evenodd" d="M26.681 61.9338C27.6471 63.7257 28.4643 65.6814 29.9921 67.0267C31.3004 68.1787 30.867 70.3154 29.2133 70.8667L26.695 71.7061C25.1498 72.2211 23.7391 73.0967 22.2079 73.652C21.3262 73.9718 20.3748 74.1462 19.3826 74.1462C18.3904 74.1462 17.439 73.9718 16.5573 73.652C15.0259 73.0966 13.615 72.2209 12.0696 71.7058L9.57929 70.8757C7.91964 70.3225 7.49094 68.1743 8.81108 67.0264C10.3079 65.7249 11.1067 63.8213 12.0178 62.0594C13.3955 59.3952 16.1764 57.5742 19.3826 57.5742C22.5382 57.5742 25.2817 59.3381 26.681 61.9338Z" fill="#FF4056"/>
<path d="M29.2133 70.8667L28.4987 68.7228L29.2133 70.8667ZM9.57929 70.8757L8.86466 73.0196L8.86466 73.0196L9.57929 70.8757ZM16.5573 73.652L15.7868 75.7765L16.5573 73.652ZM12.0696 71.7058L11.3549 73.8497L12.0696 71.7058ZM29.9921 67.0267L28.4987 68.7228L29.9921 67.0267ZM28.4987 68.7228L29.9279 73.0106C33.2353 71.9081 34.1021 67.6346 31.4856 65.3306L28.4987 68.7228ZM28.4987 68.7228L25.9804 69.5622L27.4097 73.85L29.9279 73.0106L28.4987 68.7228ZM21.4374 71.5275C20.7991 71.759 20.1082 71.8863 19.3826 71.8863V76.406C20.6413 76.406 21.8533 76.1845 22.9784 75.7765L21.4374 71.5275ZM19.3826 71.8863C18.657 71.8863 17.9661 71.759 17.3278 71.5275L15.7868 75.7765C16.9119 76.1845 18.1239 76.406 19.3826 76.406V71.8863ZM12.7842 69.5619L10.2939 68.7318L8.86466 73.0196L11.3549 73.8497L12.7842 69.5619ZM10.2939 68.7318L10.2939 68.7318L7.32824 65.3211C4.68795 67.6169 5.54536 71.9131 8.86466 73.0196L10.2939 68.7318ZM14.0252 63.0975C15.03 61.1543 17.0541 59.8341 19.3826 59.8341V55.3144C15.2987 55.3144 11.761 57.6362 10.0105 61.0214L14.0252 63.0975ZM19.3826 59.8341C21.6744 59.8341 23.671 61.1127 24.6918 63.0062L28.6702 60.8614C26.8924 57.5636 23.4019 55.3144 19.3826 55.3144V59.8341ZM10.2939 68.7318C12.2097 67.066 13.2477 64.601 14.0252 63.0975L10.0105 61.0214C8.96577 63.0416 8.40606 64.3839 7.32824 65.3211L10.2939 68.7318ZM25.9804 69.5622C25.0567 69.8701 24.1996 70.2768 23.471 70.6253C22.7031 70.9927 22.0767 71.2957 21.4374 71.5275L22.9784 75.7765C23.8703 75.453 24.7149 75.0406 25.4215 74.7025C26.1674 74.3457 26.7882 74.0571 27.4097 73.85L25.9804 69.5622ZM17.3278 71.5275C16.6884 71.2956 16.0619 70.9926 15.294 70.6252C14.5653 70.2766 13.708 69.8698 12.7842 69.5619L11.3549 73.8497C11.9766 74.0569 12.5974 74.3455 13.3434 74.7024C14.05 75.0404 14.8947 75.4529 15.7868 75.7765L17.3278 71.5275ZM31.4856 65.3306C30.9757 64.8817 30.5321 64.2845 30.0759 63.5056C29.575 62.6503 29.2372 61.913 28.6702 60.8614L24.6918 63.0062C25.0909 63.7465 25.6448 64.883 26.1759 65.7898C26.7518 66.7731 27.4807 67.8264 28.4987 68.7228L31.4856 65.3306Z" fill="white" mask="url(#path-2-outside-1_3121_3406)"/>
<path d="M17.84 76.0341C13.2359 76.0341 8.99374 78.5302 6.75782 82.5549C6.41138 83.1785 6.12739 83.8348 5.90998 84.5142L2.0158 96.6835C0.807914 100.458 2.8605 104.502 6.62031 105.755C14.8741 108.507 23.8926 108.472 32.1405 105.723C35.8279 104.494 37.9652 100.568 36.9113 96.8044L33.5256 84.7125C33.3021 83.9142 32.9858 83.1448 32.5832 82.4201C30.3935 78.4786 26.239 76.0341 21.7301 76.0341H17.84Z" fill="#FF4056" stroke="white" stroke-width="2.25987"/>
<path d="M226.616 61.3117L225.643 61.8864L226.616 61.3117C224.283 57.3631 220.038 54.9404 215.452 54.9404H204.376C199.789 54.9404 195.544 57.3631 193.211 61.3117C191.553 64.1198 191.216 67.5163 192.291 70.5956L195.444 79.6284C196.253 81.9457 197.942 83.851 200.146 84.9313C206.308 87.9517 213.52 87.9517 219.681 84.9313C221.885 83.851 223.575 81.9457 224.384 79.6284L227.537 70.5956C228.612 67.5163 228.275 64.1198 226.616 61.3117Z" fill="#C2D72F" stroke="white" stroke-width="2.25987"/>
<circle cx="209.912" cy="44.7743" r="9.41591" fill="#C2D72F" stroke="white" stroke-width="2.25987"/>
</svg>
