<svg width="341" height="282" viewBox="0 0 341 282" fill="none" xmlns="http://www.w3.org/2000/svg">
<g opacity="0.6" filter="url(#filter0_f_3123_3408)">
<path fill-rule="evenodd" clip-rule="evenodd" d="M177.677 208.221C70.395 206.499 46.5003 176.221 105.992 117.388C165.485 58.5549 219.125 59.4162 266.915 119.972C314.705 180.527 284.959 209.944 177.677 208.221Z" fill="#F01F77"/>
</g>
<path d="M53.7496 63.2075C52.4607 65.7854 51.8497 68.686 51.5488 72.4091C51.2502 76.1027 51.2502 80.7229 51.2502 86.7674V86.8314V161.92V161.984C51.2502 168.068 51.2502 172.717 51.5515 176.433C51.8551 180.178 52.4715 183.094 53.772 185.681C55.9908 190.096 59.5351 193.706 63.9082 196.005C66.4715 197.353 69.3754 198.023 73.1142 198.396C76.8233 198.765 81.4719 198.851 87.554 198.963L87.6189 198.964L269.408 202.307L269.473 202.309C275.656 202.422 280.381 202.509 284.157 202.271C287.964 202.03 290.929 201.454 293.566 200.172C298.061 197.985 301.749 194.431 304.102 190.02C305.481 187.434 306.167 184.491 306.548 180.696C306.927 176.931 307.016 172.206 307.132 166.024L307.133 165.959L308.693 82.8597L308.694 82.794C308.815 76.3565 308.908 71.439 308.656 67.5194C308.402 63.5709 307.794 60.5061 306.438 57.808C304.128 53.2122 300.384 49.4935 295.773 47.2144C293.066 45.8763 289.997 45.2887 286.047 45.0613C282.126 44.8356 277.21 44.9608 270.773 45.1246L270.707 45.1263L87.3574 49.7934L87.2935 49.795C81.2509 49.9488 76.6322 50.0664 72.9474 50.4588C69.2332 50.8544 66.3491 51.539 63.8048 52.8931C59.4632 55.2035 55.9488 58.8085 53.7496 63.2075Z" fill="#F01F77" stroke="white" stroke-width="2.78571"/>
<mask id="path-3-outside-1_3123_3408" maskUnits="userSpaceOnUse" x="45.0005" y="111.285" width="34" height="27" fill="black">
<rect fill="white" x="45.0005" y="111.285" width="34" height="27"/>
<path fill-rule="evenodd" clip-rule="evenodd" d="M70.9905 119.663C72.1801 121.872 73.1869 124.283 75.0698 125.941C76.6825 127.361 76.1483 129.995 74.1098 130.674L70.9894 131.714C69.0901 132.347 67.3557 133.422 65.4737 134.105C64.3869 134.499 63.2143 134.714 61.9914 134.714C60.7686 134.714 59.5959 134.499 58.5091 134.105C56.6271 133.422 54.8927 132.347 52.9935 131.714L49.9063 130.685C47.8605 130.003 47.332 127.355 48.9594 125.94C50.8044 124.336 51.7888 121.989 52.9111 119.817C54.6088 116.531 58.0378 114.285 61.9914 114.285C65.883 114.285 69.2662 116.461 70.9905 119.663Z"/>
</mask>
<path fill-rule="evenodd" clip-rule="evenodd" d="M70.9905 119.663C72.1801 121.872 73.1869 124.283 75.0698 125.941C76.6825 127.361 76.1483 129.995 74.1098 130.674L70.9894 131.714C69.0901 132.347 67.3557 133.422 65.4737 134.105C64.3869 134.499 63.2143 134.714 61.9914 134.714C60.7686 134.714 59.5959 134.499 58.5091 134.105C56.6271 133.422 54.8927 132.347 52.9935 131.714L49.9063 130.685C47.8605 130.003 47.332 127.355 48.9594 125.94C50.8044 124.336 51.7888 121.989 52.9111 119.817C54.6088 116.531 58.0378 114.285 61.9914 114.285C65.883 114.285 69.2662 116.461 70.9905 119.663Z" fill="#FF4056"/>
<path d="M74.1098 130.674L74.9907 133.317H74.9907L74.1098 130.674ZM49.9063 130.685L50.7873 128.043L49.9063 130.685ZM48.9594 125.94L47.1315 123.838H47.1315L48.9594 125.94ZM52.9111 119.817L55.386 121.096L52.9111 119.817ZM70.9894 131.714L70.1084 129.072L70.9894 131.714ZM75.0698 125.941L73.2289 128.032V128.032L75.0698 125.941ZM70.9905 119.663L68.5379 120.984L70.9905 119.663ZM73.2289 128.032L74.9907 133.317C79.0677 131.958 80.1361 126.69 76.9108 123.85L73.2289 128.032ZM73.2289 128.032L70.1084 129.072L71.8703 134.357L74.9907 133.317L73.2289 128.032ZM64.524 131.486C63.7373 131.771 62.8858 131.928 61.9914 131.928V137.499C63.5427 137.499 65.0365 137.226 66.4233 136.724L64.524 131.486ZM61.9914 131.928C61.097 131.928 60.2455 131.771 59.4588 131.486L57.5595 136.724C58.9463 137.226 60.4401 137.499 61.9914 137.499V131.928ZM53.8744 129.072L50.7873 128.043L49.0254 133.328L52.1125 134.357L53.8744 129.072ZM50.7873 128.043L50.7873 128.043L47.1315 123.838C43.8768 126.668 44.9337 131.964 49.0254 133.328L50.7873 128.043ZM55.386 121.096C56.6243 118.699 59.12 117.071 61.9914 117.071V111.499C56.9556 111.499 52.5934 114.363 50.4362 118.539L55.386 121.096ZM61.9914 117.071C64.8178 117.071 67.28 118.648 68.5379 120.984L73.4432 118.343C71.2525 114.274 66.9481 111.499 61.9914 111.499V117.071ZM50.7873 128.043C53.1491 125.989 54.428 122.95 55.386 121.096L50.4362 118.539C49.1495 121.029 48.4597 122.683 47.1315 123.838L50.7873 128.043ZM70.1084 129.072C68.9731 129.45 67.9194 129.95 67.0238 130.378C66.0798 130.829 65.3099 131.201 64.524 131.486L66.4233 136.724C67.5195 136.326 68.5578 135.82 69.4263 135.404C70.3432 134.966 71.1064 134.612 71.8703 134.357L70.1084 129.072ZM59.4588 131.486C58.673 131.201 57.903 130.829 56.959 130.378C56.0634 129.95 55.0097 129.45 53.8744 129.072L52.1125 134.357C52.8764 134.612 53.6396 134.966 54.5565 135.404C55.425 135.82 56.4633 136.326 57.5595 136.724L59.4588 131.486ZM76.9108 123.85C76.2826 123.297 75.7361 122.561 75.1742 121.601C74.5576 120.548 74.1408 119.638 73.4432 118.343L68.5379 120.984C69.0299 121.898 69.7112 123.297 70.3661 124.416C71.0757 125.628 71.9741 126.927 73.2289 128.032L76.9108 123.85Z" fill="white" mask="url(#path-3-outside-1_3123_3408)"/>
<path d="M60.0904 137.037C54.4149 137.037 49.1855 140.114 46.4292 145.075C46.0022 145.844 45.6521 146.653 45.3841 147.49L40.5837 162.492C39.0947 167.145 41.6249 172.13 46.2597 173.675C56.4343 177.066 67.5516 177.024 77.719 173.634C82.2644 172.119 84.8991 167.28 83.6 162.641L79.4264 147.735C79.1508 146.751 78.7609 145.802 78.2646 144.909C75.5653 140.05 70.444 137.037 64.8859 137.037H60.0904Z" fill="#FF4056" stroke="white" stroke-width="2.78571"/>
<path d="M290.03 111.037C284.377 111.037 279.143 114.023 276.268 118.891C274.223 122.352 273.808 126.539 275.133 130.335L279.02 141.47C280.017 144.327 282.1 146.675 284.816 148.007C292.412 151.73 301.302 151.73 308.898 148.007C311.614 146.675 313.697 144.327 314.694 141.47L318.581 130.335C319.906 126.539 319.491 122.352 317.446 118.891C314.571 114.023 309.338 111.037 303.684 111.037H290.03Z" fill="#C2D72F" stroke="white" stroke-width="2.78571"/>
<circle cx="296.857" cy="98.4994" r="11.6071" fill="#C2D72F" stroke="white" stroke-width="2.78571"/>
<defs>
<filter id="filter0_f_3123_3408" x="0.802032" y="0.54129" width="361.562" height="281.109" filterUnits="userSpaceOnUse" color-interpolation-filters="sRGB">
<feFlood flood-opacity="0" result="BackgroundImageFix"/>
<feBlend mode="normal" in="SourceGraphic" in2="BackgroundImageFix" result="shape"/>
<feGaussianBlur stdDeviation="36.6786" result="effect1_foregroundBlur_3123_3408"/>
</filter>
</defs>
</svg>
