<svg width="413" height="300" viewBox="0 0 413 300" fill="none" xmlns="http://www.w3.org/2000/svg">
<g opacity="0.6" filter="url(#filter0_f_3123_3406)">
<path fill-rule="evenodd" clip-rule="evenodd" d="M202.011 220.52C74.8601 218.142 46.3375 186.107 116.442 124.417C186.547 62.7262 250.123 63.9154 307.168 127.985C364.214 192.053 329.162 222.898 202.011 220.52Z" fill="#F01F77"/>
</g>
<path d="M72.6127 63.4232C71.1791 66.2369 70.4999 69.4199 70.1653 73.5147C69.8333 77.5778 69.8333 82.6685 69.8333 89.3301V89.4V169.154V169.224C69.8333 175.798 69.8333 180.823 70.1593 184.837C70.4879 188.883 71.1549 192.032 72.5624 194.824C74.9634 199.588 78.7978 203.478 83.5259 205.948C86.2974 207.396 89.4364 208.109 93.4771 208.496C97.486 208.881 102.51 208.954 109.084 209.049L109.153 209.05L305.033 211.899L305.106 211.9C312.217 212.004 317.647 212.083 321.966 211.783C326.316 211.481 329.682 210.789 332.622 209.265C337.627 206.669 341.63 202.489 344.007 197.377C345.403 194.373 345.949 190.981 346.063 186.622C346.175 182.294 345.862 176.872 345.451 169.773L345.447 169.7L340.669 87.0959L340.665 87.0281C340.3 80.7181 340.021 75.8938 339.489 72.047C338.953 68.1684 338.147 65.1607 336.661 62.514C334.122 57.9941 330.267 54.3551 325.608 52.0821C322.88 50.7511 319.831 50.1196 315.927 49.8085C312.056 49.5 307.224 49.5 300.903 49.5H300.835H109.733H109.663C103.002 49.5 97.9112 49.5 93.848 49.832C89.7532 50.1665 86.5702 50.8457 83.7566 52.2793C78.9585 54.7241 75.0574 58.6251 72.6127 63.4232Z" fill="#F01F77" stroke="white" stroke-width="3"/>
<path d="M210.763 55.0367L211.276 68.0451L208.362 68.5146L208.333 55.1423L210.763 55.0367Z" fill="white"/>
<path d="M95.6936 67.5958L106.07 75.4577L104.583 78.0073L94.2329 69.5396L95.6936 67.5958Z" fill="white"/>
<path d="M333.811 126.553L320.803 127.067L320.333 124.153L333.706 124.124L333.811 126.553Z" fill="white"/>
<path d="M208.763 189.037L209.276 202.045L206.362 202.515L206.333 189.142L208.763 189.037Z" fill="white"/>
<path d="M309.794 184.248L320.17 192.11L318.683 194.66L308.333 186.192L309.794 184.248Z" fill="white"/>
<path d="M91.8347 132.924L78.8263 133.438L78.3568 130.524L91.7291 130.495L91.8347 132.924Z" fill="white"/>
<rect x="291.833" y="29.5" width="68" height="68" rx="34" fill="#C2D72F" stroke="white" stroke-width="3"/>
<path d="M326.125 32.8434L326.306 37.6914L325.219 37.8641L325.219 32.8808L326.125 32.8434Z" fill="white"/>
<path d="M304.8 41.3755L308.356 44.6755L307.71 45.5658L304.186 42.0421L304.8 41.3755Z" fill="white"/>
<path d="M355.769 63.2135L350.921 63.3945L350.748 62.3082L355.731 62.3082L355.769 63.2135Z" fill="white"/>
<path d="M347.236 41.889L343.936 45.4451L343.046 44.799L346.569 41.2753L347.236 41.889Z" fill="white"/>
<path d="M326.124 87.8434L326.305 92.6914L325.219 92.8641L325.219 87.8808L326.124 87.8434Z" fill="white"/>
<path d="M343.691 80.2661L347.247 83.5662L346.601 84.4564L343.078 80.9327L343.691 80.2661Z" fill="white"/>
<path d="M300.768 63.2135L295.92 63.3945L295.748 62.3082L300.731 62.3082L300.768 63.2135Z" fill="white"/>
<path d="M308.345 80.7796L305.045 84.3357L304.155 83.6896L307.678 80.1659L308.345 80.7796Z" fill="white"/>
<path d="M323.153 44.6712L328.049 73.7158L321.233 75.3705L317.392 45.4099L323.153 44.6712Z" fill="white"/>
<path d="M346.007 62.3062L316.853 66.5878L317.649 73.1362L347.304 67.6459L346.007 62.3062Z" fill="white"/>
<path d="M80.2794 212.281L80.3186 212.301L80.3589 212.318C83.2785 213.571 86.4901 213.665 89.3363 213.34C92.163 213.017 94.7498 212.265 96.5344 211.688C101.256 210.564 110.415 205.239 110.415 192.794C110.415 180.276 104.318 172.85 100.301 167.957C99.4727 166.948 98.7327 166.047 98.1528 165.231C95.2016 161.078 92.3039 156.584 91.3501 153.198C91.0763 152.227 90.3093 151.568 89.5054 151.308C88.6825 151.041 87.5581 151.13 86.7875 152.04C83.7333 155.647 79.4503 162.284 79.4503 169.24C79.4503 171.219 79.1485 172.815 78.7151 173.996C78.2717 175.205 77.732 175.873 77.3411 176.154C77.0411 176.369 76.9613 176.299 76.934 176.275C76.9316 176.273 76.9296 176.271 76.9278 176.27C76.7569 176.154 76.3314 175.676 76.0678 174.334C75.8622 173.287 75.0866 172.549 74.2225 172.278C73.3238 171.997 72.1615 172.19 71.4551 173.204C68.1182 177.993 64.9206 185.001 65.2797 192.248C65.6462 199.646 69.705 206.994 80.2794 212.281Z" fill="white" stroke="white" stroke-width="3"/>
<path d="M80.9503 169.24C80.9503 162.826 84.9473 156.534 87.9322 153.01C88.504 152.334 89.6663 152.753 89.9063 153.605C90.9418 157.281 94.0022 161.98 96.9301 166.1C100.526 171.16 108.915 178.313 108.915 192.794C108.915 201.544 104.054 206.465 99.8386 208.776C98.9258 209.277 97.6866 207.737 97.8539 206.709C98.2683 204.165 97.5179 200.636 93.3347 196.982C89.8664 193.952 89.2402 190.364 89.646 187.464C89.7945 186.403 88.3275 185.256 87.539 185.982C82.6154 190.519 81.4287 195.391 81.5956 198.79C81.6392 199.678 80.4621 200.479 79.7402 199.96C79.2495 199.607 78.5565 199.83 78.4084 200.416C77.6959 203.237 77.988 205.601 78.6434 207.404C78.8461 207.962 77.7393 209.15 77.2422 208.827C61.3883 198.507 66.6468 182.728 72.6858 174.062C73.2212 173.293 74.4155 173.704 74.5959 174.623C75.7754 180.63 80.9503 177.743 80.9503 169.24Z" fill="#FF4056"/>
<defs>
<filter id="filter0_f_3123_3406" x="0.069252" y="0.0234375" width="412.6" height="299.625" filterUnits="userSpaceOnUse" color-interpolation-filters="sRGB">
<feFlood flood-opacity="0" result="BackgroundImageFix"/>
<feBlend mode="normal" in="SourceGraphic" in2="BackgroundImageFix" result="shape"/>
<feGaussianBlur stdDeviation="39.5" result="effect1_foregroundBlur_3123_3406"/>
</filter>
</defs>
</svg>
