<svg width="159" height="156" viewBox="0 0 159 156" fill="none" xmlns="http://www.w3.org/2000/svg">
<path fill-rule="evenodd" clip-rule="evenodd" d="M74.3316 24.2358C139.485 22.0788 157.176 50.6061 127.405 109.817C97.6334 169.028 65.057 170.106 29.6747 113.052C-5.7073 55.9981 9.17825 26.3927 74.3316 24.2358Z" fill="url(#paint0_radial_2136_6340)"/>
<mask id="path-2-outside-1_2136_6340" maskUnits="userSpaceOnUse" x="48.8428" y="1.77774" width="93.9292" height="95.5983" fill="black">
<rect fill="white" x="48.8428" y="1.77774" width="93.9292" height="95.5983"/>
<path fill-rule="evenodd" clip-rule="evenodd" d="M101.994 12.0822C115.993 14.2583 126.838 19.2647 126.216 23.2645L125.09 30.5066L127.06 30.8128C131.972 31.5763 135.335 36.1769 134.571 41.0884L132.896 51.8676C132.377 55.2017 130.038 57.9658 126.835 59.0278L119.758 61.3746C116.212 70.2814 106.876 75.8868 97.0022 74.3519L96.1699 74.2225L95.9875 85.9871C95.9822 86.3266 95.74 86.6156 95.4012 86.638C92.7138 86.8162 86.3451 85.8214 83.8363 84.8396C83.5194 84.7156 83.3755 84.366 83.4737 84.0402L86.8772 72.755C76.8202 70.7123 69.7857 61.7081 70.0621 51.6095L64.3566 47.4617C61.6274 45.4777 60.2373 42.1338 60.7556 38.7997L62.4311 28.0205C63.1946 23.1089 67.7951 19.7462 72.7067 20.5097L74.6767 20.8159L75.52 15.3912C75.5203 15.3889 75.5207 15.3866 75.521 15.3843C76.1428 11.3846 87.9952 9.90619 101.994 12.0822ZM74.0529 24.8293L70.6088 46.9856L66.7449 44.1765C65.2473 43.0879 64.4845 41.253 64.7689 39.4235L66.4445 28.6443C66.8634 25.9493 69.3878 24.1041 72.0828 24.523L74.0529 24.8293ZM121.022 56.6763L124.466 34.52L126.436 34.8262C129.132 35.2451 130.977 37.7695 130.558 40.4646L128.882 51.2438C128.598 53.0733 127.314 54.59 125.557 55.1727L121.022 56.6763Z"/>
</mask>
<path fill-rule="evenodd" clip-rule="evenodd" d="M101.994 12.0822C115.993 14.2583 126.838 19.2647 126.216 23.2645L125.09 30.5066L127.06 30.8128C131.972 31.5763 135.335 36.1769 134.571 41.0884L132.896 51.8676C132.377 55.2017 130.038 57.9658 126.835 59.0278L119.758 61.3746C116.212 70.2814 106.876 75.8868 97.0022 74.3519L96.1699 74.2225L95.9875 85.9871C95.9822 86.3266 95.74 86.6156 95.4012 86.638C92.7138 86.8162 86.3451 85.8214 83.8363 84.8396C83.5194 84.7156 83.3755 84.366 83.4737 84.0402L86.8772 72.755C76.8202 70.7123 69.7857 61.7081 70.0621 51.6095L64.3566 47.4617C61.6274 45.4777 60.2373 42.1338 60.7556 38.7997L62.4311 28.0205C63.1946 23.1089 67.7951 19.7462 72.7067 20.5097L74.6767 20.8159L75.52 15.3912C75.5203 15.3889 75.5207 15.3866 75.521 15.3843C76.1428 11.3846 87.9952 9.90619 101.994 12.0822ZM74.0529 24.8293L70.6088 46.9856L66.7449 44.1765C65.2473 43.0879 64.4845 41.253 64.7689 39.4235L66.4445 28.6443C66.8634 25.9493 69.3878 24.1041 72.0828 24.523L74.0529 24.8293ZM121.022 56.6763L124.466 34.52L126.436 34.8262C129.132 35.2451 130.977 37.7695 130.558 40.4646L128.882 51.2438C128.598 53.0733 127.314 54.59 125.557 55.1727L121.022 56.6763Z" fill="#D9D9D9"/>
<path d="M126.216 23.2645L122.264 22.6501L122.264 22.6501L126.216 23.2645ZM125.09 30.5066L124.476 34.4592L120.523 33.8448L121.138 29.8922L125.09 30.5066ZM127.06 30.8128L127.675 26.8603L127.675 26.8603L127.06 30.8128ZM134.571 41.0884L138.524 41.7028L134.571 41.0884ZM132.896 51.8676L136.848 52.482L132.896 51.8676ZM126.835 59.0278L125.576 55.2311L125.576 55.2311L126.835 59.0278ZM119.758 61.3746L116.042 59.8953L116.731 58.1643L118.499 57.5779L119.758 61.3746ZM96.1699 74.2225L92.1704 74.1605L92.2416 69.5639L96.7843 70.27L96.1699 74.2225ZM95.9875 85.9871L99.987 86.0491L99.987 86.0491L95.9875 85.9871ZM95.4012 86.638L95.6658 90.6293L95.6657 90.6293L95.4012 86.638ZM83.8363 84.8396L82.3786 88.5645L82.3785 88.5645L83.8363 84.8396ZM83.4737 84.0402L87.3033 85.1952L87.3033 85.1952L83.4737 84.0402ZM86.8772 72.755L87.6734 68.8351L91.9739 69.7086L90.7068 73.91L86.8772 72.755ZM70.0621 51.6095L72.4142 48.3741L74.1182 49.613L74.0606 51.719L70.0621 51.6095ZM64.3566 47.4617L62.0045 50.6971L64.3566 47.4617ZM60.7556 38.7997L56.803 38.1853L60.7556 38.7997ZM62.4311 28.0205L66.3836 28.6349L62.4311 28.0205ZM72.7067 20.5097L72.0923 24.4622L72.7067 20.5097ZM74.6767 20.8159L78.6293 21.4303L78.0149 25.3828L74.0623 24.7684L74.6767 20.8159ZM75.52 15.3912L79.4745 15.9927L79.4725 16.0056L75.52 15.3912ZM70.6088 46.9856L74.5614 47.6L73.5552 54.0729L68.2568 50.221L70.6088 46.9856ZM74.0529 24.8293L74.6673 20.8767L78.6198 21.4911L78.0054 25.4436L74.0529 24.8293ZM66.7449 44.1765L64.3928 47.4119L64.3928 47.4119L66.7449 44.1765ZM124.466 34.52L120.514 33.9056L121.128 29.953L125.081 30.5674L124.466 34.52ZM121.022 56.6763L122.281 60.473L116.064 62.5348L117.07 56.0619L121.022 56.6763ZM130.558 40.4646L126.605 39.8502L130.558 40.4646ZM128.882 51.2438L124.93 50.6294L128.882 51.2438ZM125.557 55.1727L124.298 51.376L124.298 51.376L125.557 55.1727ZM122.264 22.6501C122.107 23.6561 122.776 23.843 121.941 23.0672C121.229 22.4061 119.917 21.547 117.911 20.6211C113.952 18.7931 108.119 17.0824 101.38 16.0348L102.609 8.12971C109.868 9.25814 116.458 11.1387 121.265 13.3578C123.642 14.4555 125.8 15.734 127.384 17.2045C128.844 18.5603 130.636 20.873 130.169 23.8789L122.264 22.6501ZM130.169 23.8789L129.043 31.121L121.138 29.8922L122.264 22.6501L130.169 23.8789ZM125.705 26.5541L127.675 26.8603L126.446 34.7654L124.476 34.4592L125.705 26.5541ZM127.675 26.8603C134.769 27.9631 139.626 34.6083 138.524 41.7028L130.619 40.474C131.043 37.7454 129.175 35.1895 126.446 34.7654L127.675 26.8603ZM138.524 41.7028L136.848 52.482L128.943 51.2532L130.619 40.474L138.524 41.7028ZM136.848 52.482C136.1 57.2979 132.72 61.2905 128.094 62.8245L125.576 55.2311C127.355 54.6411 128.655 53.1055 128.943 51.2532L136.848 52.482ZM128.094 62.8245L121.017 65.1713L118.499 57.5779L125.576 55.2311L128.094 62.8245ZM123.474 62.854C119.254 73.4561 108.146 80.1322 96.3878 78.3044L97.6166 70.3994C105.607 71.6414 113.171 67.1066 116.042 59.8953L123.474 62.854ZM96.3878 78.3044L95.5555 78.1751L96.7843 70.27L97.6166 70.3994L96.3878 78.3044ZM100.169 74.2846L99.987 86.0491L91.9879 85.9251L92.1704 74.1605L100.169 74.2846ZM99.987 86.0491C99.9537 88.1929 98.3489 90.4514 95.6658 90.6293L95.1366 82.6468C93.131 82.7798 92.0107 84.4603 91.9879 85.9251L99.987 86.0491ZM95.6657 90.6293C93.8595 90.749 91.2327 90.4838 88.9362 90.1261C86.6376 89.7681 84.0592 89.2222 82.3786 88.5645L85.2939 81.1146C86.1222 81.4388 87.9825 81.8811 90.1674 82.2214C92.3543 82.562 94.2555 82.7052 95.1366 82.6468L95.6657 90.6293ZM82.3785 88.5645C79.8734 87.5841 79.0234 84.9433 79.6441 82.8853L87.3033 85.1952C87.7275 83.7887 87.1653 81.847 85.294 81.1147L82.3785 88.5645ZM79.6441 82.8853L83.0476 71.6001L90.7068 73.91L87.3033 85.1952L79.6441 82.8853ZM86.081 76.675C74.104 74.2423 65.7344 63.5256 66.0636 51.5001L74.0606 51.719C73.8369 59.8906 79.5364 67.1823 87.6734 68.8351L86.081 76.675ZM67.71 54.8449L62.0045 50.6971L66.7087 44.2263L72.4142 48.3741L67.71 54.8449ZM62.0045 50.6971C58.0624 47.8312 56.0544 43.0012 56.803 38.1853L64.7081 39.4141C64.4202 41.2664 65.1925 43.1241 66.7087 44.2263L62.0045 50.6971ZM56.803 38.1853L58.4786 27.4061L66.3836 28.6349L64.7081 39.4141L56.803 38.1853ZM58.4786 27.4061C59.5814 20.3116 66.2266 15.4544 73.3211 16.5571L72.0923 24.4622C69.3637 24.0381 66.8078 25.9062 66.3836 28.6349L58.4786 27.4061ZM73.3211 16.5571L75.2911 16.8634L74.0623 24.7684L72.0923 24.4622L73.3211 16.5571ZM70.7242 20.2015L71.5674 14.7768L79.4725 16.0056L78.6293 21.4303L70.7242 20.2015ZM79.4736 15.9987C79.4739 15.9967 79.4742 15.9947 79.4745 15.9927L71.5654 14.7898C71.5664 14.7831 71.5675 14.7765 71.5685 14.7699L79.4736 15.9987ZM101.38 16.0348C94.6403 14.9872 88.564 14.8468 84.2362 15.3866C82.0443 15.66 80.5337 16.0804 79.6545 16.4942C78.6228 16.9797 79.3172 17.0047 79.4736 15.9987L71.5685 14.7699C72.0357 11.7641 74.4448 10.1043 76.2478 9.25576C78.2033 8.33544 80.6473 7.77225 83.2461 7.44811C88.4997 6.79281 95.3492 7.00127 102.609 8.12971L101.38 16.0348ZM66.6563 46.3712L70.1003 24.2149L78.0054 25.4436L74.5614 47.6L66.6563 46.3712ZM69.0969 40.9412L72.9609 43.7502L68.2568 50.221L64.3928 47.4119L69.0969 40.9412ZM68.7214 40.0379C68.6674 40.3856 68.8124 40.7343 69.0969 40.9412L64.3928 47.4119C61.6823 45.4414 60.3017 42.1204 60.8164 38.8092L68.7214 40.0379ZM70.397 29.2587L68.7214 40.0379L60.8164 38.8092L62.4919 28.03L70.397 29.2587ZM71.4685 28.4756C70.9563 28.3959 70.4766 28.7466 70.397 29.2587L62.4919 28.03C63.2502 23.152 67.8193 19.8122 72.6972 20.5705L71.4685 28.4756ZM73.4385 28.7818L71.4685 28.4756L72.6972 20.5705L74.6673 20.8767L73.4385 28.7818ZM128.419 35.1344L124.975 57.2907L117.07 56.0619L120.514 33.9056L128.419 35.1344ZM125.822 38.7787L123.852 38.4725L125.081 30.5674L127.051 30.8737L125.822 38.7787ZM126.605 39.8502C126.685 39.338 126.334 38.8583 125.822 38.7787L127.051 30.8737C131.929 31.6319 135.269 36.201 134.51 41.079L126.605 39.8502ZM124.93 50.6294L126.605 39.8502L134.51 41.079L132.835 51.8582L124.93 50.6294ZM124.298 51.376C124.632 51.2653 124.876 50.9771 124.93 50.6294L132.835 51.8582C132.32 55.1695 129.996 57.9147 126.816 58.9694L124.298 51.376ZM119.763 52.8796L124.298 51.376L126.816 58.9694L122.281 60.473L119.763 52.8796Z" fill="white" mask="url(#path-2-outside-1_2136_6340)"/>
<path fill-rule="evenodd" clip-rule="evenodd" d="M88.1427 95.2287C78.6434 93.752 71.3206 90.1232 71.7869 87.1234L72.3498 83.5023L76.7295 84.1831C80.0517 83.5615 84.7372 83.5736 89.8313 84.3654C94.9254 85.1573 99.3936 86.568 102.37 88.1688L106.75 88.8496L106.187 92.4707C105.721 95.4705 97.6421 96.7053 88.1427 95.2287Z" fill="#FF6A3B"/>
<path fill-rule="evenodd" clip-rule="evenodd" d="M88.1427 95.2287C78.6434 93.752 71.3206 90.1232 71.7869 87.1234L72.3498 83.5023L76.7295 84.1831C80.0517 83.5615 84.7372 83.5736 89.8313 84.3654C94.9254 85.1573 99.3936 86.568 102.37 88.1688L106.75 88.8496L106.187 92.4707C105.721 95.4705 97.6421 96.7053 88.1427 95.2287Z" fill="url(#paint1_linear_2136_6340)"/>
<ellipse cx="17.4067" cy="5.49684" rx="17.4067" ry="5.49684" transform="matrix(0.988133 0.153598 0.153598 -0.988133 71.5056 88.9336)" fill="#FFBC3B"/>
<g filter="url(#filter0_i_2136_6340)">
<path fill-rule="evenodd" clip-rule="evenodd" d="M119.315 55.7322L122.435 35.6587L127.009 36.3697C128.483 36.5988 129.492 37.979 129.263 39.4526L127.389 51.5098C127.233 52.51 126.531 53.3394 125.57 53.658L119.315 55.7322ZM117.848 29.3828L127.854 30.9381C132.327 31.6335 135.39 35.8236 134.694 40.2969L132.82 52.3541C132.348 55.3907 130.217 57.9082 127.3 58.8754L112.501 63.783L117.848 29.3828Z" fill="#FFBC3B"/>
</g>
<g filter="url(#filter1_i_2136_6340)">
<path fill-rule="evenodd" clip-rule="evenodd" d="M72.5225 46.6022L75.6428 26.5287L71.0688 25.8177C69.5952 25.5887 68.215 26.5975 67.9859 28.0711L66.1117 40.1283C65.9562 41.1286 66.3733 42.1318 67.1921 42.7271L72.5225 46.6022ZM81.9187 21.9414L71.9131 20.3861C67.4397 19.6908 63.2496 22.7534 62.5543 27.2268L60.6801 39.284C60.2081 42.3206 61.4742 45.3661 63.9598 47.1732L76.5714 56.3416L81.9187 21.9414Z" fill="#FFBC3B"/>
</g>
<g filter="url(#filter2_i_2136_6340)">
<path d="M96.3705 61.2752L90.6097 60.3797L83.4736 84.0417C83.3753 84.3675 83.5192 84.717 83.8361 84.841C86.345 85.8228 92.7137 86.8176 95.401 86.6395C95.7398 86.617 95.9821 86.328 95.9873 85.9885L96.3705 61.2752Z" fill="#FFBC3B"/>
</g>
<g filter="url(#filter3_i_2136_6340)">
<path d="M126.216 23.2656L75.5209 15.3854L70.3065 48.9307C68.5234 60.4021 76.3773 71.1471 87.8487 72.9302L97.0021 74.3531C108.473 76.1362 119.218 68.2823 121.002 56.8109L126.216 23.2656Z" fill="#FFBC3B"/>
</g>
<path d="M125.213 23.111C125.289 22.6202 125.04 21.8746 123.971 20.8825C122.934 19.9194 121.307 18.9038 119.162 17.9138C114.886 15.9399 108.772 14.1658 101.838 13.088C94.9046 12.0103 88.5399 11.8445 83.8667 12.4274C81.523 12.7197 79.6641 13.1934 78.3834 13.7961C77.064 14.4171 76.6005 15.052 76.5242 15.5427C76.4479 16.0335 76.6968 16.779 77.7655 17.7712C78.8028 18.7343 80.4302 19.7499 82.5746 20.7399C86.8503 22.7138 92.9651 24.4879 99.8986 25.5657C106.832 26.6434 113.197 26.8092 117.87 26.2263C120.214 25.934 122.073 25.4603 123.353 24.8576C124.673 24.2366 125.136 23.6017 125.213 23.111Z" fill="url(#paint2_linear_2136_6340)" stroke="#FFBC3B" stroke-width="2.03077"/>
<path d="M93.6616 41.6503L87.435 40.6825L88.2607 35.3705C93.5375 36.1907 95.276 35.6683 96.8938 32.6772L102.311 33.5193L98.243 59.6923L91.0313 58.5713L93.6616 41.6503Z" fill="#FFD79C"/>
<path d="M26.1813 111.409L26.2297 111.442L26.28 111.472C30.2033 113.816 34.7709 114.564 38.9113 114.638C43.0251 114.711 46.8796 114.121 49.5529 113.631C56.5083 112.918 70.6134 107.025 72.9847 89.1752C75.3749 71.1837 68.0739 59.368 63.2343 51.5359C62.2331 49.9156 61.3372 48.4657 60.6543 47.167C57.1568 40.5155 53.793 33.3456 53.1299 28.2334C52.9545 26.8811 52.0534 25.8568 51.0256 25.3635C49.9736 24.8585 48.4666 24.784 47.2831 25.8492C42.1984 30.4253 34.6572 39.2326 33.3179 49.3136C32.9322 52.2172 32.1753 54.5011 31.3028 56.1493C30.411 57.8339 29.477 58.7134 28.827 59.0468C28.5194 59.2046 28.3381 59.2104 28.2688 59.2038C28.2202 59.1992 28.1468 59.1847 28.0291 59.0716C27.7292 58.7834 27.2044 57.8727 27.114 55.7731C27.0517 54.3268 26.1515 53.1923 25.0454 52.673C23.8983 52.1344 22.3196 52.188 21.1999 53.404C15.468 59.6286 9.47091 69.1166 8.54295 79.6296C7.59716 90.3446 11.9537 101.735 26.1813 111.409Z" fill="white" stroke="white" stroke-width="4"/>
<path d="M35.3005 49.577C36.5441 40.2161 43.6428 31.816 48.621 27.3358C49.5122 26.5337 50.9922 27.3016 51.1465 28.4906C51.8633 34.0169 55.4147 41.4997 58.8841 48.0978C63.0848 56.0867 73.7785 68.0131 71.0022 88.9118C69.2922 101.783 61.0804 107.949 54.5085 110.385C53.1876 110.874 51.843 108.607 52.3 107.274C53.534 103.676 53.3062 98.2768 47.7926 91.9781C43.2253 86.7606 43.163 81.2595 44.4419 77.0951C44.868 75.7076 43.1365 73.9159 41.9396 74.7371C33.6919 80.396 30.9771 87.3424 30.5624 92.3555C30.4561 93.6413 28.61 94.5667 27.6724 93.6804C27.0343 93.0771 25.993 93.2658 25.6683 94.0817C24.0198 98.2243 24.0699 101.848 24.7655 104.637C24.9599 105.416 23.3089 106.787 22.6959 106.268C1.32638 88.1918 12.216 66.1127 22.6711 54.7587C23.5308 53.8251 25.0612 54.5912 25.1158 55.8592C25.5132 65.0875 33.654 61.9709 35.3005 49.577Z" fill="#FF4056"/>
<path d="M151.43 83.1965L150.055 84.6014L151.43 83.1965L146.79 78.6574C145.362 77.2606 143.534 76.3448 141.56 76.038L72.4618 65.2971C68.4143 64.668 64.6231 67.4391 63.9939 71.4866L58.3398 107.861C57.9494 110.372 58.5727 112.936 60.0726 114.988L64.7321 121.363C65.7233 122.719 67.2126 123.626 68.8724 123.884L135.387 134.223C141.208 135.128 146.661 131.142 147.566 125.321L153.259 88.6963C153.573 86.6753 152.892 84.6269 151.43 83.1965Z" fill="#FF6A3B" stroke="white" stroke-width="4"/>
<rect x="66.8022" y="66.4414" width="81.6639" height="49.2576" rx="5.41667" transform="rotate(8.8355 66.8022 66.4414)" fill="#FFBC3B"/>
<rect x="71.3284" y="71.0781" width="71.2939" height="41.4801" rx="2.16667" transform="rotate(8.8355 71.3284 71.0781)" fill="#F01F77"/>
<rect x="75.6555" y="77" width="60.9239" height="25.9251" rx="1.08333" transform="rotate(8.8355 75.6555 77)" fill="#FFBC3B"/>
<rect x="96.2357" y="88.0703" width="16.8513" height="9.07377" rx="1.08333" transform="rotate(8.8355 96.2357 88.0703)" fill="#F01F77"/>
<path d="M90.6056 110C91.3187 108.997 92.5375 108.482 93.7539 108.671L108.997 111.041C110.214 111.23 111.219 112.09 111.594 113.263L113.63 119.632L86.7319 115.451L90.6056 110Z" fill="#C2D72F"/>
<ellipse cx="84.6514" cy="90.8586" rx="7.12939" ry="7.12939" transform="rotate(8.8355 84.6514 90.8586)" fill="#F01F77"/>
<circle cx="93.1927" cy="111.864" r="1.40271" transform="rotate(8.8355 93.1927 111.864)" stroke="white" stroke-width="1.08333"/>
<circle cx="108.563" cy="114.255" r="1.40271" transform="rotate(8.8355 108.563 114.255)" stroke="white" stroke-width="1.08333"/>
<circle cx="68.657" cy="109.361" r="1.40271" transform="rotate(8.8355 68.657 109.361)" stroke="#FFA5CB" stroke-width="1.08333"/>
<circle cx="74.0328" cy="74.7785" r="1.40271" transform="rotate(8.8355 74.0328 74.7785)" stroke="#FFA5CB" stroke-width="1.08333"/>
<circle cx="138.076" cy="84.7356" r="1.40271" transform="rotate(8.8355 138.076 84.7356)" stroke="#FFA5CB" stroke-width="1.08333"/>
<circle cx="132.701" cy="119.318" r="1.40271" transform="rotate(8.8355 132.701 119.318)" stroke="#FFA5CB" stroke-width="1.08333"/>
<ellipse cx="123.077" cy="96.8313" rx="7.12939" ry="7.12939" transform="rotate(8.8355 123.077 96.8313)" fill="#F01F77"/>
<ellipse cx="84.6514" cy="90.8596" rx="4.53688" ry="4.53688" transform="rotate(8.8355 84.6514 90.8596)" fill="#C2D72F"/>
<ellipse cx="123.078" cy="96.8322" rx="4.53688" ry="4.53688" transform="rotate(8.8355 123.078 96.8322)" fill="#C2D72F"/>
<defs>
<filter id="filter0_i_2136_6340" x="112.501" y="27.9577" width="22.2921" height="35.8235" filterUnits="userSpaceOnUse" color-interpolation-filters="sRGB">
<feFlood flood-opacity="0" result="BackgroundImageFix"/>
<feBlend mode="normal" in="SourceGraphic" in2="BackgroundImageFix" result="shape"/>
<feColorMatrix in="SourceAlpha" type="matrix" values="0 0 0 0 0 0 0 0 0 0 0 0 0 0 0 0 0 0 127 0" result="hardAlpha"/>
<feOffset dy="-1.4251"/>
<feGaussianBlur stdDeviation="0.712551"/>
<feComposite in2="hardAlpha" operator="arithmetic" k2="-1" k3="1"/>
<feColorMatrix type="matrix" values="0 0 0 0 1 0 0 0 0 0.415686 0 0 0 0 0.231373 0 0 0 0.5 0"/>
<feBlend mode="normal" in2="shape" result="effect1_innerShadow_2136_6340"/>
</filter>
<filter id="filter1_i_2136_6340" x="60.5826" y="18.864" width="21.3361" height="37.4759" filterUnits="userSpaceOnUse" color-interpolation-filters="sRGB">
<feFlood flood-opacity="0" result="BackgroundImageFix"/>
<feBlend mode="normal" in="SourceGraphic" in2="BackgroundImageFix" result="shape"/>
<feColorMatrix in="SourceAlpha" type="matrix" values="0 0 0 0 0 0 0 0 0 0 0 0 0 0 0 0 0 0 127 0" result="hardAlpha"/>
<feOffset dy="-1.4251"/>
<feGaussianBlur stdDeviation="0.712551"/>
<feComposite in2="hardAlpha" operator="arithmetic" k2="-1" k3="1"/>
<feColorMatrix type="matrix" values="0 0 0 0 1 0 0 0 0 0.415686 0 0 0 0 0.231373 0 0 0 0.5 0"/>
<feBlend mode="normal" in2="shape" result="effect1_innerShadow_2136_6340"/>
</filter>
<filter id="filter2_i_2136_6340" x="83.4431" y="57.5287" width="12.9274" height="29.1315" filterUnits="userSpaceOnUse" color-interpolation-filters="sRGB">
<feFlood flood-opacity="0" result="BackgroundImageFix"/>
<feBlend mode="normal" in="SourceGraphic" in2="BackgroundImageFix" result="shape"/>
<feColorMatrix in="SourceAlpha" type="matrix" values="0 0 0 0 0 0 0 0 0 0 0 0 0 0 0 0 0 0 127 0" result="hardAlpha"/>
<feOffset dy="-3.56275"/>
<feGaussianBlur stdDeviation="1.4251"/>
<feComposite in2="hardAlpha" operator="arithmetic" k2="-1" k3="1"/>
<feColorMatrix type="matrix" values="0 0 0 0 1 0 0 0 0 0.415686 0 0 0 0 0.231373 0 0 0 0.5 0"/>
<feBlend mode="normal" in2="shape" result="effect1_innerShadow_2136_6340"/>
</filter>
<filter id="filter3_i_2136_6340" x="70.0541" y="12.5365" width="56.1619" height="62.069" filterUnits="userSpaceOnUse" color-interpolation-filters="sRGB">
<feFlood flood-opacity="0" result="BackgroundImageFix"/>
<feBlend mode="normal" in="SourceGraphic" in2="BackgroundImageFix" result="shape"/>
<feColorMatrix in="SourceAlpha" type="matrix" values="0 0 0 0 0 0 0 0 0 0 0 0 0 0 0 0 0 0 127 0" result="hardAlpha"/>
<feOffset dy="-2.8502"/>
<feGaussianBlur stdDeviation="1.4251"/>
<feComposite in2="hardAlpha" operator="arithmetic" k2="-1" k3="1"/>
<feColorMatrix type="matrix" values="0 0 0 0 1 0 0 0 0 0.415686 0 0 0 0 0.231373 0 0 0 0.5 0"/>
<feBlend mode="normal" in2="shape" result="effect1_innerShadow_2136_6340"/>
</filter>
<radialGradient id="paint0_radial_2136_6340" cx="0" cy="0" r="1" gradientUnits="userSpaceOnUse" gradientTransform="translate(127.968 59.6057) rotate(164.745) scale(112.998 116.85)">
<stop stop-color="#FF6E40"/>
<stop offset="0.55445" stop-color="#FC4F38"/>
<stop offset="1" stop-color="#EC5500"/>
</radialGradient>
<linearGradient id="paint1_linear_2136_6340" x1="89.7542" y1="84.8619" x2="88.3681" y2="93.7788" gradientUnits="userSpaceOnUse">
<stop stop-color="#FFBC3B"/>
<stop offset="1" stop-color="#FF6A3B"/>
</linearGradient>
<linearGradient id="paint2_linear_2136_6340" x1="99.5014" y1="28.1209" x2="101.994" y2="12.0847" gradientUnits="userSpaceOnUse">
<stop stop-color="#FFBC3B"/>
<stop offset="1" stop-color="#FF6A3B"/>
</linearGradient>
</defs>
</svg>
