<svg width="170" height="149" viewBox="0 0 170 149" fill="none" xmlns="http://www.w3.org/2000/svg">
<path fill-rule="evenodd" clip-rule="evenodd" d="M97.767 20.2778C161.259 35.0573 170.964 67.1914 126.882 116.68C82.7997 166.168 51.0543 158.778 31.6443 94.51C12.2346 30.2423 34.2754 5.49832 97.767 20.2778Z" fill="url(#paint0_radial_1928_7376)"/>
<mask id="mask0_1928_7376" style="mask-type:alpha" maskUnits="userSpaceOnUse" x="-39" y="-48" width="212" height="197">
<path fill-rule="evenodd" clip-rule="evenodd" d="M107.439 -46.1376C220.187 -25.7982 153.13 43.1054 153.949 63.1896C154.55 77.9124 145.527 95.7402 126.881 116.673C82.7992 166.161 51.0537 158.771 31.6437 94.5034C28.9133 85.4626 -37.5882 59.4065 -38.6781 51.93C-45.3358 6.25875 52.8788 -58.838 107.439 -46.1376Z" fill="url(#paint1_radial_1928_7376)"/>
</mask>
<g mask="url(#mask0_1928_7376)">
<g filter="url(#filter0_d_1928_7376)">
<path d="M126.652 23.5161C127.022 22.3098 126.118 21.0898 124.856 21.0927L91.6625 21.168C89.969 21.1719 88.5355 22.4194 88.298 24.0962L82.6708 63.8208C81.5652 63.0681 80.2741 62.4417 78.8468 62.0037C73.4641 60.3516 68.1826 62.0032 67.0503 65.6926C65.918 69.382 69.3636 73.712 74.7463 75.3641C80.1291 77.0161 85.4106 75.3646 86.5429 71.6752C86.6431 71.3487 86.7075 71.0172 86.7378 70.683L94.0868 33.2681C94.4032 31.6574 95.8234 30.5015 97.4648 30.5189L114.121 30.6948C116.177 30.7166 117.746 32.542 117.457 34.5782L113.49 62.5816C112.426 61.8834 111.199 61.3011 109.85 60.887C104.467 59.235 99.1854 60.8866 98.0531 64.5759C96.9208 68.2653 100.366 72.5954 105.749 74.2474C111.132 75.8995 116.413 74.2479 117.546 70.5585C117.649 70.2233 117.714 69.8828 117.743 69.5395L126.652 23.5161Z" fill="#C2D72F"/>
<path d="M128.598 23.9831C129.269 21.5288 127.419 19.0869 124.852 19.0927L91.6579 19.168C88.97 19.1741 86.6948 21.1542 86.3178 23.8157L81.0934 60.6971C80.5594 60.4698 80.0053 60.2672 79.4337 60.0917C76.4066 59.1627 73.325 59.1335 70.7578 59.9363C68.2013 60.7357 65.9542 62.4475 65.1383 65.1058C64.3225 67.764 65.2224 70.4418 66.8902 72.5377C68.565 74.6424 71.1325 76.347 74.1595 77.2761C77.1866 78.2051 80.2682 78.2343 82.8354 77.4315C85.3918 76.6321 87.639 74.9202 88.4549 72.262C88.585 71.8379 88.6722 71.4078 88.7185 70.9755L96.0493 33.6536C96.1799 32.9887 96.7662 32.5116 97.4437 32.5188L114.1 32.6947C114.949 32.7037 115.596 33.4572 115.477 34.2977L111.907 59.5012C111.431 59.3058 110.941 59.1299 110.436 58.9751C107.409 58.046 104.328 58.0168 101.761 58.8196C99.2042 59.619 96.957 61.3309 96.1411 63.9891C95.3253 66.6474 96.2252 69.3251 97.893 71.421C99.5678 73.5257 102.135 75.2304 105.162 76.1594C108.189 77.0885 111.271 77.1176 113.838 76.3149C116.395 75.5154 118.642 73.8036 119.458 71.1453C119.591 70.7098 119.68 70.2681 119.725 69.8241L128.598 23.9831Z" stroke="white" stroke-width="4"/>
</g>
<g filter="url(#filter1_d_1928_7376)">
<path d="M94.3592 118.409L94.4004 118.451L94.444 118.49C97.6772 121.391 101.798 122.916 105.633 123.735C109.442 124.549 113.129 124.7 115.698 124.729C122.311 125.328 136.509 122.398 141.956 106.219C147.44 89.9301 142.791 77.6127 139.72 69.4778C139.087 67.7983 138.52 66.2971 138.124 64.976C136.217 58.6204 134.492 51.8414 134.544 47.0034C134.56 45.5048 133.749 44.22 132.714 43.4818C131.66 42.7296 130.025 42.3346 128.525 43.2815C123.013 46.759 115.103 53.3375 112.181 62.0181C110.466 67.1099 107.974 69.5402 106.514 70.0969C106.182 70.2232 105.982 70.2243 105.896 70.213C105.831 70.2045 105.805 70.189 105.771 70.1549C105.662 70.0484 105.283 69.4941 105.371 67.9211C105.457 66.3802 104.682 65.0153 103.584 64.2465C102.439 63.4449 100.719 63.1799 99.2623 64.3058C92.9208 69.2065 86.0045 76.9069 83.5265 86.3769C81.0009 96.029 83.1868 107.138 94.3592 118.409Z" fill="white" stroke="white" stroke-width="4"/>
<path d="M114.076 62.6563C116.776 54.6371 124.204 48.3725 129.592 44.9729C130.867 44.168 132.561 45.4736 132.544 46.9817C132.488 52.1678 134.311 59.2263 136.208 65.5506C138.657 73.7169 146.414 86.708 140.06 105.581C136.47 116.244 128.828 120.686 122.545 122.173C120.821 122.581 119.495 119.35 120.125 117.694C121.318 114.557 121.366 110.038 117.988 104.226C115.198 99.423 115.448 95.0174 116.771 91.5758C117.426 89.8715 115.557 87.1798 113.928 88.004C106.493 91.7651 103.147 97.2071 101.946 101.459C101.615 102.632 99.7359 103.156 99.027 102.165C98.5445 101.49 97.545 101.476 97.0964 102.174C95.3012 104.966 94.5426 107.651 94.3706 109.99C94.2966 110.997 91.6295 112.31 91.0301 111.497C76.6535 92.0021 89.2293 74.587 100.485 65.8884C101.748 64.9122 103.464 66.2151 103.374 67.8089C102.964 75.1075 110.488 73.3126 114.076 62.6563Z" fill="#FF4056"/>
</g>
<g filter="url(#filter2_d_1928_7376)">
<path d="M43.9064 9.22318L43.9065 9.22316L43.8983 9.21644C41.3862 7.13339 38.7774 6.40029 35.6058 5.86278C26.8788 4.3838 20.4544 9.67974 15.4792 13.8769C11.9186 16.8567 10.074 21.5011 10.2995 26.0167L10.2997 26.0206L11.1592 42.5737C11.1592 42.5739 11.1592 42.5741 11.1592 42.5743C11.3296 45.9065 12.9441 49.089 15.5852 51.1707C15.5868 51.172 15.5885 51.1733 15.5901 51.1746L26.4942 59.8647L75.2455 133.89C76.6373 136.003 79.3574 136.944 81.7879 135.838C83.6893 134.972 86.0496 133.823 87.8427 132.937C90.3271 131.71 91.5155 128.843 90.59 126.213C86.3749 114.234 70.1008 67.9621 61.6224 43.5234L62.0072 30.2634C62.1109 26.7359 60.5563 23.205 57.8161 20.9334C53.1878 17.0209 48.5519 13.1165 43.9064 9.22318Z" fill="#111827" stroke="white" stroke-width="4"/>
<path d="M59.6124 43.832C59.6124 43.832 84.4685 114.842 88.7033 126.877C89.2901 128.544 88.5418 130.361 86.9567 131.144C85.1672 132.028 82.8303 133.165 80.9591 134.017C79.4883 134.687 77.8045 134.139 76.9156 132.789L27.9894 58.4988L59.6124 43.832Z" fill="#374151"/>
<path d="M59.6127 43.832C59.6127 43.832 84.4688 114.842 88.7035 126.877C89.2903 128.544 88.542 130.361 86.9569 131.144C85.9448 131.644 83.5785 132.789 83.5785 132.789L43.8011 51.1654L59.6127 43.832Z" fill="#4B5563"/>
<path d="M48.8499 65.53C49.0183 65.3592 49.2019 65.2059 49.4007 65.0701C50.5645 64.2415 52.0438 63.971 53.4294 64.3216C54.8263 64.6759 55.9874 65.6135 56.6232 66.894L67.8039 89.318C68.4028 90.5321 68.4865 91.8919 68.0342 93.1526C67.5883 94.4194 66.6694 95.4196 65.4572 95.9734L65.4422 95.9811L65.2306 96.0793C64.0572 96.6165 62.7887 96.6633 61.6668 96.2982C60.4429 95.8999 59.3853 95.0169 58.7735 93.7651L47.8045 71.2429C46.8485 69.2775 47.2948 66.9832 48.8499 65.53ZM48.7673 70.775L59.7363 93.2972C60.6516 95.195 62.8795 95.9868 64.7979 95.1114L64.9407 95.045L64.9958 95.017C65.9575 94.578 66.6794 93.7978 67.0293 92.8005C67.3854 91.8094 67.3213 90.7358 66.8537 89.7983L55.6755 67.3668C55.2156 66.4443 54.4029 65.7454 53.4208 65.4258C53.3415 65.4 53.2546 65.3843 53.1753 65.3585C52.0905 65.0848 50.9337 65.3016 50.0186 65.9437C49.7836 66.1137 49.5713 66.2911 49.3793 66.496C48.3207 67.6429 48.0649 69.3266 48.7673 70.775Z" fill="white"/>
<path d="M61.1812 90.5534C60.111 90.2052 59.5259 89.0553 59.8743 87.9852C60.2228 86.915 61.3728 86.3298 62.443 86.678C63.5133 87.0263 64.0984 88.1761 63.7499 89.2463C63.4015 90.3165 62.2514 90.9017 61.1812 90.5534Z" fill="white"/>
<path d="M53.2878 74.405C52.2176 74.0567 51.6324 72.9069 51.9809 71.8367C52.3293 70.7666 53.4794 70.1813 54.5496 70.5296C55.6198 70.8778 56.205 72.0277 55.8565 73.0979C55.5081 74.168 54.358 74.7533 53.2878 74.405Z" fill="white"/>
<path d="M72.358 127.683L72.9325 128.611L80.3129 125.656L87.7174 122.694L87.3189 121.685L79.8461 124.681L72.358 127.683Z" fill="white"/>
<path d="M34.2312 7.40269C35.6228 8.53076 37.8428 11.0694 39.1733 12.2676C39.3435 12.4226 39.5128 12.5687 39.6889 12.7303C40.9351 13.8491 42.1655 15.0087 43.3665 16.1783C43.5144 16.3247 43.6535 16.472 43.8014 16.6184C45.8267 18.6207 47.7732 20.6949 49.6594 22.848C49.7956 23.0027 49.9281 23.1559 50.0644 23.3106C50.9649 24.3431 51.8435 25.3884 52.7069 26.4619C52.8798 26.6648 53.0528 26.8677 53.2215 27.0817L53.6384 26.74C53.5244 26.5939 53.4076 26.4552 53.2899 26.3077C52.4348 25.2459 51.5488 24.1978 50.6543 23.1719C50.5223 23.0061 50.4009 22.8571 50.2604 22.7135C48.3742 20.5604 46.4283 18.4737 44.4053 16.4765C44.2574 16.3301 44.1183 16.1828 43.9704 16.0364C42.7879 14.874 41.5717 13.7326 40.3367 12.6181C40.1777 12.4674 40.0089 12.3087 39.8396 12.1626C38.571 11.0138 36.4142 8.52075 35.0859 7.43836C34.8007 7.40508 34.5181 7.39833 34.2312 7.40269Z" fill="white"/>
<path d="M29.0003 7.44047C30.2118 8.68213 32.7562 12.1141 33.8998 13.4104C34.036 13.5651 34.1714 13.7109 34.2965 13.8613C35.4401 15.1577 36.5469 16.4612 37.6269 17.8011C37.7562 17.9404 37.8688 18.0902 37.9828 18.2363C39.6392 20.3007 41.2431 22.413 42.7871 24.5704C42.8968 24.7276 43.0065 24.8848 43.1213 25.0397C43.9573 26.2176 44.775 27.4096 45.5655 28.6168C45.7595 28.9086 45.9462 29.1977 46.1402 29.4896L46.5939 29.1961C46.4298 28.937 46.2637 28.6942 46.0842 28.442C45.3047 27.2391 44.4944 26.0499 43.6653 24.8875C43.5556 24.7303 43.4459 24.5731 43.3311 24.4182C41.7951 22.2511 40.1986 20.1417 38.5311 18.0729C38.4171 17.9268 38.2963 17.7653 38.1669 17.6261C37.0938 16.3015 35.9986 14.9898 34.8744 13.7094C34.7493 13.559 34.6168 13.4058 34.4735 13.2697C33.323 11.9579 30.7815 8.51852 29.578 7.26717C29.3883 7.31752 29.1943 7.37899 29.0003 7.44047Z" fill="white"/>
<path d="M23.2258 10.3187C24.1764 11.5194 26.2113 14.3678 27.135 15.605C27.249 15.7511 27.3587 15.9083 27.4764 16.0558C28.5038 17.4436 29.5084 18.8354 30.4905 20.2525C30.5971 20.3957 30.7068 20.553 30.8025 20.7133C32.2652 22.8052 33.668 24.9421 35.0329 27.1112C35.1351 27.2656 35.2337 27.4185 35.322 27.576C36.1741 28.9217 36.9939 30.2849 37.7983 31.6549C37.9624 31.9139 38.1125 32.1761 38.2626 32.4383L38.7203 32.1676C38.5785 31.9171 38.4272 31.6801 38.2811 31.4407C37.484 30.0736 36.6725 28.7222 35.8315 27.3807C35.7404 27.2306 35.6418 27.0777 35.5381 26.9271C34.1849 24.7497 32.7705 22.621 31.312 20.518C31.2126 20.3562 31.1112 20.2107 30.9972 20.0646C30.0194 18.6364 29.0176 17.2372 27.9859 15.8605C27.8836 15.7061 27.7696 15.5601 27.6557 15.414C26.7237 14.1651 24.6856 11.3027 23.72 10.0749C23.5556 10.1478 23.387 10.2318 23.2258 10.3187Z" fill="white"/>
<path d="M17.5601 13.5983C18.0841 14.7239 19.5814 17.7513 20.1424 18.8359C20.2153 19.0002 20.3022 19.1614 20.3837 19.3035C21.1563 20.7889 21.9598 22.2607 22.7961 23.7025C22.8844 23.86 22.9756 24.01 23.0624 24.1712C24.3337 26.3511 25.6843 28.5019 27.0948 30.6077C27.2014 30.751 27.2999 30.9039 27.4065 31.0471C28.3883 32.4982 29.4043 33.9156 30.4614 35.3148C30.6551 35.5853 30.8509 35.8395 31.0489 36.0988L31.4727 35.7726C31.2926 35.5329 31.106 35.2992 30.937 35.0638C29.8799 33.6646 28.8639 32.2472 27.8822 30.7962C27.7756 30.6529 27.6839 30.5154 27.5816 30.3611C26.1631 28.265 24.8176 26.1118 23.5492 23.9246C23.4469 23.7702 23.3623 23.6142 23.2755 23.453C22.428 22.0069 21.6283 20.5365 20.863 19.054C20.7719 18.9039 20.6947 18.7507 20.6218 18.5864C20.0456 17.4747 18.5369 14.4216 17.9988 13.2777C17.8384 13.3734 17.6923 13.4874 17.5601 13.5983Z" fill="white"/>
<path d="M13.6958 18.6652C13.862 19.1506 14.5033 21.6178 14.6945 22.1044C14.7446 22.2727 14.8132 22.4481 14.8832 22.6199C15.4508 24.1625 16.052 25.684 16.6803 27.1904C16.7421 27.3505 16.8187 27.5162 16.8916 27.6805C17.8892 30.0401 18.9667 32.3582 20.1258 34.6523C20.2141 34.8098 20.2898 34.9667 20.3627 35.131C21.1969 36.755 22.0624 38.3529 22.9728 39.9339C23.0893 40.1618 23.2211 40.3829 23.353 40.604L23.8107 40.3334C23.672 40.0969 23.5401 39.8758 23.4205 39.6339C22.5139 38.0543 21.646 36.4513 20.8216 34.8353C20.7376 34.6667 20.6618 34.5098 20.5735 34.3523C19.4255 32.0624 18.3458 29.7393 17.3505 27.3848C17.2887 27.2247 17.2121 27.059 17.1392 26.8947C16.504 25.3729 15.9108 23.8416 15.3493 22.3056C15.2807 22.1302 15.212 21.9547 15.162 21.7865C14.9383 21.1852 14.2498 18.5976 14.0401 17.9932C13.9167 18.2138 13.8073 18.4314 13.6958 18.6652Z" fill="white"/>
<path d="M12.4527 23.3917C12.3909 23.6404 12.3359 23.9044 12.2801 24.1596C12.846 23.7519 14.2977 23.0117 14.875 22.6296C15.0211 22.5156 15.1755 22.4134 15.3359 22.3176C16.963 21.2332 18.6532 20.2285 20.3746 19.3081C20.5321 19.2198 20.689 19.144 20.8465 19.0557C23.0022 17.9366 25.2057 16.9252 27.4665 16.0637C27.6462 15.9839 27.8063 15.9222 27.9746 15.8721C30.0444 15.086 32.1519 14.4123 34.2823 13.8666C34.472 13.8162 34.6632 13.7622 34.864 13.7161C36.4541 13.3241 38.0655 12.9872 39.6767 12.7395C39.8929 12.6866 40.1094 12.655 40.3259 12.6235C40.3855 12.6124 40.4334 12.6096 40.4968 12.6C41.5476 12.4472 43.2229 12.2842 44.3995 12.2139L44.84 11.8398C44.7879 11.7985 43.3342 11.7775 43.274 11.7458C42.276 11.8168 41.303 11.9442 40.4076 12.0803C40.2139 12.1078 40.0202 12.1354 39.8223 12.174C39.5946 12.2013 39.3753 12.2402 39.1545 12.2829C37.5804 12.5448 36.0183 12.8752 34.4579 13.2787C34.271 13.3216 34.0702 13.3677 33.8791 13.4217C31.7694 13.9797 29.6863 14.6457 27.6378 15.4315C27.4666 15.489 27.2897 15.5614 27.1186 15.6189C24.8875 16.4919 22.7139 17.4807 20.5987 18.5941C20.4412 18.6825 20.2843 18.7582 20.1268 18.8465C18.4199 19.7512 16.7606 20.7423 15.1406 21.8082C14.9862 21.9105 14.829 22.0201 14.6798 22.1202C14.2312 22.4113 12.9038 23.0717 12.4527 23.3917Z" fill="white"/>
<path d="M12.28 30.2772L12.31 30.906C13.522 30.015 15.5898 28.5206 16.8867 27.6963C17.0411 27.594 17.194 27.4955 17.3404 27.4029C18.1354 26.9089 18.9401 26.4228 19.7605 25.9514C20.8314 25.338 21.9365 24.7464 23.0595 24.1745C23.2171 24.0861 23.3851 24.0147 23.5426 23.9264C25.8484 22.7714 28.2644 21.7057 30.8025 20.7211C30.9668 20.6482 31.1423 20.5796 31.3106 20.5295C33.4412 19.7072 35.6634 18.9457 37.9799 18.2376C38.1622 18.1844 38.3576 18.1192 38.5319 18.0757C39.943 17.6403 41.4002 17.2396 42.8819 16.8527C43.1849 16.7736 43.4901 16.6996 43.8042 16.6248C43.9939 16.5745 44.1961 16.5247 44.397 16.4786C44.397 16.4786 44.397 16.4786 44.4081 16.4829C45.6063 16.191 47.6673 16.0127 48.891 15.8201L48.36 15.3644C47.1637 15.5633 45.1351 15.7456 43.9746 16.0392C43.7738 16.0852 43.5715 16.135 43.3707 16.1811C43.1545 16.234 42.9559 16.2852 42.7508 16.3424C41.1786 16.7541 39.6561 17.1807 38.1729 17.6266C37.9832 17.677 37.7995 17.7339 37.624 17.8025C35.3243 18.5001 33.1162 19.2584 30.9958 20.0762C30.8246 20.1337 30.652 20.1949 30.4919 20.2567C27.965 21.2455 25.5675 22.3183 23.2703 23.4511C23.1128 23.5394 22.9516 23.6263 22.7984 23.7035C21.6679 24.2726 20.5673 24.8745 19.4964 25.4878C18.6915 25.9524 17.9051 26.4242 17.1357 26.9068C16.9814 27.0091 16.8327 27.0966 16.682 27.2003C15.4393 27.9943 13.4284 29.4298 12.28 30.2772Z" fill="white"/>
<path d="M12.28 40.0003L12.3183 40.6409C14.485 38.93 18.0381 36.6587 20.3556 35.1421C20.4988 35.0356 20.6518 34.937 20.8093 34.8487C21.8366 34.1718 22.8813 33.527 23.9536 32.91C25.0742 32.2562 26.2121 31.6346 27.3976 31.0442C27.5509 30.967 27.7121 30.8801 27.8696 30.7918C30.2275 29.6229 32.7026 28.5587 35.3145 27.5813C35.49 27.5126 35.6515 27.4472 35.8227 27.3897C38.1359 26.5355 40.56 25.7582 43.1058 25.0405C43.2881 24.9873 43.4681 24.929 43.655 24.886C45.7084 24.3192 47.8391 23.795 50.0559 23.3124C50.2456 23.262 50.4436 23.2233 50.6459 23.1736C52.2756 22.8224 55.0659 22.2624 56.804 21.9615L56.2798 21.5211C54.5911 21.8155 51.8561 22.3755 50.2632 22.7196C50.252 22.7153 50.252 22.7153 50.252 22.7153C50.0512 22.7614 49.849 22.8112 49.651 22.8498C47.4527 23.3396 45.3485 23.8613 43.3208 24.4167C43.1311 24.4671 42.9474 24.524 42.7716 24.5712C40.2332 25.2917 37.8239 26.0748 35.5292 26.936C35.3609 26.9861 35.2009 27.0479 35.0254 27.1165C32.4092 28.1051 29.9298 29.1804 27.569 30.3567C27.4047 30.4296 27.2434 30.5165 27.0859 30.6048C25.9218 31.195 24.7881 31.8054 23.6859 32.445C22.6261 33.0626 21.5917 33.7027 20.5612 34.3657C20.4111 34.4569 20.2582 34.5555 20.1149 34.6621C17.8737 36.1356 14.387 38.3559 12.28 40.0003Z" fill="white"/>
<path d="M14.4294 46.889C14.5629 47.2384 14.7266 47.5868 14.9203 47.9126C31.8935 32.7807 50.9246 27.5885 59.4044 26.1098C59.2201 25.7706 59.005 25.445 58.7671 25.1234C49.9737 26.7197 31.2281 32.0219 14.4294 46.889Z" fill="white"/>
</g>
</g>
<defs>
<filter id="filter0_d_1928_7376" x="61.8314" y="14.0938" width="75.9066" height="70.9102" filterUnits="userSpaceOnUse" color-interpolation-filters="sRGB">
<feFlood flood-opacity="0" result="BackgroundImageFix"/>
<feColorMatrix in="SourceAlpha" type="matrix" values="0 0 0 0 0 0 0 0 0 0 0 0 0 0 0 0 0 0 127 0" result="hardAlpha"/>
<feOffset dx="3" dy="1"/>
<feGaussianBlur stdDeviation="2"/>
<feComposite in2="hardAlpha" operator="out"/>
<feColorMatrix type="matrix" values="0 0 0 0 0.858333 0 0 0 0 0.146632 0 0 0 0 0.228608 0 0 0 0.15 0"/>
<feBlend mode="normal" in2="BackgroundImageFix" result="effect1_dropShadow_1928_7376"/>
<feBlend mode="normal" in="SourceGraphic" in2="effect1_dropShadow_1928_7376" result="shape"/>
</filter>
<filter id="filter1_d_1928_7376" x="69.6803" y="25.5742" width="101.037" height="116.742" filterUnits="userSpaceOnUse" color-interpolation-filters="sRGB">
<feFlood flood-opacity="0" result="BackgroundImageFix"/>
<feColorMatrix in="SourceAlpha" type="matrix" values="0 0 0 0 0 0 0 0 0 0 0 0 0 0 0 0 0 0 127 0" result="hardAlpha"/>
<feOffset dx="3" dy="1"/>
<feGaussianBlur stdDeviation="2"/>
<feComposite in2="hardAlpha" operator="out"/>
<feColorMatrix type="matrix" values="0 0 0 0 0.858333 0 0 0 0 0.146632 0 0 0 0 0.228608 0 0 0 0.15 0"/>
<feBlend mode="normal" in2="BackgroundImageFix" result="effect1_dropShadow_1928_7376"/>
<feBlend mode="normal" in="SourceGraphic" in2="effect1_dropShadow_1928_7376" result="shape"/>
</filter>
<filter id="filter2_d_1928_7376" x="6" y="-1.71484" width="96" height="147.039" filterUnits="userSpaceOnUse" color-interpolation-filters="sRGB">
<feFlood flood-opacity="0" result="BackgroundImageFix"/>
<feColorMatrix in="SourceAlpha" type="matrix" values="0 0 0 0 0 0 0 0 0 0 0 0 0 0 0 0 0 0 127 0" result="hardAlpha"/>
<feOffset dx="3" dy="1"/>
<feGaussianBlur stdDeviation="2"/>
<feComposite in2="hardAlpha" operator="out"/>
<feColorMatrix type="matrix" values="0 0 0 0 0.858333 0 0 0 0 0.146632 0 0 0 0 0.228608 0 0 0 0.15 0"/>
<feBlend mode="normal" in2="BackgroundImageFix" result="effect1_dropShadow_1928_7376"/>
<feBlend mode="normal" in="SourceGraphic" in2="effect1_dropShadow_1928_7376" result="shape"/>
</filter>
<radialGradient id="paint0_radial_1928_7376" cx="0" cy="0" r="1" gradientUnits="userSpaceOnUse" gradientTransform="translate(140.422 68.3247) rotate(179.745) scale(112.998 116.85)">
<stop stop-color="#FF6E40"/>
<stop offset="0.55445" stop-color="#FC4F38"/>
<stop offset="1" stop-color="#EC5500"/>
</radialGradient>
<radialGradient id="paint1_radial_1928_7376" cx="0" cy="0" r="1" gradientUnits="userSpaceOnUse" gradientTransform="translate(140.421 68.3224) rotate(179.745) scale(112.998 116.85)">
<stop stop-color="#FF9C40"/>
<stop offset="0.55445" stop-color="#FC7338"/>
<stop offset="1" stop-color="#EC5500"/>
</radialGradient>
</defs>
</svg>
