<svg width="160" height="154" viewBox="0 0 160 154" fill="none" xmlns="http://www.w3.org/2000/svg">
<path fill-rule="evenodd" clip-rule="evenodd" d="M57.673 138.545C0.170056 107.836 -0.887352 74.285 54.501 37.8923C109.889 1.49957 138.64 16.8542 140.755 83.9557C142.87 151.057 115.176 169.253 57.673 138.545Z" fill="url(#paint0_radial_2136_6451)"/>
<mask id="path-2-outside-1_2136_6451" maskUnits="userSpaceOnUse" x="93.2943" y="11.1602" width="48" height="70" fill="black">
<rect fill="white" x="93.2943" y="11.1602" width="48" height="70"/>
<path fill-rule="evenodd" clip-rule="evenodd" d="M96.4479 67.2477C95.7265 55.8901 97.1819 29.5128 108.776 14.8646C113.324 14.0152 124.378 13.2414 132.208 16.9412C132.223 17.1508 132.238 17.3671 132.252 17.5901C132.698 17.2979 133.331 17.4024 133.642 17.8896L136.517 22.3889C137.147 23.3748 137.478 24.5286 137.448 25.6982C136.794 51.0983 129.108 68.2152 124.722 74.7163C124.606 74.8878 124.44 75.0115 124.246 75.081C112.75 79.1805 103.16 76.8197 99.6226 75.0464C99.5235 74.9968 99.438 74.9317 99.3638 74.8494C97.4935 72.7761 96.6957 69.385 96.4857 67.6171C96.4726 67.5071 96.4802 67.3972 96.506 67.2917C96.4866 67.2771 96.4673 67.2624 96.4479 67.2477Z"/>
</mask>
<path fill-rule="evenodd" clip-rule="evenodd" d="M96.4479 67.2477C95.7265 55.8901 97.1819 29.5128 108.776 14.8646C113.324 14.0152 124.378 13.2414 132.208 16.9412C132.223 17.1508 132.238 17.3671 132.252 17.5901C132.698 17.2979 133.331 17.4024 133.642 17.8896L136.517 22.3889C137.147 23.3748 137.478 24.5286 137.448 25.6982C136.794 51.0983 129.108 68.2152 124.722 74.7163C124.606 74.8878 124.44 75.0115 124.246 75.081C112.75 79.1805 103.16 76.8197 99.6226 75.0464C99.5235 74.9968 99.438 74.9317 99.3638 74.8494C97.4935 72.7761 96.6957 69.385 96.4857 67.6171C96.4726 67.5071 96.4802 67.3972 96.506 67.2917C96.4866 67.2771 96.4673 67.2624 96.4479 67.2477Z" fill="white"/>
<path d="M108.776 14.8646L108.225 11.9156L107.12 12.1218L106.423 13.0028L108.776 14.8646ZM96.4479 67.2477L93.454 67.4379L93.5408 68.8044L94.63 69.6341L96.4479 67.2477ZM132.208 16.9412L135.199 16.717L135.069 14.9751L133.489 14.2288L132.208 16.9412ZM132.252 17.5901L129.258 17.7766L129.579 22.9285L133.896 20.0994L132.252 17.5901ZM133.642 17.8896L136.171 16.2745V16.2745L133.642 17.8896ZM136.517 22.3889L133.989 24.004V24.004L136.517 22.3889ZM137.448 25.6982L134.449 25.621V25.621L137.448 25.6982ZM124.722 74.7163L122.235 73.0385L122.235 73.0385L124.722 74.7163ZM124.246 75.081L125.253 77.9067L125.253 77.9067L124.246 75.081ZM99.6226 75.0464L100.967 72.3645L100.967 72.3645L99.6226 75.0464ZM99.3638 74.8494L97.1362 76.8588L97.1362 76.8589L99.3638 74.8494ZM96.4857 67.6171L99.4647 67.2631L99.4647 67.2631L96.4857 67.6171ZM96.506 67.2917L99.42 68.0049L99.8893 66.0871L98.3136 64.8975L96.506 67.2917ZM106.423 13.0028C100.173 20.9003 96.7956 31.7325 95.0385 41.773C93.2716 51.8696 93.0794 61.5417 93.454 67.4379L99.4419 67.0575C99.095 61.5961 99.2698 52.4007 100.949 42.8073C102.637 33.1576 105.785 23.4771 111.128 16.7264L106.423 13.0028ZM133.489 14.2288C129.06 12.1355 123.885 11.3695 119.374 11.1991C114.837 11.0277 110.714 11.4508 108.225 11.9156L109.326 17.8136C111.386 17.429 115.064 17.0405 119.148 17.1948C123.259 17.3501 127.526 18.0471 130.926 19.6536L133.489 14.2288ZM135.246 17.4037C135.232 17.1686 135.216 16.9396 135.199 16.717L129.216 17.1654C129.231 17.3619 129.245 17.5657 129.258 17.7766L135.246 17.4037ZM133.896 20.0994C133.012 20.6785 131.745 20.4921 131.114 19.5047L136.171 16.2745C134.917 14.3126 132.384 13.9172 130.608 15.0808L133.896 20.0994ZM131.114 19.5047L133.989 24.004L139.045 20.7738L136.171 16.2745L131.114 19.5047ZM133.989 24.004C134.306 24.5008 134.463 25.0678 134.449 25.621L140.447 25.7754C140.493 23.9894 139.987 22.2488 139.045 20.7738L133.989 24.004ZM134.449 25.621C133.809 50.4931 126.277 67.046 122.235 73.0385L127.209 76.3941C131.938 69.3844 139.779 51.7035 140.447 25.7754L134.449 25.621ZM122.235 73.0385C122.498 72.6475 122.867 72.3876 123.238 72.2553L125.253 77.9067C126.014 77.6354 126.713 77.128 127.209 76.3941L122.235 73.0385ZM123.238 72.2553C112.549 76.0672 103.808 73.7885 100.967 72.3645L98.2783 77.7284C102.513 79.8509 112.951 82.2939 125.253 77.9067L123.238 72.2553ZM100.967 72.3645C101.202 72.4822 101.416 72.6452 101.591 72.8399L97.1362 76.8589C97.4604 77.2182 97.8453 77.5114 98.2783 77.7284L100.967 72.3645ZM101.591 72.8399C101.029 72.2161 100.527 71.2643 100.137 70.1378C99.7561 69.0363 99.5475 67.9594 99.4647 67.2631L93.5066 67.971C93.634 69.0427 93.9292 70.5453 94.4671 72.0997C94.9962 73.629 95.8288 75.4095 97.1362 76.8588L101.591 72.8399ZM99.4647 67.2631C99.4955 67.5221 99.4766 67.7736 99.42 68.0049L93.592 66.5786C93.4838 67.0208 93.4497 67.4921 93.5066 67.971L99.4647 67.2631ZM94.63 69.6341C94.6527 69.6515 94.6755 69.6687 94.6983 69.686L98.3136 64.8975C98.2977 64.8855 98.2818 64.8734 98.2659 64.8613L94.63 69.6341Z" fill="white" mask="url(#path-2-outside-1_2136_6451)"/>
<path d="M99.4773 74.9719C97.3835 72.7621 96.5856 68.9038 96.4484 67.2508L132.201 16.9492L136.027 21.9841C136.97 23.2256 137.478 24.7474 137.431 26.3059C136.661 51.7102 128.866 68.7224 124.547 74.9719C112.756 79.2806 102.921 76.7672 99.4773 74.9719Z" fill="#9AB410"/>
<path fill-rule="evenodd" clip-rule="evenodd" d="M136.125 41.1043C136.817 36.4547 137.29 31.4007 137.441 25.9652C137.478 24.6292 137.043 23.3219 136.235 22.2577L132.201 16.9492L125.362 26.5707L129.122 36.8561C130.819 37.4611 134.088 39.009 136.125 41.1043Z" fill="#505463"/>
<path d="M108.776 14.8646C97.1819 29.5128 95.7265 55.8901 96.4479 67.2477C103.907 72.9302 115.317 71.5833 120.801 70.0287C121.302 69.8868 121.712 69.54 121.952 69.0782C131.84 50.0213 132.92 26.4486 132.208 16.9412C124.378 13.2414 113.324 14.0152 108.776 14.8646Z" fill="#C2D72F"/>
<path fill-rule="evenodd" clip-rule="evenodd" d="M98.5282 39.4709C99.8586 43.0384 103.606 47.8366 111.821 48.6602C120.525 49.5328 127.139 46.2788 130.31 43.8401C132.433 32.5731 132.618 22.421 132.208 16.9412C124.378 13.2414 113.324 14.0152 108.776 14.8646C103.53 21.4916 100.36 30.5194 98.5282 39.4709Z" fill="#6C7183"/>
<g filter="url(#filter0_i_2136_6451)">
<path d="M104.687 34.3559C105.023 27.2876 108.744 20.1912 110.562 17.5266C118.619 16.8534 126.229 18.0876 129.026 18.7888C129.362 25.8571 127.488 33.7949 126.509 36.8803C115.43 38.2266 107.345 35.7583 104.687 34.3559Z" fill="#BFFFF2"/>
</g>
<path d="M102.573 39.321L104.392 41.1447C104.63 41.3837 104.68 41.7525 104.512 42.0458L103.898 43.1242C103.644 43.5688 103.03 43.6347 102.688 43.2538L100.608 40.9368C100.303 40.5971 100.37 40.066 100.749 39.8123L101.625 39.2271C101.923 39.028 102.32 39.0673 102.573 39.321Z" fill="#EAE8CC" stroke="#749495" stroke-width="0.5"/>
<path d="M125.921 41.0415L122.94 42.2998C122.595 42.4455 122.41 42.824 122.508 43.1862L122.954 44.8386C123.077 45.2932 123.583 45.5242 124.006 45.3188L127.585 43.5814C128.032 43.3643 128.147 42.7794 127.817 42.4075L126.773 41.2343C126.559 40.9942 126.217 40.9167 125.921 41.0415Z" fill="#EAE8CC" stroke="#749495" stroke-width="0.5"/>
<path d="M116.033 43.358L109.388 42.6746C109.04 42.6387 108.714 42.8495 108.602 43.182L107.799 45.5742C107.656 45.9977 107.917 46.4545 108.355 46.549C110.946 47.1071 113.603 47.3918 116.252 47.3918C116.697 47.3918 117.043 47.0034 116.992 46.5606L116.7 44.0193C116.66 43.6691 116.383 43.394 116.033 43.358Z" fill="#EAE8CC" stroke="#749495" stroke-width="0.5"/>
<path d="M104.537 72.586L111.618 73.3144C112.01 73.3548 112.341 73.6225 112.464 73.998L112.567 74.3109C112.749 74.8659 112.365 75.4453 111.784 75.4927L111.505 75.5155C108.896 75.7283 106.27 75.4079 103.788 74.5738C103.217 74.3821 103.027 73.6689 103.425 73.2163L103.686 72.9198C103.899 72.6773 104.216 72.553 104.537 72.586Z" fill="#6A7A12"/>
<path d="M121.132 16.5993L117.335 16.4111C117.099 16.3994 116.891 16.2494 116.806 16.0282L116.755 15.8967C116.64 15.6013 116.832 15.2765 117.145 15.2342L117.296 15.2138C118.703 15.0235 120.134 15.1216 121.502 15.5021C121.817 15.5896 121.941 15.9704 121.738 16.2269L121.619 16.3782C121.502 16.5263 121.32 16.6086 121.132 16.5993Z" fill="#3C3F4A"/>
<g filter="url(#filter1_d_2136_6451)">
<ellipse cx="3.14371" cy="1.68291" rx="3.14371" ry="1.68291" transform="matrix(0.997786 0.0665113 -0.066169 0.997808 107.871 50.2031)" fill="#EFF3DD"/>
</g>
<g filter="url(#filter2_d_2136_6451)">
<ellipse cx="3.14371" cy="1.68291" rx="3.14371" ry="1.68291" transform="matrix(0.997786 0.0665113 -0.066169 0.997808 117.089 50.418)" fill="#EFF3DD"/>
</g>
<g filter="url(#filter3_d_2136_6451)">
<ellipse cx="3.14371" cy="1.68291" rx="3.14371" ry="1.68291" transform="matrix(0.997786 0.0665113 -0.066169 0.997808 107.396 54.7539)" fill="#EFF3DD"/>
</g>
<g filter="url(#filter4_d_2136_6451)">
<ellipse cx="3.14371" cy="1.68291" rx="3.14371" ry="1.68291" transform="matrix(0.997786 0.0665113 -0.066169 0.997808 116.615 54.9648)" fill="#EFF3DD"/>
</g>
<g filter="url(#filter5_d_2136_6451)">
<ellipse cx="3.14371" cy="1.68291" rx="3.14371" ry="1.68291" transform="matrix(0.997786 0.0665113 -0.066169 0.997808 106.695 59.1172)" fill="#EFF3DD"/>
</g>
<g filter="url(#filter6_d_2136_6451)">
<ellipse cx="3.14371" cy="1.68291" rx="3.14371" ry="1.68291" transform="matrix(0.997786 0.0665113 -0.066169 0.997808 115.447 59.4805)" fill="#EFF3DD"/>
</g>
<g filter="url(#filter7_d_2136_6451)">
<ellipse cx="3.14371" cy="1.68291" rx="3.14371" ry="1.68291" transform="matrix(0.997786 0.0665113 -0.066169 0.997808 106.034 63.8945)" fill="#EFF3DD"/>
</g>
<g filter="url(#filter8_d_2136_6451)">
<ellipse cx="3.14371" cy="1.68291" rx="3.14371" ry="1.68291" transform="matrix(0.997786 0.0665113 -0.066169 0.997808 114.039 64.2734)" fill="#EFF3DD"/>
</g>
<g filter="url(#filter9_d_2136_6451)">
<ellipse cx="2.74529" cy="1.60435" rx="2.74529" ry="1.60435" transform="matrix(0.967427 0.25315 -0.251925 0.967747 98.9839 62.2461)" fill="#EFF3DD"/>
</g>
<g filter="url(#filter10_d_2136_6451)">
<ellipse cx="2.74529" cy="1.60435" rx="2.74529" ry="1.60435" transform="matrix(0.967427 0.25315 -0.251925 0.967747 99.2051 57.7734)" fill="#EFF3DD"/>
</g>
<g filter="url(#filter11_d_2136_6451)">
<ellipse cx="2.74529" cy="1.60435" rx="2.74529" ry="1.60435" transform="matrix(0.967427 0.25315 -0.251925 0.967747 99.7102 53.4141)" fill="#EFF3DD"/>
</g>
<g filter="url(#filter12_d_2136_6451)">
<ellipse cx="2.74529" cy="1.60435" rx="2.74529" ry="1.60435" transform="matrix(0.967427 0.25315 -0.251925 0.967747 100.475 48.3164)" fill="#EFF3DD"/>
</g>
<path d="M121.734 38.573L121.899 41.3797L121.114 41.4254L121.073 40.7198L120.639 40.7451L120.217 41.4778L119.381 41.5266L119.904 40.6713C119.711 40.5994 119.561 40.4888 119.452 40.3396C119.344 40.1877 119.283 40.0035 119.271 39.7869C119.258 39.5677 119.298 39.375 119.39 39.2087C119.482 39.0423 119.621 38.9108 119.807 38.8142C119.992 38.7176 120.212 38.6618 120.467 38.6469L121.734 38.573ZM120.52 39.2715C120.206 39.2898 120.058 39.4419 120.074 39.728C120.083 39.8696 120.128 39.9756 120.21 40.0459C120.295 40.1134 120.412 40.1428 120.562 40.134L121.037 40.1063L120.986 39.2442L120.52 39.2715Z" fill="white"/>
<path d="M113.224 40.3332L112.863 40.2951L112.749 41.3655L111.96 41.2823L112.257 38.4864L113.046 38.5697L112.931 39.6561L113.312 39.6962L114.096 38.6804L114.929 38.7683L113.909 40.0258L114.641 41.5651L113.747 41.4708L113.224 40.3332Z" fill="white"/>
<path d="M115.662 38.8754L116.448 38.8989L116.398 40.5489L117.612 38.9337L118.361 38.9561L118.276 41.7663L117.491 41.7428L117.54 40.0968L116.331 41.7082L115.578 41.6856L115.662 38.8754Z" fill="white"/>
<path d="M109.699 40.853C109.402 40.8218 109.142 40.731 108.918 40.5808C108.696 40.4308 108.528 40.2382 108.416 40.0028C108.306 39.7677 108.265 39.5117 108.295 39.2348C108.324 38.9578 108.417 38.7159 108.574 38.509C108.734 38.3024 108.938 38.1489 109.186 38.0485C109.437 37.9485 109.711 37.9141 110.008 37.9453C110.304 37.9766 110.563 38.0672 110.785 38.2172C111.009 38.3674 111.177 38.5601 111.287 38.7952C111.4 39.0306 111.441 39.2867 111.412 39.5636C111.382 39.8406 111.288 40.0823 111.128 40.289C110.971 40.4959 110.767 40.6494 110.516 40.7494C110.268 40.8498 109.995 40.8843 109.699 40.853ZM109.768 40.198C109.91 40.213 110.042 40.1932 110.164 40.1387C110.286 40.0843 110.386 40.0007 110.466 39.8879C110.546 39.7725 110.594 39.6362 110.611 39.4791C110.627 39.322 110.609 39.18 110.554 39.0531C110.501 38.9236 110.42 38.8195 110.312 38.7408C110.204 38.6621 110.08 38.6153 109.938 38.6004C109.797 38.5854 109.665 38.6052 109.543 38.6596C109.421 38.7141 109.32 38.799 109.24 38.9145C109.161 39.0273 109.113 39.1622 109.096 39.3193C109.079 39.4764 109.098 39.6197 109.152 39.7493C109.206 39.8761 109.287 39.9789 109.394 40.0576C109.502 40.1363 109.627 40.1831 109.768 40.198Z" fill="white"/>
<path d="M108.476 37.2409L107.501 39.8791L106.753 39.6043L107.133 38.5754L106.112 38.2006L105.732 39.2295L104.983 38.9546L105.958 36.3164L106.707 36.5913L106.341 37.5825L107.361 37.9573L107.728 36.966L108.476 37.2409Z" fill="white"/>
<mask id="path-27-outside-2_2136_6451" maskUnits="userSpaceOnUse" x="8.4624" y="5.60156" width="90" height="73" fill="black">
<rect fill="white" x="8.4624" y="5.60156" width="90" height="73"/>
<path fill-rule="evenodd" clip-rule="evenodd" d="M59.4949 11.8896C59.7068 11.6625 59.9487 11.4592 60.2207 11.2832C62.9182 9.53765 67.5667 11.1293 70.6347 14.8376C71.309 14.3999 72.0437 14.1699 72.8041 14.1977C74.4732 14.2589 75.9039 15.5494 76.7803 17.5134C77.149 17.4009 77.5289 17.3484 77.9155 17.3625C80.1941 17.4461 82.0284 19.8205 82.6146 23.0721C83.0979 22.8675 83.604 22.7668 84.1221 22.7858C86.3962 22.8692 88.2277 25.2344 88.8177 28.4761C90.5088 29.9293 91.5003 32.9351 91.1895 36.3178C91.1546 36.6984 91.1042 37.072 91.0396 37.4369C91.3597 37.5141 91.668 37.6253 91.961 37.7723C94.8664 39.23 95.1713 43.6536 92.6556 47.6778C93.3833 48.0416 93.9238 48.5406 94.2114 49.1676C95.2169 51.3604 92.7811 54.3602 88.6703 56.199C87.8419 57.4653 86.5975 58.7434 85.0185 59.8571C84.6 60.1523 84.1742 60.4246 83.7451 60.6732C83.86 60.8896 83.9507 61.1161 84.0152 61.3521C84.7925 64.1981 81.4691 67.3708 76.5556 68.5238C76.7682 69.2614 76.7327 69.9695 76.4078 70.5974C75.2989 72.7401 71.2008 73.2105 66.9023 71.815C65.0163 72.4425 62.474 72.609 59.7837 72.1624C59.2587 72.0752 58.7484 71.968 58.2559 71.8432C58.1479 72.0623 58.0153 72.2719 57.8576 72.4701C55.9549 74.8599 51.0835 74.7116 46.8806 72.1701C46.3948 72.7971 45.7711 73.2381 45.0254 73.4321C43.6018 73.8025 42.0078 73.2013 40.5927 71.9339C40.4956 71.9898 40.3946 72.0408 40.2898 72.0868C38.5153 72.865 36.107 71.9871 34.0221 70.0399C33.814 70.2065 33.5837 70.3466 33.3314 70.4572C30.7709 71.5801 26.8908 69.2549 24.5667 65.2448C23.764 65.6789 22.9223 65.8603 22.0976 65.7283C19.2304 65.2691 17.655 61.1947 18.5787 56.6278L18.5923 56.5614C17.0725 56.6908 15.7793 56.3736 14.9773 55.5594C13.2954 53.852 14.3315 50.5253 17.2502 47.6705C15.5901 47.464 14.3158 46.8271 13.7582 45.7795C12.8037 43.9863 14.2262 41.5096 17.0599 39.5557C16.7069 39.2916 16.4265 38.9772 16.2328 38.6131C15.5922 37.4097 16.0222 35.8984 17.2309 34.4439C16.3633 34.1152 15.7053 33.6103 15.3455 32.9344C14.0986 30.5917 16.9086 27.0825 21.6217 25.0964C21.9669 24.9509 22.3127 24.8177 22.6577 24.6965C22.6035 24.6174 22.5539 24.5356 22.509 24.4512C21.262 22.1085 24.072 18.5992 28.7852 16.6131C32.1964 15.1756 35.6698 14.9299 37.8011 15.7921C38.616 13.5914 42.5461 11.9902 47.2215 12.0965L47.267 12.0976C47.33 11.8156 47.4391 11.5472 47.597 11.2961C49.0196 9.03402 53.8621 9.03711 58.4131 11.303C58.7877 11.4895 59.1487 11.6856 59.4949 11.8896Z"/>
</mask>
<path fill-rule="evenodd" clip-rule="evenodd" d="M59.4949 11.8896C59.7068 11.6625 59.9487 11.4592 60.2207 11.2832C62.9182 9.53765 67.5667 11.1293 70.6347 14.8376C71.309 14.3999 72.0437 14.1699 72.8041 14.1977C74.4732 14.2589 75.9039 15.5494 76.7803 17.5134C77.149 17.4009 77.5289 17.3484 77.9155 17.3625C80.1941 17.4461 82.0284 19.8205 82.6146 23.0721C83.0979 22.8675 83.604 22.7668 84.1221 22.7858C86.3962 22.8692 88.2277 25.2344 88.8177 28.4761C90.5088 29.9293 91.5003 32.9351 91.1895 36.3178C91.1546 36.6984 91.1042 37.072 91.0396 37.4369C91.3597 37.5141 91.668 37.6253 91.961 37.7723C94.8664 39.23 95.1713 43.6536 92.6556 47.6778C93.3833 48.0416 93.9238 48.5406 94.2114 49.1676C95.2169 51.3604 92.7811 54.3602 88.6703 56.199C87.8419 57.4653 86.5975 58.7434 85.0185 59.8571C84.6 60.1523 84.1742 60.4246 83.7451 60.6732C83.86 60.8896 83.9507 61.1161 84.0152 61.3521C84.7925 64.1981 81.4691 67.3708 76.5556 68.5238C76.7682 69.2614 76.7327 69.9695 76.4078 70.5974C75.2989 72.7401 71.2008 73.2105 66.9023 71.815C65.0163 72.4425 62.474 72.609 59.7837 72.1624C59.2587 72.0752 58.7484 71.968 58.2559 71.8432C58.1479 72.0623 58.0153 72.2719 57.8576 72.4701C55.9549 74.8599 51.0835 74.7116 46.8806 72.1701C46.3948 72.7971 45.7711 73.2381 45.0254 73.4321C43.6018 73.8025 42.0078 73.2013 40.5927 71.9339C40.4956 71.9898 40.3946 72.0408 40.2898 72.0868C38.5153 72.865 36.107 71.9871 34.0221 70.0399C33.814 70.2065 33.5837 70.3466 33.3314 70.4572C30.7709 71.5801 26.8908 69.2549 24.5667 65.2448C23.764 65.6789 22.9223 65.8603 22.0976 65.7283C19.2304 65.2691 17.655 61.1947 18.5787 56.6278L18.5923 56.5614C17.0725 56.6908 15.7793 56.3736 14.9773 55.5594C13.2954 53.852 14.3315 50.5253 17.2502 47.6705C15.5901 47.464 14.3158 46.8271 13.7582 45.7795C12.8037 43.9863 14.2262 41.5096 17.0599 39.5557C16.7069 39.2916 16.4265 38.9772 16.2328 38.6131C15.5922 37.4097 16.0222 35.8984 17.2309 34.4439C16.3633 34.1152 15.7053 33.6103 15.3455 32.9344C14.0986 30.5917 16.9086 27.0825 21.6217 25.0964C21.9669 24.9509 22.3127 24.8177 22.6577 24.6965C22.6035 24.6174 22.5539 24.5356 22.509 24.4512C21.262 22.1085 24.072 18.5992 28.7852 16.6131C32.1964 15.1756 35.6698 14.9299 37.8011 15.7921C38.616 13.5914 42.5461 11.9902 47.2215 12.0965L47.267 12.0976C47.33 11.8156 47.4391 11.5472 47.597 11.2961C49.0196 9.03402 53.8621 9.03711 58.4131 11.303C58.7877 11.4895 59.1487 11.6856 59.4949 11.8896Z" fill="#BA5C3E"/>
<path d="M60.2207 11.2832L62.3938 14.6414L62.3938 14.6414L60.2207 11.2832ZM59.4949 11.8896L57.4644 15.3359L60.2297 16.9651L62.4194 14.6186L59.4949 11.8896ZM70.6347 14.8376L67.5527 17.3874L69.824 20.1328L72.8126 18.1927L70.6347 14.8376ZM72.8041 14.1977L72.9506 10.2004L72.8041 14.1977ZM76.7803 17.5134L73.1274 19.1433L74.5676 22.3709L77.948 21.3392L76.7803 17.5134ZM77.9155 17.3625L78.062 13.3652H78.062L77.9155 17.3625ZM82.6146 23.0721L78.6781 23.7818L79.5659 28.7064L84.174 26.7556L82.6146 23.0721ZM84.1221 22.7858L84.2686 18.7885L84.1221 22.7858ZM88.8177 28.4761L84.8823 29.1923L85.1361 30.5863L86.2107 31.5098L88.8177 28.4761ZM91.1895 36.3178L87.2063 35.9519V35.9519L91.1895 36.3178ZM91.0396 37.4369L87.1008 36.7396L86.4449 40.4446L90.1029 41.3257L91.0396 37.4369ZM91.961 37.7723L93.7548 34.197L93.7547 34.197L91.961 37.7723ZM92.6556 47.6778L89.2638 45.5574L86.9315 49.2882L90.8669 51.2556L92.6556 47.6778ZM94.2114 49.1676L90.5754 50.835V50.835L94.2114 49.1676ZM88.6703 56.199L87.037 52.5477L85.9655 53.027L85.3229 54.0093L88.6703 56.199ZM85.0185 59.8571L82.713 56.5884L82.7129 56.5884L85.0185 59.8571ZM83.7451 60.6732L81.7397 57.2122L78.4038 59.1451L80.2126 62.5498L83.7451 60.6732ZM84.0152 61.3521L80.1565 62.4061L80.1565 62.4061L84.0152 61.3521ZM76.5556 68.5238L75.6418 64.6296L71.5474 65.5903L72.712 69.6314L76.5556 68.5238ZM76.4078 70.5974L79.9602 72.4358L76.4078 70.5974ZM66.9023 71.815L68.1374 68.0105L66.887 67.6045L65.6395 68.0196L66.9023 71.815ZM59.7837 72.1624L59.1285 76.1083H59.1286L59.7837 72.1624ZM58.2559 71.8432L59.2388 67.9658L56.0995 67.17L54.6679 70.075L58.2559 71.8432ZM57.8576 72.4701L60.9869 74.9615H60.9869L57.8576 72.4701ZM46.8806 72.1701L48.9504 68.7473L45.9016 66.9036L43.719 69.7198L46.8806 72.1701ZM45.0254 73.4321L44.0182 69.561H44.0182L45.0254 73.4321ZM40.5927 71.9339L43.2614 68.9543L41.1062 67.024L38.5983 68.4666L40.5927 71.9339ZM40.2898 72.0868L38.6834 68.4235L38.6833 68.4235L40.2898 72.0868ZM34.0221 70.0399L36.7522 67.1166L34.2235 64.755L31.5224 66.9172L34.0221 70.0399ZM33.3314 70.4572L34.9379 74.1205L34.9379 74.1205L33.3314 70.4572ZM24.5667 65.2448L28.0274 63.239L26.0799 59.8787L22.6637 61.7264L24.5667 65.2448ZM22.0976 65.7283L22.7301 61.7786H22.7301L22.0976 65.7283ZM18.5787 56.6278L14.66 55.8252L14.6581 55.8348L18.5787 56.6278ZM18.5923 56.5614L22.511 57.364L23.5847 52.1217L18.2529 52.5758L18.5923 56.5614ZM14.9773 55.5594L17.8269 52.7523H17.8269L14.9773 55.5594ZM17.2502 47.6705L20.0471 50.5301L25.9813 44.7257L17.7439 43.7011L17.2502 47.6705ZM13.7582 45.7795L10.2272 47.6589L10.2272 47.6589L13.7582 45.7795ZM17.0599 39.5557L19.3306 42.8487L23.9147 39.6877L19.4557 36.3526L17.0599 39.5557ZM16.2328 38.6131L19.7638 36.7337L16.2328 38.6131ZM17.2309 34.4439L20.3073 37.0003L23.8896 32.6893L18.6481 30.7034L17.2309 34.4439ZM15.3455 32.9344L11.8145 34.8138H11.8145L15.3455 32.9344ZM21.6217 25.0964L23.1751 28.7825L23.1751 28.7825L21.6217 25.0964ZM22.6577 24.6965L23.9829 28.4706L28.903 26.743L25.9594 22.4386L22.6577 24.6965ZM22.509 24.4512L18.978 26.3305L18.978 26.3306L22.509 24.4512ZM28.7852 16.6131L27.2318 12.927V12.927L28.7852 16.6131ZM37.8011 15.7921L36.301 19.5002L40.1212 21.0456L41.5522 17.1811L37.8011 15.7921ZM47.2215 12.0965L47.3171 8.09766L47.3124 8.09755L47.2215 12.0965ZM47.267 12.0976L47.1713 16.0965L50.4544 16.175L51.1707 12.97L47.267 12.0976ZM47.597 11.2961L44.2109 9.16672L44.2109 9.16672L47.597 11.2961ZM58.4131 11.303L56.6303 14.8837L56.6303 14.8837L58.4131 11.303ZM58.0476 7.92497C57.502 8.27799 57.0075 8.69219 56.5705 9.16054L62.4194 14.6186C62.4134 14.625 62.4075 14.6305 62.4022 14.635C62.3969 14.6394 62.3937 14.6415 62.3938 14.6414L58.0476 7.92497ZM73.7166 12.2878C71.7528 9.91408 69.222 8.13198 66.5819 7.23002C64.0129 6.35231 60.7828 6.15502 58.0476 7.92497L62.3938 14.6414C62.3939 14.6413 62.3948 14.6407 62.3967 14.6397C62.3985 14.6387 62.4016 14.6371 62.4062 14.635C62.4152 14.6309 62.4313 14.6243 62.4564 14.6169C62.5068 14.6019 62.5959 14.5828 62.7318 14.5768C63.0123 14.5643 63.4408 14.6108 63.9955 14.8004C65.1211 15.1849 66.4486 16.0528 67.5527 17.3874L73.7166 12.2878ZM72.9506 10.2004C71.2518 10.1381 69.7172 10.6643 68.4567 11.4825L72.8126 18.1927C72.8618 18.1608 72.87 18.1643 72.8349 18.1749C72.7965 18.1864 72.7334 18.1978 72.6576 18.195L72.9506 10.2004ZM80.4331 15.8835C79.2462 13.2235 76.7817 10.3408 72.9506 10.2004L72.6576 18.195C72.4531 18.1876 72.3908 18.0977 72.4955 18.1869C72.6236 18.2961 72.8766 18.5812 73.1274 19.1433L80.4331 15.8835ZM78.062 13.3652C77.2116 13.334 76.3879 13.451 75.6125 13.6876L77.948 21.3392C77.9101 21.3507 77.8463 21.3627 77.769 21.3599L78.062 13.3652ZM86.5511 22.3624C86.1661 20.2265 85.3368 18.1559 84.0107 16.515C82.6738 14.8608 80.6502 13.4601 78.062 13.3652L77.769 21.3599C77.4594 21.3485 77.4923 21.1768 77.7887 21.5436C78.0959 21.9237 78.4769 22.6661 78.6781 23.7818L86.5511 22.3624ZM84.2686 18.7885C83.123 18.7465 82.0365 18.9732 81.0553 19.3886L84.174 26.7556C84.1702 26.7572 84.1485 26.7659 84.1103 26.7732C84.0714 26.7807 84.025 26.7849 83.9756 26.7831L84.2686 18.7885ZM92.7531 27.7598C92.3653 25.6296 91.5351 23.5647 90.2093 21.9284C88.8725 20.2785 86.8515 18.8832 84.2686 18.7885L83.9756 26.7831C83.6668 26.7718 83.6986 26.6007 83.9936 26.9647C84.2995 27.3424 84.68 28.0808 84.8823 29.1923L92.7531 27.7598ZM95.1728 36.6837C95.5521 32.5541 94.4484 28.0408 91.4247 25.4424L86.2107 31.5098C86.3404 31.6213 86.6714 32.0118 86.9337 32.858C87.1864 33.6729 87.3176 34.7398 87.2063 35.9519L95.1728 36.6837ZM94.9783 38.1343C95.0624 37.6594 95.1276 37.1753 95.1728 36.6837L87.2063 35.9519C87.1815 36.2216 87.146 36.4845 87.1008 36.7396L94.9783 38.1343ZM93.7547 34.197C93.1779 33.9076 92.5809 33.6938 91.9763 33.5482L90.1029 41.3257C90.1386 41.3343 90.1581 41.343 90.1672 41.3475L93.7547 34.197ZM96.0473 49.7982C97.6681 47.2056 98.5255 44.265 98.3315 41.4843C98.1352 38.6698 96.7823 35.716 93.7548 34.197L90.1672 41.3475C90.1765 41.3522 90.1734 41.3516 90.1682 41.3467C90.164 41.3426 90.174 41.3505 90.1932 41.3833C90.2336 41.4528 90.3239 41.6535 90.3509 42.0409C90.4068 42.8426 90.1588 44.1259 89.2638 45.5574L96.0473 49.7982ZM97.8473 47.5003C97.0843 45.8366 95.7562 44.7558 94.4442 44.1L90.8669 51.2556C91.0105 51.3274 90.7633 51.2446 90.5754 50.835L97.8473 47.5003ZM90.3036 59.8504C92.7741 58.7453 94.9926 57.189 96.4902 55.3057C97.9188 53.5093 99.2579 50.5762 97.8473 47.5003L90.5754 50.835C90.1704 49.9518 90.7944 49.615 90.2287 50.3265C89.7321 50.9509 88.6773 51.814 87.037 52.5477L90.3036 59.8504ZM87.3241 63.1258C89.2535 61.7649 90.8747 60.1361 92.0177 58.3887L85.3229 54.0093C84.8092 54.7945 83.9415 55.7219 82.713 56.5884L87.3241 63.1258ZM85.7504 64.1342C86.282 63.8262 86.808 63.4899 87.3241 63.1258L82.7129 56.5884C82.392 56.8148 82.0664 57.0229 81.7397 57.2122L85.7504 64.1342ZM87.8738 60.2982C87.729 59.7679 87.5269 59.2661 87.2775 58.7966L80.2126 62.5498C80.1931 62.5131 80.1724 62.4643 80.1565 62.4061L87.8738 60.2982ZM77.4694 72.418C80.4724 71.7133 83.222 70.3459 85.1886 68.4593C87.0991 66.6265 88.8009 63.6922 87.8738 60.2982L80.1565 62.4061C80.0068 61.858 80.4356 61.933 79.6504 62.6863C78.9211 63.3858 77.5523 64.1812 75.6418 64.6296L77.4694 72.418ZM79.9602 72.4358C80.8382 70.7394 80.841 68.9491 80.3992 67.4161L72.712 69.6314C72.7079 69.6172 72.6804 69.5131 72.6919 69.3388C72.704 69.1551 72.7562 68.9504 72.8553 68.7589L79.9602 72.4358ZM65.6671 75.6195C68.2523 76.4588 70.948 76.7999 73.3437 76.5026C75.5645 76.227 78.5084 75.2413 79.9602 72.4358L72.8553 68.7589C73.1983 68.0962 73.5387 68.417 72.3585 68.5635C71.3534 68.6882 69.8508 68.5667 68.1374 68.0105L65.6671 75.6195ZM59.1286 76.1083C62.3175 76.6378 65.5369 76.4848 68.165 75.6105L65.6395 68.0196C64.4957 68.4001 62.6306 68.5803 60.4389 68.2164L59.1286 76.1083ZM57.2729 75.7205C57.8747 75.8731 58.4944 76.003 59.1285 76.1083L60.4389 68.2164C60.023 68.1473 59.622 68.063 59.2388 67.9658L57.2729 75.7205ZM60.9869 74.9615C61.3218 74.5408 61.6085 74.089 61.8438 73.6113L54.6679 70.075C54.6873 70.0357 54.7089 70.003 54.7282 69.9786L60.9869 74.9615ZM44.8108 75.593C47.4335 77.1789 50.3688 78.09 53.1186 78.1677C55.7617 78.2425 58.9432 77.5285 60.9869 74.9615L54.7282 69.9786C54.8692 69.8015 54.6637 70.2082 53.3447 70.1709C52.1324 70.1366 50.5306 69.7028 48.9504 68.7473L44.8108 75.593ZM46.0327 77.3032C47.7341 76.8605 49.0821 75.8593 50.0423 74.6205L43.719 69.7198C43.7061 69.7365 43.7245 69.7084 43.7854 69.6665C43.8497 69.6224 43.9316 69.5835 44.0182 69.561L46.0327 77.3032ZM37.924 74.9135C39.8599 76.6474 42.7944 78.1458 46.0327 77.3032L44.0182 69.561C44.199 69.5139 44.2603 69.5681 44.1217 69.5198C43.9662 69.4656 43.6611 69.3123 43.2614 68.9543L37.924 74.9135ZM41.8962 75.75C42.1331 75.6461 42.3637 75.5298 42.5871 75.4012L38.5983 68.4666C38.6274 68.4498 38.656 68.4355 38.6834 68.4235L41.8962 75.75ZM31.2919 72.9633C33.7327 75.2428 37.8567 77.5215 41.8963 75.75L38.6833 68.4235C38.9555 68.3042 38.9826 68.4407 38.5501 68.2949C38.1204 68.1501 37.4762 67.7927 36.7522 67.1166L31.2919 72.9633ZM34.9379 74.1205C35.5107 73.8692 36.0413 73.5473 36.5218 73.1627L31.5224 66.9172C31.5867 66.8657 31.6567 66.8239 31.7249 66.794L34.9379 74.1205ZM21.1059 67.2505C22.5626 69.7639 24.5714 71.8759 26.8122 73.2117C28.9509 74.4866 31.9881 75.4141 34.9379 74.1205L31.7249 66.794C32.1142 66.6233 31.9311 66.9496 30.9086 66.34C29.9882 65.7914 28.8949 64.7357 28.0274 63.239L21.1059 67.2505ZM21.4651 69.6779C23.3173 69.9745 25.0458 69.5332 26.4696 68.7631L22.6637 61.7264C22.5704 61.7769 22.533 61.7811 22.5527 61.7772C22.5629 61.7751 22.5851 61.7716 22.6178 61.7708C22.6507 61.7699 22.689 61.772 22.7301 61.7786L21.4651 69.6779ZM14.6581 55.8348C14.0725 58.7298 14.2275 61.6828 15.1858 64.1611C16.1272 66.5958 18.136 69.1448 21.4651 69.6779L22.7301 61.7786C23.192 61.8526 22.9795 62.1348 22.6474 61.2759C22.3321 60.4604 22.1611 59.0927 22.4993 57.4208L14.6581 55.8348ZM14.6737 55.7588L14.66 55.8252L22.4973 57.4304L22.511 57.364L14.6737 55.7588ZM12.1277 58.3665C14.1052 60.374 16.8145 60.7273 18.9317 60.547L18.2529 52.5758C17.8472 52.6104 17.6243 52.5703 17.5539 52.5513C17.4959 52.5358 17.6413 52.5638 17.8269 52.7523L12.1277 58.3665ZM14.4532 44.811C12.6525 46.5722 11.2098 48.6837 10.552 50.9133C9.89548 53.1385 9.90718 56.1123 12.1277 58.3665L17.8269 52.7523C18.3655 53.299 18.0543 53.7558 18.225 53.1771C18.3945 52.6028 18.9292 51.6236 20.0471 50.5301L14.4532 44.811ZM10.2272 47.6589C11.6849 50.3976 14.5648 51.3673 16.7564 51.6399L17.7439 43.7011C17.5143 43.6725 17.3338 43.6334 17.1991 43.5942C17.0636 43.5549 16.9902 43.5201 16.9649 43.5067C16.9163 43.4809 17.1171 43.5769 17.2892 43.9001L10.2272 47.6589ZM14.7892 36.2627C13.0289 37.4765 11.451 39.0185 10.4733 40.8192C9.48999 42.6301 8.90873 45.1818 10.2272 47.6589L17.2892 43.9001C17.4426 44.1885 17.4744 44.4767 17.4588 44.6614C17.4459 44.8141 17.4102 44.8088 17.5037 44.6366C17.707 44.2621 18.2572 43.5888 19.3306 42.8487L14.7892 36.2627ZM12.7018 40.4925C13.2053 41.4385 13.9002 42.1875 14.664 42.7588L19.4557 36.3526C19.5136 36.3958 19.6478 36.5159 19.7638 36.7337L12.7018 40.4925ZM14.1544 31.8875C12.5611 33.8049 10.9111 37.1282 12.7018 40.4925L19.7638 36.7337C19.8602 36.9149 19.9149 37.1103 19.9315 37.2899C19.9474 37.4616 19.9245 37.5708 19.9177 37.598C19.9116 37.622 19.9199 37.5767 19.9818 37.4638C20.0432 37.3518 20.1459 37.1946 20.3073 37.0003L14.1544 31.8875ZM11.8145 34.8138C12.7596 36.5895 14.3358 37.6245 15.8136 38.1844L18.6481 30.7034C18.5294 30.6584 18.5236 30.638 18.5813 30.6837C18.6461 30.7351 18.7695 30.854 18.8765 31.0551L11.8145 34.8138ZM20.0684 21.4103C17.2537 22.5964 14.7722 24.326 13.1262 26.3815C11.5954 28.2933 10.0725 31.5409 11.8145 34.8138L18.8765 31.0551C19.3717 31.9853 18.6302 32.3069 19.371 31.3819C19.9966 30.6006 21.2766 29.5825 23.1751 28.7825L20.0684 21.4103ZM21.3324 20.9225C20.9107 21.0705 20.4889 21.2331 20.0684 21.4103L23.1751 28.7825C23.4449 28.6687 23.7146 28.5648 23.9829 28.4706L21.3324 20.9225ZM18.978 26.3306C19.0934 26.5473 19.2197 26.7554 19.3559 26.9545L25.9594 22.4386C25.9874 22.4795 26.0145 22.5239 26.0399 22.5717L18.978 26.3306ZM27.2318 12.927C24.4171 14.1132 21.9356 15.8427 20.2897 17.8982C18.7588 19.81 17.2359 23.0576 18.978 26.3305L26.04 22.5718C26.5351 23.502 25.7937 23.8236 26.5344 22.8986C27.16 22.1173 28.4401 21.0992 30.3385 20.2992L27.2318 12.927ZM39.3011 12.084C35.8118 10.6724 31.1645 11.2698 27.2318 12.927L30.3385 20.2992C33.2284 19.0814 35.5278 19.1874 36.301 19.5002L39.3011 12.084ZM47.3124 8.09755C44.5277 8.03421 41.8314 8.47121 39.5884 9.36111C37.5213 10.1813 35.0436 11.7199 34.05 14.4031L41.5522 17.1811C41.3735 17.6636 41.2683 17.3013 42.5387 16.7972C43.6334 16.3629 45.2398 16.0525 47.1305 16.0955L47.3124 8.09755ZM47.3626 8.09875L47.3171 8.09766L47.1258 16.0954L47.1713 16.0965L47.3626 8.09875ZM44.2109 9.16672C43.8068 9.80933 43.5245 10.5037 43.3633 11.2252L51.1707 12.97C51.1355 13.1276 51.0714 13.2851 50.9831 13.4255L44.2109 9.16672ZM60.1959 7.72228C57.4563 6.35829 54.5019 5.60327 51.8344 5.60157C49.4065 5.60002 46.0332 6.26903 44.2109 9.16672L50.9831 13.4255C50.5834 14.0611 50.3426 13.6006 51.8293 13.6016C53.0765 13.6024 54.8188 13.9818 56.6303 14.8837L60.1959 7.72228ZM61.5254 8.44323C61.0973 8.19104 60.6537 7.95023 60.1959 7.72228L56.6303 14.8837C56.9217 15.0288 57.2 15.1801 57.4644 15.3359L61.5254 8.44323Z" fill="white" mask="url(#path-27-outside-2_2136_6451)"/>
<path fill-rule="evenodd" clip-rule="evenodd" d="M68.9236 72.3107C68.491 72.2135 68.0533 72.0982 67.6135 71.9646C65.7276 72.5517 63.1853 72.7075 60.495 72.2896C59.9699 72.208 59.4596 72.1077 58.9671 71.9909C58.8591 72.196 58.7266 72.392 58.5688 72.5775C56.6661 74.8136 51.7947 74.6748 47.5919 72.2968C47.106 72.8835 46.4824 73.2961 45.7367 73.4776C44.313 73.8243 42.719 73.2617 41.304 72.0758C41.2068 72.1281 41.1058 72.1759 41.001 72.2188C39.2265 72.947 36.8183 72.1256 34.7333 70.3037C34.5572 70.4356 34.3652 70.5497 34.1574 70.6445C32.7956 64.061 31.3571 54.8287 32.7975 52.5393C34.1941 50.3196 33.799 49.239 33.3361 47.9732C33.0774 47.2656 32.7975 46.5002 32.7975 45.4456C32.7975 42.5042 34.5394 38.1787 37.8052 36.6215C39.92 35.6131 41.1218 35.9107 42.4748 36.2457C43.2112 36.4281 43.9924 36.6215 44.9899 36.6215C47.8203 36.6215 58.0531 36.4485 59.7948 34.8913C61.5366 33.3341 67.415 34.5454 70.6808 38.3518C73.9466 42.1583 74.1643 43.3695 72.4226 47.349C70.6808 51.3284 70.8985 53.5777 72.4226 57.3841C73.9466 61.1906 72.6403 68.6305 70.6808 69.8416C69.8772 70.3383 69.3666 71.3005 68.9236 72.3107Z" fill="url(#paint1_linear_2136_6451)"/>
<path d="M46.6769 50.6732L48.0187 51.3429L46.6769 50.6732C46.3502 51.3274 46.2366 52.0675 46.3519 52.7895L47.0256 57.0072C47.079 57.3414 46.7918 57.6312 46.4571 57.5807L42.2451 56.9454C41.5205 56.8361 40.7799 56.9571 40.1275 57.2912L36.3352 59.2336C36.0339 59.3879 35.6697 59.2045 35.6142 58.8706L34.9151 54.657C34.7954 53.9358 34.4528 53.2702 33.9355 52.7538L30.9131 49.7363C30.6738 49.4974 30.7359 49.0947 31.036 48.9387L34.8207 46.9711C35.4704 46.6334 35.998 46.1004 36.3291 45.4471L38.2573 41.6429C38.4105 41.3408 38.8133 41.275 39.0544 41.5128L42.0895 44.5065L43.1429 43.4382L42.0895 44.5065C42.6107 45.0205 43.28 45.3581 44.0032 45.4717L48.216 46.1332C48.5501 46.1857 48.7366 46.5478 48.5855 46.8505L46.6769 50.6732Z" fill="#FF4056" stroke="#C2D72F" stroke-width="3"/>
<path d="M67.6588 44.3942C67.9423 44.2093 68.3238 44.3539 68.4139 44.6805L69.5479 48.7935C69.7425 49.4996 70.1536 50.127 70.7231 50.5874L74.041 53.2697C74.3041 53.4824 74.2848 53.8895 74.0028 54.076L70.442 56.4303C69.8323 56.8335 69.3642 57.4177 69.1035 58.1009L67.5812 62.0905C67.4606 62.4068 67.0672 62.514 66.8027 62.3027L63.4715 59.643C62.8988 59.1858 62.1973 58.9198 61.4658 58.8825L57.2109 58.6657C56.873 58.6485 56.6492 58.3073 56.7679 57.9904L58.2661 53.9916C58.5226 53.3068 58.5583 52.5586 58.3682 51.8522L57.2575 47.7265C57.1695 47.3997 57.4243 47.0819 57.7622 47.097L62.022 47.2882C62.7532 47.321 63.4761 47.1235 64.0889 46.7236L67.6588 44.3942Z" fill="#FF4056" stroke="#C2D72F" stroke-width="3"/>
<path d="M45.7754 52.0914C51.0079 50.7716 53.9213 51.0183 59.0832 53.4307" stroke="#C2D72F" stroke-width="3"/>
<path d="M27.4009 28.9572C28.5183 24.2298 32.6438 23.8409 37.1655 25.5807" stroke="#E28A52" stroke-width="2"/>
<path d="M85.9295 41.2902C88.0654 45.652 85.1261 48.5769 80.5303 50.1098" stroke="#E28A52" stroke-width="2"/>
<path d="M36.2271 32.9582C38.3631 37.32 35.4237 40.2449 30.8279 41.7778" stroke="#E28A52" stroke-width="2"/>
<path d="M66.0796 18.67C63.0696 14.8602 59.1673 16.2561 55.8056 19.7486" stroke="#E28A52" stroke-width="2"/>
<path d="M22.4228 56.57C26.7401 54.3546 28.3697 45.4911 23.3653 46.2682" stroke="#E28A52" stroke-width="2"/>
<path d="M74.7424 25.4087C71.5667 29.0812 73.3678 37.9113 77.7182 35.3153" stroke="#E28A52" stroke-width="2"/>
<path d="M55.9182 19.6314C52.7425 23.3038 54.5436 32.134 58.8939 29.5379" stroke="#E28A52" stroke-width="2"/>
<path d="M42.5487 28.8872C46.8661 26.6718 47.4465 16.3588 43.4913 18.5854" stroke="#E28A52" stroke-width="2"/>
<path d="M82.2231 39.5279C86.5404 37.3125 87.1208 26.9994 83.1656 29.226" stroke="#E28A52" stroke-width="2"/>
<path d="M63.608 72.6662L62.5855 66.6367L57.1265 69.9651C56.3247 70.454 56.578 71.6786 57.508 71.8092L63.608 72.6662Z" fill="#392958"/>
<mask id="path-43-outside-3_2136_6451" maskUnits="userSpaceOnUse" x="13.6203" y="46.8613" width="143.737" height="76.4949" fill="black">
<rect fill="white" x="13.6203" y="46.8613" width="143.737" height="76.4949"/>
<path fill-rule="evenodd" clip-rule="evenodd" d="M26.9907 73.2165L56.8059 71.3627C56.5283 70.9253 56.5993 70.2857 57.1266 69.9643L61.3257 67.404C61.9294 67.0359 62.714 67.3935 62.8322 68.0906L62.9614 68.8522L79.6387 59.2547C79.8317 59.1436 80.0562 59.1001 80.2766 59.1311L130.175 66.1409C130.388 66.1708 130.586 66.269 130.739 66.4207L149.157 84.6656C149.381 84.8877 149.487 85.2026 149.444 85.5152L147.882 96.6323C147.875 96.6794 147.865 96.726 147.852 96.7716L147.73 97.1933L147.817 97.2017C148.412 97.2587 148.815 97.8236 148.678 98.4092L147.769 102.311C147.75 102.394 147.72 102.474 147.681 102.55L145.723 106.31C145.551 106.641 145.211 106.853 144.841 106.86L132.927 107.091C132.373 107.102 131.924 106.659 131.925 106.105L131.929 104.885C131.458 104.624 130.981 104.383 130.497 104.16C130.495 104.624 130.462 105.094 130.395 105.567C129.604 111.199 124.39 115.121 118.75 114.329C113.11 113.537 109.178 108.329 109.969 102.698C110.016 102.363 110.079 102.035 110.157 101.713C109.432 101.727 108.686 101.744 107.918 101.764L107.897 101.762L107.886 101.838L107.746 102.834C107.677 103.328 107.258 103.686 106.775 103.695C106.718 103.697 106.66 103.694 106.601 103.686L57.3245 96.7633C57.3004 96.76 57.2766 96.7558 57.2532 96.7507L57.2181 96.7458C56.899 96.701 56.6364 96.5102 56.4882 96.2504L54.966 96.0872C54.8735 96.0773 54.7807 96.0537 54.6945 96.0187C54.3241 95.8687 53.9593 95.7218 53.6001 95.5782C52.4596 100.787 47.4709 104.316 42.0946 103.56C36.4541 102.768 32.523 97.5605 33.3141 91.9291C33.3997 91.3196 33.5371 90.7301 33.7213 90.1645C33.3066 90.1495 32.8941 90.1433 32.4824 90.1457L32.2068 91.1007C32.0515 91.6387 31.4873 91.9371 30.9555 91.7626L21.5948 88.6908C21.2105 88.5646 20.936 88.2181 20.8995 87.8129L20.5488 83.922C20.5382 83.8046 20.5481 83.6864 20.5781 83.573L21.5018 80.0787C21.6298 79.5948 22.0934 79.2857 22.5873 79.355L23.1469 79.4337C23.1629 79.3897 23.182 79.3469 23.2041 79.3055L23.3938 78.9498L23.1726 78.8525C22.6671 78.6301 22.427 78.0355 22.6364 77.5245L24.0211 74.1451C24.2305 73.634 24.8101 73.4 25.3157 73.6224L25.9005 73.8796C25.9546 73.9034 26.0056 73.9315 26.0534 73.9633L26.1704 73.7439C26.3337 73.4376 26.6442 73.238 26.9907 73.2165Z"/>
</mask>
<path fill-rule="evenodd" clip-rule="evenodd" d="M26.9907 73.2165L56.8059 71.3627C56.5283 70.9253 56.5993 70.2857 57.1266 69.9643L61.3257 67.404C61.9294 67.0359 62.714 67.3935 62.8322 68.0906L62.9614 68.8522L79.6387 59.2547C79.8317 59.1436 80.0562 59.1001 80.2766 59.1311L130.175 66.1409C130.388 66.1708 130.586 66.269 130.739 66.4207L149.157 84.6656C149.381 84.8877 149.487 85.2026 149.444 85.5152L147.882 96.6323C147.875 96.6794 147.865 96.726 147.852 96.7716L147.73 97.1933L147.817 97.2017C148.412 97.2587 148.815 97.8236 148.678 98.4092L147.769 102.311C147.75 102.394 147.72 102.474 147.681 102.55L145.723 106.31C145.551 106.641 145.211 106.853 144.841 106.86L132.927 107.091C132.373 107.102 131.924 106.659 131.925 106.105L131.929 104.885C131.458 104.624 130.981 104.383 130.497 104.16C130.495 104.624 130.462 105.094 130.395 105.567C129.604 111.199 124.39 115.121 118.75 114.329C113.11 113.537 109.178 108.329 109.969 102.698C110.016 102.363 110.079 102.035 110.157 101.713C109.432 101.727 108.686 101.744 107.918 101.764L107.897 101.762L107.886 101.838L107.746 102.834C107.677 103.328 107.258 103.686 106.775 103.695C106.718 103.697 106.66 103.694 106.601 103.686L57.3245 96.7633C57.3004 96.76 57.2766 96.7558 57.2532 96.7507L57.2181 96.7458C56.899 96.701 56.6364 96.5102 56.4882 96.2504L54.966 96.0872C54.8735 96.0773 54.7807 96.0537 54.6945 96.0187C54.3241 95.8687 53.9593 95.7218 53.6001 95.5782C52.4596 100.787 47.4709 104.316 42.0946 103.56C36.4541 102.768 32.523 97.5605 33.3141 91.9291C33.3997 91.3196 33.5371 90.7301 33.7213 90.1645C33.3066 90.1495 32.8941 90.1433 32.4824 90.1457L32.2068 91.1007C32.0515 91.6387 31.4873 91.9371 30.9555 91.7626L21.5948 88.6908C21.2105 88.5646 20.936 88.2181 20.8995 87.8129L20.5488 83.922C20.5382 83.8046 20.5481 83.6864 20.5781 83.573L21.5018 80.0787C21.6298 79.5948 22.0934 79.2857 22.5873 79.355L23.1469 79.4337C23.1629 79.3897 23.182 79.3469 23.2041 79.3055L23.3938 78.9498L23.1726 78.8525C22.6671 78.6301 22.427 78.0355 22.6364 77.5245L24.0211 74.1451C24.2305 73.634 24.8101 73.4 25.3157 73.6224L25.9005 73.8796C25.9546 73.9034 26.0056 73.9315 26.0534 73.9633L26.1704 73.7439C26.3337 73.4376 26.6442 73.238 26.9907 73.2165Z" fill="#392958"/>
<path d="M56.8059 71.3627L57.0541 75.355L63.8095 74.935L60.1834 69.2198L56.8059 71.3627ZM26.9907 73.2165L26.7425 69.2242L26.7425 69.2242L26.9907 73.2165ZM57.1266 69.9643L59.2089 73.3795L59.2089 73.3795L57.1266 69.9643ZM61.3257 67.404L63.4081 70.8192L61.3257 67.404ZM62.8322 68.0906L58.8886 68.7594L62.8322 68.0906ZM62.9614 68.8522L59.0177 69.521L59.9781 75.1841L64.9566 72.3191L62.9614 68.8522ZM79.6387 59.2547L77.6436 55.7877L77.6436 55.7878L79.6387 59.2547ZM130.739 66.4207L133.554 63.579L133.554 63.579L130.739 66.4207ZM149.157 84.6656L146.342 87.5074L146.342 87.5074L149.157 84.6656ZM147.852 96.7716L151.694 97.8852L151.694 97.8851L147.852 96.7716ZM147.73 97.1933L143.888 96.0797L142.544 100.714L147.348 101.175L147.73 97.1933ZM147.817 97.2017L147.435 101.183L147.435 101.183L147.817 97.2017ZM148.678 98.4092L152.574 99.3168L152.574 99.3168L148.678 98.4092ZM147.769 102.311L151.665 103.219L151.665 103.219L147.769 102.311ZM147.681 102.55L151.229 104.397L151.229 104.397L147.681 102.55ZM145.723 106.31L149.271 108.157L149.271 108.157L145.723 106.31ZM144.841 106.86L144.919 110.859L144.919 110.859L144.841 106.86ZM132.927 107.091L133.005 111.09L133.005 111.09L132.927 107.091ZM131.925 106.105L135.925 106.115L135.925 106.115L131.925 106.105ZM131.929 104.885L135.929 104.895L135.935 102.532L133.868 101.386L131.929 104.885ZM130.497 104.16L132.166 100.525L126.518 97.9317L126.497 104.146L130.497 104.16ZM110.157 101.713L114.046 102.648L115.257 97.6113L110.078 97.7134L110.157 101.713ZM107.918 101.764L107.492 105.741L107.756 105.77L108.021 105.763L107.918 101.764ZM107.897 101.762L108.323 97.7847L104.474 97.3725L103.936 101.206L107.897 101.762ZM107.886 101.838L111.847 102.395L107.886 101.838ZM106.775 103.695L106.703 99.6957L106.672 99.6963L106.641 99.6974L106.775 103.695ZM57.2532 96.7507L58.0904 92.8393L57.9509 92.8095L57.8097 92.7896L57.2532 96.7507ZM56.4882 96.2504L59.9626 94.2685L58.9489 92.4913L56.9146 92.2732L56.4882 96.2504ZM54.966 96.0872L55.3924 92.11L55.3923 92.11L54.966 96.0872ZM54.6945 96.0187L56.1965 92.3115L56.1965 92.3114L54.6945 96.0187ZM53.6001 95.5782L55.0852 91.8641L50.7023 90.1116L49.6927 94.7226L53.6001 95.5782ZM33.7213 90.1645L37.5248 91.4029L39.167 86.359L33.866 86.1671L33.7213 90.1645ZM32.4824 90.1457L32.4591 86.1458L29.4685 86.1632L28.6393 89.0365L32.4824 90.1457ZM32.2068 91.1007L36.0499 92.2098L36.0499 92.2098L32.2068 91.1007ZM30.9555 91.7626L32.2027 87.962L32.2027 87.962L30.9555 91.7626ZM21.5948 88.6908L22.842 84.8902L22.842 84.8902L21.5948 88.6908ZM20.8995 87.8129L16.9156 88.1719L20.8995 87.8129ZM20.5488 83.922L24.5326 83.563L24.5326 83.563L20.5488 83.922ZM20.5781 83.573L16.7109 82.5507L20.5781 83.573ZM21.5018 80.0787L25.369 81.101L25.369 81.101L21.5018 80.0787ZM22.5873 79.355L22.0308 83.3161L22.0308 83.3161L22.5873 79.355ZM23.1469 79.4337L22.5904 83.3948L25.7964 83.8452L26.905 80.8035L23.1469 79.4337ZM23.2041 79.3055L26.7335 81.1879L26.7335 81.1879L23.2041 79.3055ZM23.3938 78.9498L26.9232 80.8322L28.9535 77.0255L25.0044 75.2884L23.3938 78.9498ZM23.1726 78.8525L21.562 82.5139L21.562 82.5139L23.1726 78.8525ZM22.6364 77.5245L18.9351 76.0079L18.9351 76.0079L22.6364 77.5245ZM24.0211 74.1451L20.3198 72.6284L20.3198 72.6284L24.0211 74.1451ZM25.3157 73.6224L26.9263 69.961L26.9263 69.961L25.3157 73.6224ZM25.9005 73.8796L24.2898 77.5411L24.2899 77.5411L25.9005 73.8796ZM26.0534 73.9633L23.8394 77.2947L27.5092 79.7335L29.5828 75.8457L26.0534 73.9633ZM26.1704 73.7439L29.6998 75.6263L29.6998 75.6263L26.1704 73.7439ZM56.5577 67.3705L26.7425 69.2242L27.2389 77.2087L57.0541 75.355L56.5577 67.3705ZM55.0442 66.549C52.3582 68.1868 52.1145 71.4349 53.4283 73.5057L60.1834 69.2198C60.9421 70.4156 60.8405 72.3847 59.2089 73.3795L55.0442 66.549ZM59.2434 63.9887L55.0442 66.549L59.2089 73.3795L63.4081 70.8192L59.2434 63.9887ZM66.7759 67.4218C66.1848 63.9363 62.2618 62.1483 59.2434 63.9887L63.4081 70.8192C61.597 71.9235 59.2432 70.8507 58.8886 68.7594L66.7759 67.4218ZM66.9051 68.1834L66.7759 67.4218L58.8886 68.7594L59.0177 69.521L66.9051 68.1834ZM77.6436 55.7878L60.9663 65.3853L64.9566 72.3191L81.6339 62.7216L77.6436 55.7878ZM80.8331 55.17C79.7308 55.0151 78.6083 55.2326 77.6436 55.7877L81.6338 62.7216C81.055 63.0547 80.3815 63.1851 79.7202 63.0922L80.8331 55.17ZM130.731 62.1797L80.8331 55.17L79.7202 63.0922L129.618 70.102L130.731 62.1797ZM133.554 63.579C132.789 62.8205 131.798 62.3297 130.731 62.1797L129.618 70.102C128.978 70.012 128.384 69.7175 127.924 69.2624L133.554 63.579ZM151.972 81.8239L133.554 63.579L127.924 69.2624L146.342 87.5074L151.972 81.8239ZM153.405 86.0716C153.624 84.509 153.093 82.9344 151.972 81.8239L146.342 87.5074C145.669 86.841 145.351 85.8963 145.482 84.9587L153.405 86.0716ZM151.843 97.1888L153.405 86.0716L145.482 84.9587L143.921 96.0759L151.843 97.1888ZM151.694 97.8851C151.76 97.6567 151.81 97.4241 151.843 97.1888L143.921 96.0759C143.94 95.9348 143.97 95.7952 144.01 95.6582L151.694 97.8851ZM151.572 98.3069L151.694 97.8852L144.01 95.658L143.888 96.0797L151.572 98.3069ZM148.199 93.2199L148.112 93.2116L147.348 101.175L147.435 101.183L148.199 93.2199ZM152.574 99.3168C153.253 96.4024 151.232 93.5107 148.199 93.2199L147.435 101.183C145.592 101.007 144.377 99.2448 144.783 97.5016L152.574 99.3168ZM151.665 103.219L152.574 99.3168L144.783 97.5016L143.874 101.403L151.665 103.219ZM151.229 104.397C151.423 104.025 151.569 103.629 151.665 103.219L143.874 101.403C143.931 101.159 144.018 100.924 144.133 100.703L151.229 104.397ZM149.271 108.157L151.229 104.397L144.133 100.703L142.175 104.463L149.271 108.157ZM144.919 110.859C146.766 110.823 148.429 109.774 149.271 108.157L142.175 104.463C142.673 103.508 143.657 102.882 144.764 102.861L144.919 110.859ZM133.005 111.09L144.919 110.859L144.764 102.861L132.85 103.092L133.005 111.09ZM127.925 106.094C127.918 108.89 130.205 111.144 133.005 111.09L132.85 103.092C134.542 103.059 135.93 104.429 135.925 106.115L127.925 106.094ZM127.929 104.874L127.925 106.094L135.925 106.115L135.929 104.895L127.929 104.874ZM128.827 107.795C129.22 107.975 129.606 108.171 129.989 108.383L133.868 101.386C133.31 101.077 132.743 100.79 132.166 100.525L128.827 107.795ZM134.356 106.124C134.448 105.471 134.494 104.819 134.496 104.174L126.497 104.146C126.496 104.43 126.475 104.718 126.434 105.011L134.356 106.124ZM118.194 118.29C126.016 119.389 133.257 113.949 134.356 106.124L126.434 105.011C125.951 108.449 122.765 110.854 119.306 110.368L118.194 118.29ZM106.008 102.141C104.909 109.966 110.371 117.191 118.194 118.29L119.306 110.368C115.848 109.882 113.448 106.692 113.931 103.254L106.008 102.141ZM106.267 100.778C106.16 101.224 106.073 101.679 106.008 102.141L113.931 103.254C113.96 103.047 113.998 102.845 114.046 102.648L106.267 100.778ZM108.021 105.763C108.783 105.743 109.52 105.726 110.235 105.712L110.078 97.7134C109.343 97.7279 108.589 97.7455 107.814 97.7656L108.021 105.763ZM107.471 105.739L107.492 105.741L108.344 97.787L108.323 97.7847L107.471 105.739ZM111.847 102.395L111.858 102.318L103.936 101.206L103.925 101.282L111.847 102.395ZM111.707 103.391L111.847 102.395L103.925 101.282L103.785 102.278L111.707 103.391ZM106.847 107.694C109.265 107.651 111.36 105.863 111.707 103.391L103.785 102.278C103.994 100.793 105.251 99.7218 106.703 99.6957L106.847 107.694ZM106.045 107.647C106.333 107.687 106.622 107.702 106.909 107.693L106.641 99.6974C106.813 99.6915 106.986 99.7007 107.158 99.7247L106.045 107.647ZM56.768 100.724L106.045 107.647L107.158 99.7247L57.8809 92.8022L56.768 100.724ZM56.416 100.662C56.5325 100.687 56.6499 100.708 56.768 100.724L57.8809 92.8022C57.9509 92.8121 58.0208 92.8244 58.0904 92.8393L56.416 100.662ZM56.6616 100.707L56.6967 100.712L57.8097 92.7896L57.7745 92.7847L56.6616 100.707ZM53.0138 98.2324C53.7493 99.5218 55.064 100.482 56.6616 100.707L57.7745 92.7847C58.734 92.9195 59.5235 93.4986 59.9626 94.2685L53.0138 98.2324ZM54.5396 100.064L56.0618 100.228L56.9146 92.2732L55.3924 92.11L54.5396 100.064ZM53.1925 99.726C53.6135 99.8966 54.0678 100.014 54.5398 100.064L55.3923 92.11C55.6793 92.1408 55.948 92.2108 56.1965 92.3115L53.1925 99.726ZM52.115 99.2923C52.4683 99.4336 52.8275 99.5781 53.1926 99.7261L56.1965 92.3114C55.8207 92.1592 55.4503 92.0101 55.0852 91.8641L52.115 99.2923ZM41.5381 107.522C48.9959 108.569 55.9219 103.675 57.5075 96.4338L49.6927 94.7226C48.9972 97.8989 45.9458 100.062 42.651 99.5993L41.5381 107.522ZM29.353 91.3727C28.2537 99.1977 33.716 106.423 41.5381 107.522L42.651 99.5993C39.1923 99.1134 36.7922 95.9233 37.2752 92.4856L29.353 91.3727ZM29.9178 88.9261C29.6616 89.713 29.4713 90.5306 29.353 91.3727L37.2752 92.4856C37.3281 92.1086 37.4126 91.7473 37.5248 91.4029L29.9178 88.9261ZM32.5057 94.1456C32.8619 94.1436 33.2184 94.1489 33.5766 94.1619L33.866 86.1671C33.3948 86.15 32.9263 86.1431 32.4591 86.1458L32.5057 94.1456ZM36.0499 92.2098L36.3255 91.2549L28.6393 89.0365L28.3636 89.9915L36.0499 92.2098ZM29.7082 95.5631C32.3942 96.4446 35.2667 94.9235 36.0499 92.2098L28.3636 89.9915C28.8363 88.3539 30.5805 87.4296 32.2027 87.962L29.7082 95.5631ZM20.3476 92.4913L29.7083 95.5632L32.2027 87.962L22.842 84.8902L20.3476 92.4913ZM16.9156 88.1719C17.0944 90.1554 18.4339 91.8634 20.3476 92.4913L22.842 84.8902C23.987 85.2659 24.7776 86.2809 24.8833 87.4538L16.9156 88.1719ZM16.5649 84.2811L16.9156 88.1719L24.8833 87.4538L24.5326 83.563L16.5649 84.2811ZM16.7109 82.5507C16.5613 83.1167 16.5128 83.7024 16.5649 84.2811L24.5326 83.563C24.5636 83.9068 24.5349 84.2562 24.4453 84.5953L16.7109 82.5507ZM17.6347 79.0564L16.7109 82.5507L24.4453 84.5953L25.369 81.101L17.6347 79.0564ZM23.1437 75.3939C20.6325 75.0412 18.2774 76.6252 17.6347 79.0564L25.369 81.101C24.9822 82.5643 23.5543 83.5302 22.0308 83.3161L23.1437 75.3939ZM23.7034 75.4726L23.1437 75.3939L22.0308 83.3161L22.5904 83.3948L23.7034 75.4726ZM19.6747 77.4231C19.5643 77.6301 19.4688 77.8442 19.3888 78.0638L26.905 80.8035C26.857 80.9353 26.7997 81.0637 26.7335 81.1879L19.6747 77.4231ZM19.8644 77.0674L19.6747 77.4231L26.7335 81.1879L26.9232 80.8322L19.8644 77.0674ZM21.562 82.5139L21.7832 82.6112L25.0044 75.2884L24.7832 75.1911L21.562 82.5139ZM18.9351 76.0079C17.9031 78.5263 19.0707 81.418 21.562 82.5139L24.7832 75.1911C26.2634 75.8422 26.9509 77.5448 26.3377 79.0411L18.9351 76.0079ZM20.3198 72.6284L18.9351 76.0079L26.3377 79.0411L27.7225 75.6617L20.3198 72.6284ZM26.9263 69.961C24.362 68.833 21.382 70.0362 20.3198 72.6284L27.7225 75.6617C27.0791 77.2318 25.2582 77.967 23.7051 77.2838L26.9263 69.961ZM27.5111 70.2182L26.9263 69.961L23.705 77.2838L24.2898 77.5411L27.5111 70.2182ZM28.2674 70.6318C28.03 70.4741 27.7772 70.3353 27.5111 70.2182L24.2899 77.5411C24.1319 77.4716 23.9812 77.3889 23.8394 77.2947L28.2674 70.6318ZM22.641 71.8615L22.524 72.0809L29.5828 75.8457L29.6998 75.6263L22.641 71.8615ZM26.7425 69.2242C25.0102 69.3319 23.4578 70.3301 22.641 71.8615L29.6998 75.6263C29.2097 76.5452 28.2782 77.1441 27.2389 77.2087L26.7425 69.2242Z" fill="white" mask="url(#path-43-outside-3_2136_6451)"/>
<path d="M54.6945 96.0192C42.0187 90.8838 36.0093 89.5389 28.8617 90.3764C28.2944 90.4429 27.7751 90.0364 27.7213 89.4678L27.1753 83.703C27.1538 83.4755 27.2108 83.2476 27.3368 83.057L32.1331 75.8062C32.349 75.4797 32.7356 75.3093 33.1222 75.37L86.0396 83.6766L130.529 88.1737C130.752 88.1963 130.961 88.2933 131.123 88.4491L139.893 96.9134C140.25 97.2572 140.301 97.81 140.013 98.2133L134.803 105.525C134.482 105.976 133.855 106.077 133.392 105.772C127.35 101.791 120.726 101.433 107.918 101.765L54.966 96.0877C54.8735 96.0778 54.7807 96.0541 54.6945 96.0192Z" fill="#55020C"/>
<path d="M26.9906 73.2143L58.5824 71.2501C58.7361 71.2406 58.8856 71.1956 59.0191 71.1188L79.6387 59.2525C79.8316 59.1414 80.0561 59.098 80.2766 59.1289L130.175 66.1387C130.388 66.1687 130.586 66.2668 130.739 66.4185L149.157 84.6635C149.381 84.8856 149.487 85.2005 149.443 85.513L147.882 96.6302C147.875 96.6772 147.865 96.7238 147.852 96.7694L145.458 105.029C145.34 105.437 144.977 105.726 144.553 105.749L133.821 106.345C133.281 106.375 132.815 105.969 132.769 105.43L132.461 101.758C132.454 101.666 132.459 101.576 132.474 101.485C132.981 98.4919 131.582 92.4298 121.978 91.0805C112.227 89.7107 108.847 95.2814 108.376 98.238L107.73 102.832C107.654 103.379 107.148 103.76 106.601 103.684L57.3244 96.7612C56.7775 96.6843 56.3964 96.1793 56.4732 95.6323L57.2146 90.3548C57.6234 87.445 56.2048 85.1914 55.0248 83.9415C53.8449 82.6915 51.5325 81.3966 46.2683 80.6571C41.0042 79.9176 39.2693 80.3016 36.7863 81.3793C34.7999 82.2415 33.59 85.4762 33.2333 86.9858L31.8869 90.9507C31.7106 91.4697 31.1493 91.7501 30.6285 91.5793L22.6188 88.9533C22.1587 88.8024 21.8727 88.3435 21.9401 87.864L23.0961 79.6348C23.1124 79.5189 23.149 79.4067 23.2041 79.3034L26.1704 73.7417C26.3337 73.4355 26.6442 73.2358 26.9906 73.2143Z" fill="#DB1930"/>
<ellipse cx="43.5274" cy="93.3586" rx="10.3132" ry="10.2935" transform="rotate(7.99667 43.5274 93.3586)" fill="#392958"/>
<path d="M48.466 94.4882C48.0948 97.1311 45.6467 98.976 42.9937 98.6034C40.3408 98.2307 38.4958 95.7826 38.8671 93.1397C39.2384 90.4969 41.6865 88.6519 44.3394 89.0246C46.9923 89.3973 48.8373 91.8453 48.466 94.4882Z" stroke="white" stroke-width="3"/>
<ellipse cx="120.183" cy="104.128" rx="10.3132" ry="10.2935" transform="rotate(7.99667 120.183 104.128)" fill="#392958"/>
<path d="M125.093 105.25C124.722 107.893 122.274 109.738 119.621 109.365C116.968 108.992 115.123 106.544 115.494 103.901C115.866 101.259 118.314 99.4136 120.967 99.7863C123.619 100.159 125.464 102.607 125.093 105.25Z" stroke="white" stroke-width="3"/>
<g filter="url(#filter13_i_2136_6451)">
<path d="M80.529 62.589L70.842 68.8157L71.2792 71.4063L94.0619 74.6069L95.4556 64.6859L80.529 62.589Z" fill="#C0E5FF"/>
<path d="M97.2043 75.0483L98.598 65.1274L119.024 67.9968L123.129 78.6903L97.2043 75.0483Z" fill="#C0E5FF"/>
<path d="M128.451 69.3212L122.166 68.4383L126.272 79.1318L137.485 80.707C137.947 80.7719 138.238 80.225 137.926 79.8779L128.451 69.3212Z" fill="#C0E5FF"/>
</g>
<path d="M80.6334 61.8463L80.3577 61.8076L80.1235 61.9581L70.4365 68.1848L70.0201 68.4525L70.1025 68.9405L70.5397 71.5311L70.6311 72.0726L71.1749 72.149L93.9576 75.3496L94.7003 75.4539L94.8046 74.7112L96.1983 64.7902L96.3027 64.0475L95.5599 63.9432L80.6334 61.8463ZM96.4616 74.944L96.3573 75.6867L97.1 75.791L123.025 79.433L124.286 79.6102L123.83 78.4215L119.724 67.728L119.566 67.3156L119.128 67.2541L98.7024 64.3847L97.9597 64.2803L97.8553 65.023L96.4616 74.944ZM129.009 68.8202L128.827 68.6166L128.556 68.5785L122.271 67.6956L121.01 67.5184L121.466 68.7071L125.572 79.4006L125.73 79.813L126.168 79.8745L137.38 81.4497C138.535 81.6119 139.263 80.2446 138.485 79.3769L129.009 68.8202Z" stroke="#392958" stroke-width="1.5"/>
<path d="M69.2367 73.631L68.2141 67.6015L62.7552 70.93C61.9534 71.4188 62.2067 72.6434 63.1366 72.7741L69.2367 73.631Z" fill="#392958"/>
<rect x="57.2404" y="89.3984" width="51.8837" height="5.27254" transform="rotate(7.99667 57.2404 89.3984)" fill="#A90014"/>
<rect x="56.7317" y="93.0195" width="51.8837" height="3.62237" rx="1" transform="rotate(7.99667 56.7317 93.0195)" fill="#392958"/>
<path d="M21.5018 80.0801C21.6297 79.5962 22.0934 79.2871 22.5872 79.3565L34.5675 81.0396C35.2307 81.1328 35.625 81.8455 35.3521 82.4578L33.507 86.597L32.2068 91.1022C32.0515 91.6402 31.4873 91.9386 30.9554 91.764L21.5948 88.6922C21.2104 88.5661 20.936 88.2196 20.8995 87.8143L20.5488 83.9235C20.5382 83.8061 20.5481 83.6879 20.5781 83.5745L21.5018 80.0801Z" fill="#392958"/>
<path d="M148.678 98.4074C148.815 97.8218 148.412 97.2569 147.817 97.1999L132.272 95.7095C131.612 95.6462 131.064 96.2347 131.175 96.8886L131.923 101.315C131.933 101.371 131.937 101.427 131.937 101.484L131.925 106.103C131.924 106.657 132.373 107.1 132.927 107.089L144.841 106.858C145.211 106.851 145.551 106.639 145.723 106.308L147.681 102.548C147.72 102.472 147.75 102.392 147.769 102.309L148.678 98.4074Z" fill="#392958"/>
<rect x="57.3831" y="88.3828" width="51.8837" height="1.89802" rx="0.949008" transform="rotate(7.99667 57.3831 88.3828)" fill="#392958"/>
<rect width="15.8707" height="1.89796" rx="0.948978" transform="matrix(0.993659 0.112439 -0.11503 0.993362 126.099 85.5273)" fill="#392958"/>
<rect x="84.6675" y="77.2266" width="7.62722" height="2.76712" rx="1" transform="rotate(7.99667 84.6675 77.2266)" fill="#392958"/>
<rect x="51.9955" y="77.125" width="4.89804" height="2.76712" rx="1" transform="rotate(7.99667 51.9955 77.125)" fill="#F2C94C"/>
<rect width="5.65212" height="2.63888" rx="1" transform="matrix(-0.379159 0.925332 -0.915353 -0.402652 26.8158 74.2812)" fill="#F2C94C"/>
<rect x="144.04" y="96.1484" width="10.2263" height="3.87191" rx="1" transform="rotate(-82.0033 144.04 96.1484)" fill="#F2C94C"/>
<rect x="112.267" y="81.1055" width="7.62722" height="2.76712" rx="1" transform="rotate(7.99667 112.267 81.1055)" fill="#392958"/>
<rect x="96.986" y="73.3281" width="21.8769" height="2.35789" rx="1" transform="rotate(97.9967 96.986 73.3281)" fill="#392958"/>
<path d="M65.8654 71.7336L60.6478 81.6673L59.5757 89.2988" stroke="#392958" stroke-width="1.5"/>
<path d="M126.028 80.1852L120.608 87.6303L115.821 88.05C111.327 88.4441 107.7 91.8873 107.072 96.3547V96.3547" stroke="#392958" stroke-width="1.5"/>
<defs>
<filter id="filter0_i_2136_6451" x="104.687" y="17.332" width="24.379" height="19.9375" filterUnits="userSpaceOnUse" color-interpolation-filters="sRGB">
<feFlood flood-opacity="0" result="BackgroundImageFix"/>
<feBlend mode="normal" in="SourceGraphic" in2="BackgroundImageFix" result="shape"/>
<feColorMatrix in="SourceAlpha" type="matrix" values="0 0 0 0 0 0 0 0 0 0 0 0 0 0 0 0 0 0 127 0" result="hardAlpha"/>
<feOffset dx="1.5" dy="1.5"/>
<feComposite in2="hardAlpha" operator="arithmetic" k2="-1" k3="1"/>
<feColorMatrix type="matrix" values="0 0 0 0 1 0 0 0 0 1 0 0 0 0 1 0 0 0 1 0"/>
<feBlend mode="normal" in2="shape" result="effect1_innerShadow_2136_6451"/>
</filter>
<filter id="filter1_d_2136_6451" x="107.757" y="50.3984" width="7.27759" height="4.38672" filterUnits="userSpaceOnUse" color-interpolation-filters="sRGB">
<feFlood flood-opacity="0" result="BackgroundImageFix"/>
<feColorMatrix in="SourceAlpha" type="matrix" values="0 0 0 0 0 0 0 0 0 0 0 0 0 0 0 0 0 0 127 0" result="hardAlpha"/>
<feOffset dx="1" dy="1"/>
<feComposite in2="hardAlpha" operator="out"/>
<feColorMatrix type="matrix" values="0 0 0 0 0 0 0 0 0 0 0 0 0 0 0 0 0 0 0.25 0"/>
<feBlend mode="normal" in2="BackgroundImageFix" result="effect1_dropShadow_2136_6451"/>
<feBlend mode="normal" in="SourceGraphic" in2="effect1_dropShadow_2136_6451" result="shape"/>
</filter>
<filter id="filter2_d_2136_6451" x="116.976" y="50.6133" width="7.27759" height="4.38672" filterUnits="userSpaceOnUse" color-interpolation-filters="sRGB">
<feFlood flood-opacity="0" result="BackgroundImageFix"/>
<feColorMatrix in="SourceAlpha" type="matrix" values="0 0 0 0 0 0 0 0 0 0 0 0 0 0 0 0 0 0 127 0" result="hardAlpha"/>
<feOffset dx="1" dy="1"/>
<feComposite in2="hardAlpha" operator="out"/>
<feColorMatrix type="matrix" values="0 0 0 0 0 0 0 0 0 0 0 0 0 0 0 0 0 0 0.25 0"/>
<feBlend mode="normal" in2="BackgroundImageFix" result="effect1_dropShadow_2136_6451"/>
<feBlend mode="normal" in="SourceGraphic" in2="effect1_dropShadow_2136_6451" result="shape"/>
</filter>
<filter id="filter3_d_2136_6451" x="107.283" y="54.9492" width="7.27759" height="4.38672" filterUnits="userSpaceOnUse" color-interpolation-filters="sRGB">
<feFlood flood-opacity="0" result="BackgroundImageFix"/>
<feColorMatrix in="SourceAlpha" type="matrix" values="0 0 0 0 0 0 0 0 0 0 0 0 0 0 0 0 0 0 127 0" result="hardAlpha"/>
<feOffset dx="1" dy="1"/>
<feComposite in2="hardAlpha" operator="out"/>
<feColorMatrix type="matrix" values="0 0 0 0 0 0 0 0 0 0 0 0 0 0 0 0 0 0 0.25 0"/>
<feBlend mode="normal" in2="BackgroundImageFix" result="effect1_dropShadow_2136_6451"/>
<feBlend mode="normal" in="SourceGraphic" in2="effect1_dropShadow_2136_6451" result="shape"/>
</filter>
<filter id="filter4_d_2136_6451" x="116.501" y="55.1602" width="7.27759" height="4.38672" filterUnits="userSpaceOnUse" color-interpolation-filters="sRGB">
<feFlood flood-opacity="0" result="BackgroundImageFix"/>
<feColorMatrix in="SourceAlpha" type="matrix" values="0 0 0 0 0 0 0 0 0 0 0 0 0 0 0 0 0 0 127 0" result="hardAlpha"/>
<feOffset dx="1" dy="1"/>
<feComposite in2="hardAlpha" operator="out"/>
<feColorMatrix type="matrix" values="0 0 0 0 0 0 0 0 0 0 0 0 0 0 0 0 0 0 0.25 0"/>
<feBlend mode="normal" in2="BackgroundImageFix" result="effect1_dropShadow_2136_6451"/>
<feBlend mode="normal" in="SourceGraphic" in2="effect1_dropShadow_2136_6451" result="shape"/>
</filter>
<filter id="filter5_d_2136_6451" x="106.581" y="59.3125" width="7.27759" height="4.38672" filterUnits="userSpaceOnUse" color-interpolation-filters="sRGB">
<feFlood flood-opacity="0" result="BackgroundImageFix"/>
<feColorMatrix in="SourceAlpha" type="matrix" values="0 0 0 0 0 0 0 0 0 0 0 0 0 0 0 0 0 0 127 0" result="hardAlpha"/>
<feOffset dx="1" dy="1"/>
<feComposite in2="hardAlpha" operator="out"/>
<feColorMatrix type="matrix" values="0 0 0 0 0 0 0 0 0 0 0 0 0 0 0 0 0 0 0.25 0"/>
<feBlend mode="normal" in2="BackgroundImageFix" result="effect1_dropShadow_2136_6451"/>
<feBlend mode="normal" in="SourceGraphic" in2="effect1_dropShadow_2136_6451" result="shape"/>
</filter>
<filter id="filter6_d_2136_6451" x="115.334" y="59.6758" width="7.27759" height="4.38672" filterUnits="userSpaceOnUse" color-interpolation-filters="sRGB">
<feFlood flood-opacity="0" result="BackgroundImageFix"/>
<feColorMatrix in="SourceAlpha" type="matrix" values="0 0 0 0 0 0 0 0 0 0 0 0 0 0 0 0 0 0 127 0" result="hardAlpha"/>
<feOffset dx="1" dy="1"/>
<feComposite in2="hardAlpha" operator="out"/>
<feColorMatrix type="matrix" values="0 0 0 0 0 0 0 0 0 0 0 0 0 0 0 0 0 0 0.25 0"/>
<feBlend mode="normal" in2="BackgroundImageFix" result="effect1_dropShadow_2136_6451"/>
<feBlend mode="normal" in="SourceGraphic" in2="effect1_dropShadow_2136_6451" result="shape"/>
</filter>
<filter id="filter7_d_2136_6451" x="105.92" y="64.0898" width="7.27759" height="4.38672" filterUnits="userSpaceOnUse" color-interpolation-filters="sRGB">
<feFlood flood-opacity="0" result="BackgroundImageFix"/>
<feColorMatrix in="SourceAlpha" type="matrix" values="0 0 0 0 0 0 0 0 0 0 0 0 0 0 0 0 0 0 127 0" result="hardAlpha"/>
<feOffset dx="1" dy="1"/>
<feComposite in2="hardAlpha" operator="out"/>
<feColorMatrix type="matrix" values="0 0 0 0 0 0 0 0 0 0 0 0 0 0 0 0 0 0 0.25 0"/>
<feBlend mode="normal" in2="BackgroundImageFix" result="effect1_dropShadow_2136_6451"/>
<feBlend mode="normal" in="SourceGraphic" in2="effect1_dropShadow_2136_6451" result="shape"/>
</filter>
<filter id="filter8_d_2136_6451" x="113.925" y="64.4688" width="7.27759" height="4.38672" filterUnits="userSpaceOnUse" color-interpolation-filters="sRGB">
<feFlood flood-opacity="0" result="BackgroundImageFix"/>
<feColorMatrix in="SourceAlpha" type="matrix" values="0 0 0 0 0 0 0 0 0 0 0 0 0 0 0 0 0 0 127 0" result="hardAlpha"/>
<feOffset dx="1" dy="1"/>
<feComposite in2="hardAlpha" operator="out"/>
<feColorMatrix type="matrix" values="0 0 0 0 0 0 0 0 0 0 0 0 0 0 0 0 0 0 0.25 0"/>
<feBlend mode="normal" in2="BackgroundImageFix" result="effect1_dropShadow_2136_6451"/>
<feBlend mode="normal" in="SourceGraphic" in2="effect1_dropShadow_2136_6451" result="shape"/>
</filter>
<filter id="filter9_d_2136_6451" x="98.5487" y="62.793" width="6.37366" height="4.40234" filterUnits="userSpaceOnUse" color-interpolation-filters="sRGB">
<feFlood flood-opacity="0" result="BackgroundImageFix"/>
<feColorMatrix in="SourceAlpha" type="matrix" values="0 0 0 0 0 0 0 0 0 0 0 0 0 0 0 0 0 0 127 0" result="hardAlpha"/>
<feOffset dx="1" dy="1"/>
<feComposite in2="hardAlpha" operator="out"/>
<feColorMatrix type="matrix" values="0 0 0 0 0 0 0 0 0 0 0 0 0 0 0 0 0 0 0.25 0"/>
<feBlend mode="normal" in2="BackgroundImageFix" result="effect1_dropShadow_2136_6451"/>
<feBlend mode="normal" in="SourceGraphic" in2="effect1_dropShadow_2136_6451" result="shape"/>
</filter>
<filter id="filter10_d_2136_6451" x="98.7699" y="58.3203" width="6.37366" height="4.40234" filterUnits="userSpaceOnUse" color-interpolation-filters="sRGB">
<feFlood flood-opacity="0" result="BackgroundImageFix"/>
<feColorMatrix in="SourceAlpha" type="matrix" values="0 0 0 0 0 0 0 0 0 0 0 0 0 0 0 0 0 0 127 0" result="hardAlpha"/>
<feOffset dx="1" dy="1"/>
<feComposite in2="hardAlpha" operator="out"/>
<feColorMatrix type="matrix" values="0 0 0 0 0 0 0 0 0 0 0 0 0 0 0 0 0 0 0.25 0"/>
<feBlend mode="normal" in2="BackgroundImageFix" result="effect1_dropShadow_2136_6451"/>
<feBlend mode="normal" in="SourceGraphic" in2="effect1_dropShadow_2136_6451" result="shape"/>
</filter>
<filter id="filter11_d_2136_6451" x="99.275" y="53.9609" width="6.37366" height="4.40234" filterUnits="userSpaceOnUse" color-interpolation-filters="sRGB">
<feFlood flood-opacity="0" result="BackgroundImageFix"/>
<feColorMatrix in="SourceAlpha" type="matrix" values="0 0 0 0 0 0 0 0 0 0 0 0 0 0 0 0 0 0 127 0" result="hardAlpha"/>
<feOffset dx="1" dy="1"/>
<feComposite in2="hardAlpha" operator="out"/>
<feColorMatrix type="matrix" values="0 0 0 0 0 0 0 0 0 0 0 0 0 0 0 0 0 0 0.25 0"/>
<feBlend mode="normal" in2="BackgroundImageFix" result="effect1_dropShadow_2136_6451"/>
<feBlend mode="normal" in="SourceGraphic" in2="effect1_dropShadow_2136_6451" result="shape"/>
</filter>
<filter id="filter12_d_2136_6451" x="100.04" y="48.8633" width="6.37366" height="4.40234" filterUnits="userSpaceOnUse" color-interpolation-filters="sRGB">
<feFlood flood-opacity="0" result="BackgroundImageFix"/>
<feColorMatrix in="SourceAlpha" type="matrix" values="0 0 0 0 0 0 0 0 0 0 0 0 0 0 0 0 0 0 127 0" result="hardAlpha"/>
<feOffset dx="1" dy="1"/>
<feComposite in2="hardAlpha" operator="out"/>
<feColorMatrix type="matrix" values="0 0 0 0 0 0 0 0 0 0 0 0 0 0 0 0 0 0 0.25 0"/>
<feBlend mode="normal" in2="BackgroundImageFix" result="effect1_dropShadow_2136_6451"/>
<feBlend mode="normal" in="SourceGraphic" in2="effect1_dropShadow_2136_6451" result="shape"/>
</filter>
<filter id="filter13_i_2136_6451" x="69.1982" y="61.0273" width="70.3623" height="21.1875" filterUnits="userSpaceOnUse" color-interpolation-filters="sRGB">
<feFlood flood-opacity="0" result="BackgroundImageFix"/>
<feBlend mode="normal" in="SourceGraphic" in2="BackgroundImageFix" result="shape"/>
<feColorMatrix in="SourceAlpha" type="matrix" values="0 0 0 0 0 0 0 0 0 0 0 0 0 0 0 0 0 0 127 0" result="hardAlpha"/>
<feOffset dx="2" dy="3"/>
<feComposite in2="hardAlpha" operator="arithmetic" k2="-1" k3="1"/>
<feColorMatrix type="matrix" values="0 0 0 0 0.956863 0 0 0 0 0.976471 0 0 0 0 0.988235 0 0 0 1 0"/>
<feBlend mode="normal" in2="shape" result="effect1_innerShadow_2136_6451"/>
</filter>
<radialGradient id="paint0_radial_2136_6451" cx="0" cy="0" r="1" gradientUnits="userSpaceOnUse" gradientTransform="translate(28.9072 81.095) rotate(14.7446) scale(112.998 116.85)">
<stop stop-color="#FF6E40"/>
<stop offset="0.55445" stop-color="#FC4F38"/>
<stop offset="1" stop-color="#EC5500"/>
</radialGradient>
<linearGradient id="paint1_linear_2136_6451" x1="52.8505" y1="34.2305" x2="52.8505" y2="74.171" gradientUnits="userSpaceOnUse">
<stop stop-color="#864327"/>
<stop offset="1" stop-color="#A7543A"/>
</linearGradient>
</defs>
</svg>
