<svg width="166" height="152" viewBox="0 0 166 152" fill="none" xmlns="http://www.w3.org/2000/svg">
<path fill-rule="evenodd" clip-rule="evenodd" d="M20.5845 88.5936C18.4276 23.4403 46.9548 5.74908 106.166 35.5204C165.377 65.2918 166.455 97.8682 109.401 133.251C52.3468 168.633 22.7414 153.747 20.5845 88.5936Z" fill="url(#paint0_radial_2136_6659)"/>
<g filter="url(#filter0_d_2136_6659)">
<path d="M120.712 28.2681L120.712 28.2681L120.719 28.26C122.359 26.3035 124.262 25.3888 126.527 24.5729C132.934 22.265 138.502 25.4672 142.63 27.8802C145.754 29.6902 147.78 32.9989 148.223 36.4755L148.224 36.4793L149.76 48.715C149.76 48.7152 149.76 48.7155 149.76 48.7157C150.089 51.3156 149.292 54.0015 147.546 55.9828C147.545 55.9844 147.544 55.986 147.542 55.9876L140.819 63.6986L115.129 124.15C114.303 126.093 112.199 127.295 110.01 126.726C108.509 126.335 106.639 125.797 105.221 125.38C103.001 124.726 101.619 122.534 101.987 120.244C103.48 110.939 109.237 75.0407 112.204 56.0211L110.213 46.4471C109.648 43.7335 110.349 40.788 112.145 38.6443C114.993 35.1801 117.849 31.7207 120.712 28.2681Z" fill="#111827" stroke="white" stroke-width="4"/>
<path d="M114.237 55.9683C114.237 55.9683 105.464 111.197 103.961 120.559C103.753 121.857 104.533 123.091 105.786 123.459C107.2 123.875 109.045 124.406 110.514 124.788C111.669 125.089 112.819 124.47 113.288 123.366L139.102 62.6221L114.237 55.9683Z" fill="#374151"/>
<path d="M114.236 55.9705C114.236 55.9705 105.464 111.199 103.961 120.562C103.753 121.859 104.533 123.093 105.786 123.461C106.585 123.697 108.452 124.23 108.452 124.23L126.669 59.2974L114.236 55.9705Z" fill="#4B5563"/>
<path d="M124.91 70.4599C124.766 70.357 124.613 70.2688 124.451 70.1955C123.499 69.7415 122.39 69.7373 121.428 70.1756C120.459 70.618 119.737 71.4565 119.44 72.4771L114.207 90.3562C113.928 91.3235 114.043 92.3298 114.534 93.1933C115.021 94.0621 115.817 94.6738 116.769 94.9203L116.78 94.9239L116.947 94.9681C117.868 95.2075 118.796 95.0755 119.563 94.6612C120.401 94.2093 121.056 93.4243 121.339 92.4278L126.405 74.5045C126.846 72.9407 126.227 71.3197 124.91 70.4599ZM125.646 74.2882L120.579 92.2115C120.159 93.7206 118.643 94.5922 117.136 94.2029L117.024 94.173L116.981 94.1597C116.225 93.9645 115.601 93.488 115.218 92.8038C114.832 92.125 114.74 91.3308 114.959 90.5833L120.189 72.699C120.404 71.9634 120.905 71.3454 121.577 70.9827C121.631 70.9534 121.692 70.9305 121.746 70.9012C122.499 70.5588 123.367 70.5658 124.115 70.9159C124.307 71.0095 124.484 71.1116 124.65 71.2363C125.567 71.9371 125.969 73.136 125.646 74.2882Z" fill="white"/>
<path d="M119.193 90.3893C119.925 89.9941 120.202 89.0758 119.811 88.3382C119.42 87.6005 118.51 87.3229 117.777 87.7181C117.045 88.1132 116.768 89.0316 117.159 89.7692C117.55 90.5069 118.46 90.7845 119.193 90.3893Z" fill="white"/>
<path d="M122.814 77.5417C123.547 77.1465 123.823 76.2281 123.433 75.4905C123.042 74.7529 122.131 74.4752 121.399 74.8704C120.666 75.2656 120.389 76.1839 120.78 76.9216C121.171 77.6592 122.082 77.9368 122.814 77.5417Z" fill="white"/>
<path d="M115.93 119.036L115.634 119.79L109.892 118.58L104.131 117.368L104.289 116.577L110.103 117.805L115.93 119.036Z" fill="white"/>
<path d="M127.921 25.9964C127.056 27.0036 125.772 29.1507 124.96 30.2011C124.857 30.3367 124.753 30.4657 124.645 30.6069C123.885 31.5882 123.141 32.5973 122.42 33.6099C122.332 33.7363 122.25 33.8622 122.161 33.9886C120.949 35.718 119.804 37.4896 118.712 39.3111C118.633 39.442 118.556 39.5715 118.477 39.7024C117.957 40.5753 117.454 41.4547 116.965 42.3528C116.866 42.5238 116.766 42.6948 116.671 42.8734L116.325 42.6782C116.389 42.5564 116.456 42.4397 116.522 42.3164C117.006 41.428 117.514 40.5455 118.031 39.6782C118.106 39.5397 118.175 39.4149 118.258 39.2915C119.35 37.4701 120.494 35.6893 121.705 33.964C121.793 33.8375 121.875 33.7116 121.964 33.5852C122.673 32.5803 123.408 31.5865 124.161 30.6097C124.257 30.4787 124.359 30.3406 124.463 30.2115C125.236 29.2053 126.48 27.0999 127.305 26.1345C127.508 26.0728 127.712 26.0308 127.921 25.9964Z" fill="white"/>
<path d="M131.726 25.3474C131.006 26.4144 129.601 29.2583 128.937 30.3565C128.859 30.4875 128.779 30.6119 128.708 30.7383C128.044 31.8364 127.409 32.9349 126.797 34.0566C126.721 34.1755 126.659 34.2998 126.595 34.4216C125.658 36.1488 124.766 37.9041 123.923 39.6846C123.863 39.8139 123.804 39.9433 123.74 40.0717C123.285 41.0428 122.845 42.0219 122.427 43.0086C122.323 43.2475 122.225 43.4834 122.122 43.7223L121.755 43.5671C121.841 43.3561 121.93 43.1567 122.028 42.9487C122.439 41.9667 122.874 40.9906 123.326 40.0316C123.385 39.9023 123.445 39.7729 123.508 39.6445C124.344 37.858 125.232 36.1058 126.176 34.374C126.24 34.2522 126.307 34.1182 126.383 33.9994C126.991 32.8898 127.617 31.7868 128.269 30.7029C128.34 30.5765 128.416 30.447 128.503 30.3287C129.169 29.2183 130.571 26.3694 131.284 25.2963C131.428 25.3083 131.577 25.3279 131.726 25.3474Z" fill="white"/>
<path d="M136.293 26.708C135.757 27.7111 134.647 30.0619 134.135 31.0881C134.071 31.21 134.012 31.3393 133.945 31.4627C133.378 32.6128 132.828 33.7627 132.297 34.9283C132.238 35.0471 132.179 35.1765 132.13 35.3063C131.338 37.0286 130.594 38.7759 129.882 40.5419C129.828 40.6682 129.776 40.793 129.732 40.9198C129.287 42.0161 128.867 43.1209 128.46 44.2287C128.374 44.4398 128.299 44.6513 128.223 44.8628L127.856 44.7247C127.927 44.5229 128.006 44.3296 128.082 44.1353C128.484 43.0306 128.9 41.9354 129.337 40.8437C129.384 40.722 129.436 40.5972 129.492 40.4734C130.194 38.7029 130.947 36.96 131.735 35.2302C131.787 35.0988 131.841 34.9791 131.905 34.8572C132.431 33.6841 132.979 32.5291 133.55 31.3866C133.605 31.2603 133.669 31.1384 133.733 31.0166C134.249 29.9807 135.36 27.6193 135.903 26.5944C136.031 26.6262 136.165 26.6656 136.293 26.708Z" fill="white"/>
<path d="M140.834 28.3807C140.598 29.2732 139.901 31.6849 139.633 32.5521C139.601 32.6819 139.559 32.8113 139.518 32.9259C139.148 34.1142 138.754 35.2966 138.332 36.4613C138.289 36.5881 138.242 36.7099 138.199 36.8392C137.557 38.6011 136.853 40.3521 136.1 42.078C136.041 42.1968 135.989 42.3217 135.93 42.4404C135.404 43.631 134.849 44.8015 134.262 45.9639C134.156 46.1873 134.046 46.399 133.936 46.6147L133.586 46.4315C133.686 46.2325 133.792 46.037 133.884 45.8426C134.471 44.6802 135.027 43.5097 135.553 42.3191C135.612 42.2004 135.661 42.0877 135.715 41.9613C136.475 40.2415 137.175 38.4895 137.814 36.7225C137.869 36.5962 137.91 36.4709 137.952 36.3416C138.381 35.1722 138.773 33.9914 139.138 32.8061C139.185 32.6844 139.221 32.5621 139.253 32.4324C139.528 31.5433 140.23 29.1113 140.474 28.2037C140.603 28.2527 140.723 28.3169 140.834 28.3807Z" fill="white"/>
<path d="M144.299 31.5911C144.241 31.9683 144.093 33.8585 144.017 34.2398C144.002 34.3696 143.975 34.507 143.946 34.6419C143.732 35.8456 143.491 37.0383 143.229 38.2236C143.205 38.3488 143.17 38.4802 143.139 38.61C142.718 40.4682 142.234 42.3065 141.687 44.138C141.643 44.2648 141.609 44.3896 141.577 44.5195C141.18 45.8178 140.757 47.101 140.3 48.3778C140.244 48.5599 140.177 48.7391 140.11 48.9182L139.742 48.7801C139.813 48.5888 139.88 48.4096 139.936 48.2169C140.391 46.9416 140.815 45.6543 141.206 44.3631C141.245 44.2287 141.28 44.1039 141.324 43.977C141.862 42.1502 142.348 40.3079 142.767 38.4537C142.792 38.3284 142.826 38.1971 142.858 38.0672C143.123 36.8698 143.357 35.6711 143.567 34.473C143.594 34.3355 143.621 34.1981 143.636 34.0684C143.721 33.5988 143.888 31.6143 143.963 31.1443C144.081 31.2897 144.188 31.4346 144.299 31.5911Z" fill="white"/>
<path d="M145.792 34.8651C145.869 35.039 145.943 35.225 146.016 35.4045C145.553 35.1803 144.404 34.8288 143.935 34.6249C143.814 34.5606 143.689 34.506 143.56 34.457C142.239 33.8766 140.883 33.3628 139.514 32.9148C139.389 32.8708 139.265 32.836 139.139 32.792C137.43 32.2555 135.7 31.8042 133.947 31.47C133.807 31.4352 133.683 31.4109 133.554 31.3963C131.95 31.0923 130.333 30.8755 128.716 30.7555C128.571 30.7435 128.426 30.729 128.274 30.7216C127.069 30.6431 125.855 30.6078 124.654 30.6377C124.49 30.6273 124.329 30.6327 124.167 30.638C124.123 30.6377 124.087 30.6419 124.04 30.6431C123.258 30.6691 122.02 30.7694 121.157 30.8722L120.789 30.6562C120.821 30.6191 121.874 30.4132 121.914 30.3821C122.648 30.3032 123.37 30.2689 124.038 30.2511C124.182 30.2458 124.326 30.2406 124.475 30.2429C124.644 30.233 124.808 30.2328 124.974 30.2351C126.151 30.2204 127.328 30.2575 128.512 30.3481C128.654 30.3551 128.805 30.3625 128.951 30.377C130.555 30.5088 132.153 30.7231 133.742 31.0297C133.873 31.0494 134.011 31.0791 134.143 31.0988C135.875 31.4452 137.581 31.884 139.26 32.4217C139.386 32.4656 139.509 32.5005 139.635 32.5445C140.991 32.9829 142.323 33.4907 143.637 34.0585C143.762 34.1131 143.89 34.1728 144.011 34.2264C144.375 34.3807 145.423 34.6901 145.792 34.8651Z" fill="white"/>
<path d="M146.815 39.8802L146.874 40.3445C145.879 39.8512 144.185 39.0284 143.138 38.5951C143.012 38.5405 142.889 38.4884 142.77 38.4398C142.129 38.1824 141.483 37.9321 140.826 37.6946C139.97 37.3861 139.091 37.0979 138.202 36.8265C138.076 36.7825 137.945 36.7522 137.819 36.7082C135.996 36.1651 134.104 35.7018 132.135 35.3139C132.006 35.2821 131.87 35.2549 131.741 35.2403C130.088 34.9177 128.376 34.6517 126.603 34.4371C126.464 34.4221 126.313 34.4 126.181 34.391C125.1 34.2572 123.991 34.155 122.865 34.0661C122.635 34.0479 122.404 34.0338 122.166 34.0202C122.022 34.0082 121.868 33.9983 121.717 33.9909C121.717 33.9909 121.717 33.9909 121.709 33.9955C120.801 33.939 119.282 34.0787 118.368 34.0982L118.695 33.6949C119.59 33.6836 121.086 33.5511 121.967 33.6139C122.119 33.6213 122.272 33.6312 122.424 33.6386C122.587 33.649 122.738 33.6604 122.894 33.6754C124.089 33.7706 125.25 33.8832 126.384 34.0152C126.528 34.0271 126.669 34.0447 126.805 34.0719C128.565 34.281 130.266 34.5466 131.911 34.8672C132.043 34.8868 132.176 34.909 132.3 34.9332C134.263 35.3257 136.142 35.7967 137.956 36.3246C138.081 36.3686 138.21 36.4111 138.331 36.4475C139.225 36.7158 140.102 37.0121 140.958 37.3206C141.603 37.5552 142.234 37.7974 142.855 38.0498C142.98 38.1044 143.1 38.149 143.222 38.2051C144.227 38.6234 145.872 39.4105 146.815 39.8802Z" fill="white"/>
<path d="M148.083 46.9963L148.137 47.4701C146.344 46.5019 143.471 45.3052 141.593 44.4989C141.475 44.4397 141.351 44.3876 141.226 44.3436C140.393 43.9828 139.551 43.6478 138.693 43.3367C137.795 43.0051 136.889 42.6993 135.952 42.4225C135.831 42.3861 135.702 42.3437 135.577 42.2997C133.714 41.7532 131.779 41.2987 129.757 40.9257C129.621 40.8985 129.495 40.8718 129.363 40.8521C127.574 40.5302 125.713 40.279 123.772 40.0875C123.633 40.0725 123.495 40.0534 123.353 40.0464C121.789 39.9008 120.174 39.7964 118.503 39.7338C118.358 39.7218 118.21 39.7195 118.056 39.7095C116.828 39.6661 114.729 39.6221 113.428 39.6297L113.752 39.2387C115.017 39.2327 117.075 39.284 118.276 39.3271C118.283 39.3225 118.283 39.3225 118.283 39.3225C118.435 39.3299 118.588 39.3398 118.737 39.3421C120.396 39.4124 121.992 39.5184 123.536 39.6591C123.68 39.6711 123.821 39.6886 123.954 39.7002C125.89 39.8947 127.741 40.152 129.518 40.4816C129.647 40.4962 129.771 40.5204 129.907 40.5476C131.934 40.9282 133.873 41.3903 135.739 41.9418C135.868 41.9736 135.996 42.0161 136.122 42.0601C137.043 42.3394 137.945 42.6376 138.827 42.9612C139.677 43.2744 140.51 43.6073 141.344 43.9575C141.464 44.0046 141.588 44.0567 141.706 44.1159C143.523 44.9007 146.341 46.0688 148.083 46.9963Z" fill="white"/>
<path d="M147.422 52.3207C147.37 52.594 147.296 52.8705 147.197 53.1345C132.921 44.2821 118.431 42.9765 112.082 43.006C112.172 42.7335 112.286 42.4669 112.418 42.2003C119.01 42.2158 133.307 43.6393 147.422 52.3207Z" fill="white"/>
</g>
<path d="M12.8767 67.3803L29.6261 63.5449C29.8746 63.488 30.0405 63.2532 30.0112 63L26.9529 36.5815C26.5411 33.025 31.1028 31.2177 33.2386 34.091L64.8648 76.6382C66.549 78.9041 64.9954 82.1291 62.1738 82.2242L41.1571 82.933C40.8435 82.9435 40.617 83.237 40.6863 83.5431L46.6281 109.782C47.4637 113.472 42.6626 115.679 40.4055 112.643L10.8489 72.88C9.34165 70.8522 10.4138 67.9443 12.8767 67.3803Z" fill="#C2D72F" stroke="white" stroke-width="3" stroke-linejoin="round"/>
<g filter="url(#filter1_d_2136_6659)">
<path d="M65.9422 118.179L65.9946 118.205L66.0485 118.229C70.8754 120.309 76.2115 120.475 80.9845 119.926C85.7312 119.381 90.0825 118.11 93.0939 117.132C100.932 115.267 116.209 106.369 116.209 85.5176C116.209 64.4393 106.033 51.9799 99.2274 43.646C97.8122 41.913 96.5427 40.3585 95.5406 38.9419C90.5549 31.8942 85.5905 24.1791 83.9402 18.312C83.5308 16.8566 82.376 15.8598 81.1578 15.4671C79.914 15.0661 78.2524 15.2108 77.1212 16.5539C71.9742 22.6648 64.8399 33.8194 64.8399 45.4406C64.8399 48.8604 64.3214 51.6411 63.562 53.7218C62.7894 55.8388 61.8228 57.0882 61.0412 57.6527C60.345 58.1555 59.9879 58.0379 59.7291 57.8626C59.2674 57.55 58.5026 56.5707 58.0428 54.2334C57.7343 52.6654 56.5708 51.5588 55.2736 51.1542C53.9302 50.7353 52.2193 51.0297 51.1811 52.5278C45.5698 60.6251 40.2316 72.4244 40.8369 84.5786C41.4521 96.9316 48.1897 109.262 65.9422 118.179Z" fill="white" stroke="white" stroke-width="4"/>
<path d="M66.8399 45.4406C66.8399 34.5385 73.5966 23.8431 78.6509 17.8423C79.6227 16.6884 81.6064 17.4013 82.0149 18.8536C83.7734 25.1052 88.9527 33.0924 93.9078 40.097C99.998 48.7061 114.209 60.8777 114.209 85.5176C114.209 100.396 105.984 108.769 98.8471 112.703C97.2956 113.559 95.1875 110.948 95.4718 109.199C96.1757 104.869 94.9065 98.8623 87.8176 92.6424C81.9473 87.4918 80.8837 81.3913 81.5678 76.4598C81.8187 74.6513 79.3182 72.7052 77.9791 73.9464C69.6489 81.6673 67.6466 89.9579 67.9339 95.7355C68.0087 97.24 66.0142 98.5941 64.7932 97.7119C63.9618 97.1111 62.785 97.4896 62.5348 98.4844C61.3277 103.284 61.8218 107.305 62.9314 110.373C63.2748 111.322 61.3895 113.339 60.5445 112.787C33.7215 95.2373 42.6042 68.4156 52.825 53.667C53.7345 52.3546 55.7722 53.0527 56.0804 54.6195C58.0858 64.8127 66.8399 59.8981 66.8399 45.4406Z" fill="#FF4056"/>
</g>
<defs>
<filter id="filter0_d_2136_6659" x="82" y="15" width="90.0154" height="121.227" filterUnits="userSpaceOnUse" color-interpolation-filters="sRGB">
<feFlood flood-opacity="0" result="BackgroundImageFix"/>
<feColorMatrix in="SourceAlpha" type="matrix" values="0 0 0 0 0 0 0 0 0 0 0 0 0 0 0 0 0 0 127 0" result="hardAlpha"/>
<feOffset dx="3" dy="1"/>
<feGaussianBlur stdDeviation="2"/>
<feComposite in2="hardAlpha" operator="out"/>
<feColorMatrix type="matrix" values="0 0 0 0 0.858333 0 0 0 0 0.146632 0 0 0 0 0.228608 0 0 0 0.15 0"/>
<feBlend mode="normal" in2="BackgroundImageFix" result="effect1_dropShadow_2136_6659"/>
<feBlend mode="normal" in="SourceGraphic" in2="effect1_dropShadow_2136_6659" result="shape"/>
</filter>
<filter id="filter1_d_2136_6659" x="36" y="8" width="91" height="122" filterUnits="userSpaceOnUse" color-interpolation-filters="sRGB">
<feFlood flood-opacity="0" result="BackgroundImageFix"/>
<feColorMatrix in="SourceAlpha" type="matrix" values="0 0 0 0 0 0 0 0 0 0 0 0 0 0 0 0 0 0 127 0" result="hardAlpha"/>
<feOffset dx="3" dy="1"/>
<feGaussianBlur stdDeviation="2"/>
<feComposite in2="hardAlpha" operator="out"/>
<feColorMatrix type="matrix" values="0 0 0 0 0.858333 0 0 0 0 0.146632 0 0 0 0 0.228608 0 0 0 0.15 0"/>
<feBlend mode="normal" in2="BackgroundImageFix" result="effect1_dropShadow_2136_6659"/>
<feBlend mode="normal" in="SourceGraphic" in2="effect1_dropShadow_2136_6659" result="shape"/>
</filter>
<radialGradient id="paint0_radial_2136_6659" cx="0" cy="0" r="1" gradientUnits="userSpaceOnUse" gradientTransform="translate(55.9544 34.9569) rotate(74.7446) scale(112.998 116.85)">
<stop stop-color="#FF6E40"/>
<stop offset="0.55445" stop-color="#FC4F38"/>
<stop offset="1" stop-color="#EC5500"/>
</radialGradient>
</defs>
</svg>
