<svg width="179" height="149" viewBox="0 0 179 149" fill="none" xmlns="http://www.w3.org/2000/svg">
<path fill-rule="evenodd" clip-rule="evenodd" d="M148.188 76.5157C150.345 141.669 121.818 159.36 62.6069 129.589C3.39575 99.8176 2.31772 67.2412 59.3719 31.8588C116.426 -3.52315 146.031 11.3624 148.188 76.5157Z" fill="url(#paint0_radial_1928_8025)"/>
<g filter="url(#filter0_d_1928_8025)">
<mask id="path-2-outside-1_1928_8025" maskUnits="userSpaceOnUse" x="98.9194" y="28.0071" width="83.5714" height="101.333" fill="black">
<rect fill="white" x="98.9194" y="28.0071" width="83.5714" height="101.333"/>
<path fill-rule="evenodd" clip-rule="evenodd" d="M133.937 43.1356C132.307 45.0665 131.635 47.9365 130.291 53.6766L125.072 75.9686C123.728 81.7087 123.056 84.5787 123.66 87.0327C124.191 89.1912 125.392 91.1262 127.091 92.5603C128.238 93.529 129.717 94.1594 131.932 94.7934C131.893 94.9033 131.853 95.0182 131.811 95.1382L130.474 98.9499C129.975 99.0439 129.513 99.2806 129.144 99.6325C128.687 100.069 128.444 100.764 127.956 102.155L125.082 110.35C124.594 111.741 124.35 112.436 124.434 113.062C124.509 113.613 124.755 114.126 125.139 114.528C125.575 114.985 126.271 115.229 127.661 115.717L133.373 117.72C134.764 118.207 135.459 118.451 136.085 118.367C136.636 118.293 137.149 118.046 137.551 117.662C138.008 117.226 138.252 116.531 138.74 115.14L141.614 106.945C142.102 105.554 142.345 104.859 142.261 104.233C142.193 103.728 141.98 103.254 141.649 102.869L142.986 99.0575C143.204 98.4361 143.373 97.9535 143.486 97.5539C146.681 98.2395 148.696 98.4794 150.489 98.0382C152.648 97.507 154.583 96.3062 156.017 94.6077C157.647 92.6768 158.319 89.8068 159.663 84.0667L164.882 61.7747L164.882 61.7746C166.226 56.0346 166.898 53.1645 166.294 50.7106C165.763 48.552 164.562 46.617 162.863 45.1829C160.932 43.5526 158.062 42.8807 152.322 41.5369L150.529 41.117C144.789 39.7732 141.919 39.1013 139.465 39.7051C137.306 40.2362 135.371 41.4371 133.937 43.1356Z"/>
</mask>
<path fill-rule="evenodd" clip-rule="evenodd" d="M133.937 43.1356C132.307 45.0665 131.635 47.9365 130.291 53.6766L125.072 75.9686C123.728 81.7087 123.056 84.5787 123.66 87.0327C124.191 89.1912 125.392 91.1262 127.091 92.5603C128.238 93.529 129.717 94.1594 131.932 94.7934C131.893 94.9033 131.853 95.0182 131.811 95.1382L130.474 98.9499C129.975 99.0439 129.513 99.2806 129.144 99.6325C128.687 100.069 128.444 100.764 127.956 102.155L125.082 110.35C124.594 111.741 124.35 112.436 124.434 113.062C124.509 113.613 124.755 114.126 125.139 114.528C125.575 114.985 126.271 115.229 127.661 115.717L133.373 117.72C134.764 118.207 135.459 118.451 136.085 118.367C136.636 118.293 137.149 118.046 137.551 117.662C138.008 117.226 138.252 116.531 138.74 115.14L141.614 106.945C142.102 105.554 142.345 104.859 142.261 104.233C142.193 103.728 141.98 103.254 141.649 102.869L142.986 99.0575C143.204 98.4361 143.373 97.9535 143.486 97.5539C146.681 98.2395 148.696 98.4794 150.489 98.0382C152.648 97.507 154.583 96.3062 156.017 94.6077C157.647 92.6768 158.319 89.8068 159.663 84.0667L164.882 61.7747L164.882 61.7746C166.226 56.0346 166.898 53.1645 166.294 50.7106C165.763 48.552 164.562 46.617 162.863 45.1829C160.932 43.5526 158.062 42.8807 152.322 41.5369L150.529 41.117C144.789 39.7732 141.919 39.1013 139.465 39.7051C137.306 40.2362 135.371 41.4371 133.937 43.1356Z" fill="#C2D72F"/>
<path d="M130.291 53.6766L134.186 54.5884L130.291 53.6766ZM133.937 43.1356L130.881 40.555L133.937 43.1356ZM125.072 75.9686L128.967 76.8804L125.072 75.9686ZM123.66 87.0327L127.544 86.0769L123.66 87.0327ZM127.091 92.5603L129.671 89.5041L129.671 89.5041L127.091 92.5603ZM131.932 94.7934L135.705 96.1231L137.117 92.1165L133.033 90.9477L131.932 94.7934ZM131.811 95.1382L128.037 93.8144L128.037 93.8144L131.811 95.1382ZM130.474 98.9499L131.215 102.881L133.484 102.453L134.249 100.274L130.474 98.9499ZM129.144 99.6325L126.382 96.7394L126.382 96.7394L129.144 99.6325ZM127.956 102.155L131.73 103.479L127.956 102.155ZM125.082 110.35L128.856 111.674L125.082 110.35ZM124.434 113.062L120.47 113.596L120.47 113.596L124.434 113.062ZM125.139 114.528L122.246 117.29L122.246 117.29L125.139 114.528ZM127.661 115.717L126.338 119.491L126.338 119.491L127.661 115.717ZM133.373 117.72L134.697 113.945L134.697 113.945L133.373 117.72ZM136.085 118.367L136.619 122.331L136.619 122.331L136.085 118.367ZM137.551 117.662L140.313 120.556L140.313 120.556L137.551 117.662ZM138.74 115.14L134.965 113.816L138.74 115.14ZM141.614 106.945L145.388 108.269L141.614 106.945ZM142.261 104.233L146.225 103.699L146.225 103.699L142.261 104.233ZM141.649 102.869L137.874 101.545L137.11 103.725L138.615 105.476L141.649 102.869ZM142.986 99.0575L139.211 97.7337L139.211 97.7337L142.986 99.0575ZM143.486 97.5539L144.325 93.643L140.658 92.8561L139.637 96.4652L143.486 97.5539ZM150.489 98.0382L149.534 94.154L150.489 98.0382ZM156.017 94.6077L159.073 97.1883L159.073 97.1883L156.017 94.6077ZM159.663 84.0667L155.768 83.1549L159.663 84.0667ZM164.882 61.7747L160.989 60.8566L160.987 60.8629L164.882 61.7747ZM164.882 61.7746L168.775 62.6927L168.777 62.6864L164.882 61.7746ZM166.294 50.7106L162.41 51.6663L162.41 51.6663L166.294 50.7106ZM162.863 45.1829L160.283 48.2392L160.283 48.2392L162.863 45.1829ZM152.322 41.5369L153.234 37.6422L153.234 37.6422L152.322 41.5369ZM150.529 41.117L149.617 45.0117L150.529 41.117ZM139.465 39.7051L138.509 35.8209L138.509 35.8209L139.465 39.7051ZM134.186 54.5884C134.873 51.6541 135.336 49.6883 135.814 48.2035C136.278 46.7634 136.654 46.1174 136.993 45.7161L130.881 40.555C129.589 42.0846 128.815 43.8391 128.199 45.7517C127.597 47.6198 127.053 49.959 126.396 52.7648L134.186 54.5884ZM128.967 76.8804L134.186 54.5884L126.396 52.7648L121.177 75.0568L128.967 76.8804ZM127.544 86.0769C127.419 85.5669 127.368 84.8209 127.592 83.3245C127.823 81.7819 128.28 79.8147 128.967 76.8804L121.177 75.0568C120.521 77.8626 119.97 80.2005 119.68 82.1413C119.383 84.1286 119.298 86.0445 119.776 87.9884L127.544 86.0769ZM129.671 89.5041C128.618 88.6149 127.874 87.4152 127.544 86.0769L119.776 87.9884C120.509 90.9672 122.166 93.6375 124.51 95.6166L129.671 89.5041ZM133.033 90.9477C130.971 90.3579 130.158 89.9151 129.671 89.5041L124.51 95.6166C126.318 97.143 128.462 97.9609 130.832 98.639L133.033 90.9477ZM128.16 93.4636C128.12 93.577 128.078 93.695 128.037 93.8144L135.586 96.4621C135.628 96.3414 135.667 96.2296 135.705 96.1231L128.16 93.4636ZM128.037 93.8144L126.7 97.6261L134.249 100.274L135.586 96.4621L128.037 93.8144ZM129.734 95.0191C128.476 95.256 127.311 95.8524 126.382 96.7394L131.907 102.526C131.715 102.709 131.475 102.832 131.215 102.881L129.734 95.0191ZM126.382 96.7394C125.62 97.4674 125.187 98.28 124.907 98.909C124.646 99.4952 124.403 100.198 124.181 100.831L131.73 103.479C131.855 103.122 131.951 102.851 132.036 102.618C132.122 102.386 132.178 102.248 132.216 102.163C132.294 101.987 132.212 102.234 131.907 102.526L126.382 96.7394ZM124.181 100.831L121.307 109.026L128.856 111.674L131.73 103.479L124.181 100.831ZM121.307 109.026C121.085 109.659 120.836 110.36 120.674 110.981C120.499 111.647 120.329 112.551 120.47 113.596L128.399 112.528C128.455 112.947 128.365 113.191 128.413 113.005C128.437 112.914 128.48 112.771 128.558 112.537C128.636 112.302 128.731 112.03 128.856 111.674L121.307 109.026ZM120.47 113.596C120.657 114.984 121.279 116.277 122.246 117.29L128.032 111.766C128.232 111.975 128.36 112.242 128.399 112.528L120.47 113.596ZM122.246 117.29C122.974 118.053 123.786 118.485 124.415 118.765C125.002 119.026 125.704 119.269 126.338 119.491L128.985 111.942C128.629 111.817 128.357 111.721 128.125 111.636C127.893 111.55 127.755 111.494 127.669 111.456C127.494 111.378 127.74 111.46 128.032 111.766L122.246 117.29ZM126.338 119.491L132.049 121.494L134.697 113.945L128.985 111.942L126.338 119.491ZM132.049 121.494C132.682 121.716 133.383 121.965 134.004 122.128C134.67 122.302 135.574 122.472 136.619 122.331L135.551 114.403C135.97 114.346 136.214 114.437 136.028 114.388C135.937 114.364 135.794 114.322 135.56 114.244C135.325 114.165 135.053 114.07 134.697 113.945L132.049 121.494ZM136.619 122.331C138.007 122.144 139.3 121.523 140.313 120.556L134.789 114.769C134.998 114.57 135.265 114.441 135.551 114.403L136.619 122.331ZM140.313 120.556C141.076 119.828 141.508 119.015 141.788 118.386C142.049 117.8 142.292 117.097 142.514 116.464L134.965 113.816C134.84 114.172 134.745 114.444 134.659 114.677C134.574 114.909 134.518 115.047 134.48 115.132C134.401 115.308 134.483 115.061 134.789 114.769L140.313 120.556ZM142.514 116.464L145.388 108.269L137.839 105.621L134.965 113.816L142.514 116.464ZM145.388 108.269C145.61 107.636 145.86 106.935 146.022 106.314C146.196 105.648 146.366 104.744 146.225 103.699L138.297 104.767C138.241 104.348 138.331 104.104 138.282 104.29C138.258 104.381 138.216 104.524 138.138 104.758C138.059 104.993 137.964 105.265 137.839 105.621L145.388 108.269ZM146.225 103.699C146.054 102.426 145.517 101.233 144.683 100.262L138.615 105.476C138.443 105.276 138.332 105.03 138.297 104.767L146.225 103.699ZM145.424 104.193L146.76 100.381L139.211 97.7337L137.874 101.545L145.424 104.193ZM146.76 100.381C146.963 99.8044 147.181 99.1882 147.335 98.6427L139.637 96.4652C139.565 96.7189 139.445 97.0678 139.211 97.7337L146.76 100.381ZM149.534 94.154C148.729 94.352 147.541 94.3329 144.325 93.643L142.647 101.465C145.821 102.146 148.663 102.607 151.445 101.922L149.534 94.154ZM152.961 92.0272C152.072 93.0802 150.872 93.8247 149.534 94.154L151.445 101.922C154.424 101.189 157.094 99.5322 159.073 97.1883L152.961 92.0272ZM155.768 83.1549C155.082 86.0892 154.618 88.055 154.14 89.5397C153.676 90.9799 153.3 91.6258 152.961 92.0272L159.073 97.1883C160.365 95.6587 161.139 93.9042 161.755 91.9916C162.357 90.1235 162.901 87.7842 163.558 84.9785L155.768 83.1549ZM160.987 60.8629L155.768 83.1549L163.558 84.9785L168.777 62.6865L160.987 60.8629ZM160.989 60.8566L160.989 60.8566L168.775 62.6927L168.775 62.6927L160.989 60.8566ZM162.41 51.6663C162.535 52.1764 162.586 52.9224 162.362 54.4187C162.132 55.9613 161.674 57.9285 160.987 60.8628L168.777 62.6864C169.433 59.8806 169.984 57.5428 170.274 55.6019C170.571 53.6147 170.656 51.6988 170.178 49.7548L162.41 51.6663ZM160.283 48.2392C161.336 49.1283 162.08 50.328 162.41 51.6663L170.178 49.7548C169.445 46.776 167.788 44.1057 165.444 42.1267L160.283 48.2392ZM151.411 45.4316C154.345 46.1185 156.311 46.5819 157.795 47.06C159.235 47.5236 159.881 47.9004 160.283 48.2392L165.444 42.1267C163.914 40.8352 162.16 40.0607 160.247 39.4449C158.379 38.8435 156.04 38.299 153.234 37.6422L151.411 45.4316ZM149.617 45.0117L151.411 45.4316L153.234 37.6422L151.44 37.2223L149.617 45.0117ZM140.42 43.5892C140.93 43.4637 141.676 43.4129 143.173 43.6367C144.715 43.8674 146.683 44.3247 149.617 45.0117L151.44 37.2223C148.635 36.5654 146.297 36.0149 144.356 35.7247C142.369 35.4275 140.453 35.3426 138.509 35.8209L140.42 43.5892ZM136.993 45.7161C137.882 44.6631 139.082 43.9185 140.42 43.5892L138.509 35.8209C135.53 36.5539 132.86 38.2111 130.881 40.555L136.993 45.7161Z" fill="white" mask="url(#path-2-outside-1_1928_8025)"/>
<rect x="129.351" y="98.1758" width="14.4737" height="17.1053" rx="2.63158" transform="rotate(19.3271 129.351 98.1758)" fill="#F01F77"/>
<rect x="133.205" y="91.1641" width="11.8421" height="15.7895" rx="2.63158" transform="rotate(19.3271 133.205 91.1641)" fill="#C2D72F"/>
<rect x="134.124" y="37.3008" width="35.5263" height="56.5789" rx="10.5263" transform="rotate(13.1762 134.124 37.3008)" fill="#C2D72F"/>
<g style="mix-blend-mode:screen">
<rect x="143.172" y="44.8281" width="19.7368" height="46.0526" rx="5.26316" transform="rotate(13.1762 143.172 44.8281)" fill="#5E652A"/>
</g>
<g style="mix-blend-mode:multiply">
<path fill-rule="evenodd" clip-rule="evenodd" d="M149.456 40.8757C146.083 43.7587 142.324 48.5612 142.898 54.2433C143.338 58.5984 145.908 61.1327 148.088 63.2824C150.599 65.7589 152.593 67.7251 150.218 71.3768C146.131 77.6595 140.608 86.3987 145.997 98.0425C144.289 97.7746 142.189 97.283 139.422 96.6352L137.629 96.2153C131.889 94.8715 129.019 94.1996 127.088 92.5693C125.389 91.1352 124.188 89.2002 123.657 87.0416C123.053 84.5877 123.725 81.7176 125.069 75.9775L130.288 53.6855C131.632 47.9455 132.304 45.0754 133.934 43.1445C135.368 41.446 137.303 40.2452 139.462 39.714C141.758 39.149 144.419 39.7011 149.456 40.8757Z" fill="#DAE29E"/>
</g>
<path fill-rule="evenodd" clip-rule="evenodd" d="M129.625 56.5209L130.225 53.9586L135.348 55.158C136.055 55.3236 136.495 56.0315 136.329 56.7391C136.163 57.4466 135.456 57.8859 134.748 57.7203L129.625 56.5209ZM128.126 62.923L128.726 60.3607L133.849 61.5602C134.557 61.7258 134.996 62.4337 134.831 63.1412C134.665 63.8488 133.957 64.2881 133.25 64.1225L128.126 62.923ZM126.626 69.329L127.226 66.7667L132.35 67.9661C133.057 68.1318 133.496 68.8397 133.331 69.5472C133.165 70.2548 132.457 70.6941 131.75 70.5284L126.626 69.329ZM125.126 75.7389L125.726 73.1766L130.848 74.3759C131.556 74.5416 131.995 75.2494 131.83 75.957C131.664 76.6646 130.956 77.1039 130.249 76.9382L125.126 75.7389ZM123.726 82.1643C123.858 81.3903 124.031 80.5373 124.241 79.5821L129.35 80.7781C130.057 80.9437 130.497 81.6516 130.331 82.3592C130.165 83.0667 129.458 83.506 128.75 83.3404L123.726 82.1643ZM158.804 87.6705C158.568 88.6195 158.345 89.4609 158.12 90.213L154.374 89.3361C153.666 89.1704 153.227 88.4625 153.393 87.755C153.558 87.0474 154.266 86.6081 154.974 86.7738L158.804 87.6705ZM166.219 55.6248C166.086 56.3988 165.912 57.2518 165.702 58.2066L161.871 57.3098C161.164 57.1442 160.725 56.4363 160.89 55.7287C161.056 55.0212 161.764 54.5819 162.471 54.7475L166.219 55.6248ZM131.14 50.1142C131.375 49.1654 131.598 48.3238 131.823 47.5715L136.848 48.748C137.556 48.9137 137.995 49.6215 137.83 50.3291C137.664 51.0366 136.956 51.476 136.249 51.3103L131.14 50.1142ZM141.673 51.2296C141.839 50.5221 142.547 50.0828 143.254 50.2484L156.066 53.2477C156.773 53.4133 157.212 54.1212 157.047 54.8288C156.881 55.5363 156.173 55.9756 155.466 55.81L142.654 52.8107C141.947 52.6451 141.507 51.9372 141.673 51.2296ZM140.173 57.6356C140.339 56.928 141.047 56.4887 141.754 56.6544L154.566 59.6537C155.273 59.8193 155.713 60.5272 155.547 61.2347C155.381 61.9423 154.673 62.3816 153.966 62.216L141.154 59.2167C140.447 59.051 140.008 58.3432 140.173 57.6356ZM140.255 63.0606C139.547 62.8949 138.84 63.3342 138.674 64.0418C138.508 64.7493 138.948 65.4572 139.655 65.6229L152.467 68.6221C153.174 68.7878 153.882 68.3485 154.048 67.6409C154.213 66.9334 153.774 66.2255 153.067 66.0599L140.255 63.0606ZM137.174 70.4478C137.34 69.7402 138.048 69.3009 138.755 69.4665L151.567 72.4658C152.274 72.6315 152.714 73.3393 152.548 74.0469C152.382 74.7545 151.674 75.1938 150.967 75.0281L138.155 72.0288C137.448 71.8632 137.008 71.1553 137.174 70.4478ZM137.255 75.8725C136.548 75.7069 135.84 76.1462 135.674 76.8537C135.509 77.5613 135.948 78.2692 136.655 78.4348L149.467 81.4341C150.175 81.5997 150.882 81.1604 151.048 80.4529C151.214 79.7453 150.774 79.0374 150.067 78.8718L137.255 75.8725ZM134.174 83.2597C134.34 82.5521 135.048 82.1128 135.755 82.2785L148.567 85.2778C149.275 85.4434 149.714 86.1513 149.548 86.8589C149.383 87.5664 148.675 88.0057 147.967 87.8401L135.156 84.8408C134.448 84.6751 134.009 83.9673 134.174 83.2597ZM160.971 61.1535C160.264 60.9879 159.556 61.4272 159.39 62.1347C159.225 62.8423 159.664 63.5502 160.372 63.7158L164.215 64.6156L164.815 62.0533L160.971 61.1535ZM159.473 67.5559C158.766 67.3902 158.058 67.8295 157.892 68.5371C157.727 69.2447 158.166 69.9525 158.874 70.1182L162.717 71.018L163.317 68.4557L159.473 67.5559ZM157.972 73.9657C157.265 73.8 156.557 74.2393 156.391 74.9469C156.226 75.6544 156.665 76.3623 157.372 76.528L161.216 77.4277L161.816 74.8655L157.972 73.9657ZM156.472 80.3716C155.765 80.206 155.057 80.6453 154.891 81.3529C154.726 82.0604 155.165 82.7683 155.873 82.9339L159.716 83.8337L160.316 81.2714L156.472 80.3716Z" fill="#F01F77"/>
<circle cx="135.527" cy="102.435" r="3.28947" transform="rotate(19.3271 135.527 102.435)" fill="#F01F77"/>
</g>
<g filter="url(#filter1_d_1928_8025)">
<path d="M94.9898 94.467L94.9915 94.4595L94.9932 94.452C95.683 91.4111 96.0451 88.2492 96.0451 84.9965V84.9862V84.9679C96.0451 84.6816 96.0452 84.3412 96.0305 83.9994C95.9646 81.1088 95.6097 78.2732 94.9894 75.5497L94.9892 75.5489C94.8915 75.1205 94.7864 74.7022 94.6707 74.2808C92.8908 67.4179 89.4185 61.2295 84.746 56.2135L84.741 56.2082C84.5974 56.0552 84.4532 55.9028 84.3076 55.7508V55.7111L83.7116 55.1384L83.1529 54.5734H83.1391C82.3487 53.8101 81.5153 53.0721 80.6542 52.375C80.5842 52.3109 80.5122 52.2542 80.439 52.2039C76.774 49.2303 72.5944 46.8712 68.0525 45.2908L68.0498 45.2899C67.5379 45.1126 67.0059 44.9365 66.4579 44.7762C64.2873 44.1084 62.0412 43.6261 59.7413 43.3355C59.4346 43.2932 59.1252 43.2598 58.8516 43.2303C58.7848 43.2231 58.72 43.2161 58.658 43.2092L58.6427 43.2076L58.6275 43.2061C57.9247 43.1396 57.2026 43.0812 56.4596 43.0511C56.1818 43.0327 55.9035 43.024 55.6601 43.0163C55.6079 43.0147 55.5574 43.0131 55.5088 43.0115L55.5074 43.0114C55.1565 43 54.8176 43 54.5081 43H54.4945C53.7565 43 53.0237 43.0212 52.297 43.0676C51.8947 43.0799 51.5094 43.1091 51.1701 43.1348L51.1382 43.1372L51.128 43.1379L51.1177 43.1388C49.5227 43.276 47.9483 43.4962 46.402 43.8041C45.9945 43.88 45.5904 43.9721 45.2298 44.0542C45.2283 44.0546 45.2267 44.0549 45.2251 44.0553H45.2041L44.9756 44.1097C39.9382 45.3097 35.2465 47.4297 31.1021 50.2871L31.1021 50.2871L31.0952 50.2918C30.4159 50.7644 29.7717 51.2434 29.1422 51.7218L29.0295 51.8074L29.0063 51.8309C26.7839 53.5902 24.7326 55.563 22.8948 57.7364C22.4496 58.2601 22.0214 58.7952 21.6102 59.3339C18.3577 63.5787 15.9012 68.4735 14.46 73.7966C14.3517 74.1801 14.2327 74.6077 14.1301 75.0489C13.4354 77.9339 13.0341 80.9344 12.9652 84.0138C12.9542 84.3482 12.9542 84.6835 12.9542 84.9752V84.9896V85C12.9542 88.0156 13.2701 90.945 13.8621 93.7755L13.8642 93.7854L13.8663 93.7953C13.8789 93.8525 13.8918 93.9115 13.905 93.9719C13.9653 94.2483 14.0319 94.5535 14.1052 94.8508C15.4913 100.678 18.0812 106.03 21.5942 110.63C21.9101 111.055 22.2368 111.472 22.5836 111.888C22.6245 111.941 22.6626 111.986 22.6937 112.021C23.1029 112.517 23.5278 113.006 23.9558 113.474C27.3681 117.219 31.4366 120.324 35.9965 122.612L36.4198 122.824H36.4213C36.6942 122.961 36.9701 123.093 37.2498 123.221C40.3724 124.666 43.7033 125.719 47.1734 126.348C47.5468 126.418 47.9124 126.476 48.2485 126.53L48.2598 126.532L48.417 126.557H48.4401C50.4146 126.844 52.431 127 54.498 127H54.5118C54.8211 127 55.16 127 55.5108 126.989L55.513 126.988C55.815 126.978 56.1352 126.967 56.4598 126.949C58.0749 126.873 59.6725 126.709 61.248 126.447L61.2517 126.446C61.5827 126.39 61.9225 126.332 62.2787 126.26C66.5646 125.435 70.6155 123.955 74.3291 121.912L74.3331 121.91C74.7429 121.683 75.156 121.449 75.5785 121.192C80.0035 118.56 83.8899 115.13 87.0557 111.082C87.4501 110.592 87.8183 110.09 88.1592 109.616C89.6453 107.553 90.9355 105.353 92.0268 103.033L92.217 102.629V102.617C92.611 101.765 92.9816 100.888 93.3165 99.9938C93.3704 99.8846 93.4124 99.7741 93.4441 99.6644C93.927 98.3271 94.3579 96.9543 94.7195 95.5529C94.8203 95.1819 94.9081 94.8147 94.9898 94.467Z" fill="#F01F77" stroke="white" stroke-width="4"/>
<path d="M53.8407 61.6641L34.068 64.3307L31.4316 84.3307H53.8407V61.6641Z" fill="#FF6A3B"/>
<path d="M75.5907 83.6641L55.818 86.3307L53.1816 106.331H75.5907V83.6641Z" fill="#FF6A3B"/>
<path d="M53.1817 108.801L33.4089 106.134L30.7726 86.1341H53.1817V108.801Z" fill="#FFBC3B"/>
<path d="M56.44 45.0628C61.4729 45.4001 64.0408 46.0663 68.2531 47.4918L74.2725 64.3355L55.1588 61.0022L56.44 45.0628Z" fill="#FFBC3B"/>
<path d="M89.2439 104.116C87.5096 107.529 82.4248 115.466 73.4114 120.113L74.6239 107.843L78.1973 105.354L89.2439 104.116Z" fill="#FFBC3B"/>
<path fill-rule="evenodd" clip-rule="evenodd" d="M15.0008 83.0268H29.385C29.4937 77.6473 30.1 72.2706 31.1957 66.7092C26.8187 67.8496 22.2605 69.3005 17.4234 71.0651C18.0506 69.3491 18.7917 67.6892 19.6377 66.0945C23.9664 64.6122 28.1085 63.3807 32.1323 62.4029C33.0989 58.3304 34.3171 54.1378 35.7838 49.7554C37.3748 48.8905 39.0316 48.1321 40.744 47.4894C38.9967 52.3911 37.5605 57.0103 36.4323 61.4463C41.9171 60.3422 47.2211 59.7302 52.5282 59.6191V45.0571C53.1747 45.0181 53.8301 45 54.4944 45C54.8126 45 55.1239 45 55.4421 45.0104C55.4983 45.0123 55.5541 45.014 55.6096 45.0158C55.861 45.0237 56.1054 45.0314 56.3521 45.0484C56.3933 45.0501 56.4345 45.0518 56.4756 45.0536V59.6288C61.7598 59.7654 67.0684 60.3973 72.582 61.5186C71.4507 57.0604 70.008 52.4174 68.2509 47.4888C69.9642 48.1306 71.6211 48.8901 73.2121 49.7571C74.6881 54.167 75.9126 58.3848 76.8825 62.4813C80.9013 63.461 85.0482 64.689 89.3891 66.1632C90.2304 67.7543 90.9681 69.4093 91.5927 71.1184C86.7468 69.3691 82.1857 67.927 77.8162 66.7879C78.9027 72.3214 79.5043 77.6727 79.6131 83.0268H93.9951C94.0115 83.3722 94.0236 83.7186 94.0313 84.0658C94.045 84.3701 94.045 84.6813 94.045 84.9857V84.9862V84.9965C94.045 85.6599 94.0292 86.3192 93.998 86.9741H79.6039C79.4709 92.3092 78.8495 97.669 77.7455 103.236C82.1384 102.093 86.7247 100.644 91.599 98.8846C91.573 98.9574 91.5467 99.03 91.5203 99.1026C91.5203 99.1026 91.5306 99.113 91.51 99.113C91.1269 100.154 90.689 101.179 90.2169 102.172V102.182C89.9529 102.743 89.6769 103.297 89.3888 103.842C85.0204 105.326 80.8484 106.56 76.8058 107.543C75.8341 111.634 74.6131 115.857 73.145 120.28C71.5585 121.139 69.908 121.891 68.2022 122.528C69.9428 117.594 71.3758 112.95 72.5052 108.502C67.019 109.614 61.7353 110.241 56.4756 110.377V124.946C56.4356 124.948 56.3955 124.95 56.3555 124.952C56.0544 124.969 55.7534 124.979 55.4455 124.99C55.1273 125 54.816 125 54.4979 125C53.8363 125 53.1798 124.983 52.5282 124.951V110.386C47.2474 110.276 41.9697 109.669 36.5139 108.575C37.6415 113.004 39.0695 117.626 40.8022 122.537C39.8803 122.193 38.9747 121.816 38.0871 121.405C37.6869 121.222 37.2935 121.028 36.9035 120.824H36.8932C36.5451 120.649 36.2 120.47 35.858 120.285C34.3984 115.889 33.1829 111.691 32.2135 107.622C28.1688 106.642 24.0049 105.406 19.6523 103.916C18.8023 102.319 18.0567 100.658 17.4247 98.9407C22.2888 100.715 26.871 102.172 31.2704 103.316C30.156 97.72 29.5287 92.3345 29.3946 86.9741H15.0016C14.9701 86.3206 14.9541 85.6625 14.9541 85V84.9896C14.9541 84.6852 14.9541 84.3738 14.9644 84.0693C14.9721 83.7207 14.9842 83.3732 15.0008 83.0268ZM52.5282 83.0268H33.3332C33.4531 77.3622 34.1512 71.6704 35.4357 65.6898C41.3325 64.3947 46.9443 63.69 52.5282 63.5674V83.0268ZM52.5282 106.438C46.9688 106.316 41.3817 105.617 35.5133 104.333C34.2107 98.3139 33.491 92.6134 33.3432 86.9741H52.5282V106.438ZM56.4756 86.9741H75.6553C75.5087 92.5898 74.795 98.266 73.5033 104.257C67.6008 105.558 62.0078 106.278 56.4756 106.428V86.9741ZM73.5768 65.765C74.8515 71.7182 75.5449 77.3861 75.6649 83.0268H56.4756V63.5776C62.0308 63.7281 67.6472 64.4534 73.5768 65.765Z" fill="white"/>
</g>
<g filter="url(#filter2_d_1928_8025)">
<mask id="path-18-outside-2_1928_8025" maskUnits="userSpaceOnUse" x="60.3536" y="1.05026" width="83.665" height="120.842" fill="black">
<rect fill="white" x="60.3536" y="1.05026" width="83.665" height="120.842"/>
<path fill-rule="evenodd" clip-rule="evenodd" d="M83.8099 46.1425C82.3624 42.4085 79.147 33.6784 77.8649 28.6305C76.2624 22.3207 68.6206 24.9606 69.5 30.6049C70.3794 36.2493 72.5314 44.7347 74.398 51.356C75.6264 55.7134 77.296 63.6227 78.4783 69.2237C79.0925 72.1337 79.5753 74.4206 79.7963 75.2626C79.8554 75.4879 79.9199 75.7498 79.992 76.0432C80.7085 78.9566 82.1871 84.9688 86.8183 88.9513C91.2481 92.7607 91.3514 93.0171 91.5939 93.6187C91.6305 93.7093 91.6702 93.8078 91.7283 93.9275C91.8513 94.1805 92.0423 94.8688 92.2569 95.7474C91.7031 96.2792 91.2607 96.7548 90.9393 97.1419C90.9975 97.7253 91.0721 98.3236 91.1601 98.931C89.856 100.256 87.5184 102.704 86.5379 104.001C87.7317 104.955 90.494 106.801 92.9908 107.44C93.619 109.758 94.2478 111.741 94.6721 112.956C101.71 114.039 116.207 109.966 122.396 107.714C127.348 105.913 129.214 103.641 129.529 102.729C129.511 101.622 128.97 99.632 128.207 97.3692C129.881 95.4546 131.082 92.427 131.513 90.9865C130.064 90.4973 127.073 89.8398 125.182 89.4538C124.774 88.4755 124.394 87.5893 124.072 86.8574C123.536 86.5715 122.728 86.3416 121.682 86.194L121.307 84.6062C120.675 81.9258 120.567 80.3684 121.325 78.0789C121.498 77.5578 121.729 76.9064 121.998 76.148C122.91 73.5746 124.259 69.7689 125.254 65.6381C125.411 64.9839 125.579 64.3307 125.745 63.6829C126.939 59.0345 128.061 54.6656 124.822 52.2327C121.87 50.0151 119.679 48.7948 118.953 48.4618C118.51 46.1563 117.585 40.557 117.429 36.6033C117.234 31.6611 116.383 19.6006 114.024 13.1168C111.664 6.63291 104.554 6.01508 104.266 11.8227C104.094 15.294 104.492 17.5375 104.862 19.6253L104.862 19.6253C105.11 21.0305 105.347 22.3651 105.389 23.9561C105.472 27.12 105.875 34.9128 106.065 38.4137C105.377 37.0201 103.105 34.4441 99.5238 35.2894C95.0471 36.3461 93.8852 40.5565 94.1652 42.0943C93.2827 41.3998 90.9679 40.1405 88.7688 40.6596C86.02 41.3084 83.5421 45.0079 83.8099 46.1425Z"/>
</mask>
<path fill-rule="evenodd" clip-rule="evenodd" d="M83.8099 46.1425C82.3624 42.4085 79.147 33.6784 77.8649 28.6305C76.2624 22.3207 68.6206 24.9606 69.5 30.6049C70.3794 36.2493 72.5314 44.7347 74.398 51.356C75.6264 55.7134 77.296 63.6227 78.4783 69.2237C79.0925 72.1337 79.5753 74.4206 79.7963 75.2626C79.8554 75.4879 79.9199 75.7498 79.992 76.0432C80.7085 78.9566 82.1871 84.9688 86.8183 88.9513C91.2481 92.7607 91.3514 93.0171 91.5939 93.6187C91.6305 93.7093 91.6702 93.8078 91.7283 93.9275C91.8513 94.1805 92.0423 94.8688 92.2569 95.7474C91.7031 96.2792 91.2607 96.7548 90.9393 97.1419C90.9975 97.7253 91.0721 98.3236 91.1601 98.931C89.856 100.256 87.5184 102.704 86.5379 104.001C87.7317 104.955 90.494 106.801 92.9908 107.44C93.619 109.758 94.2478 111.741 94.6721 112.956C101.71 114.039 116.207 109.966 122.396 107.714C127.348 105.913 129.214 103.641 129.529 102.729C129.511 101.622 128.97 99.632 128.207 97.3692C129.881 95.4546 131.082 92.427 131.513 90.9865C130.064 90.4973 127.073 89.8398 125.182 89.4538C124.774 88.4755 124.394 87.5893 124.072 86.8574C123.536 86.5715 122.728 86.3416 121.682 86.194L121.307 84.6062C120.675 81.9258 120.567 80.3684 121.325 78.0789C121.498 77.5578 121.729 76.9064 121.998 76.148C122.91 73.5746 124.259 69.7689 125.254 65.6381C125.411 64.9839 125.579 64.3307 125.745 63.6829C126.939 59.0345 128.061 54.6656 124.822 52.2327C121.87 50.0151 119.679 48.7948 118.953 48.4618C118.51 46.1563 117.585 40.557 117.429 36.6033C117.234 31.6611 116.383 19.6006 114.024 13.1168C111.664 6.63291 104.554 6.01508 104.266 11.8227C104.094 15.294 104.492 17.5375 104.862 19.6253L104.862 19.6253C105.11 21.0305 105.347 22.3651 105.389 23.9561C105.472 27.12 105.875 34.9128 106.065 38.4137C105.377 37.0201 103.105 34.4441 99.5238 35.2894C95.0471 36.3461 93.8852 40.5565 94.1652 42.0943C93.2827 41.3998 90.9679 40.1405 88.7688 40.6596C86.02 41.3084 83.5421 45.0079 83.8099 46.1425Z" fill="#FF6A3B"/>
<path d="M77.8649 28.6305L81.7418 27.6459L77.8649 28.6305ZM83.8099 46.1425L80.0803 47.5883C80.8401 49.5482 82.9874 50.5857 84.9951 49.9629C87.0028 49.3401 88.1858 47.2695 87.7029 45.2236L83.8099 46.1425ZM69.5 30.6049L65.5477 31.2207L69.5 30.6049ZM74.398 51.356L70.5481 52.4413L74.398 51.356ZM78.4783 69.2237L74.5645 70.0499L78.4783 69.2237ZM79.7963 75.2626L75.9274 76.2781L79.7963 75.2626ZM79.992 76.0432L83.8763 75.0879L79.992 76.0432ZM86.8183 88.9513L84.2102 91.9841L84.2102 91.9842L86.8183 88.9513ZM91.5939 93.6187L95.3038 92.1232L95.3038 92.1232L91.5939 93.6187ZM91.7283 93.9275L88.1305 95.6757L88.1306 95.6757L91.7283 93.9275ZM92.2569 95.7474L95.0275 98.6325C96.0561 97.6446 96.481 96.1838 96.1427 94.7984L92.2569 95.7474ZM90.9393 97.1419L87.8619 94.5866C87.1779 95.4103 86.8528 96.4738 86.9591 97.5391L90.9393 97.1419ZM91.1601 98.931L94.0109 101.737C94.8882 100.845 95.2981 99.5951 95.1187 98.3573L91.1601 98.931ZM86.5379 104.001L83.3462 101.59C82.0402 103.319 82.3482 105.774 84.0408 107.126L86.5379 104.001ZM92.9908 107.44L96.8515 106.394C96.4745 105.003 95.3785 103.922 93.9824 103.565L92.9908 107.44ZM94.6721 112.956L90.8957 114.275C91.3834 115.672 92.602 116.685 94.064 116.91L94.6721 112.956ZM122.396 107.714L121.029 103.955L121.029 103.955L122.396 107.714ZM129.529 102.729L133.31 104.034C133.462 103.594 133.536 103.13 133.528 102.664L129.529 102.729ZM128.207 97.3692L125.196 94.7362C124.259 95.8079 123.962 97.2969 124.417 98.6461L128.207 97.3692ZM131.513 90.9865L135.345 92.1334C135.963 90.0689 134.834 87.8861 132.793 87.1967L131.513 90.9865ZM125.182 89.4538L121.49 90.9923C122 92.2162 123.083 93.1078 124.382 93.373L125.182 89.4538ZM124.072 86.8574L127.732 85.2452C127.371 84.4248 126.745 83.7496 125.954 83.3278L124.072 86.8574ZM121.682 86.194L117.789 87.1129C118.168 88.717 119.491 89.9246 121.123 90.1548L121.682 86.194ZM121.307 84.6062L125.2 83.6873L121.307 84.6062ZM121.325 78.0789L125.122 79.3372L125.122 79.3372L121.325 78.0789ZM121.998 76.148L118.228 74.8117L118.228 74.8118L121.998 76.148ZM125.254 65.6381L129.142 66.5746L129.142 66.5745L125.254 65.6381ZM125.745 63.6829L129.62 64.6778L129.62 64.6778L125.745 63.6829ZM124.822 52.2327L127.224 49.0344L127.224 49.0344L124.822 52.2327ZM118.953 48.4618L115.025 49.2165C115.268 50.4859 116.111 51.5591 117.286 52.0978L118.953 48.4618ZM117.429 36.6033L113.432 36.761L117.429 36.6033ZM114.024 13.1168L110.265 14.4847L110.265 14.4847L114.024 13.1168ZM104.266 11.8227L108.261 12.0205L108.261 12.0205L104.266 11.8227ZM104.862 19.6253L100.923 20.323C100.936 20.3972 100.951 20.4709 100.969 20.5442L104.862 19.6253ZM104.862 19.6253L108.8 18.9276C108.787 18.8535 108.772 18.7797 108.755 18.7064L104.862 19.6253ZM105.389 23.9561L109.387 23.8506L109.387 23.8506L105.389 23.9561ZM106.065 38.4137L102.479 40.1849C103.32 41.8881 105.243 42.7648 107.08 42.2828C108.918 41.8008 110.163 40.093 110.059 38.1962L106.065 38.4137ZM94.1652 42.0943L91.6915 45.2377C92.9981 46.266 94.8046 46.3787 96.229 45.5209C97.6533 44.663 98.3984 43.0135 98.1005 41.3777L94.1652 42.0943ZM73.988 29.6152C75.3371 34.927 78.6371 43.8651 80.0803 47.5883L87.5395 44.6967C86.0878 40.9518 82.9568 32.4297 81.7418 27.6459L73.988 29.6152ZM73.4523 29.9891C73.4148 29.7481 73.4306 29.5813 73.4533 29.4747C73.4764 29.3664 73.5143 29.2845 73.5562 29.2205C73.6491 29.0787 73.7778 29.002 73.8597 28.9784C73.8938 28.9686 73.8938 28.9753 73.8598 28.9717C73.8203 28.9675 73.7651 28.9519 73.7143 28.9217C73.6611 28.8901 73.6709 28.8773 73.721 28.9497C73.7749 29.0275 73.889 29.2255 73.988 29.6152L81.7418 27.6459C81.1331 25.249 79.8127 23.2401 77.802 22.0449C75.817 20.865 73.5793 20.7334 71.6437 21.2914C67.7922 22.4017 64.7844 26.3217 65.5477 31.2207L73.4523 29.9891ZM78.248 50.2706C76.3873 43.6702 74.2923 35.3803 73.4523 29.9891L65.5477 31.2207C66.4666 37.1182 68.6756 45.7991 70.5481 52.4413L78.248 50.2706ZM82.392 68.3976C81.2235 62.8617 79.5219 54.7894 78.248 50.2706L70.5481 52.4413C71.731 56.6374 73.3685 64.3838 74.5645 70.0499L82.392 68.3976ZM83.6652 74.247C83.4765 73.528 83.0227 71.3853 82.392 68.3976L74.5645 70.0499C75.1624 72.8821 75.6741 75.3132 75.9274 76.2781L83.6652 74.247ZM83.8763 75.0879C83.8064 74.8037 83.7339 74.5087 83.6652 74.247L75.9274 76.2781C75.977 76.4671 76.0333 76.696 76.1077 76.9985L83.8763 75.0879ZM89.4263 85.9185C85.8825 82.871 84.6162 78.0965 83.8763 75.0879L76.1077 76.9985C76.8008 79.8166 78.4917 87.0666 84.2102 91.9841L89.4263 85.9185ZM95.3038 92.1232C95.2309 91.9422 95.0507 91.4795 94.6883 90.9402C94.372 90.4695 93.9984 90.0567 93.6176 89.6724C92.8758 88.9238 91.6178 87.803 89.4263 85.9185L84.2102 91.9842C86.4485 93.909 87.4571 94.8211 87.935 95.3034C88.1642 95.5346 88.1387 95.5368 88.0484 95.4024C87.912 95.1994 87.8357 94.9943 87.884 95.1141L95.3038 92.1232ZM95.3261 92.1794C95.3299 92.1872 95.3321 92.1924 95.3311 92.1901C95.3302 92.188 95.328 92.1828 95.3237 92.1722C95.3188 92.1603 95.3135 92.1473 95.3038 92.1232L87.884 95.1141C87.9219 95.2083 88.0063 95.42 88.1305 95.6757L95.3261 92.1794ZM96.1427 94.7984C96.0294 94.3348 95.9138 93.8857 95.8031 93.4998C95.7207 93.2126 95.5595 92.6597 95.3261 92.1794L88.1306 95.6757C88.0837 95.5793 88.057 95.5113 88.0497 95.4925C88.0404 95.4687 88.0385 95.462 88.0439 95.4781C88.0555 95.5123 88.0786 95.585 88.1133 95.7059C88.1825 95.947 88.2697 96.2813 88.3711 96.6964L96.1427 94.7984ZM89.4862 92.8623C88.8474 93.4758 88.2979 94.0614 87.8619 94.5866L94.0167 99.6972C94.2235 99.4481 94.5588 99.0826 95.0275 98.6325L89.4862 92.8623ZM86.9591 97.5391C87.0239 98.1886 87.106 98.8462 87.2014 99.5047L95.1187 98.3573C95.0381 97.8011 94.9712 97.2619 94.9195 96.7446L86.9591 97.5391ZM89.7296 106.413C90.5231 105.362 92.6645 103.105 94.0109 101.737L88.3093 96.1251C87.0474 97.4072 84.5136 100.045 83.3462 101.59L89.7296 106.413ZM93.9824 103.565C93.2245 103.371 92.2627 102.941 91.2657 102.369C90.293 101.811 89.4734 101.227 89.035 100.877L84.0408 107.126C85.3953 108.209 88.6867 110.468 91.9992 111.315L93.9824 103.565ZM89.1301 108.487C89.7811 110.889 90.4375 112.963 90.8957 114.275L98.4485 111.638C98.0581 110.52 97.457 108.628 96.8515 106.394L89.1301 108.487ZM94.064 116.91C98.3945 117.576 104.434 116.656 109.714 115.492C115.165 114.289 120.506 112.658 123.763 111.474L121.029 103.955C118.097 105.022 113.094 106.554 107.99 107.68C102.714 108.844 97.9871 109.419 95.2802 109.003L94.064 116.91ZM123.763 111.474C126.59 110.445 128.695 109.225 130.212 108.002C131.613 106.872 132.804 105.5 133.31 104.034L125.748 101.425C125.87 101.07 125.984 100.979 125.859 101.135C125.765 101.252 125.558 101.478 125.19 101.775C124.458 102.366 123.154 103.182 121.029 103.955L123.763 111.474ZM133.528 102.664C133.512 101.628 133.274 100.484 133.025 99.4996C132.758 98.4459 132.397 97.2777 131.998 96.0923L124.417 98.6461C124.78 99.7235 125.071 100.681 125.27 101.465C125.369 101.856 125.437 102.174 125.48 102.423C125.526 102.686 125.529 102.797 125.529 102.794L133.528 102.664ZM127.681 89.8396C127.525 90.3622 127.191 91.285 126.719 92.2725C126.234 93.2844 125.699 94.1613 125.196 94.7362L131.219 100.002C133.45 97.4501 134.853 93.7783 135.345 92.1334L127.681 89.8396ZM124.382 93.373C126.327 93.77 129.064 94.3814 130.233 94.7763L132.793 87.1967C131.065 86.6133 127.819 85.9096 125.982 85.5346L124.382 93.373ZM128.874 87.9153C128.457 86.914 128.066 86.0032 127.732 85.2452L120.411 88.4695C120.722 89.1753 121.092 90.0369 121.49 90.9923L128.874 87.9153ZM125.954 83.3278C124.826 82.7266 123.494 82.4101 122.241 82.2332L121.123 90.1548C121.509 90.2092 121.795 90.2712 121.992 90.3263C122.199 90.3842 122.247 90.4174 122.19 90.387L125.954 83.3278ZM117.414 85.5251L117.789 87.1129L125.575 85.2751L125.2 83.6873L117.414 85.5251ZM117.529 76.8207C117.035 78.3106 116.778 79.7148 116.795 81.2403C116.811 82.6977 117.078 84.099 117.414 85.5251L125.2 83.6873C124.904 82.433 124.801 81.7154 124.794 81.1517C124.789 80.656 124.857 80.1367 125.122 79.3372L117.529 76.8207ZM118.228 74.8118C117.964 75.5557 117.717 76.2516 117.529 76.8207L125.122 79.3372C125.279 78.8641 125.494 78.2571 125.768 77.4843L118.228 74.8118ZM121.365 64.7016C120.425 68.6048 119.143 72.2301 118.228 74.8117L125.768 77.4844C126.677 74.9191 128.093 70.933 129.142 66.5746L121.365 64.7016ZM121.871 62.6879C121.706 63.3309 121.531 64.0132 121.365 64.7016L129.142 66.5745C129.292 65.9545 129.452 65.3304 129.62 64.6778L121.871 62.6879ZM122.42 55.4309C122.689 55.6335 122.961 55.8971 122.946 57.0768C122.929 58.4754 122.504 60.2242 121.871 62.6879L129.62 64.6778C130.181 62.4932 130.913 59.7333 130.946 57.1772C130.98 54.4021 130.194 51.2648 127.224 49.0344L122.42 55.4309ZM117.286 52.0978C117.674 52.2758 119.615 53.3245 122.42 55.431L127.224 49.0344C124.124 46.7057 121.684 45.3137 120.62 44.8257L117.286 52.0978ZM113.432 36.761C113.6 41.0256 114.573 46.8653 115.025 49.2165L122.881 47.707C122.447 45.4474 121.569 40.0884 121.426 36.4456L113.432 36.761ZM110.265 14.4847C111.278 17.2684 112.04 21.5181 112.566 25.9136C113.083 30.2281 113.338 34.3696 113.432 36.761L121.426 36.4456C121.325 33.8948 121.057 29.535 120.51 24.9627C119.972 20.4714 119.129 15.449 117.783 11.7489L110.265 14.4847ZM108.261 12.0205C108.292 11.392 108.465 11.4521 108.229 11.6602C107.998 11.8649 107.808 11.8225 107.917 11.835C108.206 11.8677 109.487 12.3477 110.265 14.4847L117.783 11.7489C116.201 7.40201 112.747 4.33116 108.818 3.88588C106.82 3.65934 104.651 4.14625 102.931 5.66582C101.208 7.18889 100.384 9.34963 100.271 11.625L108.261 12.0205ZM108.8 18.9276C108.444 16.9176 108.112 15.0315 108.261 12.0205L100.271 11.625C100.076 15.5566 100.539 18.1574 100.923 20.323L108.8 18.9276ZM108.755 18.7064L108.755 18.7064L100.969 20.5442L100.969 20.5442L108.755 18.7064ZM109.387 23.8506C109.337 21.9232 109.046 20.3151 108.8 18.9276L100.923 20.323C101.175 21.7458 101.357 22.807 101.39 24.0616L109.387 23.8506ZM110.059 38.1962C109.868 34.6775 109.469 26.9466 109.387 23.8506L101.39 24.0616C101.476 27.2935 101.881 35.1482 102.071 38.6313L110.059 38.1962ZM100.443 39.1824C100.787 39.1012 101.021 39.1167 101.181 39.1484C101.351 39.1822 101.525 39.253 101.707 39.3707C101.895 39.4922 102.074 39.6532 102.227 39.8304C102.385 40.0142 102.465 40.1563 102.479 40.1849L109.652 36.6426C108.576 34.464 104.81 29.9317 98.6049 31.3964L100.443 39.1824ZM98.1005 41.3777C98.1552 41.6782 98.0943 41.6921 98.1595 41.3989C98.212 41.1627 98.3207 40.8568 98.5029 40.549C98.8366 39.9852 99.3938 39.43 100.443 39.1824L98.6049 31.3964C95.1771 32.2055 92.915 34.2838 91.6186 36.4739C90.4402 38.4646 89.8773 40.8748 90.23 42.811L98.1005 41.3777ZM89.6877 44.5526C89.7937 44.5276 90.1064 44.5111 90.6415 44.6981C91.1697 44.8826 91.5817 45.1513 91.6915 45.2377L96.639 38.951C95.8662 38.3429 94.6795 37.6346 93.28 37.1457C91.8872 36.6591 89.943 36.2725 87.8499 36.7666L89.6877 44.5526ZM87.7029 45.2236C87.8659 45.9141 87.7534 46.4076 87.7357 46.4861C87.7052 46.6219 87.6809 46.6532 87.7192 46.57C87.7944 46.4064 87.9736 46.0981 88.2665 45.7364C88.5538 45.3817 88.8752 45.069 89.1792 44.8435C89.3273 44.7337 89.4518 44.659 89.5471 44.6113C89.6428 44.5634 89.6898 44.5522 89.6877 44.5526L87.8499 36.7666C85.2386 37.383 83.2325 39.241 82.0497 40.7014C81.413 41.4875 80.8512 42.3574 80.4512 43.2268C80.2519 43.6601 80.0565 44.1717 79.931 44.7294C79.8183 45.2299 79.687 46.0873 79.9169 47.0614L87.7029 45.2236Z" fill="white" mask="url(#path-18-outside-2_1928_8025)"/>
<path d="M77.8644 28.6305C79.1465 33.6784 82.362 42.4085 83.8094 46.1425C83.5416 45.0079 86.0195 41.3084 88.7683 40.6596C90.9674 40.1405 93.2822 41.3998 94.1647 42.0943C93.8847 40.5565 95.0466 36.3461 99.5233 35.2894C103.105 34.4441 105.376 37.0201 106.065 38.4137C105.874 34.9128 105.472 27.12 105.388 23.9561C105.284 20.0011 103.978 17.6303 104.266 11.8227C104.553 6.01508 111.664 6.63291 114.023 13.1168C116.383 19.6006 117.233 31.6611 117.428 36.6033C117.584 40.557 118.509 46.1563 118.952 48.4618C119.679 48.7948 121.869 50.0151 124.821 52.2327C128.512 55.0047 126.541 60.2899 125.253 65.6381C123.965 70.9863 122.084 75.7895 121.325 78.0789C120.566 80.3684 120.674 81.9258 121.307 84.6062L123.527 94.0107L93.4245 101.116C93.007 99.0244 92.0831 94.6586 91.7278 93.9275C91.2838 93.0137 91.9153 93.3349 86.8178 88.9513C81.7203 84.5678 80.4422 77.7252 79.7958 75.2626C79.1494 72.8 76.2641 57.9773 74.3976 51.356C72.531 44.7347 70.379 36.2493 69.4995 30.6049C68.6201 24.9606 76.2619 22.3207 77.8644 28.6305Z" fill="#FFBC3B"/>
<path d="M84.6799 52.407C84.035 50.8594 83.2604 47.6602 83.7843 46.1642C84.6043 49.2725 86.4034 52.9105 87.1654 55.6238L86.2951 51.937L85.6701 47.0915C86.9869 48.9033 90.2227 64.6527 90.9618 65.7435C91.7008 66.8342 94.0666 68.2249 97.0616 67.4154C100.057 66.6059 99.6343 64.3461 99.4963 62.9767C99.3859 61.8812 98.1118 58.4193 97.4886 56.8252C96.8655 56.6294 95.0802 56.5394 92.7142 55.6635C90.3481 54.7875 89.9348 51.5397 89.8171 49.4673C89.6994 47.395 91.7718 46.8694 93.5917 46.3173C95.4117 45.7652 102.735 41.4779 104.56 40.5542C106.385 39.6305 108.3 40.8186 109.539 41.4475C110.531 41.9506 116.158 46.49 118.979 48.5387C115.394 46.3943 108.233 42.86 107.329 42.4323C106.199 41.8977 104.545 42.6636 103.458 43.3459C102.371 44.0281 101.158 44.6318 97.9216 46.3223C94.6851 48.0128 93.3655 48.0828 92.4874 48.6156C91.6093 49.1484 91.7342 49.7113 92.1346 51.7745C92.535 53.8377 94.2364 54.3416 97.2494 54.8292C99.6598 55.2192 104.757 54.3765 106.629 53.8015C107.022 54.1216 108.325 55.4162 109.36 56.2766C113.462 59.865 116.052 60.7758 117.343 60.6274C114.316 61.3418 112.197 61.8421 110.337 60.4179C108.141 65.4318 111.328 67.6679 111.393 69.5058C105.951 66.4824 101.8 68.2282 101.131 81.2138C95.4216 72.4525 98.3892 69.5961 97.8455 69.7244C96.0389 70.1509 93.1444 74.3626 89.7636 75.8616C90.3147 73.1919 91.6439 68.9796 89.9283 67.3292C88.4085 65.8672 86.7649 66.1134 82.5613 66.974C83.8509 64.7741 85.729 63.4569 86.1299 62.1272C86.9827 59.2992 85.4861 54.3415 84.6799 52.407Z" fill="#FF6A3B"/>
<path d="M99.5723 60.316C98.7604 57.881 99.4263 56.9769 99.8608 56.8293C106.691 54.5333 107.503 57.6584 107.912 59.2372C108.322 60.816 107.91 63.3069 104.518 64.7913C101.127 66.2756 100.587 63.3598 99.5723 60.316Z" fill="#FFBC3B"/>
<path d="M102.934 58.1688C101.231 57.9301 99.9826 59.609 99.5712 60.4782L100.134 61.9933C101.644 58.1783 104.723 59.7215 105.955 60.9819C105.704 60.2976 105.063 58.4671 102.934 58.1688Z" fill="#FF6A3B"/>
<path d="M98.9866 48.6433C99.5332 47.6279 98.115 46.7664 97.3377 46.4626L95.7481 46.7071C99.214 47.862 97.1351 49.6272 95.6725 50.293C96.3899 50.1844 98.3034 49.9124 98.9866 48.6433Z" fill="#FF6A3B"/>
<path d="M94.8902 60.615C93.1984 61.0188 92.3743 61.4509 91.9316 62.8147C91.5753 63.912 92.3564 65.8417 92.3564 65.8417C92.4251 63.0847 92.4925 62.3349 94.3232 61.8389C95.9684 61.3932 97.3139 62.5448 97.8691 63.6296C97.6181 62.9453 96.8359 60.1506 94.8902 60.615Z" fill="#FF6A3B"/>
<path d="M86.5374 104.002C87.6035 102.59 90.2739 99.8202 91.4759 98.6114L94.0275 107.633C91.3053 107.341 87.8999 105.09 86.5374 104.002Z" fill="#FF6A3B"/>
<path d="M131.513 90.9875C129.82 90.4157 126.02 89.614 124.331 89.2846L127.434 98.1388C129.509 96.387 131.018 92.6413 131.513 90.9875Z" fill="#FF6A3B"/>
<path d="M93.2567 106.204L88.0476 104.004L92.6736 102.912L93.2567 106.204Z" fill="white"/>
<path d="M127.245 96.529L130.27 91.8242L125.826 93.4916L127.245 96.529Z" fill="white"/>
<path d="M105.549 88.112C98.0857 90.2462 92.6992 95.0197 90.9389 97.1396C91.5119 102.881 93.6662 110.075 94.6717 112.954C101.709 114.037 116.206 109.964 122.396 107.712C127.347 105.911 129.214 103.638 129.528 102.727C129.482 99.8364 125.871 90.9413 124.071 86.8551C121.835 85.6625 114.879 85.4443 105.549 88.112Z" fill="#FF6A3B"/>
<path d="M99.0574 107.514C97.6949 108.703 96.3056 110.252 96.4523 110.874C98.3252 110.878 99.0362 110.566 100.689 110.32C104.204 109.799 106.172 109.412 109.655 108.651C114.988 107.485 117.046 107.017 121.967 105.298C123.774 104.667 125.905 103.476 127.054 103.056C126.799 102.753 124.999 102.099 123.458 101.755C118.697 100.692 114.949 102.043 109.654 103.43C105.312 104.568 102.028 104.922 99.0574 107.514Z" fill="#FFBC3B"/>
<path d="M93.7907 99.5975C94.2985 97.742 97.187 95.601 98.9706 95.2297C102.057 97.5679 101.901 99.1039 100.972 101.922C98.2854 103.046 95.0399 101.926 93.7907 99.5975Z" fill="#FFBC3B"/>
<path d="M124.084 91.9764C122.8 90.5438 119.259 89.9204 117.498 90.3859C115.783 93.8576 116.61 95.1613 118.7 97.2669C121.606 97.0711 124.008 94.6177 124.084 91.9764Z" fill="#FFBC3B"/>
<path d="M112.595 94.5383C111.759 92.4239 108.532 91.6444 106.579 93.0855C104.436 94.6669 105.132 98.6504 107.677 99.3707C110.275 100.106 113.531 96.9066 112.595 94.5383Z" fill="#FFBC3B"/>
<path d="M100.482 101.685C97.6873 101.408 96.4105 101.171 95.3879 99.9727C97.2962 99.9786 98.9211 100.237 100.576 99.1715L100.482 101.685Z" fill="white"/>
<path d="M119.288 97.0168C121.664 95.5195 122.7 94.7358 123.079 93.207C121.375 94.0656 120.037 95.0233 118.08 94.8104L119.288 97.0168Z" fill="white"/>
<path d="M107.278 98.5616C108.76 99.2199 110.526 98.7172 111.901 96.2736C105.847 96.3322 108.239 97.8491 106.171 94.8504C105.522 96.6687 105.815 97.9112 107.278 98.5616Z" fill="white"/>
</g>
<defs>
<filter id="filter0_d_1928_8025" x="104" y="27" width="81.4403" height="105.625" filterUnits="userSpaceOnUse" color-interpolation-filters="sRGB">
<feFlood flood-opacity="0" result="BackgroundImageFix"/>
<feColorMatrix in="SourceAlpha" type="matrix" values="0 0 0 0 0 0 0 0 0 0 0 0 0 0 0 0 0 0 127 0" result="hardAlpha"/>
<feOffset dx="3" dy="1"/>
<feGaussianBlur stdDeviation="2"/>
<feComposite in2="hardAlpha" operator="out"/>
<feColorMatrix type="matrix" values="0 0 0 0 0.858333 0 0 0 0 0.146632 0 0 0 0 0.228608 0 0 0 0.15 0"/>
<feBlend mode="normal" in2="BackgroundImageFix" result="effect1_dropShadow_1928_8025"/>
<feBlend mode="normal" in="SourceGraphic" in2="effect1_dropShadow_1928_8025" result="shape"/>
</filter>
<filter id="filter1_d_1928_8025" x="9.95422" y="38" width="95.0909" height="96" filterUnits="userSpaceOnUse" color-interpolation-filters="sRGB">
<feFlood flood-opacity="0" result="BackgroundImageFix"/>
<feColorMatrix in="SourceAlpha" type="matrix" values="0 0 0 0 0 0 0 0 0 0 0 0 0 0 0 0 0 0 127 0" result="hardAlpha"/>
<feOffset dx="3" dy="1"/>
<feGaussianBlur stdDeviation="2"/>
<feComposite in2="hardAlpha" operator="out"/>
<feColorMatrix type="matrix" values="0 0 0 0 0.858333 0 0 0 0 0.146632 0 0 0 0 0.228608 0 0 0 0.15 0"/>
<feBlend mode="normal" in2="BackgroundImageFix" result="effect1_dropShadow_1928_8025"/>
<feBlend mode="normal" in="SourceGraphic" in2="effect1_dropShadow_1928_8025" result="shape"/>
</filter>
<filter id="filter2_d_1928_8025" x="58" y="-2" width="93.2765" height="128.496" filterUnits="userSpaceOnUse" color-interpolation-filters="sRGB">
<feFlood flood-opacity="0" result="BackgroundImageFix"/>
<feColorMatrix in="SourceAlpha" type="matrix" values="0 0 0 0 0 0 0 0 0 0 0 0 0 0 0 0 0 0 127 0" result="hardAlpha"/>
<feOffset dx="3" dy="1"/>
<feGaussianBlur stdDeviation="2"/>
<feComposite in2="hardAlpha" operator="out"/>
<feColorMatrix type="matrix" values="0 0 0 0 0.858333 0 0 0 0 0.146632 0 0 0 0 0.228608 0 0 0 0.15 0"/>
<feBlend mode="normal" in2="BackgroundImageFix" result="effect1_dropShadow_1928_8025"/>
<feBlend mode="normal" in="SourceGraphic" in2="effect1_dropShadow_1928_8025" result="shape"/>
</filter>
<radialGradient id="paint0_radial_1928_8025" cx="0" cy="0" r="1" gradientUnits="userSpaceOnUse" gradientTransform="translate(112.819 130.152) rotate(-105.255) scale(112.998 116.85)">
<stop stop-color="#FF6E40"/>
<stop offset="0.55445" stop-color="#FC4F38"/>
<stop offset="1" stop-color="#EC5500"/>
</radialGradient>
</defs>
</svg>
