<svg width="67" height="92" viewBox="0 0 67 92" fill="none" xmlns="http://www.w3.org/2000/svg">
<mask id="path-1-outside-1_1408_6105" maskUnits="userSpaceOnUse" x="2.31781" y="0.0318156" width="63.76" height="91.4268" fill="black">
<rect fill="white" x="2.31781" y="0.0318156" width="63.76" height="91.4268"/>
<path fill-rule="evenodd" clip-rule="evenodd" d="M19.6618 34.6486C18.5255 31.825 15.997 25.222 14.9736 21.3984C13.6944 16.6188 7.91284 18.6993 8.63603 22.9802C9.35923 27.261 11.0771 33.6884 12.56 38.702C13.5359 42.0014 14.8816 47.9958 15.8346 52.2407C16.3297 54.4461 16.7188 56.1793 16.8949 56.817C16.942 56.9877 16.9935 57.1861 17.0512 57.4083C17.6241 59.6154 18.8062 64.1699 22.3643 67.1513C25.7677 70.0031 25.8488 70.197 26.0389 70.6518C26.0675 70.7203 26.0987 70.7948 26.144 70.8852C26.2399 71.0762 26.3917 71.597 26.5632 72.2622C26.1475 72.6718 25.816 73.0375 25.5755 73.3348C25.6255 73.7783 25.6881 74.2332 25.7611 74.6947C24.7829 75.7143 23.0304 77.5969 22.298 78.5927C23.2145 79.3061 25.3317 80.6821 27.2353 81.1433C27.7351 82.8977 28.2319 84.3977 28.566 85.3164C33.9246 86.0706 44.9017 82.8345 49.5835 81.0633C53.3289 79.6464 54.7254 77.9011 54.9555 77.2055C54.9311 76.3641 54.5006 74.8579 53.8995 73.1462C55.1531 71.6749 56.0358 69.3626 56.3495 68.2637C55.2439 67.9061 52.9647 67.4355 51.5237 67.1605C51.2042 66.4205 50.9063 65.7503 50.654 65.1969C50.2438 64.9849 49.628 64.818 48.8315 64.7161L48.5315 63.5139C48.0246 61.4831 47.9276 60.3006 48.4819 58.5534C48.608 58.1557 48.7771 57.6585 48.974 57.0796L48.9741 57.0795C49.6422 55.115 50.6303 52.2097 51.346 49.0609C51.4594 48.5623 51.5805 48.0642 51.7006 47.5704L51.7006 47.5703C52.5626 44.0262 53.3727 40.6952 50.8876 38.8778C48.6225 37.2213 46.9458 36.3152 46.3907 36.0693C46.0316 34.3216 45.2743 30.0754 45.1173 27.0724C44.921 23.3185 44.1574 14.1616 42.3012 9.25719C40.445 4.35281 35.0354 3.95246 34.8734 8.3687C34.7766 11.0084 35.1004 12.7094 35.4018 14.2924L35.4018 14.2924C35.6046 15.3578 35.7973 16.3697 35.8446 17.5784C35.9389 19.982 36.3203 25.9001 36.4993 28.5587C35.9627 27.5063 34.2112 25.5708 31.4978 26.2481C28.1061 27.0946 27.264 30.3056 27.4918 31.4715C26.8144 30.9523 25.043 30.0178 23.3769 30.4337C21.2943 30.9535 19.4472 33.789 19.6618 34.6486Z"/>
</mask>
<path fill-rule="evenodd" clip-rule="evenodd" d="M19.6618 34.6486C18.5255 31.825 15.997 25.222 14.9736 21.3984C13.6944 16.6188 7.91284 18.6993 8.63603 22.9802C9.35923 27.261 11.0771 33.6884 12.56 38.702C13.5359 42.0014 14.8816 47.9958 15.8346 52.2407C16.3297 54.4461 16.7188 56.1793 16.8949 56.817C16.942 56.9877 16.9935 57.1861 17.0512 57.4083C17.6241 59.6154 18.8062 64.1699 22.3643 67.1513C25.7677 70.0031 25.8488 70.197 26.0389 70.6518C26.0675 70.7203 26.0987 70.7948 26.144 70.8852C26.2399 71.0762 26.3917 71.597 26.5632 72.2622C26.1475 72.6718 25.816 73.0375 25.5755 73.3348C25.6255 73.7783 25.6881 74.2332 25.7611 74.6947C24.7829 75.7143 23.0304 77.5969 22.298 78.5927C23.2145 79.3061 25.3317 80.6821 27.2353 81.1433C27.7351 82.8977 28.2319 84.3977 28.566 85.3164C33.9246 86.0706 44.9017 82.8345 49.5835 81.0633C53.3289 79.6464 54.7254 77.9011 54.9555 77.2055C54.9311 76.3641 54.5006 74.8579 53.8995 73.1462C55.1531 71.6749 56.0358 69.3626 56.3495 68.2637C55.2439 67.9061 52.9647 67.4355 51.5237 67.1605C51.2042 66.4205 50.9063 65.7503 50.654 65.1969C50.2438 64.9849 49.628 64.818 48.8315 64.7161L48.5315 63.5139C48.0246 61.4831 47.9276 60.3006 48.4819 58.5534C48.608 58.1557 48.7771 57.6585 48.974 57.0796L48.9741 57.0795C49.6422 55.115 50.6303 52.2097 51.346 49.0609C51.4594 48.5623 51.5805 48.0642 51.7006 47.5704L51.7006 47.5703C52.5626 44.0262 53.3727 40.6952 50.8876 38.8778C48.6225 37.2213 46.9458 36.3152 46.3907 36.0693C46.0316 34.3216 45.2743 30.0754 45.1173 27.0724C44.921 23.3185 44.1574 14.1616 42.3012 9.25719C40.445 4.35281 35.0354 3.95246 34.8734 8.3687C34.7766 11.0084 35.1004 12.7094 35.4018 14.2924L35.4018 14.2924C35.6046 15.3578 35.7973 16.3697 35.8446 17.5784C35.9389 19.982 36.3203 25.9001 36.4993 28.5587C35.9627 27.5063 34.2112 25.5708 31.4978 26.2481C28.1061 27.0946 27.264 30.3056 27.4918 31.4715C26.8144 30.9523 25.043 30.0178 23.3769 30.4337C21.2943 30.9535 19.4472 33.789 19.6618 34.6486Z" fill="#FF6A3B"/>
<path d="M14.9736 21.3984L17.8716 20.6227L14.9736 21.3984ZM19.6618 34.6486L16.8787 35.7686C17.4673 37.2312 19.0876 37.9886 20.5872 37.5022C22.0869 37.0159 22.9543 35.4517 22.5725 33.9221L19.6618 34.6486ZM8.63603 22.9802L5.67795 23.4799L8.63603 22.9802ZM12.56 38.702L9.68324 39.5529L12.56 38.702ZM15.8346 52.2407L12.9074 52.8978L15.8346 52.2407ZM16.8949 56.817L19.7866 56.0183L16.8949 56.817ZM17.0512 57.4083L14.1474 58.162L17.0512 57.4083ZM22.3643 67.1513L20.4375 69.4508L20.4375 69.4508L22.3643 67.1513ZM26.0389 70.6518L28.8067 69.4947L28.8067 69.4946L26.0389 70.6518ZM26.144 70.8852L23.4627 72.2307L23.4627 72.2307L26.144 70.8852ZM26.5632 72.2622L28.6687 74.3993C29.4306 73.6486 29.7352 72.549 29.4682 71.5132L26.5632 72.2622ZM25.5755 73.3348L23.2431 71.448C22.7381 72.0723 22.5044 72.873 22.5944 73.6709L25.5755 73.3348ZM25.7611 74.6947L27.9259 76.7715C28.5754 76.0946 28.8707 75.1528 28.7243 74.2262L25.7611 74.6947ZM22.298 78.5927L19.8813 76.8152C18.9185 78.1242 19.1729 79.9619 20.4553 80.9601L22.298 78.5927ZM27.2353 81.1433L30.1206 80.3215C29.8245 79.282 28.9921 78.4822 27.9417 78.2277L27.2353 81.1433ZM28.566 85.3164L25.7466 86.3417C26.1258 87.3843 27.0493 88.1326 28.1479 88.2872L28.566 85.3164ZM49.5835 81.0633L48.522 78.2574L48.522 78.2574L49.5835 81.0633ZM54.9555 77.2055L57.8037 78.1477C57.9134 77.816 57.9644 77.4677 57.9542 77.1185L54.9555 77.2055ZM53.8995 73.1462L51.616 71.2006C50.9235 72.0133 50.7152 73.1328 51.0689 74.1401L53.8995 73.1462ZM56.3495 68.2637L59.2343 69.087C59.6778 67.5329 58.8105 65.9067 57.2728 65.4093L56.3495 68.2637ZM51.5237 67.1605L48.7695 68.3497C49.1636 69.2627 49.9846 69.921 50.9614 70.1074L51.5237 67.1605ZM50.654 65.1969L53.3839 63.9528C53.1051 63.341 52.6288 62.8406 52.0315 62.5319L50.654 65.1969ZM48.8315 64.7161L45.9208 65.4425C46.2202 66.6419 47.2245 67.5348 48.4506 67.6918L48.8315 64.7161ZM48.4819 58.5534L51.3414 59.4606L51.3414 59.4606L48.4819 58.5534ZM48.974 57.0796L46.1492 56.0695C46.1439 56.0841 46.1388 56.0989 46.1338 56.1136L48.974 57.0796ZM48.9741 57.0795L51.7989 58.0896C51.8041 58.0749 51.8093 58.0602 51.8143 58.0455L48.9741 57.0795ZM51.346 49.0609L48.4207 48.3959L48.4207 48.3959L51.346 49.0609ZM51.7006 47.5704L48.813 46.757C48.8032 46.7916 48.7941 46.8265 48.7856 46.8614L51.7006 47.5704ZM51.7006 47.5703L54.5883 48.3836C54.598 48.349 54.6072 48.3142 54.6157 48.2792L51.7006 47.5703ZM50.8876 38.8778L52.6585 36.4563L52.6585 36.4563L50.8876 38.8778ZM46.3907 36.0693L43.452 36.673C43.6471 37.6226 44.289 38.4194 45.1754 38.8121L46.3907 36.0693ZM45.1173 27.0724L42.1214 27.229L42.1214 27.229L45.1173 27.0724ZM42.3012 9.25719L45.107 8.19527L42.3012 9.25719ZM34.8734 8.3687L37.8714 8.47865L37.8714 8.47865L34.8734 8.3687ZM35.4018 14.2924L32.4547 14.8534C32.4653 14.9089 32.4774 14.9641 32.4911 15.0189L35.4018 14.2924ZM35.4018 14.2924L38.3489 13.7314C38.3383 13.6759 38.3262 13.6207 38.3125 13.5659L35.4018 14.2924ZM35.8446 17.5784L38.8423 17.4609L38.8423 17.4609L35.8446 17.5784ZM36.4993 28.5587L33.8266 29.9214C34.4737 31.1906 35.9243 31.8297 37.2976 31.4506C38.6709 31.0714 39.5882 29.7787 39.4925 28.3573L36.4993 28.5587ZM27.4918 31.4715L25.6668 33.8526C26.6566 34.6112 28.0124 34.6784 29.0724 34.0214C30.1323 33.3644 30.6752 32.1202 30.4361 30.8962L27.4918 31.4715ZM12.0756 22.174C13.1518 26.1949 15.7457 32.9531 16.8787 35.7686L22.4449 33.5285C21.3053 30.6968 18.8422 24.249 17.8716 20.6227L12.0756 22.174ZM11.5941 22.4804C11.5624 22.293 11.5729 22.1611 11.5901 22.075C11.6076 21.9875 11.6374 21.9203 11.6713 21.8671C11.7457 21.7504 11.8506 21.6849 11.9217 21.6634C11.9804 21.6456 11.9303 21.6762 11.8422 21.6254C11.8067 21.6049 11.8182 21.5991 11.8602 21.658C11.905 21.721 11.9956 21.8749 12.0756 22.174L17.8716 20.6227C17.3879 18.8154 16.3705 17.3114 14.8418 16.429C13.3325 15.5577 11.6423 15.4798 10.1861 15.9199C7.28838 16.7956 5.05375 19.7851 5.67795 23.4799L11.5941 22.4804ZM15.4368 37.8511C13.9586 32.8531 12.2853 26.5717 11.5941 22.4804L5.67795 23.4799C6.43315 27.9502 8.19574 34.5237 9.68324 39.5529L15.4368 37.8511ZM18.7617 51.5836C17.8197 47.3874 16.4484 41.2711 15.4368 37.8511L9.68324 39.5529C10.6235 42.7318 11.9435 48.6042 12.9074 52.8978L18.7617 51.5836ZM19.7866 56.0183C19.6359 55.4725 19.2699 53.8472 18.7617 51.5836L12.9074 52.8978C13.3895 55.0451 13.8017 56.8862 14.0032 57.6158L19.7866 56.0183ZM19.955 56.6547C19.8991 56.4393 19.8412 56.2161 19.7866 56.0183L14.0032 57.6158C14.0428 57.7593 14.088 57.933 14.1474 58.162L19.955 56.6547ZM24.2911 64.8519C21.5574 62.5612 20.5463 58.9329 19.955 56.6547L14.1474 58.162C14.7018 60.2979 16.055 65.7786 20.4375 69.4508L24.2911 64.8519ZM28.8067 69.4946C28.7497 69.3582 28.6096 69.0116 28.3315 68.6089C28.0886 68.2573 27.8027 67.9493 27.5104 67.6617C26.9407 67.1013 25.975 66.2629 24.2911 64.8519L20.4375 69.4508C22.157 70.8916 22.9336 71.576 23.3028 71.9391C23.4799 72.1134 23.4627 72.1174 23.3948 72.0191C23.2917 71.8698 23.233 71.718 23.271 71.8089L28.8067 69.4946ZM28.8254 69.5397C28.828 69.5449 28.8295 69.5482 28.8285 69.546C28.8276 69.5442 28.8259 69.5401 28.8224 69.5319C28.8185 69.5228 28.8144 69.5129 28.8067 69.4947L23.271 71.8089C23.3008 71.88 23.3665 72.039 23.4627 72.2307L28.8254 69.5397ZM29.4682 71.5132C29.3777 71.1624 29.2857 70.823 29.198 70.5316C29.1326 70.3141 29.0056 69.8988 28.8254 69.5397L23.4627 72.2307C23.4268 72.1593 23.4063 72.1089 23.4008 72.0953C23.3938 72.078 23.3925 72.0734 23.3969 72.086C23.4063 72.1126 23.4248 72.1683 23.4524 72.2601C23.5075 72.4432 23.5771 72.6968 23.6582 73.0113L29.4682 71.5132ZM24.4577 70.1252C23.979 70.5968 23.5682 71.0461 23.2431 71.448L27.9079 75.2215C28.0638 75.0289 28.316 74.7467 28.6687 74.3993L24.4577 70.1252ZM22.5944 73.6709C22.65 74.164 22.7189 74.6633 22.7979 75.1631L28.7243 74.2262C28.6574 73.803 28.601 73.3926 28.5566 72.9986L22.5944 73.6709ZM24.7147 80.3702C25.3093 79.5618 26.9165 77.8238 27.9259 76.7715L23.5962 72.6178C22.6493 73.6049 20.7515 75.632 19.8813 76.8152L24.7147 80.3702ZM27.9417 78.2277C27.359 78.0865 26.6203 77.767 25.8555 77.3413C25.1091 76.9258 24.4788 76.4885 24.1407 76.2253L20.4553 80.9601C21.4936 81.7683 24.0115 83.449 26.5289 84.0589L27.9417 78.2277ZM24.3501 81.9651C24.8677 83.7822 25.3862 85.3505 25.7466 86.3417L31.3854 84.2912C31.0776 83.445 30.6024 82.0132 30.1206 80.3215L24.3501 81.9651ZM28.1479 88.2872C31.4372 88.7501 36.0117 87.9944 40.0123 87.0579C44.1418 86.0913 48.1826 84.8008 50.645 83.8692L48.522 78.2574C46.3026 79.097 42.514 80.3102 38.6448 81.2158C34.6468 82.1517 31.0534 82.637 28.9841 82.3457L28.1479 88.2872ZM50.645 83.8692C52.7793 83.0618 54.3636 82.1161 55.5008 81.1748C56.5516 80.3049 57.437 79.2562 57.8037 78.1477L52.1073 76.2633C52.1948 75.9988 52.2781 75.9323 52.1827 76.0542C52.1103 76.1467 51.9535 76.3222 51.6747 76.553C51.1197 77.0124 50.1331 77.6479 48.522 78.2574L50.645 83.8692ZM57.9542 77.1185C57.9315 76.3358 57.741 75.4726 57.5421 74.728C57.3294 73.9315 57.0448 73.0485 56.7301 72.1523L51.0689 74.1401C51.3553 74.9557 51.5865 75.6816 51.7454 76.2764C51.8245 76.5727 51.8799 76.8152 51.9152 77.005C51.9326 77.0987 51.9435 77.1709 51.9499 77.2236C51.9565 77.2777 51.957 77.2988 51.9568 77.2925L57.9542 77.1185ZM53.4646 67.4404C53.3503 67.841 53.1054 68.5475 52.7548 69.3044C52.3957 70.0798 51.9957 70.7549 51.616 71.2006L56.183 75.0919C57.8485 73.1372 58.8767 70.3397 59.2343 69.087L53.4646 67.4404ZM50.9614 70.1074C52.4429 70.3901 54.5308 70.8285 55.4261 71.1181L57.2728 65.4093C55.9569 64.9837 53.4865 64.4809 52.086 64.2137L50.9614 70.1074ZM54.2779 65.9713C53.951 65.2142 53.645 64.5256 53.3839 63.9528L47.9242 66.4411C48.1675 66.975 48.4573 67.6268 48.7695 68.3497L54.2779 65.9713ZM52.0315 62.5319C51.1748 62.0891 50.1648 61.8623 49.2125 61.7403L48.4506 67.6918C48.7454 67.7295 48.9651 67.7742 49.1174 67.8147C49.2775 67.8572 49.3169 67.8828 49.2765 67.862L52.0315 62.5319ZM45.6208 64.2404L45.9208 65.4425L51.7423 63.9896L51.4422 62.7874L45.6208 64.2404ZM45.6223 57.6462C45.2627 58.7798 45.082 59.845 45.1096 60.9989C45.1359 62.1018 45.3513 63.1608 45.6208 64.2404L51.4422 62.7874C51.2048 61.8362 51.1182 61.2885 51.1079 60.8557C51.0988 60.4739 51.1468 60.0742 51.3414 59.4606L45.6223 57.6462ZM46.1338 56.1136C45.9406 56.6817 45.76 57.2124 45.6223 57.6462L51.3414 59.4606C51.4561 59.099 51.6137 58.6353 51.8143 58.0455L46.1338 56.1136ZM46.1492 56.0694L46.1492 56.0695L51.7989 58.0897L51.7989 58.0896L46.1492 56.0694ZM48.4207 48.3959C47.7438 51.3736 46.8041 54.1428 46.1338 56.1135L51.8143 58.0455C52.4803 56.0871 53.5167 53.0459 54.2714 49.7259L48.4207 48.3959ZM48.7856 46.8614C48.6664 47.3517 48.5399 47.8716 48.4207 48.3959L54.2714 49.7259C54.3789 49.2529 54.4947 48.7768 54.6156 48.2793L48.7856 46.8614ZM48.813 46.7569L48.813 46.757L54.5883 48.3837L54.5883 48.3836L48.813 46.7569ZM49.1167 41.2994C49.3373 41.4607 49.549 41.6727 49.5493 42.5773C49.5495 43.6461 49.2421 44.9843 48.7856 46.8613L54.6157 48.2792C55.0211 46.6122 55.5497 44.5128 55.5493 42.5758C55.5488 40.4745 54.9231 38.1124 52.6585 36.4563L49.1167 41.2994ZM45.1754 38.8121C45.4755 38.9451 46.9636 39.7248 49.1167 41.2994L52.6585 36.4563C50.2813 34.7178 48.4162 33.6854 47.6059 33.3264L45.1754 38.8121ZM42.1214 27.229C42.2905 30.4651 43.0859 34.891 43.452 36.673L49.3293 35.4655C48.9773 33.7521 48.258 29.6857 48.1132 26.9157L42.1214 27.229ZM39.4954 10.3191C40.2941 12.4293 40.9151 15.6552 41.3578 18.9909C41.7924 22.2659 42.0264 25.4118 42.1214 27.229L48.1132 26.9157C48.0119 24.9791 47.7659 21.6696 47.3056 18.2015C46.8534 14.7942 46.1645 10.9895 45.107 8.19527L39.4954 10.3191ZM37.8714 8.47865C37.8892 7.9925 38.0239 8.02536 37.8566 8.17704C37.6923 8.32606 37.5592 8.29336 37.6523 8.30271C37.89 8.32657 38.8795 8.69168 39.4954 10.3191L45.107 8.19527C43.8667 4.91832 41.2233 2.63106 38.2517 2.33272C36.7401 2.18096 35.1082 2.56969 33.826 3.73245C32.5409 4.89787 31.9386 6.53677 31.8754 8.25874L37.8714 8.47865ZM38.3489 13.7314C38.0586 12.2066 37.7873 10.7729 37.8714 8.47865L31.8754 8.25874C31.766 11.2438 32.1423 13.2122 32.4547 14.8534L38.3489 13.7314ZM38.3125 13.5659L38.3125 13.5659L32.4911 15.0189L32.4911 15.0189L38.3125 13.5659ZM38.8423 17.4609C38.7851 16 38.5492 14.7836 38.3489 13.7314L32.4547 14.8534C32.6601 15.932 32.8095 16.7395 32.8469 17.6959L38.8423 17.4609ZM39.4925 28.3573C39.3126 25.6853 38.9346 19.8135 38.8423 17.4609L32.8469 17.6959C32.9432 20.1504 33.328 26.1149 33.506 28.7602L39.4925 28.3573ZM32.2243 29.1588C32.4905 29.0923 32.6747 29.1016 32.802 29.1252C32.9373 29.1503 33.0748 29.2045 33.2179 29.2944C33.3656 29.3873 33.506 29.5105 33.6259 29.6461C33.7502 29.7866 33.814 29.8967 33.8266 29.9214L39.1719 27.196C38.3371 25.5587 35.4464 22.1705 30.7713 23.3373L32.2243 29.1588ZM30.4361 30.8962C30.4793 31.1173 30.4339 31.1228 30.4813 30.896C30.5197 30.712 30.6008 30.4745 30.7384 30.235C30.9913 29.7951 31.4177 29.3601 32.2243 29.1588L30.7713 23.3373C28.1861 23.9826 26.4957 25.5763 25.5365 27.245C24.6639 28.7631 24.2629 30.5904 24.5475 32.0467L30.4361 30.8962ZM24.1034 33.3444C24.1936 33.3219 24.4393 33.3082 24.852 33.4465C25.2596 33.5831 25.5792 33.7854 25.6668 33.8526L29.3168 29.0904C28.727 28.6384 27.8222 28.1139 26.7582 27.7574C25.6994 27.4026 24.2263 27.1296 22.6504 27.523L24.1034 33.3444ZM22.5725 33.9221C22.701 34.4369 22.6214 34.8063 22.6094 34.8632C22.5882 34.9632 22.5711 34.9845 22.6002 34.9191C22.6574 34.7905 22.7924 34.5517 23.0132 34.2718C23.2298 33.9973 23.4733 33.754 23.7052 33.5774C23.8183 33.4913 23.9141 33.432 23.9884 33.3936C24.0248 33.3748 24.0531 33.3625 24.0732 33.3547C24.0831 33.3509 24.0906 33.3483 24.0957 33.3467C24.0982 33.3458 24.1002 33.3453 24.1015 33.3449C24.1021 33.3447 24.1026 33.3446 24.1029 33.3445C24.1031 33.3445 24.1032 33.3444 24.1033 33.3444C24.1043 33.3441 24.1023 33.3447 24.1034 33.3444C24.1044 33.3441 24.1024 33.3446 24.1034 33.3444L22.6504 27.523C20.6843 28.0137 19.1848 29.4374 18.3026 30.5556C17.8281 31.157 17.4115 31.8207 17.1176 32.4817C16.9711 32.8112 16.8287 33.1991 16.7394 33.6207C16.6593 33.9993 16.5689 34.6453 16.7511 35.375L22.5725 33.9221Z" fill="white" mask="url(#path-1-outside-1_1408_6105)"/>
<path d="M14.9736 21.3984C15.997 25.222 18.5255 31.825 19.6618 34.6486C19.4472 33.789 21.2943 30.9535 23.3769 30.4337C25.043 30.0178 26.8144 30.9523 27.4918 31.4715C27.264 30.3056 28.1061 27.0946 31.4978 26.2481C34.2112 25.5708 35.9627 27.5063 36.4993 28.5587C36.3203 25.9001 35.9389 19.982 35.8446 17.5784C35.7269 14.5739 34.7115 12.7849 34.8734 8.3687C35.0354 3.95246 40.445 4.35281 42.3012 9.25719C44.1574 14.1616 44.921 23.3185 45.1173 27.0724C45.2743 30.0754 46.0316 34.3216 46.3907 36.0693C46.9458 36.3152 48.6225 37.2213 50.8876 38.8778C53.719 40.9485 52.2728 44.9841 51.346 49.0609C50.4193 53.1377 49.0362 56.8062 48.4819 58.5534C47.9276 60.3006 48.0246 61.4831 48.5315 63.5139L50.3099 70.6391L27.5033 76.3314C27.1657 74.746 26.4211 71.4373 26.144 70.8852C25.7977 70.1951 26.2807 70.433 22.3643 67.1513C18.4479 63.8697 17.4101 58.6822 16.8949 56.817C16.3797 54.9519 14.0429 43.7156 12.56 38.702C11.0771 33.6884 9.35923 27.261 8.63603 22.9802C7.91284 18.6993 13.6944 16.6188 14.9736 21.3984Z" fill="#FFBC3B"/>
<path d="M20.3842 39.4036C19.8791 38.2338 19.2594 35.8101 19.6429 34.6681C20.2963 37.0223 21.6989 39.7694 22.3043 41.824L21.6072 39.0307L21.085 35.3545C22.1033 36.7186 24.7155 48.6557 25.2878 49.4774C25.86 50.2991 27.6714 51.3329 29.9395 50.6886C32.2076 50.0443 31.8648 48.3311 31.7466 47.2918C31.652 46.4604 30.6502 43.8419 30.161 42.6366C29.6856 42.4938 28.328 42.4428 26.5214 41.8001C24.7149 41.1575 24.3692 38.6934 24.2596 37.1197C24.15 35.5459 25.7198 35.1264 27.0975 34.6891C28.4752 34.2518 33.9984 30.9225 35.3764 30.2028C36.7544 29.4831 38.2211 30.3674 39.1693 30.8332C39.9279 31.2059 44.2484 34.6009 46.412 36.1303C43.6664 34.5356 38.1901 31.9193 37.499 31.6031C36.635 31.2078 35.3859 31.806 34.5665 32.335C33.7471 32.8641 32.8311 33.3347 30.3879 34.6508C27.9448 35.967 26.9427 36.0329 26.2806 36.4464C25.6185 36.8598 25.7188 37.2864 26.0432 38.8504C26.3675 40.4144 27.6654 40.7808 29.9598 41.122C31.7954 41.395 35.661 40.705 37.0779 40.2498C37.3796 40.4893 38.3826 41.4604 39.1769 42.1042C42.3294 44.7913 44.3068 45.4582 45.2858 45.3329C42.9926 45.9053 41.387 46.306 39.9601 45.2418C38.3402 49.0734 40.7837 50.7418 40.8511 52.1377C36.6862 49.8931 33.5484 51.2601 33.1665 61.1349C28.7422 54.5324 30.9696 52.3329 30.5577 52.4357C29.189 52.7773 27.0303 56.0061 24.4757 57.1782C24.8685 55.144 25.8377 51.93 24.5178 50.6924C23.3487 49.5962 22.1021 49.7993 18.9159 50.4942C19.8746 48.8099 21.289 47.7906 21.5807 46.7762C22.2012 44.6188 21.0157 40.8658 20.3842 39.4036Z" fill="#FF6A3B"/>
<path d="M31.7782 45.2659C31.1375 43.4233 31.6348 42.7298 31.9635 42.6134C37.1318 40.8021 37.7789 43.1691 38.1056 44.3649C38.4323 45.5607 38.1432 47.4577 35.5805 48.6187C33.0177 49.7797 32.579 47.5691 31.7782 45.2659Z" fill="#FFBC3B"/>
<path d="M34.3126 43.6055C33.0159 43.4407 32.0835 44.7287 31.7794 45.3933L32.2216 46.5392C33.3321 43.6253 35.687 44.7681 36.6357 45.7139C36.4383 45.1964 35.9335 43.8115 34.3126 43.6055Z" fill="#FF6A3B"/>
<path d="M31.2197 36.4056C31.6252 35.6287 30.5392 34.9878 29.9454 34.7644L28.7398 34.9657C31.385 35.8096 29.8223 37.1713 28.7173 37.6915C29.2614 37.602 30.7129 37.3767 31.2197 36.4056Z" fill="#FF6A3B"/>
<path d="M28.2234 45.5441C26.9416 45.8675 26.3195 46.2038 25.9964 47.2445C25.7363 48.0819 26.3487 49.5407 26.3487 49.5407C26.3741 47.4449 26.418 46.8745 27.8044 46.4798C29.0503 46.1251 30.084 46.9871 30.5165 47.8061C30.3191 47.2885 29.6975 45.1723 28.2234 45.5441Z" fill="#FF6A3B"/>
<path d="M22.298 78.5943C23.0944 77.5116 25.0968 75.3803 25.9985 74.45L28.0253 81.2812C25.9538 81.0857 23.3439 79.4085 22.298 78.5943Z" fill="#FF6A3B"/>
<path d="M56.3499 68.2657C55.0576 67.8477 52.1618 67.2753 50.8755 67.0414L53.3192 73.7399C54.8796 72.3885 55.9898 69.5273 56.3499 68.2657Z" fill="#FF6A3B"/>
<path d="M27.4253 80.203L23.4453 78.582L26.9502 77.7073L27.4253 80.203Z" fill="white"/>
<path d="M53.1603 72.5227L55.4136 68.918L52.0526 70.2283L53.1603 72.5227Z" fill="white"/>
<path d="M36.5907 66.3354C30.9396 68.0298 26.8926 71.7098 25.5755 73.338C26.0668 77.6953 27.7739 83.1413 28.566 85.3197C33.9245 86.0738 44.9017 82.8377 49.5835 81.0665C53.3289 79.6496 54.7254 77.9043 54.9555 77.2087C54.8918 75.0125 52.0613 68.2879 50.654 65.2001C48.9427 64.3156 43.6546 64.2174 36.5907 66.3354Z" fill="#FF6A3B"/>
<path d="M31.8465 81.1414C30.8226 82.0581 29.7819 83.2491 29.8994 83.72C31.3228 83.7051 31.86 83.4605 33.114 83.258C35.7799 82.8275 37.2719 82.5145 39.911 81.902C43.9525 80.964 45.5121 80.5883 49.2348 79.2344C50.6016 78.7374 52.2095 77.8112 53.0784 77.4809C52.8824 77.2534 51.5079 76.7737 50.3334 76.5272C46.7049 75.766 43.8696 76.8289 39.8596 77.935C36.5712 78.8421 34.0784 79.143 31.8465 81.1414Z" fill="#FFBC3B"/>
<path d="M27.7666 75.176C28.1344 73.761 30.3087 72.1058 31.6605 71.8064C34.0291 73.5532 33.9248 74.722 33.2468 76.8726C31.2158 77.7532 28.7385 76.9334 27.7666 75.176Z" fill="#FFBC3B"/>
<path d="M50.7143 69.09C49.7247 68.0138 47.0276 67.5745 45.6937 67.9454C44.4237 70.6004 45.065 71.5831 46.6741 73.1629C48.8807 72.9858 50.6821 71.098 50.7143 69.09Z" fill="#FFBC3B"/>
<path d="M42.0081 71.1487C41.3527 69.5499 38.8924 68.989 37.4223 70.1032C35.8092 71.3258 36.3767 74.3462 38.3179 74.8688C40.2992 75.4023 42.7423 72.9394 42.0081 71.1487Z" fill="#FFBC3B"/>
<path d="M32.872 76.6973C30.7455 76.5141 29.7728 76.3457 28.9841 75.4453C30.4344 75.4313 31.6717 75.6118 32.9191 74.786L32.872 76.6973Z" fill="white"/>
<path d="M47.1182 72.9672C48.9092 71.8062 49.6887 71.2006 49.9618 70.0352C48.675 70.7042 47.6677 71.445 46.1786 71.3023L47.1182 72.9672Z" fill="white"/>
<path d="M38.0071 74.2599C39.1394 74.7458 40.4767 74.3466 41.4975 72.4763C36.898 72.5797 38.7303 73.7092 37.1297 71.4505C36.6541 72.8385 36.8885 73.7799 38.0071 74.2599Z" fill="white"/>
</svg>
