<svg width="22" height="37" viewBox="0 0 22 37" fill="none" xmlns="http://www.w3.org/2000/svg">
<path d="M17.7499 10.5231L10.9894 13.7703L8.13031 2.62721C7.95389 1.93963 7.31966 1.46985 6.61052 1.50149C5.90137 1.53313 5.3115 2.05751 5.19701 2.75807L1.75053 23.8467C1.66867 24.3476 1.84567 24.856 2.22095 25.1977C2.59623 25.5395 3.11887 25.6682 3.60996 25.54L9.58492 23.9794L13.4249 34.2427C13.6632 34.8795 14.2999 35.2764 14.9766 35.2099C15.6532 35.1433 16.2005 34.63 16.3102 33.959L19.8797 12.1172C19.9699 11.5654 19.7458 11.0093 19.2982 10.6743C18.8506 10.3394 18.2539 10.2811 17.7499 10.5231Z" fill="#C2D72F" stroke="white" stroke-width="3" stroke-linejoin="round"/>
</svg>
