<svg width="329" height="230" viewBox="0 0 329 230" fill="none" xmlns="http://www.w3.org/2000/svg">
<path fill-rule="evenodd" clip-rule="evenodd" d="M294.977 195.534C284.282 206.061 271.791 214.219 257.973 220.105C243.414 226.303 227.985 229.143 212.178 229.143H116.942C101.133 229.143 85.7044 226.303 71.1465 220.105C57.3269 214.219 44.8364 206.061 34.1432 195.534C23.5122 185.068 15.2322 172.839 9.26968 159.212C3.07227 145.044 0.175781 130.034 0.175781 114.611C0.175781 99.1876 3.07227 84.1791 9.26968 70.0095C15.2322 56.3836 23.5122 44.152 34.1432 33.6877C44.8364 23.162 57.3269 15.0004 71.1465 9.11837C85.7044 2.91968 101.133 0.078125 116.942 0.078125H212.178C227.985 0.078125 243.414 2.91968 257.973 9.11837C271.791 15.0004 284.282 23.162 294.977 33.6877C305.606 44.152 313.888 56.3836 319.847 70.0095C326.046 84.1791 328.941 99.1876 328.941 114.611C328.941 130.034 326.046 145.044 319.847 159.212C313.888 172.839 305.606 185.068 294.977 195.534ZM277.645 88.2425C274.006 79.9268 269.071 72.5576 262.59 66.1799C256.002 59.6927 248.368 54.7838 239.848 51.1531C231.026 47.3981 221.756 45.8099 212.178 45.8099H116.942C107.364 45.8099 98.0926 47.3981 89.2705 51.1531C80.7505 54.7838 73.1149 59.6927 66.5282 66.1799C60.0472 72.5576 55.1117 79.9268 51.4735 88.2425C47.795 96.6528 46.1957 105.451 46.1957 114.611C46.1957 123.77 47.795 132.57 51.4735 140.979C55.1117 149.294 60.0472 156.664 66.5282 163.043C73.1149 169.527 80.7505 174.437 89.2705 178.066C98.0926 181.821 107.364 183.411 116.942 183.411H212.178C221.756 183.411 231.026 181.821 239.848 178.066C248.368 174.437 256.002 169.527 262.59 163.043C269.071 156.664 274.006 149.294 277.645 140.979C281.323 132.57 282.921 123.77 282.921 114.611C282.921 105.451 281.323 96.6528 277.645 88.2425Z" fill="white"/>
<path opacity="0.302" fill-rule="evenodd" clip-rule="evenodd" d="M250.719 113.395C250.719 136.285 231.935 154.842 208.765 154.842L119.823 154.842C96.6527 154.842 77.8691 136.285 77.8691 113.395C77.8691 90.5055 96.6527 71.9492 119.823 71.9492L208.765 71.9492C231.935 71.9492 250.719 90.5055 250.719 113.395Z" fill="white"/>
<path opacity="0.302" fill-rule="evenodd" clip-rule="evenodd" d="M250.719 113.395C250.719 136.285 231.935 154.842 208.765 154.842L144.733 154.842C121.563 154.842 102.78 136.285 102.78 113.395C102.78 90.5055 121.563 71.9492 144.733 71.9492L208.765 71.9492C231.935 71.9492 250.719 90.5055 250.719 113.395Z" fill="white"/>
<path opacity="0.4" fill-rule="evenodd" clip-rule="evenodd" d="M250.719 113.395C250.719 136.285 231.935 154.842 208.765 154.842L166.707 154.842C143.535 154.842 124.753 136.285 124.753 113.395C124.753 90.5055 143.535 71.9492 166.707 71.9492L208.765 71.9492C231.935 71.9492 250.719 90.5055 250.719 113.395Z" fill="white"/>
<path opacity="0.6" fill-rule="evenodd" clip-rule="evenodd" d="M250.719 113.395C250.719 136.285 231.935 154.842 208.765 154.842L188.943 154.842C165.771 154.842 146.989 136.285 146.989 113.395C146.989 90.5055 165.771 71.9492 188.943 71.9492L208.765 71.9492C231.935 71.9492 250.719 90.5055 250.719 113.395Z" fill="white"/>
<path fill-rule="evenodd" clip-rule="evenodd" d="M250.719 113.395C250.719 136.285 231.9 154.842 208.686 154.842C185.472 154.842 166.653 136.285 166.653 113.395C166.653 90.5055 185.472 71.9492 208.686 71.9492C231.9 71.9492 250.719 90.5055 250.719 113.395Z" fill="white"/>
</svg>
