<svg width="36" height="36" viewBox="0 0 36 36" fill="none" xmlns="http://www.w3.org/2000/svg">
<path fill-rule="evenodd" clip-rule="evenodd" d="M18 36C27.9411 36 36 27.9411 36 18C36 8.05887 27.9411 0 18 0C8.05887 0 0 8.05887 0 18C0 27.9411 8.05887 36 18 36ZM22.4449 9.04612C21.285 8.9932 20.9371 8.98202 18 8.98202C15.0628 8.98202 14.715 8.9932 13.555 9.04612C12.4826 9.09507 11.9001 9.27427 11.5125 9.42487C10.9991 9.62442 10.6326 9.86282 10.2477 10.2477C9.86278 10.6326 9.62437 10.9991 9.42487 11.5125C9.27423 11.9002 9.09503 12.4826 9.04608 13.5551C8.99316 14.715 8.98198 15.0629 8.98198 18C8.98198 20.9372 8.99316 21.285 9.04608 22.445C9.09503 23.5174 9.27423 24.0999 9.42487 24.4875C9.62437 25.0009 9.86278 25.3674 10.2477 25.7523C10.6326 26.1372 10.9991 26.3756 11.5125 26.5751C11.9001 26.7258 12.4826 26.905 13.5551 26.9539C14.7148 27.0068 15.0627 27.018 18 27.018C20.9373 27.018 21.2852 27.0068 22.4449 26.9539C23.5174 26.905 24.0998 26.7258 24.4875 26.5751C25.0009 26.3756 25.3674 26.1372 25.7523 25.7523C26.1372 25.3674 26.3756 25.0009 26.5751 24.4875C26.7257 24.0999 26.9049 23.5174 26.9539 22.4449C27.0068 21.285 27.018 20.9372 27.018 18C27.018 15.0629 27.0068 14.715 26.9539 13.5551C26.9049 12.4826 26.7257 11.9002 26.5751 11.5125C26.3756 10.9991 26.1372 10.6326 25.7523 10.2477C25.3674 9.86282 25.0009 9.62442 24.4875 9.42487C24.0998 9.27427 23.5174 9.09507 22.4449 9.04612ZM13.4647 7.0662C14.638 7.01266 15.0125 7 18 7C20.9874 7 21.362 7.01266 22.5352 7.0662C23.7061 7.11964 24.5057 7.30556 25.2054 7.57751C25.9288 7.85862 26.5422 8.23475 27.1537 8.84627C27.7653 9.45779 28.1414 10.0712 28.4225 10.7946C28.6944 11.4943 28.8804 12.2939 28.9338 13.4648C28.9873 14.638 29 15.0126 29 18C29 20.9875 28.9873 21.3621 28.9338 22.5353C28.8804 23.7062 28.6944 24.5057 28.4225 25.2055C28.1414 25.9288 27.7653 26.5423 27.1537 27.1538C26.5422 27.7653 25.9288 28.1414 25.2054 28.4225C24.5057 28.6945 23.7061 28.8804 22.5352 28.9338C21.362 28.9874 20.9874 29 18 29C15.0125 29 14.638 28.9874 13.4647 28.9338C12.2938 28.8804 11.4943 28.6945 10.7945 28.4225C10.0712 28.1414 9.45775 27.7653 8.84623 27.1538C8.2347 26.5423 7.85858 25.9288 7.57746 25.2055C7.30552 24.5057 7.1196 23.7062 7.06615 22.5353C7.01262 21.3621 7 20.9875 7 18C7 15.0126 7.01262 14.638 7.06615 13.4648C7.1196 12.2939 7.30552 11.4943 7.57746 10.7946C7.85858 10.0712 8.2347 9.45779 8.84623 8.84627C9.45775 8.23475 10.0712 7.85862 10.7945 7.57751C11.4943 7.30556 12.2938 7.11964 13.4647 7.0662ZM12.3513 18C12.3513 14.8804 14.8803 12.3514 18 12.3514C21.1196 12.3514 23.6486 14.8804 23.6486 18C23.6486 21.1197 21.1196 23.6487 18 23.6487C14.8803 23.6487 12.3513 21.1197 12.3513 18ZM14.3333 18C14.3333 20.0251 15.9749 21.6667 18 21.6667C20.025 21.6667 21.6667 20.0251 21.6667 18C21.6667 15.975 20.025 14.3333 18 14.3333C15.9749 14.3333 14.3333 15.975 14.3333 18ZM23.8718 13.4482C24.6008 13.4482 25.1918 12.8572 25.1918 12.1282C25.1918 11.3992 24.6008 10.8082 23.8718 10.8082C23.1428 10.8082 22.5518 11.3992 22.5518 12.1282C22.5518 12.8572 23.1428 13.4482 23.8718 13.4482Z" fill="white"/>
</svg>
