<svg width="36" height="36" viewBox="0 0 36 36" fill="none" xmlns="http://www.w3.org/2000/svg">
<ellipse cx="18" cy="18" rx="16" ry="14" fill="#C2D72F"/>
<path fill-rule="evenodd" clip-rule="evenodd" d="M18 0C8.061 0 0 8.058 0 18C0 27.9405 8.061 36 18 36C27.9405 36 36 27.9405 36 18C36 8.058 27.9405 0 18 0ZM22.836 26.8065C23.118 27.006 23.481 27.0555 23.805 26.934C24.1275 26.811 24.366 26.5335 24.438 26.1975C25.1985 22.6245 27.0435 13.5795 27.735 10.3305C27.7875 10.0845 27.7005 9.8295 27.5085 9.666C27.315 9.5025 27.048 9.456 26.811 9.543C23.142 10.902 11.8425 15.141 7.224 16.8495C6.9315 16.959 6.741 17.2395 6.75 17.55C6.7605 17.859 6.969 18.1275 7.269 18.2175C9.3405 18.837 12.0585 19.6995 12.0585 19.6995C12.0585 19.6995 13.329 23.5365 13.9905 25.4865C14.0745 25.7325 14.2665 25.9245 14.5185 25.9905C14.772 26.0565 15.0405 25.9875 15.2295 25.809C16.293 24.8055 17.937 23.253 17.937 23.253C17.937 23.253 21.063 25.5435 22.836 26.8065ZM13.2015 19.2135L14.6715 24.06L14.9985 20.991C14.9985 20.991 20.673 15.8715 23.91 12.954C24.0045 12.8685 24.0165 12.7245 23.9385 12.624C23.8605 12.5235 23.7165 12.4995 23.61 12.5685C19.86 14.9625 13.2015 19.2135 13.2015 19.2135Z" fill="white"/>
</svg>
