<svg width="36" height="36" viewBox="0 0 36 36" fill="none" xmlns="http://www.w3.org/2000/svg">
<ellipse cx="17" cy="18" rx="16" ry="14" fill="#C2D72F"/>
<path d="M18 0C8.0595 0 0 8.0595 0 18C0 27.9405 8.0595 36 18 36C27.9405 36 36 27.9405 36 18C36 8.0595 27.9405 0 18 0ZM27.516 24.2445H24.7155C23.133 24.2445 22.8675 23.343 21.5625 22.041C20.385 20.8635 19.7325 21.7665 19.7595 23.4435C19.7685 23.889 19.548 24.2445 19.017 24.2445C17.3595 24.2445 14.976 24.4785 12.561 21.8745C10.0905 19.206 7.5 13.8525 7.5 13.326C7.5 13.014 7.758 12.8745 8.1885 12.8745H11.0355C11.79 12.8745 11.853 13.248 12.0645 13.7265C12.9405 15.723 15.036 19.7295 15.5955 17.493C15.9165 16.209 16.047 13.2345 14.673 12.978C13.893 12.834 15.267 12 17.256 12C17.751 12 18.288 12.0525 18.837 12.18C19.8465 12.414 19.851 12.867 19.836 13.527C19.785 16.026 19.4835 17.706 20.142 18.1305C20.7705 18.537 22.4235 15.8775 23.298 13.824C23.5365 13.257 23.5845 12.876 24.2625 12.876H27.7455C29.5695 12.876 27.507 15.498 25.9305 17.544C24.66 19.1925 24.7275 19.224 26.205 20.595C27.2565 21.5715 28.5 22.905 28.5 23.6595C28.5 24.0165 28.221 24.2445 27.516 24.2445Z" fill="white"/>
</svg>
