<svg width="124" height="125" viewBox="0 0 124 125" fill="none" xmlns="http://www.w3.org/2000/svg">
<mask id="path-1-outside-1_2723_4092" maskUnits="userSpaceOnUse" x="-35.1928" y="-22.5972" width="169.241" height="171.109" fill="black">
<rect fill="white" x="-35.1928" y="-22.5972" width="169.241" height="171.109"/>
<path fill-rule="evenodd" clip-rule="evenodd" d="M69.2528 3.91937C69.5996 3.16521 70.4958 2.82701 71.2544 3.16398L75.0251 4.83889C75.7838 5.17586 76.1176 6.06041 75.7707 6.81457L74.0808 10.4891C73.8696 10.9483 73.4548 11.2532 72.9914 11.3455L70.2473 14.0179C69.6527 14.5971 68.6928 14.5927 68.1034 14.0082L65.2029 11.1319C64.6135 10.5474 64.6178 9.60405 65.2125 9.02489L68.1396 6.17415C68.1803 6.13447 68.2228 6.09753 68.2667 6.06333L69.2528 3.91937ZM35.3809 3.86182C35.7899 3.13944 36.7118 2.87666 37.4402 3.27489L40.1641 4.76424C40.8925 5.16247 41.1514 6.0709 40.7425 6.79327L39.2405 9.44641C38.8316 10.1688 37.9096 10.4316 37.1813 10.0333L34.4573 8.54399C33.7289 8.14576 33.47 7.23734 33.879 6.51496L35.3809 3.86182ZM73.2475 13.6951C73.4247 12.8841 74.2268 12.3656 75.039 12.5371L79.0911 13.3922C79.9034 13.5637 80.4181 14.36 80.2409 15.171L79.3808 19.107C79.2036 19.918 78.4015 20.4365 77.5893 20.265L73.5372 19.4099C72.725 19.2384 72.2102 18.4421 72.3874 17.6311L73.2475 13.6951ZM91.8583 33.9762C91.0502 34.166 90.5541 34.9738 90.7503 35.7804L91.7029 39.6963C91.8991 40.5029 92.7132 41.0029 93.5213 40.813L97.5518 39.8661C98.3598 39.6763 98.8559 38.8685 98.6597 38.0619L97.7071 34.146C97.5109 33.3394 96.6968 32.8394 95.8887 33.0293L91.8583 33.9762ZM39.9943 21.2168C39.1691 21.3069 38.5757 22.0486 38.6689 22.8734L39.1207 26.8729C39.2139 27.6978 39.9584 28.2935 40.7836 28.2034L44.9045 27.7538C45.7297 27.6637 46.3231 26.9221 46.2299 26.0972L45.778 22.0977C45.6848 21.2729 44.9403 20.6772 44.1151 20.7672L39.9943 21.2168ZM20.6599 28.4848C19.8327 28.4163 19.1045 29.0312 19.0336 29.8582L18.7137 33.5863C18.6428 34.4134 19.2559 35.1394 20.0832 35.2079L23.9284 35.5265C24.7557 35.5951 25.4838 34.9802 25.5548 34.1531L25.8746 30.4251C25.9456 29.598 25.3325 28.872 24.5052 28.8034L20.6599 28.4848ZM89.7578 22.8726C89.661 22.0482 90.2511 21.304 91.0759 21.2104L95.1946 20.743C96.0194 20.6494 96.7666 21.2419 96.8634 22.0663L97.3331 26.0639C97.43 26.8883 96.8399 27.6325 96.0151 27.7261L91.8964 28.1935C91.0716 28.2871 90.3244 27.6946 90.2275 26.8702L89.7578 22.8726ZM99.1324 83.9013C98.8269 84.2351 98.4574 84.504 98.0289 84.7103L29.7901 119.789C25.3785 122.057 20.0027 121.395 16.3071 118.128C12.6116 114.861 11.3741 109.677 13.2033 105.127L41.4915 34.7555C41.6554 34.3074 41.8907 33.9117 42.2005 33.5733C46.3787 29.0084 62.5104 36.5742 78.2317 50.4719C93.953 64.3696 103.311 79.3364 99.1324 83.9013Z"/>
</mask>
<path fill-rule="evenodd" clip-rule="evenodd" d="M69.2528 3.91937C69.5996 3.16521 70.4958 2.82701 71.2544 3.16398L75.0251 4.83889C75.7838 5.17586 76.1176 6.06041 75.7707 6.81457L74.0808 10.4891C73.8696 10.9483 73.4548 11.2532 72.9914 11.3455L70.2473 14.0179C69.6527 14.5971 68.6928 14.5927 68.1034 14.0082L65.2029 11.1319C64.6135 10.5474 64.6178 9.60405 65.2125 9.02489L68.1396 6.17415C68.1803 6.13447 68.2228 6.09753 68.2667 6.06333L69.2528 3.91937ZM35.3809 3.86182C35.7899 3.13944 36.7118 2.87666 37.4402 3.27489L40.1641 4.76424C40.8925 5.16247 41.1514 6.0709 40.7425 6.79327L39.2405 9.44641C38.8316 10.1688 37.9096 10.4316 37.1813 10.0333L34.4573 8.54399C33.7289 8.14576 33.47 7.23734 33.879 6.51496L35.3809 3.86182ZM73.2475 13.6951C73.4247 12.8841 74.2268 12.3656 75.039 12.5371L79.0911 13.3922C79.9034 13.5637 80.4181 14.36 80.2409 15.171L79.3808 19.107C79.2036 19.918 78.4015 20.4365 77.5893 20.265L73.5372 19.4099C72.725 19.2384 72.2102 18.4421 72.3874 17.6311L73.2475 13.6951ZM91.8583 33.9762C91.0502 34.166 90.5541 34.9738 90.7503 35.7804L91.7029 39.6963C91.8991 40.5029 92.7132 41.0029 93.5213 40.813L97.5518 39.8661C98.3598 39.6763 98.8559 38.8685 98.6597 38.0619L97.7071 34.146C97.5109 33.3394 96.6968 32.8394 95.8887 33.0293L91.8583 33.9762ZM39.9943 21.2168C39.1691 21.3069 38.5757 22.0486 38.6689 22.8734L39.1207 26.8729C39.2139 27.6978 39.9584 28.2935 40.7836 28.2034L44.9045 27.7538C45.7297 27.6637 46.3231 26.9221 46.2299 26.0972L45.778 22.0977C45.6848 21.2729 44.9403 20.6772 44.1151 20.7672L39.9943 21.2168ZM20.6599 28.4848C19.8327 28.4163 19.1045 29.0312 19.0336 29.8582L18.7137 33.5863C18.6428 34.4134 19.2559 35.1394 20.0832 35.2079L23.9284 35.5265C24.7557 35.5951 25.4838 34.9802 25.5548 34.1531L25.8746 30.4251C25.9456 29.598 25.3325 28.872 24.5052 28.8034L20.6599 28.4848ZM89.7578 22.8726C89.661 22.0482 90.2511 21.304 91.0759 21.2104L95.1946 20.743C96.0194 20.6494 96.7666 21.2419 96.8634 22.0663L97.3331 26.0639C97.43 26.8883 96.8399 27.6325 96.0151 27.7261L91.8964 28.1935C91.0716 28.2871 90.3244 27.6946 90.2275 26.8702L89.7578 22.8726ZM99.1324 83.9013C98.8269 84.2351 98.4574 84.504 98.0289 84.7103L29.7901 119.789C25.3785 122.057 20.0027 121.395 16.3071 118.128C12.6116 114.861 11.3741 109.677 13.2033 105.127L41.4915 34.7555C41.6554 34.3074 41.8907 33.9117 42.2005 33.5733C46.3787 29.0084 62.5104 36.5742 78.2317 50.4719C93.953 64.3696 103.311 79.3364 99.1324 83.9013Z" fill="#9B826B"/>
<path d="M71.2544 3.16398L72.4747 0.416743L72.4747 0.416742L71.2544 3.16398ZM69.2528 3.91937L66.5217 2.66332L66.5217 2.66332L69.2528 3.91937ZM75.0251 4.83889L76.2454 2.09166L76.2454 2.09166L75.0251 4.83889ZM75.7707 6.81457L73.0397 5.55852L73.0397 5.55852L75.7707 6.81457ZM74.0808 10.4891L71.3497 9.23304L71.3497 9.23306L74.0808 10.4891ZM72.9914 11.3455L72.4044 8.39733L71.5316 8.57111L70.894 9.192L72.9914 11.3455ZM70.2473 14.0179L68.15 11.8644L68.15 11.8644L70.2473 14.0179ZM68.1034 14.0082L65.9866 16.1427L65.9866 16.1427L68.1034 14.0082ZM65.2029 11.1319L63.0862 13.2664L63.0862 13.2664L65.2029 11.1319ZM65.2125 9.02489L67.3098 11.1784L65.2125 9.02489ZM68.1396 6.17415L66.0423 4.02062L66.0423 4.02064L68.1396 6.17415ZM68.2667 6.06333L70.1133 8.43538L70.6916 7.9852L70.9978 7.31937L68.2667 6.06333ZM37.4402 3.27489L38.8823 0.637323L38.8823 0.637322L37.4402 3.27489ZM35.3809 3.86182L32.765 2.3809L35.3809 3.86182ZM40.1641 4.76424L38.722 7.4018L38.722 7.4018L40.1641 4.76424ZM40.7425 6.79327L38.1265 5.31235L38.1265 5.31235L40.7425 6.79327ZM39.2405 9.44641L41.8565 10.9273L41.8565 10.9273L39.2405 9.44641ZM37.1813 10.0333L35.7392 12.6709L35.7392 12.6709L37.1813 10.0333ZM34.4573 8.54399L33.0152 11.1816L33.0152 11.1816L34.4573 8.54399ZM33.879 6.51496L36.4949 7.99588L36.4949 7.99588L33.879 6.51496ZM75.039 12.5371L74.4183 15.4783L74.4183 15.4783L75.039 12.5371ZM73.2475 13.6951L76.1843 14.3368L76.1843 14.3368L73.2475 13.6951ZM79.0911 13.3922L79.7119 10.451L79.7119 10.451L79.0911 13.3922ZM80.2409 15.171L77.3042 14.5293L77.3042 14.5293L80.2409 15.171ZM79.3808 19.107L76.4441 18.4653L76.4441 18.4653L79.3808 19.107ZM77.5893 20.265L78.2101 17.3238L78.2101 17.3238L77.5893 20.265ZM73.5372 19.4099L74.158 16.4686L74.158 16.4686L73.5372 19.4099ZM72.3874 17.6311L75.3242 18.2728L75.3242 18.2728L72.3874 17.6311ZM90.7503 35.7804L87.8294 36.4909L87.8294 36.4909L90.7503 35.7804ZM91.8583 33.9762L91.1707 31.0498L91.1707 31.0498L91.8583 33.9762ZM91.7029 39.6963L94.6238 38.9858L94.6238 38.9858L91.7029 39.6963ZM93.5213 40.813L94.2088 43.7394L94.2089 43.7394L93.5213 40.813ZM97.5518 39.8661L98.2393 42.7925L98.2393 42.7925L97.5518 39.8661ZM98.6597 38.0619L101.581 37.3514L101.581 37.3514L98.6597 38.0619ZM97.7071 34.146L100.628 33.4355L100.628 33.4355L97.7071 34.146ZM95.8887 33.0293L96.5762 35.9557L96.5762 35.9557L95.8887 33.0293ZM38.6689 22.8734L35.6818 23.2109L35.6818 23.2109L38.6689 22.8734ZM39.9943 21.2168L39.6683 18.2285L39.6683 18.2285L39.9943 21.2168ZM39.1207 26.8729L36.1337 27.2104L36.1337 27.2104L39.1207 26.8729ZM40.7836 28.2034L41.1097 31.1917L41.1097 31.1917L40.7836 28.2034ZM44.9045 27.7538L44.5784 24.7655L44.9045 27.7538ZM46.2299 26.0972L43.2428 26.4347L43.2428 26.4347L46.2299 26.0972ZM45.778 22.0977L42.791 22.4352L42.791 22.4352L45.778 22.0977ZM44.1151 20.7672L43.7891 17.7789L43.7891 17.7789L44.1151 20.7672ZM19.0336 29.8582L22.0286 30.1152L22.0286 30.1152L19.0336 29.8582ZM20.6599 28.4848L20.9081 25.489L20.9081 25.489L20.6599 28.4848ZM18.7137 33.5863L15.7187 33.3294L15.7187 33.3294L18.7137 33.5863ZM20.0832 35.2079L19.8349 38.2037L19.8349 38.2037L20.0832 35.2079ZM23.9284 35.5265L24.1767 32.5307L24.1766 32.5307L23.9284 35.5265ZM25.5548 34.1531L22.5597 33.8962L22.5597 33.8962L25.5548 34.1531ZM25.8746 30.4251L22.8796 30.1681L22.8796 30.1681L25.8746 30.4251ZM24.5052 28.8034L24.7534 25.8076L24.7534 25.8076L24.5052 28.8034ZM91.0759 21.2104L91.4148 24.1973L91.4148 24.1973L91.0759 21.2104ZM89.7578 22.8726L86.7723 23.2234L86.7723 23.2234L89.7578 22.8726ZM95.1946 20.743L95.5336 23.7299L95.5336 23.7299L95.1946 20.743ZM96.8634 22.0663L99.849 21.7155L99.849 21.7155L96.8634 22.0663ZM97.3331 26.0639L100.319 25.7131L100.319 25.7131L97.3331 26.0639ZM96.0151 27.7261L95.6761 24.7392L95.6761 24.7392L96.0151 27.7261ZM91.8964 28.1935L92.2353 31.1804L92.2353 31.1804L91.8964 28.1935ZM90.2275 26.8702L87.242 27.221L87.242 27.221L90.2275 26.8702ZM98.0289 84.7103L96.7248 82.0019L96.6894 82.0189L96.6546 82.0368L98.0289 84.7103ZM99.1324 83.9013L96.915 81.8716L96.915 81.8717L99.1324 83.9013ZM29.7901 119.789L28.4157 117.116L29.7901 119.789ZM16.3071 118.128L18.2981 115.876L16.3071 118.128ZM13.2033 105.127L15.9925 106.248L15.9925 106.248L13.2033 105.127ZM41.4915 34.7555L44.2806 35.8767L44.2983 35.8326L44.3147 35.788L41.4915 34.7555ZM42.2005 33.5733L44.418 35.6029L42.2005 33.5733ZM78.2317 50.4719L80.2227 48.2197L78.2317 50.4719ZM72.4747 0.416742C70.2128 -0.58796 67.5558 0.414732 66.5217 2.66332L71.9838 5.17542C71.6434 5.91568 70.7788 6.24197 70.0341 5.91121L72.4747 0.416742ZM76.2454 2.09166L72.4747 0.416743L70.0341 5.91121L73.8048 7.58613L76.2454 2.09166ZM78.5018 8.07062C79.5488 5.79417 78.5353 3.1088 76.2454 2.09166L73.8048 7.58612C73.0322 7.24292 72.6864 6.32664 73.0397 5.55852L78.5018 8.07062ZM76.8118 11.7451L78.5018 8.07062L73.0397 5.55852L71.3497 9.23304L76.8118 11.7451ZM73.5784 14.2937C74.9388 14.0228 76.1785 13.1223 76.8119 11.7451L71.3497 9.23306C71.5607 8.77424 71.9708 8.48366 72.4044 8.39733L73.5784 14.2937ZM72.3447 16.1714L75.0887 13.499L70.894 9.192L68.15 11.8644L72.3447 16.1714ZM65.9866 16.1427C67.7404 17.8819 70.5752 17.8947 72.3447 16.1714L68.15 11.8644C68.7301 11.2995 69.6451 11.3036 70.2201 11.8738L65.9866 16.1427ZM63.0862 13.2664L65.9866 16.1427L70.2201 11.8738L67.3197 8.99746L63.0862 13.2664ZM63.1152 6.87138C61.3165 8.62312 61.3035 11.4984 63.0862 13.2664L67.3197 8.99746C67.9236 9.59638 67.9191 10.585 67.3098 11.1784L63.1152 6.87138ZM66.0423 4.02064L63.1152 6.87138L67.3098 11.1784L70.2369 8.32767L66.0423 4.02064ZM66.4202 3.69127C66.289 3.79339 66.1628 3.90325 66.0423 4.02062L70.2369 8.32769C70.1979 8.36569 70.1566 8.40166 70.1133 8.43538L66.4202 3.69127ZM66.5217 2.66332L65.5357 4.80728L70.9978 7.31937L71.9838 5.17541L66.5217 2.66332ZM38.8823 0.637322C36.7124 -0.549045 33.9833 0.228833 32.765 2.3809L37.9969 5.34274C37.5965 6.05004 36.7112 6.30236 35.9981 5.91245L38.8823 0.637322ZM41.6062 2.12668L38.8823 0.637323L35.9981 5.91245L38.722 7.4018L41.6062 2.12668ZM43.3584 8.27419C44.5938 6.09193 43.8065 3.32969 41.6062 2.12668L38.722 7.4018C37.9785 6.99524 37.709 6.04986 38.1265 5.31235L43.3584 8.27419ZM41.8565 10.9273L43.3584 8.27419L38.1265 5.31235L36.6245 7.96549L41.8565 10.9273ZM35.7392 12.6709C37.909 13.8573 40.6382 13.0794 41.8565 10.9273L36.6245 7.96549C37.025 7.25819 37.9102 7.00587 38.6234 7.39578L35.7392 12.6709ZM33.0152 11.1816L35.7392 12.6709L38.6234 7.39578L35.8994 5.90643L33.0152 11.1816ZM31.263 5.03404C30.0276 7.2163 30.8149 9.97854 33.0152 11.1816L35.8994 5.90643C36.643 6.31299 36.9124 7.25837 36.4949 7.99588L31.263 5.03404ZM32.765 2.3809L31.263 5.03404L36.4949 7.99588L37.9969 5.34274L32.765 2.3809ZM75.6598 9.59579C73.2314 9.08328 70.8406 10.6286 70.3108 13.0533L76.1843 14.3368C76.0089 15.1396 75.2223 15.648 74.4183 15.4783L75.6598 9.59579ZM79.7119 10.451L75.6598 9.59579L74.4183 15.4783L78.4704 16.3335L79.7119 10.451ZM83.1777 15.8127C83.7111 13.3716 82.1567 10.9669 79.7119 10.451L78.4704 16.3335C77.65 16.1604 77.1251 15.3484 77.3042 14.5293L83.1777 15.8127ZM82.3176 19.7488L83.1777 15.8127L77.3042 14.5293L76.4441 18.4653L82.3176 19.7488ZM76.9686 23.2063C79.397 23.7188 81.7877 22.1735 82.3176 19.7488L76.4441 18.4653C76.6195 17.6625 77.4061 17.1541 78.2101 17.3238L76.9686 23.2063ZM72.9165 22.3511L76.9686 23.2063L78.2101 17.3238L74.158 16.4686L72.9165 22.3511ZM69.4507 16.9894C68.9173 19.4305 70.4716 21.8352 72.9165 22.3511L74.158 16.4686C74.9784 16.6417 75.5032 17.4537 75.3242 18.2728L69.4507 16.9894ZM70.3108 13.0533L69.4507 16.9894L75.3242 18.2728L76.1843 14.3368L70.3108 13.0533ZM93.6712 35.0699C93.8696 35.8854 93.3629 36.7106 92.5458 36.9026L91.1707 31.0498C88.7374 31.6215 87.2387 34.0622 87.8294 36.4909L93.6712 35.0699ZM94.6238 38.9858L93.6712 35.0699L87.8294 36.4909L88.782 40.4069L94.6238 38.9858ZM92.8338 37.8866C93.6329 37.6989 94.4298 38.1882 94.6238 38.9858L88.782 40.4068C89.3684 42.8177 91.7936 44.3068 94.2088 43.7394L92.8338 37.8866ZM96.8642 36.9398L92.8338 37.8867L94.2089 43.7394L98.2393 42.7925L96.8642 36.9398ZM95.7388 38.7724C95.5404 37.9569 96.0471 37.1317 96.8642 36.9398L98.2393 42.7925C100.673 42.2208 102.171 39.7801 101.581 37.3514L95.7388 38.7724ZM94.7862 34.8565L95.7388 38.7725L101.581 37.3514L100.628 33.4355L94.7862 34.8565ZM96.5762 35.9557C95.7771 36.1434 94.9803 35.6541 94.7862 34.8565L100.628 33.4355C100.042 31.0247 97.6165 29.5355 95.2011 30.1029L96.5762 35.9557ZM92.5458 36.9026L96.5762 35.9557L95.2012 30.1029L91.1707 31.0498L92.5458 36.9026ZM41.656 22.536C41.7496 23.3653 41.1501 24.1146 40.3204 24.2052L39.6683 18.2285C37.1882 18.4991 35.4018 20.7319 35.6818 23.2109L41.656 22.536ZM42.1078 26.5355L41.656 22.536L35.6818 23.2109L36.1337 27.2104L42.1078 26.5355ZM40.4576 25.2151C41.2783 25.1255 42.0151 25.715 42.1078 26.5354L36.1337 27.2104C36.4128 29.6805 38.6386 31.4614 41.1097 31.1917L40.4576 25.2151ZM44.5784 24.7655L40.4576 25.2151L41.1097 31.1917L45.2305 30.7421L44.5784 24.7655ZM43.2428 26.4347C43.1491 25.6054 43.7487 24.856 44.5784 24.7655L45.2305 30.7421C47.7106 30.4715 49.497 28.2388 49.2169 25.7597L43.2428 26.4347ZM42.791 22.4352L43.2428 26.4347L49.2169 25.7597L48.7651 21.7602L42.791 22.4352ZM44.4412 23.7555C43.6205 23.8451 42.8837 23.2556 42.791 22.4352L48.7651 21.7602C48.486 19.2901 46.2602 17.5093 43.7891 17.7789L44.4412 23.7555ZM40.3204 24.2052L44.4412 23.7555L43.7891 17.7789L39.6683 18.2285L40.3204 24.2052ZM22.0286 30.1152C21.958 30.9389 21.2356 31.5489 20.4117 31.4806L20.9081 25.489C18.4298 25.2837 16.2511 27.1235 16.0385 29.6013L22.0286 30.1152ZM21.7088 33.8432L22.0286 30.1152L16.0385 29.6013L15.7187 33.3294L21.7088 33.8432ZM20.3314 32.2121C21.162 32.281 21.78 33.0128 21.7088 33.8432L15.7187 33.3294C15.5055 35.814 17.3498 37.9978 19.8349 38.2037L20.3314 32.2121ZM24.1766 32.5307L20.3314 32.2121L19.8349 38.2037L23.6802 38.5223L24.1766 32.5307ZM22.5597 33.8962C22.6304 33.0725 23.3528 32.4625 24.1767 32.5307L23.6802 38.5223C26.1586 38.7277 28.3373 36.8878 28.5498 34.4101L22.5597 33.8962ZM22.8796 30.1681L22.5597 33.8962L28.5498 34.4101L28.8697 30.682L22.8796 30.1681ZM24.257 31.7992C23.4263 31.7304 22.8083 30.9986 22.8796 30.1681L28.8697 30.682C29.0828 28.1974 27.2386 26.0136 24.7534 25.8076L24.257 31.7992ZM20.4117 31.4806L24.257 31.7992L24.7534 25.8076L20.9081 25.489L20.4117 31.4806ZM90.7369 18.2235C88.2579 18.5048 86.4812 20.7455 86.7723 23.2234L92.7434 22.5219C92.8408 23.3509 92.2443 24.1032 91.4148 24.1973L90.7369 18.2235ZM94.8557 17.7561L90.7369 18.2235L91.4148 24.1973L95.5336 23.7299L94.8557 17.7561ZM99.849 21.7155C99.5589 19.2469 97.3255 17.4759 94.8556 17.7561L95.5336 23.7299C94.7134 23.823 93.9742 23.2369 93.8779 22.4171L99.849 21.7155ZM100.319 25.7131L99.849 21.7155L93.8779 22.4171L94.3476 26.4147L100.319 25.7131ZM96.354 30.713C98.8331 30.4317 100.61 28.191 100.319 25.7131L94.3476 26.4147C94.2502 25.5856 94.8467 24.8333 95.6761 24.7392L96.354 30.713ZM92.2353 31.1804L96.354 30.713L95.6761 24.7392L91.5574 25.2066L92.2353 31.1804ZM87.242 27.221C87.5321 29.6897 89.7655 31.4607 92.2353 31.1804L91.5574 25.2066C92.3776 25.1135 93.1167 25.6996 93.2131 26.5194L87.242 27.221ZM86.7723 23.2234L87.242 27.221L93.2131 26.5194L92.7434 22.5219L86.7723 23.2234ZM99.333 87.4188C100.079 87.0597 100.766 86.5688 101.35 85.9309L96.915 81.8717C96.8878 81.9013 96.836 81.9483 96.7248 82.0019L99.333 87.4188ZM31.1644 122.463L99.4033 87.3838L96.6546 82.0368L28.4157 117.116L31.1644 122.463ZM14.3162 120.38C18.9466 124.473 25.6597 125.293 31.1644 122.463L28.4157 117.116C25.0973 118.822 21.0588 118.316 18.2981 115.876L14.3162 120.38ZM10.4142 104.006C8.10686 109.745 9.67507 116.277 14.3162 120.38L18.2981 115.876C15.548 113.445 14.6412 109.609 15.9925 106.248L10.4142 104.006ZM38.7023 33.6343L10.4142 104.006L15.9925 106.248L44.2806 35.8767L38.7023 33.6343ZM39.9831 31.5437C39.3904 32.1912 38.9577 32.9317 38.6683 33.7231L44.3147 35.788C44.353 35.683 44.3911 35.6323 44.418 35.6029L39.9831 31.5437ZM80.2227 48.2197C72.2084 41.135 64.0082 35.5875 57.1639 32.3775C53.7596 30.7809 50.5338 29.6877 47.7442 29.3494C45.0653 29.0244 42.018 29.3204 39.9831 31.5437L44.418 35.6029C44.4721 35.5437 45.0081 35.0737 47.0203 35.3177C48.9218 35.5484 51.4949 36.3593 54.611 37.8207C60.8074 40.7269 68.5337 45.911 76.2408 52.7241L80.2227 48.2197ZM101.35 85.9309C103.404 83.6867 103.384 80.6275 102.765 78.0142C102.124 75.3033 100.67 72.2537 98.6933 69.0928C94.7182 62.7349 88.2361 55.3036 80.2227 48.2197L76.2408 52.7241C83.9486 59.5379 90.006 66.5388 93.5955 72.28C95.4015 75.1686 96.4857 77.5853 96.9149 79.3988C97.3672 81.3099 96.95 81.8334 96.915 81.8716L101.35 85.9309Z" fill="white" mask="url(#path-1-outside-1_2723_4092)"/>
<path d="M71.1818 50.1157C74.7398 46.1782 79.2225 36.5125 78.2496 34.343C77.2766 32.1735 67.7566 36.3116 63.7675 29.6271C60.9678 24.8734 66.9417 19.5584 66.9417 19.5584" stroke="#DD9917" stroke-width="3.75758" stroke-linecap="round"/>
<path d="M69.7133 49.3202C73.2713 45.3827 77.754 35.7169 76.7811 33.5475C75.8081 31.378 66.2881 35.5161 62.299 28.8315C59.4993 24.0778 65.4732 18.7629 65.4732 18.7629" stroke="#FFBC3B" stroke-width="3.75758" stroke-linecap="round"/>
<path d="M20.541 58.2534C2.76322 69.6101 7.20371 81.2408 22.5651 95.575" stroke="#DF3549" stroke-width="3.75758" stroke-linecap="round"/>
<path d="M22.3944 59.5104C3.78917 69.4179 6.08166 79.4783 22.2616 95.7681" stroke="#FF4056" stroke-width="3.75758" stroke-linecap="round"/>
<path d="M108.874 30.6968C105.992 30.4714 101.092 30.5978 104.551 32.9064C108.874 35.792 115.624 40.3914 114.464 43.0354C113.304 45.6795 101.07 48.1425 100.859 51.1712C100.691 53.5941 107.099 56.5429 110.562 57.8569" stroke="#C2175F" stroke-width="3.75758" stroke-linecap="round"/>
<path fill-rule="evenodd" clip-rule="evenodd" d="M98.1448 84.6492C98.5243 84.4513 98.8547 84.2016 99.1323 83.8983C103.31 79.3334 93.9529 64.3666 78.2316 50.4689C62.5103 36.5712 46.3786 29.0055 42.2004 33.5703C41.866 33.9357 41.6183 34.3677 41.4536 34.8605L13.2039 105.125C11.3743 109.676 12.6117 114.86 16.3074 118.127C20.0029 121.393 25.3785 122.056 29.79 119.788L98.145 84.6493L98.1448 84.6492Z" fill="#C2D72F"/>
<mask id="mask0_2723_4092" style="mask-type:alpha" maskUnits="userSpaceOnUse" x="12" y="34" width="87" height="88">
<path d="M41.5503 34.6226L98.1448 84.6523L29.7898 119.791C25.3783 122.059 20.0027 121.396 16.3072 118.129C12.6116 114.863 11.3742 109.679 13.2037 105.128L41.5503 34.6226Z" fill="#D9D9D9"/>
</mask>
<g mask="url(#mask0_2723_4092)">
<path d="M115.084 106.054C90.6778 132.719 48.8901 134.897 21.7482 110.903C-5.39374 86.9095 -7.59948 45.8418 16.8071 19.1765C41.2136 -7.48878 83.0013 -9.66619 110.143 14.3273C137.285 38.3209 139.491 79.3886 115.084 106.054Z" stroke="#F01F77" stroke-width="5.26061"/>
</g>
<mask id="mask1_2723_4092" style="mask-type:alpha" maskUnits="userSpaceOnUse" x="12" y="34" width="87" height="88">
<path d="M41.5503 34.6226L98.1448 84.6523L29.7898 119.791C25.3783 122.059 20.0027 121.396 16.3072 118.129C12.6116 114.863 11.3742 109.679 13.2037 105.128L41.5503 34.6226Z" fill="#D9D9D9"/>
</mask>
<g mask="url(#mask1_2723_4092)">
<path d="M144.81 90.9247C116.045 122.352 66.7938 124.919 34.8047 96.64C2.81549 68.3615 0.215654 19.9594 28.9812 -11.4684C57.7468 -42.8961 106.997 -45.4622 138.987 -17.1837C170.976 11.0948 173.576 59.497 144.81 90.9247Z" stroke="#F01F77" stroke-width="6.01212"/>
</g>
<mask id="mask2_2723_4092" style="mask-type:alpha" maskUnits="userSpaceOnUse" x="12" y="34" width="87" height="88">
<path d="M41.5503 34.6226L98.1448 84.6523L29.7898 119.791C25.3783 122.059 20.0027 121.396 16.3072 118.129C12.6116 114.863 11.3742 109.679 13.2037 105.128L41.5503 34.6226Z" fill="#D9D9D9"/>
</mask>
<g mask="url(#mask2_2723_4092)">
<path d="M191.901 72.1653C155.081 112.394 92.0395 115.677 51.0942 79.4815C10.1488 43.2857 6.8201 -18.6691 43.6407 -58.8974C80.4614 -99.1256 143.502 -102.409 184.448 -66.2136C225.393 -30.0177 228.722 31.9371 191.901 72.1653Z" stroke="#F01F77" stroke-width="6.76364"/>
</g>
<mask id="mask3_2723_4092" style="mask-type:alpha" maskUnits="userSpaceOnUse" x="12" y="34" width="87" height="88">
<path fill-rule="evenodd" clip-rule="evenodd" d="M41.4524 34.863L13.2027 105.128C11.3731 109.678 12.6105 114.862 16.3062 118.129C20.0017 121.396 25.3772 122.058 29.7887 119.791L98.1438 84.6518L98.1436 84.6517C92.8111 87.4323 77.7767 79.9765 63.0999 67.0022C48.637 54.2169 39.5598 40.5268 41.4524 34.863Z" fill="#D9D9D9"/>
</mask>
<g mask="url(#mask3_2723_4092)">
<path d="M15.0261 124.002L74.6784 70.3378L87.7134 77.835L16.32 125.146L15.0261 124.002Z" fill="#FFE175" style="mix-blend-mode:soft-light"/>
</g>
<mask id="mask4_2723_4092" style="mask-type:alpha" maskUnits="userSpaceOnUse" x="12" y="34" width="87" height="88">
<path fill-rule="evenodd" clip-rule="evenodd" d="M41.4524 34.863L13.2027 105.128C11.3731 109.678 12.6105 114.862 16.3062 118.129C20.0017 121.396 25.3772 122.058 29.7887 119.791L98.1438 84.6518L98.1436 84.6517C92.8111 87.4323 77.7767 79.9765 63.0999 67.0022C48.637 54.2169 39.5598 40.5268 41.4524 34.863Z" fill="#B78E25"/>
</mask>
<g mask="url(#mask4_2723_4092)">
<path d="M15.1244 125.812L88.2961 77.1974L101.331 84.6945L24.7312 132.579L15.1244 125.812Z" fill="#DED9CC" style="mix-blend-mode:multiply"/>
</g>
<mask id="mask5_2723_4092" style="mask-type:alpha" maskUnits="userSpaceOnUse" x="12" y="34" width="87" height="88">
<path fill-rule="evenodd" clip-rule="evenodd" d="M41.4524 34.863L13.2027 105.128C11.3731 109.678 12.6105 114.862 16.3062 118.129C20.0017 121.396 25.3772 122.058 29.7887 119.791L98.1438 84.6518L98.1436 84.6517C92.8111 87.4323 77.7767 79.9765 63.0999 67.0022C48.637 54.2169 39.5598 40.5268 41.4524 34.863Z" fill="#D9D9D9"/>
</mask>
<g mask="url(#mask5_2723_4092)">
<path d="M11.1444 120.57L54.6228 52.608L45.5639 38.8487L9.7205 117.011L11.1444 120.57Z" fill="#DED9CC" style="mix-blend-mode:multiply"/>
</g>
<ellipse cx="37.9939" cy="11.2049" rx="37.9939" ry="11.2049" transform="matrix(0.749224 0.662316 -0.675174 0.737659 49.7656 25.3077)" fill="#C2D72F"/>
<mask id="mask6_2723_4092" style="mask-type:alpha" maskUnits="userSpaceOnUse" x="41" y="32" width="60" height="54">
<path d="M99.1185 83.9189C94.9404 88.4837 78.8086 80.918 63.0873 67.0203C47.366 53.1226 38.0085 38.1558 42.1866 33.5909C46.3648 29.0261 62.4965 36.5918 78.2178 50.4895C93.9391 64.3872 103.297 79.3541 99.1185 83.9189Z" fill="#D9D9D9"/>
</mask>
<g mask="url(#mask6_2723_4092)">
<path d="M19.6676 113.179L78.6991 36.5365L96.4903 52.264L23.9363 112.352L19.6676 113.179Z" fill="#FFE175" style="mix-blend-mode:soft-light"/>
</g>
<mask id="mask7_2723_4092" style="mask-type:alpha" maskUnits="userSpaceOnUse" x="41" y="32" width="60" height="54">
<path d="M99.1185 83.9189C94.9404 88.4837 78.8086 80.918 63.0873 67.0203C47.366 53.1226 38.0085 38.1558 42.1866 33.5909C46.3648 29.0261 62.4965 36.5918 78.2178 50.4895C93.9391 64.3872 103.297 79.3541 99.1185 83.9189Z" fill="#B78E25"/>
</mask>
<g mask="url(#mask7_2723_4092)">
<path d="M14.3667 123.447L112.147 68.4058L105.07 85.729L24.7179 132.597L14.3667 123.447Z" fill="#D8FFC6" style="mix-blend-mode:multiply"/>
</g>
<mask id="mask8_2723_4092" style="mask-type:alpha" maskUnits="userSpaceOnUse" x="41" y="32" width="60" height="54">
<path d="M99.1185 83.9189C94.9404 88.4837 78.8086 80.918 63.0873 67.0203C47.366 53.1226 38.0085 38.1558 42.1866 33.5909C46.3648 29.0261 62.4965 36.5918 78.2178 50.4895C93.9391 64.3872 103.297 79.3541 99.1185 83.9189Z" fill="#D9D9D9"/>
</mask>
<g mask="url(#mask8_2723_4092)">
<path d="M11.1312 120.589L61.7506 30.759L44.9639 22.2458L9.70722 117.03L11.1312 120.589Z" fill="#DED9CC" style="mix-blend-mode:multiply"/>
</g>
<mask id="mask9_2723_4092" style="mask-type:alpha" maskUnits="userSpaceOnUse" x="41" y="32" width="60" height="54">
<ellipse cx="37.9939" cy="11.2049" rx="37.9939" ry="11.2049" transform="matrix(0.749224 0.662316 -0.675174 0.737659 49.7656 25.3079)" fill="#9B826B"/>
</mask>
<g mask="url(#mask9_2723_4092)">
<path d="M43.0974 32.5793C53.5395 54.3862 78.3395 77.9035 99.6588 83.4611L85.7477 98.5261L28.8158 48.1981L43.0974 32.5793Z" fill="#DBEA9F" style="mix-blend-mode:multiply"/>
</g>
<mask id="mask10_2723_4092" style="mask-type:alpha" maskUnits="userSpaceOnUse" x="41" y="32" width="60" height="54">
<ellipse cx="37.9939" cy="11.2049" rx="37.9939" ry="11.2049" transform="matrix(0.749224 0.662316 -0.675174 0.737659 49.7656 25.3079)" fill="#9B826B"/>
</mask>
<g mask="url(#mask10_2723_4092)">
<path d="M41.455 34.8469C39.204 50.4453 84.7704 89.0704 98.0004 84.739L84.2554 100.157L27.3235 49.8286L41.455 34.8469Z" fill="#F0FBC3"/>
</g>
<path d="M107.292 29.4611C104.41 29.2182 99.5097 29.3544 102.969 31.8429C107.292 34.9534 113.884 38.8907 112.724 41.7408C111.563 44.5909 99.0139 47.9592 98.803 51.2239C98.6342 53.8356 105.517 57.3214 108.98 58.7378" stroke="#F01F77" stroke-width="3.75758" stroke-linecap="round"/>
<g filter="url(#filter0_i_2723_4092)">
<rect width="7.1462" height="7.03621" rx="1.50303" transform="matrix(0.973494 -0.228711 0.236361 0.971665 90.395 34.3202)" fill="#C2D72F"/>
</g>
<g filter="url(#filter1_i_2723_4092)">
<rect width="7.14743" height="7.03497" rx="1.50303" transform="matrix(0.978447 0.206498 -0.21348 0.976947 73.5684 12.2268)" fill="#C2D72F"/>
</g>
<g filter="url(#filter2_i_2723_4092)">
<rect width="7.15133" height="7.03101" rx="1.50303" transform="matrix(0.9941 -0.10847 0.112262 0.993679 38.5 21.3801)" fill="#F01F77"/>
</g>
<g filter="url(#filter3_i_2723_4092)">
<rect width="6.11061" height="6.05484" rx="1.50303" transform="matrix(0.877415 0.479732 -0.492645 0.87023 36.1212 2.55103)" fill="#F01F77"/>
</g>
<g filter="url(#filter4_i_2723_4092)">
<rect width="6.86449" height="6.7478" rx="1.50303" transform="matrix(0.996585 0.0825732 -0.0854749 0.99634 19.1619 28.361)" fill="#F01F77"/>
</g>
<g filter="url(#filter5_i_2723_4092)">
<rect width="7.15121" height="7.03113" rx="1.50303" transform="matrix(0.993623 -0.112755 0.116693 0.993168 89.5824 21.3801)" fill="#F01F77"/>
</g>
<g filter="url(#filter6_i_2723_4092)">
<rect width="7.09086" height="7.09198" rx="1.50303" transform="matrix(0.710051 0.704151 -0.716391 0.697699 69.2163 5.12549)" fill="#FFBC3B"/>
</g>
<g filter="url(#filter7_i_2723_4092)">
<rect width="7.03024" height="7.15209" rx="1.50303" transform="matrix(0.0786553 0.996902 -0.997109 0.0759823 46.9357 41.803)" fill="#FFBC3B"/>
</g>
<g filter="url(#filter8_i_2723_4092)">
<rect width="7.13205" height="7.05056" rx="1.50303" transform="matrix(0.913899 0.405942 -0.417838 0.908522 69.8806 2.55103)" fill="#F01F77"/>
</g>
<defs>
<filter id="filter0_i_2723_4092" x="90.7074" y="32.9893" width="7.99512" height="7.86426" filterUnits="userSpaceOnUse" color-interpolation-filters="sRGB">
<feFlood flood-opacity="0" result="BackgroundImageFix"/>
<feBlend mode="normal" in="SourceGraphic" in2="BackgroundImageFix" result="shape"/>
<feColorMatrix in="SourceAlpha" type="matrix" values="0 0 0 0 0 0 0 0 0 0 0 0 0 0 0 0 0 0 127 0" result="hardAlpha"/>
<feOffset dx="-0.751515" dy="0.751515"/>
<feComposite in2="hardAlpha" operator="arithmetic" k2="-1" k3="1"/>
<feColorMatrix type="matrix" values="0 0 0 0 0 0 0 0 0 0 0 0 0 0 0 0 0 0 0.25 0"/>
<feBlend mode="normal" in2="shape" result="effect1_innerShadow_2723_4092"/>
</filter>
<filter id="filter1_i_2723_4092" x="72.3525" y="12.5044" width="7.92322" height="7.79358" filterUnits="userSpaceOnUse" color-interpolation-filters="sRGB">
<feFlood flood-opacity="0" result="BackgroundImageFix"/>
<feBlend mode="normal" in="SourceGraphic" in2="BackgroundImageFix" result="shape"/>
<feColorMatrix in="SourceAlpha" type="matrix" values="0 0 0 0 0 0 0 0 0 0 0 0 0 0 0 0 0 0 127 0" result="hardAlpha"/>
<feOffset dx="-0.751515" dy="0.751515"/>
<feComposite in2="hardAlpha" operator="arithmetic" k2="-1" k3="1"/>
<feColorMatrix type="matrix" values="0 0 0 0 0 0 0 0 0 0 0 0 0 0 0 0 0 0 0.25 0"/>
<feBlend mode="normal" in2="shape" result="effect1_innerShadow_2723_4092"/>
</filter>
<filter id="filter2_i_2723_4092" x="38.6591" y="20.7584" width="7.58032" height="7.45422" filterUnits="userSpaceOnUse" color-interpolation-filters="sRGB">
<feFlood flood-opacity="0" result="BackgroundImageFix"/>
<feBlend mode="normal" in="SourceGraphic" in2="BackgroundImageFix" result="shape"/>
<feColorMatrix in="SourceAlpha" type="matrix" values="0 0 0 0 0 0 0 0 0 0 0 0 0 0 0 0 0 0 127 0" result="hardAlpha"/>
<feOffset dx="-0.751515" dy="0.751515"/>
<feComposite in2="hardAlpha" operator="arithmetic" k2="-1" k3="1"/>
<feColorMatrix type="matrix" values="0 0 0 0 0 0 0 0 0 0 0 0 0 0 0 0 0 0 0.25 0"/>
<feBlend mode="normal" in2="shape" result="effect1_innerShadow_2723_4092"/>
</filter>
<filter id="filter3_i_2723_4092" x="33.6848" y="3.08618" width="7.25146" height="7.13025" filterUnits="userSpaceOnUse" color-interpolation-filters="sRGB">
<feFlood flood-opacity="0" result="BackgroundImageFix"/>
<feBlend mode="normal" in="SourceGraphic" in2="BackgroundImageFix" result="shape"/>
<feColorMatrix in="SourceAlpha" type="matrix" values="0 0 0 0 0 0 0 0 0 0 0 0 0 0 0 0 0 0 127 0" result="hardAlpha"/>
<feOffset dx="-0.751515" dy="0.751515"/>
<feComposite in2="hardAlpha" operator="arithmetic" k2="-1" k3="1"/>
<feColorMatrix type="matrix" values="0 0 0 0 0 0 0 0 0 0 0 0 0 0 0 0 0 0 0.25 0"/>
<feBlend mode="normal" in2="shape" result="effect1_innerShadow_2723_4092"/>
</filter>
<filter id="filter4_i_2723_4092" x="18.708" y="28.4799" width="7.172" height="7.05212" filterUnits="userSpaceOnUse" color-interpolation-filters="sRGB">
<feFlood flood-opacity="0" result="BackgroundImageFix"/>
<feBlend mode="normal" in="SourceGraphic" in2="BackgroundImageFix" result="shape"/>
<feColorMatrix in="SourceAlpha" type="matrix" values="0 0 0 0 0 0 0 0 0 0 0 0 0 0 0 0 0 0 127 0" result="hardAlpha"/>
<feOffset dx="-0.751515" dy="0.751515"/>
<feComposite in2="hardAlpha" operator="arithmetic" k2="-1" k3="1"/>
<feColorMatrix type="matrix" values="0 0 0 0 0 0 0 0 0 0 0 0 0 0 0 0 0 0 0.25 0"/>
<feBlend mode="normal" in2="shape" result="effect1_innerShadow_2723_4092"/>
</filter>
<filter id="filter5_i_2723_4092" x="89.7474" y="20.7335" width="7.59607" height="7.46997" filterUnits="userSpaceOnUse" color-interpolation-filters="sRGB">
<feFlood flood-opacity="0" result="BackgroundImageFix"/>
<feBlend mode="normal" in="SourceGraphic" in2="BackgroundImageFix" result="shape"/>
<feColorMatrix in="SourceAlpha" type="matrix" values="0 0 0 0 0 0 0 0 0 0 0 0 0 0 0 0 0 0 127 0" result="hardAlpha"/>
<feOffset dx="0.751515" dy="0.751515"/>
<feComposite in2="hardAlpha" operator="arithmetic" k2="-1" k3="1"/>
<feColorMatrix type="matrix" values="0 0 0 0 0 0 0 0 0 0 0 0 0 0 0 0 0 0 0.25 0"/>
<feBlend mode="normal" in2="shape" result="effect1_innerShadow_2723_4092"/>
</filter>
<filter id="filter6_i_2723_4092" x="64.7637" y="5.74255" width="8.85962" height="8.70691" filterUnits="userSpaceOnUse" color-interpolation-filters="sRGB">
<feFlood flood-opacity="0" result="BackgroundImageFix"/>
<feBlend mode="normal" in="SourceGraphic" in2="BackgroundImageFix" result="shape"/>
<feColorMatrix in="SourceAlpha" type="matrix" values="0 0 0 0 0 0 0 0 0 0 0 0 0 0 0 0 0 0 127 0" result="hardAlpha"/>
<feOffset dx="-0.751515"/>
<feComposite in2="hardAlpha" operator="arithmetic" k2="-1" k3="1"/>
<feColorMatrix type="matrix" values="0 0 0 0 0 0 0 0 0 0 0 0 0 0 0 0 0 0 0.25 0"/>
<feBlend mode="normal" in2="shape" result="effect1_innerShadow_2723_4092"/>
</filter>
<filter id="filter7_i_2723_4092" x="39.9177" y="41.9127" width="7.4574" height="7.3324" filterUnits="userSpaceOnUse" color-interpolation-filters="sRGB">
<feFlood flood-opacity="0" result="BackgroundImageFix"/>
<feBlend mode="normal" in="SourceGraphic" in2="BackgroundImageFix" result="shape"/>
<feColorMatrix in="SourceAlpha" type="matrix" values="0 0 0 0 0 0 0 0 0 0 0 0 0 0 0 0 0 0 127 0" result="hardAlpha"/>
<feOffset dx="0.751515" dy="-0.751515"/>
<feComposite in2="hardAlpha" operator="arithmetic" k2="-1" k3="1"/>
<feColorMatrix type="matrix" values="0 0 0 0 0 0 0 0 0 0 0 0 0 0 0 0 0 0 0.25 0"/>
<feBlend mode="normal" in2="shape" result="effect1_innerShadow_2723_4092"/>
</filter>
<filter id="filter8_i_2723_4092" x="67.4255" y="3.03064" width="8.48218" height="8.34155" filterUnits="userSpaceOnUse" color-interpolation-filters="sRGB">
<feFlood flood-opacity="0" result="BackgroundImageFix"/>
<feBlend mode="normal" in="SourceGraphic" in2="BackgroundImageFix" result="shape"/>
<feColorMatrix in="SourceAlpha" type="matrix" values="0 0 0 0 0 0 0 0 0 0 0 0 0 0 0 0 0 0 127 0" result="hardAlpha"/>
<feOffset dx="0.751515"/>
<feComposite in2="hardAlpha" operator="arithmetic" k2="-1" k3="1"/>
<feColorMatrix type="matrix" values="0 0 0 0 0 0 0 0 0 0 0 0 0 0 0 0 0 0 0.25 0"/>
<feBlend mode="normal" in2="shape" result="effect1_innerShadow_2723_4092"/>
</filter>
</defs>
</svg>
