<svg width="42" height="42" viewBox="0 0 42 42" fill="none" xmlns="http://www.w3.org/2000/svg">
<rect x="0.375" y="0.375" width="41.25" height="41.25" rx="20.625" fill="#C2D72F"/>
<path d="M23.0856 26.7754L22.4954 26.3126L23.0856 26.7754ZM18.9144 26.7754L18.3242 27.2382L18.9144 26.7754ZM21 28.5041V27.7541V28.5041ZM26.25 19.2065C26.25 20.0746 25.7922 21.2691 25.0396 22.5997C24.3036 23.9009 23.3503 25.2224 22.4954 26.3126L23.6758 27.2382C24.5532 26.1193 25.5571 24.7315 26.3452 23.3382C27.1167 21.9742 27.75 20.4888 27.75 19.2065H26.25ZM19.5046 26.3126C18.6497 25.2224 17.6964 23.9009 16.9604 22.5997C16.2078 21.2691 15.75 20.0746 15.75 19.2065H14.25C14.25 20.4888 14.8833 21.9742 15.6548 23.3382C16.4429 24.7315 17.4468 26.1193 18.3242 27.2382L19.5046 26.3126ZM15.75 19.2065C15.75 16.0022 18.1514 13.5 21 13.5V12C17.2212 12 14.25 15.2792 14.25 19.2065H15.75ZM21 13.5C23.8486 13.5 26.25 16.0022 26.25 19.2065H27.75C27.75 15.2792 24.7788 12 21 12V13.5ZM22.4954 26.3126C22.0271 26.9098 21.7325 27.2813 21.4733 27.5168C21.2462 27.7231 21.1225 27.7541 21 27.7541V29.2541C21.6074 29.2541 22.0746 28.997 22.4819 28.6271C22.857 28.2863 23.2403 27.7935 23.6758 27.2382L22.4954 26.3126ZM18.3242 27.2382C18.7597 27.7935 19.143 28.2863 19.5181 28.6271C19.9254 28.997 20.3926 29.2541 21 29.2541V27.7541C20.8775 27.7541 20.7538 27.7231 20.5267 27.5168C20.2675 27.2813 19.9729 26.9098 19.5046 26.3126L18.3242 27.2382ZM18 19.5C18 21.1569 19.3431 22.5 21 22.5V21C20.1716 21 19.5 20.3284 19.5 19.5H18ZM21 22.5C22.6569 22.5 24 21.1569 24 19.5H22.5C22.5 20.3284 21.8284 21 21 21V22.5ZM24 19.5C24 17.8431 22.6569 16.5 21 16.5V18C21.8284 18 22.5 18.6716 22.5 19.5H24ZM21 16.5C19.3431 16.5 18 17.8431 18 19.5H19.5C19.5 18.6716 20.1716 18 21 18V16.5Z" fill="white"/>
<rect x="0.375" y="0.375" width="41.25" height="41.25" rx="20.625" stroke="#C2D72F" stroke-width="0.75"/>
</svg>
