<svg width="48" height="48" viewBox="0 0 48 48" fill="none" xmlns="http://www.w3.org/2000/svg">
<rect width="48" height="48" rx="24" fill="#C2D72F"/>
<path d="M27 18C27 19.6569 25.6569 21 24 21V23C26.7614 23 29 20.7614 29 18H27ZM24 21C22.3431 21 21 19.6569 21 18H19C19 20.7614 21.2386 23 24 23V21ZM21 18C21 16.3431 22.3431 15 24 15V13C21.2386 13 19 15.2386 19 18H21ZM24 15C25.6569 15 27 16.3431 27 18H29C29 15.2386 26.7614 13 24 13V15ZM21 26H27V24H21V26ZM27 32H21V34H27V32ZM21 32C19.3431 32 18 30.6569 18 29H16C16 31.7614 18.2386 34 21 34V32ZM30 29C30 30.6569 28.6569 32 27 32V34C29.7614 34 32 31.7614 32 29H30ZM27 26C28.6569 26 30 27.3431 30 29H32C32 26.2386 29.7614 24 27 24V26ZM21 24C18.2386 24 16 26.2386 16 29H18C18 27.3431 19.3431 26 21 26V24Z" fill="white"/>
</svg>
