<svg width="48" height="48" viewBox="0 0 48 48" fill="none" xmlns="http://www.w3.org/2000/svg">
<ellipse cx="22.6668" cy="24.0002" rx="21.3333" ry="18.6667" fill="white"/>
<path d="M26.448 18.036L27.2256 18.0537C27.226 18.0366 27.2264 18.0191 27.2268 18.0012C27.2363 17.6138 27.2502 17.0425 26.9736 16.5463C26.6495 15.9649 26.0525 15.6587 25.2919 15.4824C24.4975 15.2979 23.7222 15.2222 23.008 15.2222C21.5861 15.2222 20.3523 15.5181 19.5777 15.8728C19.3816 15.9626 19.198 16.0639 19.042 16.1765C18.902 16.2776 18.7142 16.4373 18.5976 16.6659C18.5344 16.7897 18.4772 16.9639 18.4928 17.1709C18.5093 17.3888 18.6015 17.5754 18.7286 17.7155C18.9486 17.958 19.2452 18.0359 19.4213 18.0686C19.5722 18.0968 19.7369 18.198 19.9007 18.5099C20.0708 18.8337 20.1921 19.3055 20.253 19.882C20.3746 21.032 20.2333 22.3597 20.0395 23.1352C20.0197 23.2143 20.0001 23.2775 19.9823 23.3275C19.9387 23.2931 19.8867 23.2479 19.8262 23.1893C19.6495 23.0177 19.4479 22.7768 19.2283 22.4734C18.3404 21.2468 17.3765 19.3073 16.7982 17.9895L16.7974 17.9876C16.782 17.9528 16.7585 17.897 16.732 17.8341C16.6879 17.7296 16.6357 17.6058 16.5997 17.5282C16.5236 17.3639 16.4173 17.1626 16.2522 16.9773C15.8749 16.5539 15.3552 16.3882 14.714 16.3882H10.918C10.5704 16.3882 10.1695 16.4404 9.83181 16.6513C9.4375 16.8975 9.22222 17.3025 9.22222 17.768C9.22222 17.9288 9.26378 18.088 9.29152 18.1855C9.32551 18.3049 9.37202 18.4408 9.42649 18.5862C9.53594 18.8784 9.69162 19.2464 9.88341 19.6673C10.2679 20.5109 10.8116 21.5978 11.4574 22.771C12.7417 25.1045 14.465 27.8449 16.1773 29.6944L16.1777 29.6949C17.8926 31.544 19.6273 32.4124 21.2481 32.804C22.6056 33.132 23.8751 33.1182 24.8735 33.1074C25.0424 33.1055 25.2035 33.1038 25.356 33.1038C25.8958 33.1038 26.3838 32.9146 26.7187 32.5124C27.0357 32.1317 27.1321 31.6598 27.1236 31.2423L26.346 31.258L27.1237 31.2455C27.1154 30.733 27.1601 30.3098 27.2401 29.9909C27.3234 29.6588 27.4269 29.5108 27.4781 29.4628C27.4808 29.4603 27.4819 29.4581 27.4828 29.4564C27.4858 29.451 27.4862 29.4502 27.5242 29.4594C27.6271 29.4843 27.8538 29.5918 28.2 29.938L28.2007 29.9386C28.6116 30.3486 28.9421 30.728 29.2523 31.084L29.2578 31.0903L29.2669 31.1008C29.5676 31.446 29.8687 31.7916 30.1903 32.0837C30.5254 32.3881 30.9009 32.6524 31.3681 32.8353C31.8337 33.0176 32.3511 33.1038 32.954 33.1038H36.688C37.2172 33.1038 37.7226 33.0227 38.1175 32.7685C38.5703 32.477 38.7778 32.0239 38.7778 31.546C38.7778 31.1029 38.6031 30.6666 38.4034 30.2968C38.1954 29.9113 37.9129 29.5132 37.6017 29.1264C36.9784 28.3517 36.1829 27.5528 35.4693 26.8901L35.469 26.8899L35.4338 26.8572C34.9461 26.4047 34.6189 26.101 34.3983 25.8495C34.1728 25.5924 34.158 25.4963 34.156 25.479L34.156 25.4789C34.1547 25.4674 34.1446 25.376 34.3116 25.0894C34.4804 24.7996 34.7589 24.4262 35.19 23.8668L35.1901 23.8667C35.2424 23.7988 35.2953 23.7302 35.3487 23.661C36.3487 22.3643 37.521 20.8441 38.1709 19.6222C38.3454 19.2942 38.4947 18.9655 38.5934 18.6509C38.6894 18.345 38.7559 17.9962 38.7079 17.6501C38.6554 17.2717 38.4655 16.9129 38.1019 16.6737C37.771 16.4561 37.3755 16.3902 36.994 16.3902H32.35C32.0548 16.3902 31.7689 16.4312 31.5049 16.5448C31.2298 16.6632 31.0242 16.8409 30.8686 17.0452C30.7234 17.2358 30.6269 17.4433 30.5552 17.6136C30.5206 17.6958 30.4868 17.7816 30.4555 17.8611L30.4498 17.8757C30.4159 17.9617 30.3833 18.0441 30.3478 18.1288C29.7822 19.4566 28.9642 20.9797 28.1969 22.0911C27.8087 22.6535 27.4616 23.069 27.1917 23.3044C27.1885 23.3073 27.1852 23.3101 27.182 23.3129C27.1771 23.2957 27.1721 23.2773 27.1672 23.2575C27.1058 23.01 27.0754 22.6493 27.075 22.1417C27.0747 21.6411 27.1027 21.0516 27.1364 20.3591L27.1389 20.3085C27.1718 19.6351 27.2088 18.8769 27.2256 18.0519L26.448 18.036ZM26.448 18.036C26.4314 18.8498 26.3949 19.5985 26.3619 20.2736C26.26 22.3624 26.1925 23.7462 26.856 24.174L19.942 17.439C19.8267 17.3754 19.701 17.3296 19.564 17.304C19.1089 17.22 19.2038 16.9598 19.6767 16.6937C19.6771 16.6934 19.6776 16.6932 19.6781 16.6929C19.7236 16.6673 19.7725 16.6417 19.8248 16.6162C19.7764 16.5754 19.7331 16.553 19.7063 16.5419C19.7058 16.5417 19.7053 16.5415 19.7048 16.5413C19.7001 16.5394 19.696 16.5378 19.6924 16.5366M26.448 18.036C26.468 17.156 26.462 16.552 25.116 16.24C24.384 16.07 23.668 16 23.008 16C21.6771 16 20.5527 16.2801 19.8942 16.5833C19.8336 16.5661 19.7711 16.5514 19.7067 16.5394L19.7052 16.5391C19.7002 16.5382 19.696 16.5374 19.6924 16.5366M19.6924 16.5366C19.6837 16.5335 19.6786 16.5324 19.6782 16.5326C19.6779 16.5328 19.6823 16.5344 19.6924 16.5366ZM19.9201 17.4638C19.92 17.4638 19.9214 17.4624 19.9245 17.4596C19.9218 17.4624 19.9202 17.4638 19.9201 17.4638ZM0.777778 24C0.777778 11.1756 11.1756 0.777778 24 0.777778C36.8244 0.777778 47.2222 11.1756 47.2222 24C47.2222 36.8244 36.8244 47.2222 24 47.2222C11.1756 47.2222 0.777778 36.8244 0.777778 24Z" fill="#C2D72F" stroke="#C2D72F" stroke-width="1.55556"/>
</svg>
