<svg width="24" height="24" viewBox="0 0 24 24" fill="none" xmlns="http://www.w3.org/2000/svg">
<path d="M18.3212 3.31532L19.8151 2.2414L18.9396 1.02344L17.4456 2.09735L18.3212 3.31532Z" fill="#4B5563"/>
<path d="M17.8364 5.88262L19.5245 6.33494L19.9127 4.88605L18.2247 4.43373L17.8364 5.88262Z" fill="#4B5563"/>
<path fill-rule="evenodd" clip-rule="evenodd" d="M14.4153 5.09306C14.0882 5.40844 13.8404 5.86598 13.6603 6.39944L15.4949 6.89102C16.5619 7.1769 17.195 8.27357 16.9092 9.34051L16.7383 9.9783C16.7309 10.0056 16.7231 10.0326 16.7147 10.0594L16.6211 10.4087C18.077 12.2658 18.6721 14.7612 18.0143 17.2161C16.904 21.3597 12.645 23.8186 8.50146 22.7084C4.35794 21.5981 1.89901 17.3391 3.00927 13.1955C3.66689 10.7413 5.42919 8.878 7.61785 7.99736L7.90428 6.9284C8.12212 6.11541 8.81072 5.55427 9.59821 5.45969C9.84477 5.42984 10.1011 5.44573 10.3556 5.51395L12.2091 6.01057C12.4406 5.2924 12.8019 4.56507 13.3741 4.0133C14.2141 3.20322 15.4003 2.87346 16.9235 3.28161L16.5353 4.7305C15.4484 4.43928 14.8259 4.69705 14.4153 5.09306ZM15.2768 9.63031L15.4584 8.95252C15.5299 8.68579 15.3716 8.41161 15.1048 8.34014L9.96554 6.96307C9.90122 6.94584 9.83647 6.94196 9.77424 6.94975C9.57916 6.9749 9.40911 7.11462 9.35504 7.31639L9.18415 7.95419C9.11268 8.22092 9.27097 8.49509 9.5377 8.56656L14.677 9.94363C14.93 10.0114 15.1898 9.87247 15.2768 9.63031ZM15.4552 11.3527C16.6219 12.8525 17.0937 14.8562 16.5654 16.8279C15.6695 20.1712 12.233 22.1553 8.88969 21.2595C5.54638 20.3637 3.56231 16.9271 4.45816 13.5838C4.98659 11.6116 6.39748 10.1121 8.15837 9.3968C8.41081 9.68737 8.74969 9.90833 9.14947 10.0154L14.2888 11.3925C14.6881 11.4995 15.0916 11.4778 15.4552 11.3527Z" fill="#4B5563"/>
</svg>
