<svg width="47" height="72" viewBox="0 0 47 72" fill="none" xmlns="http://www.w3.org/2000/svg">
<mask id="path-1-outside-1_1408_6129" maskUnits="userSpaceOnUse" x="1.03175" y="1.20242" width="43.292" height="69.4037" fill="black">
<rect fill="white" x="1.03175" y="1.20242" width="43.292" height="69.4037"/>
<path fill-rule="evenodd" clip-rule="evenodd" d="M4.95492 14.6559C4.57941 16.5395 5.18655 18.6958 6.40085 23.0086L11.1166 39.7573C12.3309 44.0701 12.9381 46.2264 14.2412 47.6373C15.3874 48.8784 16.8972 49.7248 18.554 50.0551C19.6732 50.2782 20.8886 50.1544 22.5955 49.7625C22.6101 49.8499 22.6255 49.9411 22.6416 50.0364L23.1518 53.0616C22.8544 53.3074 22.6338 53.6347 22.5178 54.0043C22.374 54.4624 22.4671 55.0146 22.6534 56.1191L23.7512 62.6272C23.9375 63.7317 24.0306 64.284 24.3167 64.6696C24.5684 65.0088 24.921 65.2596 25.324 65.3861C25.7821 65.5298 26.3343 65.4367 27.4388 65.2504L31.9748 64.4853C33.0793 64.299 33.6315 64.2059 34.0171 63.9197C34.3563 63.6681 34.6071 63.3155 34.7336 62.9125C34.8774 62.4544 34.7843 61.9021 34.598 60.7976L33.5002 54.2896C33.3139 53.1851 33.2208 52.6328 32.9347 52.2472C32.7038 51.9361 32.3881 51.6994 32.0265 51.5647L31.5162 48.5395C31.433 48.046 31.3683 47.6628 31.2968 47.3554C33.6743 46.638 35.1033 46.0574 36.1343 45.1052C37.3754 43.9589 38.2217 42.4492 38.552 40.7924C38.9275 38.9088 38.3204 36.7524 37.1061 32.4397L32.3903 15.6909C31.176 11.3782 30.5689 9.22185 29.2658 7.81092C28.1195 6.56983 26.6098 5.72348 24.953 5.39317C23.0694 5.01766 20.913 5.6248 16.6003 6.8391L15.2527 7.21853C10.94 8.43282 8.7836 9.03997 7.37267 10.3431C6.13158 11.4893 5.28523 12.9991 4.95492 14.6559Z"/>
</mask>
<path fill-rule="evenodd" clip-rule="evenodd" d="M4.95492 14.6559C4.57941 16.5395 5.18655 18.6958 6.40085 23.0086L11.1166 39.7573C12.3309 44.0701 12.9381 46.2264 14.2412 47.6373C15.3874 48.8784 16.8972 49.7248 18.554 50.0551C19.6732 50.2782 20.8886 50.1544 22.5955 49.7625C22.6101 49.8499 22.6255 49.9411 22.6416 50.0364L23.1518 53.0616C22.8544 53.3074 22.6338 53.6347 22.5178 54.0043C22.374 54.4624 22.4671 55.0146 22.6534 56.1191L23.7512 62.6272C23.9375 63.7317 24.0306 64.284 24.3167 64.6696C24.5684 65.0088 24.921 65.2596 25.324 65.3861C25.7821 65.5298 26.3343 65.4367 27.4388 65.2504L31.9748 64.4853C33.0793 64.299 33.6315 64.2059 34.0171 63.9197C34.3563 63.6681 34.6071 63.3155 34.7336 62.9125C34.8774 62.4544 34.7843 61.9021 34.598 60.7976L33.5002 54.2896C33.3139 53.1851 33.2208 52.6328 32.9347 52.2472C32.7038 51.9361 32.3881 51.6994 32.0265 51.5647L31.5162 48.5395C31.433 48.046 31.3683 47.6628 31.2968 47.3554C33.6743 46.638 35.1033 46.0574 36.1343 45.1052C37.3754 43.9589 38.2217 42.4492 38.552 40.7924C38.9275 38.9088 38.3204 36.7524 37.1061 32.4397L32.3903 15.6909C31.176 11.3782 30.5689 9.22185 29.2658 7.81092C28.1195 6.56983 26.6098 5.72348 24.953 5.39317C23.0694 5.01766 20.913 5.6248 16.6003 6.8391L15.2527 7.21853C10.94 8.43282 8.7836 9.03997 7.37267 10.3431C6.13158 11.4893 5.28523 12.9991 4.95492 14.6559Z" fill="#C2D72F"/>
<path d="M6.40085 23.0086L3.51313 23.8216L6.40085 23.0086ZM4.95492 14.6559L2.01282 14.0693L2.01282 14.0693L4.95492 14.6559ZM11.1166 39.7573L8.22892 40.5704L11.1166 39.7573ZM14.2412 47.6373L16.445 45.6019L16.445 45.6019L14.2412 47.6373ZM18.554 50.0551L17.9674 52.9972L17.9674 52.9972L18.554 50.0551ZM22.5955 49.7625L25.5545 49.2682L25.0295 46.1255L21.9241 46.8386L22.5955 49.7625ZM22.6416 50.0364L19.6834 50.5354L19.6834 50.5354L22.6416 50.0364ZM23.1518 53.0616L25.063 55.374L26.3981 54.2706L26.1101 52.5626L23.1518 53.0616ZM22.5178 54.0043L25.3801 54.9027L25.3801 54.9027L22.5178 54.0043ZM22.6534 56.1191L25.6117 55.6202L22.6534 56.1191ZM23.7512 62.6272L26.7094 62.1282L26.7094 62.1282L23.7512 62.6272ZM24.3167 64.6696L26.726 62.882L26.726 62.882L24.3167 64.6696ZM25.324 65.3861L24.4256 68.2484L24.4256 68.2484L25.324 65.3861ZM27.4388 65.2504L26.9399 62.2922L27.4388 65.2504ZM31.9748 64.4853L32.4737 67.4435L31.9748 64.4853ZM34.0171 63.9197L35.8047 66.329L35.8047 66.329L34.0171 63.9197ZM34.7336 62.9125L31.8713 62.0141L31.8713 62.0141L34.7336 62.9125ZM34.598 60.7976L37.5562 60.2987L34.598 60.7976ZM33.5002 54.2896L30.542 54.7885L30.542 54.7885L33.5002 54.2896ZM32.9347 52.2472L30.5254 54.0348L30.5254 54.0348L32.9347 52.2472ZM32.0265 51.5647L29.0683 52.0637L29.3564 53.7716L30.9795 54.3761L32.0265 51.5647ZM31.5162 48.5395L34.4744 48.0405L31.5162 48.5395ZM31.2968 47.3554L30.4301 44.4833L27.7371 45.2959L28.3749 48.0356L31.2968 47.3554ZM36.1343 45.1052L34.0988 42.9013L36.1343 45.1052ZM38.552 40.7924L41.4941 41.3789L38.552 40.7924ZM37.1061 32.4397L34.2184 33.2528L34.2184 33.2528L37.1061 32.4397ZM32.3903 15.6909L35.278 14.8779L35.278 14.8779L32.3903 15.6909ZM29.2658 7.81092L31.4696 5.77548L31.4696 5.77548L29.2658 7.81092ZM24.953 5.39317L25.5395 2.45107L25.5395 2.45107L24.953 5.39317ZM16.6003 6.8391L15.7872 3.95138L15.7872 3.95138L16.6003 6.8391ZM15.2527 7.21853L16.0658 10.1062L15.2527 7.21853ZM7.37267 10.3431L5.33722 8.13923L7.37267 10.3431ZM9.28857 22.1955C8.668 19.9915 8.25372 18.5115 8.02604 17.3461C7.8051 16.2151 7.81753 15.6411 7.89702 15.2424L2.01282 14.0693C1.71679 15.5542 1.84504 17.0002 2.13737 18.4965C2.42295 19.9583 2.9194 21.7129 3.51313 23.8216L9.28857 22.1955ZM14.0044 38.9443L9.28857 22.1955L3.51313 23.8216L8.22892 40.5704L14.0044 38.9443ZM16.445 45.6019C16.1692 45.3032 15.8591 44.8201 15.4575 43.74C15.0437 42.627 14.6249 41.1483 14.0044 38.9443L8.22892 40.5704C8.82265 42.6791 9.3146 44.4349 9.83369 45.831C10.365 47.26 11.0101 48.5605 12.0373 49.6728L16.445 45.6019ZM19.1405 47.113C18.105 46.9065 17.1614 46.3776 16.445 45.6019L12.0373 49.6728C13.6134 51.3793 15.6893 52.543 17.9674 52.9972L19.1405 47.113ZM21.9241 46.8386C20.3344 47.2036 19.6239 47.2094 19.1405 47.113L17.9674 52.9972C19.7224 53.3471 21.4428 53.1052 23.2669 52.6864L21.9241 46.8386ZM19.6365 50.2568C19.6516 50.3469 19.6674 50.4405 19.6834 50.5354L25.5998 49.5374C25.5836 49.4416 25.5686 49.3528 25.5545 49.2682L19.6365 50.2568ZM19.6834 50.5354L20.1936 53.5606L26.1101 52.5626L25.5998 49.5374L19.6834 50.5354ZM21.2406 50.7492C20.497 51.3638 19.9455 52.1818 19.6555 53.1059L25.3801 54.9027C25.3221 55.0875 25.2118 55.2511 25.063 55.374L21.2406 50.7492ZM19.6555 53.1059C19.4177 53.8633 19.4283 54.5569 19.4728 55.0757C19.5143 55.5596 19.6103 56.1147 19.6952 56.6181L25.6117 55.6202C25.5639 55.3373 25.5275 55.1209 25.4991 54.9347C25.4707 54.7485 25.457 54.635 25.4509 54.5629C25.4382 54.415 25.474 54.6034 25.3801 54.9027L19.6555 53.1059ZM19.6952 56.6181L20.793 63.1262L26.7094 62.1282L25.6117 55.6202L19.6952 56.6181ZM20.793 63.1262C20.8779 63.6296 20.9693 64.1855 21.0888 64.6562C21.2169 65.1609 21.4345 65.8196 21.9075 66.4572L26.726 62.882C26.9129 63.1339 26.9408 63.3237 26.9043 63.1798C26.8865 63.1096 26.8622 62.9979 26.8279 62.8127C26.7937 62.6275 26.7571 62.4111 26.7094 62.1282L20.793 63.1262ZM21.9075 66.4572C22.5367 67.3051 23.4181 67.9322 24.4256 68.2484L26.2224 62.5237C26.4239 62.587 26.6002 62.7124 26.726 62.882L21.9075 66.4572ZM24.4256 68.2484C25.183 68.4861 25.8766 68.4755 26.3954 68.431C26.8793 68.3895 27.4344 68.2935 27.9378 68.2086L26.9399 62.2922C26.657 62.3399 26.4406 62.3763 26.2544 62.4047C26.0682 62.4331 25.9547 62.4468 25.8826 62.453C25.7347 62.4657 25.9231 62.4298 26.2224 62.5237L24.4256 68.2484ZM27.9378 68.2086L32.4737 67.4435L31.4758 61.5271L26.9399 62.2922L27.9378 68.2086ZM32.4737 67.4435C32.9772 67.3586 33.5331 67.2672 34.0037 67.1477C34.5085 67.0196 35.1672 66.802 35.8047 66.329L32.2296 61.5105C32.4815 61.3236 32.6712 61.2957 32.5273 61.3322C32.4571 61.35 32.3455 61.3743 32.1602 61.4086C31.975 61.4428 31.7587 61.4794 31.4758 61.5271L32.4737 67.4435ZM35.8047 66.329C36.6527 65.6998 37.2797 64.8184 37.5959 63.8109L31.8713 62.0141C31.9345 61.8126 32.06 61.6363 32.2295 61.5105L35.8047 66.329ZM37.5959 63.8109C37.8337 63.0535 37.8231 62.3599 37.7786 61.8411C37.7371 61.3572 37.6411 60.8021 37.5562 60.2987L31.6398 61.2966C31.6875 61.5795 31.7239 61.7959 31.7523 61.9821C31.7807 62.1683 31.7944 62.2817 31.8006 62.3539C31.8132 62.5018 31.7774 62.3134 31.8713 62.0141L37.5959 63.8109ZM37.5562 60.2987L36.4584 53.7906L30.542 54.7885L31.6398 61.2966L37.5562 60.2987ZM36.4584 53.7906C36.3735 53.2872 36.2821 52.7313 36.1626 52.2606C36.0345 51.7559 35.8169 51.0971 35.3439 50.4596L30.5254 54.0348C30.3385 53.7829 30.3106 53.5931 30.3471 53.737C30.3649 53.8072 30.3892 53.9188 30.4235 54.1041C30.4577 54.2893 30.4943 54.5057 30.542 54.7885L36.4584 53.7906ZM35.3439 50.4596C34.7669 49.6819 33.9776 49.09 33.0734 48.7533L30.9795 54.3761C30.7987 54.3087 30.6408 54.1904 30.5254 54.0348L35.3439 50.4596ZM34.9847 51.0657L34.4744 48.0405L28.558 49.0384L29.0683 52.0637L34.9847 51.0657ZM34.4744 48.0405C34.3971 47.5819 34.316 47.0932 34.2186 46.6752L28.3749 48.0356C28.4207 48.2323 28.4689 48.5102 28.558 49.0384L34.4744 48.0405ZM34.0988 42.9013C33.6289 43.3353 32.8226 43.7614 30.4301 44.4833L32.1634 50.2275C34.526 49.5146 36.5777 48.7794 38.1697 47.309L34.0988 42.9013ZM35.6099 40.2058C35.4035 41.2413 34.8745 42.1849 34.0988 42.9013L38.1697 47.309C39.8762 45.7329 41.04 43.6571 41.4941 41.3789L35.6099 40.2058ZM34.2184 33.2528C34.839 35.4568 35.2532 36.9368 35.4809 38.1022C35.7019 39.2331 35.6894 39.8071 35.6099 40.2058L41.4941 41.3789C41.7902 39.8941 41.6619 38.4481 41.3696 36.9518C41.084 35.4899 40.5876 33.7354 39.9938 31.6266L34.2184 33.2528ZM29.5026 16.504L34.2184 33.2528L39.9938 31.6267L35.278 14.8779L29.5026 16.504ZM27.0619 9.84637C27.3378 10.145 27.6478 10.6282 28.0494 11.7083C28.4633 12.8213 28.882 14.3 29.5026 16.504L35.278 14.8779C34.6843 12.7692 34.1924 11.0133 33.6733 9.61724C33.1419 8.18822 32.4969 6.88774 31.4696 5.77548L27.0619 9.84637ZM24.3664 8.33527C25.4019 8.54172 26.3455 9.07069 27.0619 9.84637L31.4696 5.77548C29.8935 4.06898 27.8176 2.90525 25.5395 2.45107L24.3664 8.33527ZM17.4134 9.72682C19.6174 9.10625 21.0974 8.69198 22.2628 8.4643C23.3937 8.24335 23.9677 8.25578 24.3664 8.33527L25.5395 2.45107C24.0547 2.15504 22.6087 2.28329 21.1124 2.57562C19.6505 2.86121 17.8959 3.35765 15.7872 3.95138L17.4134 9.72682ZM16.0658 10.1062L17.4134 9.72682L15.7872 3.95138L14.4396 4.33081L16.0658 10.1062ZM9.40811 12.5469C9.70678 12.2711 10.1899 11.961 11.27 11.5594C12.383 11.1456 13.8617 10.7268 16.0658 10.1062L14.4396 4.33081C12.3309 4.92454 10.5751 5.41649 9.17899 5.93558C7.74997 6.46692 6.44949 7.11196 5.33722 8.13923L9.40811 12.5469ZM7.89702 15.2424C8.10347 14.2069 8.63244 13.2633 9.40811 12.5469L5.33722 8.13923C3.63073 9.71533 2.467 11.7912 2.01282 14.0693L7.89702 15.2424Z" fill="white" mask="url(#path-1-outside-1_1408_6129)"/>
<rect x="22.1212" y="52.9648" width="11" height="13" rx="2" transform="rotate(-9.57416 22.1212 52.9648)" fill="#F01F77"/>
<rect x="22.1093" y="46.8789" width="9" height="12" rx="2" transform="rotate(-9.57416 22.1093 46.8789)" fill="#C2D72F"/>
<rect x="2.93597" y="10.707" width="27" height="43" rx="8" transform="rotate(-15.7251 2.93597 10.707)" fill="#C2D72F"/>
<g style="mix-blend-mode:screen">
<rect x="11.7211" y="12.3906" width="15" height="35" rx="4" transform="rotate(-15.7251 11.7211 12.3906)" fill="#5E652A"/>
</g>
<g style="mix-blend-mode:multiply">
<path fill-rule="evenodd" clip-rule="evenodd" d="M14.4512 7.4518C13.2662 10.6087 12.5287 15.1853 14.998 18.7555C16.8904 21.4915 19.531 22.2338 21.771 22.8634C24.3514 23.5888 26.4001 24.1647 26.161 27.4668C25.7497 33.1478 25.285 40.9906 33.1468 46.7582C31.9121 47.2072 30.3345 47.6514 28.256 48.2366L26.9084 48.616L26.9084 48.616C22.5957 49.8303 20.4393 50.4375 18.5558 50.062C16.8989 49.7316 15.3892 48.8853 14.243 47.6442C12.9398 46.2333 12.3327 44.0769 11.1184 39.7642L6.40262 23.0154C5.18832 18.7027 4.58118 16.5463 4.95669 14.6627C5.287 13.0059 6.13335 11.4962 7.37444 10.3499C8.69491 9.13037 10.6683 8.52039 14.4512 7.4518Z" fill="#DAE29E"/>
</g>
<path fill-rule="evenodd" clip-rule="evenodd" d="M11.0667 39.5817L10.5246 37.6566L14.3748 36.5725C14.9064 36.4228 15.4587 36.7324 15.6084 37.2641C15.7581 37.7957 15.4485 38.348 14.9169 38.4976L11.0667 39.5817ZM12.4954 44.3713C12.2988 43.8079 12.1011 43.1765 11.8899 42.464L15.7294 41.383C16.261 41.2333 16.8133 41.5429 16.963 42.0745C17.1127 42.6061 16.8031 43.1584 16.2715 43.3081L12.4954 44.3713ZM37.8575 35.1517C38.0492 35.8698 38.2099 36.5115 38.3362 37.0947L35.5228 37.8868C34.9912 38.0365 34.4389 37.7269 34.2892 37.1953C34.1396 36.6637 34.4492 36.1114 34.9808 35.9617L37.8575 35.1517ZM37.056 32.2633L36.5139 30.3382L33.6262 31.1512C33.0946 31.3009 32.785 31.8532 32.9346 32.3848C33.0843 32.9165 33.6366 33.2261 34.1682 33.0764L37.056 32.2633ZM35.1584 25.5239L35.7004 27.4491L32.813 28.2621C32.2814 28.4118 31.7291 28.1022 31.5794 27.5705C31.4297 27.0389 31.7393 26.4866 32.2709 26.3369L35.1584 25.5239ZM33.8029 20.7097L34.345 22.6349L31.4577 23.4478C30.9261 23.5975 30.3738 23.2878 30.2241 22.7562C30.0744 22.2246 30.3841 21.6723 30.9157 21.5226L33.8029 20.7097ZM31.0195 11.1056C31.2158 11.6692 31.4133 12.3006 31.6243 13.0131L28.7474 13.8231C28.2158 13.9728 27.6635 13.6632 27.5138 13.1316C27.3641 12.5999 27.6737 12.0476 28.2053 11.898L31.0195 11.1056ZM5.65641 20.3254C5.46467 19.6076 5.30375 18.9658 5.17715 18.3826L8.95396 17.3192C9.48557 17.1695 10.0379 17.4792 10.1876 18.0108C10.3372 18.5424 10.0276 19.0947 9.496 19.2444L5.65641 20.3254ZM13.0756 17.199C12.9259 16.6674 13.2356 16.1151 13.7672 15.9654L23.3929 13.2552C23.9245 13.1055 24.4768 13.4151 24.6265 13.9467C24.7762 14.4784 24.4666 15.0307 23.9349 15.1803L14.3092 17.8906C13.7776 18.0402 13.2253 17.7306 13.0756 17.199ZM14.4302 22.0095C14.2805 21.4778 14.5902 20.9255 15.1218 20.7759L24.7475 18.0656C25.2791 17.916 25.8314 18.2256 25.9811 18.7572C26.1308 19.2888 25.8212 19.8411 25.2895 19.9908L15.6638 22.701C15.1322 22.8507 14.5799 22.5411 14.4302 22.0095ZM16.4775 25.5901C15.9459 25.7398 15.6363 26.2921 15.786 26.8237C15.9356 27.3553 16.4879 27.6649 17.0196 27.5152L26.6453 24.805C27.1769 24.6553 27.4865 24.103 27.3368 23.5714C27.1872 23.0398 26.6349 22.7302 26.1032 22.8799L16.4775 25.5901ZM17.1412 31.638C16.9915 31.1064 17.3012 30.5541 17.8328 30.4044L27.4585 27.6942C27.9901 27.5445 28.5424 27.8541 28.6921 28.3857C28.8418 28.9173 28.5322 29.4696 28.0005 29.6193L18.3748 32.3295C17.8432 32.4792 17.2909 32.1696 17.1412 31.638ZM19.1874 35.2148C18.6558 35.3645 18.3461 35.9168 18.4958 36.4484C18.6455 36.98 19.1978 37.2897 19.7294 37.14L29.3551 34.4298C29.8868 34.2801 30.1964 33.7278 30.0467 33.1962C29.897 32.6646 29.3447 32.3549 28.8131 32.5046L19.1874 35.2148ZM19.8511 41.2627C19.7014 40.7311 20.011 40.1788 20.5426 40.0291L30.1684 37.3189C30.7 37.1692 31.2523 37.4789 31.402 38.0105C31.5516 38.5421 31.242 39.0944 30.7104 39.2441L21.0847 41.9543C20.5531 42.104 20.0008 41.7943 19.8511 41.2627ZM29.5606 16.7123C29.029 16.862 28.7194 17.4143 28.869 17.9459C29.0187 18.4775 29.571 18.7871 30.1026 18.6374L32.9903 17.8244L32.4483 15.8992L29.5606 16.7123ZM14.2532 32.4498C14.4028 32.9814 14.0932 33.5337 13.5616 33.6833L9.71131 34.7674L9.16926 32.8423L13.0196 31.7582C13.5512 31.6085 14.1035 31.9181 14.2532 32.4498ZM12.8979 27.6354C13.0476 28.1671 12.738 28.7194 12.2063 28.869L8.35605 29.9531L7.81401 28.028L11.6643 26.9439C12.1959 26.7942 12.7482 27.1038 12.8979 27.6354ZM11.5433 22.825C11.693 23.3566 11.3834 23.9089 10.8517 24.0586L7.00145 25.1427L6.4594 23.2175L10.3097 22.1334C10.8413 21.9838 11.3936 22.2934 11.5433 22.825Z" fill="#F01F77"/>
<circle cx="27.7941" cy="53.5259" r="2.5" transform="rotate(-9.57416 27.7941 53.5259)" fill="#F01F77"/>
</svg>
