<svg width="24" height="24" viewBox="0 0 24 24" fill="none" xmlns="http://www.w3.org/2000/svg">
<path d="M14.7808 19.7005L13.9939 19.0834L14.7808 19.7005ZM9.21921 19.7005L8.43231 20.3176L9.21921 19.7005ZM12 22.0055V21.0055V22.0055ZM19 9.6087C19 10.7662 18.3896 12.3589 17.3861 14.1329C16.4048 15.8679 15.1337 17.6299 13.9939 19.0834L15.5677 20.3176C16.7376 18.8257 18.0761 16.9754 19.127 15.1176C20.1556 13.299 21 11.3185 21 9.6087H19ZM10.0061 19.0834C8.86627 17.6299 7.5952 15.8679 6.61385 14.1329C5.61037 12.3589 5 10.7662 5 9.6087H3C3 11.3185 3.84435 13.299 4.87304 15.1176C5.92386 16.9754 7.26239 18.8257 8.43231 20.3176L10.0061 19.0834ZM5 9.6087C5 5.3362 8.2018 2 12 2V0C6.96164 0 3 4.37228 3 9.6087H5ZM12 2C15.7982 2 19 5.3362 19 9.6087H21C21 4.37228 17.0384 0 12 0V2ZM13.9939 19.0834C13.3695 19.8797 12.9767 20.3751 12.6311 20.689C12.3283 20.9641 12.1634 21.0055 12 21.0055V23.0055C12.8099 23.0055 13.4328 22.6627 13.9759 22.1694C14.4761 21.7151 14.9871 21.0579 15.5677 20.3176L13.9939 19.0834ZM8.43231 20.3176C9.0129 21.0579 9.52394 21.7151 10.0241 22.1694C10.5672 22.6627 11.1901 23.0055 12 23.0055V21.0055C11.8366 21.0055 11.6717 20.9641 11.3689 20.689C11.0233 20.3751 10.6305 19.8797 10.0061 19.0834L8.43231 20.3176ZM8 10C8 12.2091 9.79086 14 12 14V12C10.8954 12 10 11.1046 10 10H8ZM12 14C14.2091 14 16 12.2091 16 10H14C14 11.1046 13.1046 12 12 12V14ZM16 10C16 7.79086 14.2091 6 12 6V8C13.1046 8 14 8.89543 14 10H16ZM12 6C9.79086 6 8 7.79086 8 10H10C10 8.89543 10.8954 8 12 8V6Z" fill="white"/>
</svg>
