<svg width="213" height="64" viewBox="0 0 213 64" fill="none" xmlns="http://www.w3.org/2000/svg">
<path fill-rule="evenodd" clip-rule="evenodd" d="M211.982 55.9634C211.418 57.3667 210.612 58.5757 209.564 59.5893C208.515 60.6028 207.25 61.3894 205.769 61.9484C204.288 62.5072 202.644 62.7867 200.835 62.7867C199.026 62.7867 197.381 62.507 195.901 61.9484C194.42 61.3894 193.155 60.6028 192.107 59.5893C191.058 58.5757 190.252 57.3671 189.689 55.9634C189.19 54.7229 188.926 53.3524 188.868 51.8694H185.053V62.7869H178.959V35.4939H185.053V46.4108H188.868C188.926 44.9277 189.19 43.5575 189.689 42.3172C190.252 40.9135 191.058 39.705 192.107 38.6913C193.155 37.6778 194.42 36.8912 195.901 36.3322C197.381 35.7736 199.026 35.4939 200.835 35.4939C202.644 35.4939 204.288 35.7734 205.769 36.3322C207.25 36.8912 208.515 37.6778 209.564 38.6913C210.612 39.705 211.419 40.9139 211.982 42.3172C212.545 43.7202 212.827 45.2803 212.827 46.9959V51.2845C212.827 53.0002 212.545 54.5599 211.982 55.9634ZM206.733 46.9959C206.733 45.1257 206.195 43.6489 205.121 42.5706C204.046 41.4925 202.617 40.9524 200.835 40.9524C199.053 40.9524 197.623 41.4921 196.549 42.5706C195.475 43.6485 194.937 45.1243 194.937 46.9959V51.2845C194.937 53.1563 195.475 54.6316 196.549 55.71C197.624 56.7885 199.053 57.3281 200.835 57.3281C202.617 57.3281 204.046 56.7885 205.121 55.71C206.195 54.6316 206.733 53.1553 206.733 51.2845V46.9959ZM206.733 9.48478H206.339L191.989 27.4198H185.305V8.14868H191.399V18.0622H191.792L206.143 0.126953H212.827V27.4198H206.733V9.48478ZM185.305 0.126953H197.058V5.58552H185.305V0.126953ZM174.533 21.7663H157.653L156.277 27.4198H149.986L156.67 0.126953H175.516L182.2 27.4198H175.91L174.533 21.7663ZM170.601 5.58552H161.584L159.029 16.3077H173.157L170.601 5.58552ZM153.529 53.4291H153.922L168.273 35.4937H174.957V62.7867H168.863V44.8515H168.47L154.119 62.7867H147.435V35.8954H153.529V53.4291ZM122.433 27.4198H116.339V21.9612H119.288L124.596 0.126953H138.554L143.861 21.9612H146.81V27.4198H140.716H122.433ZM133.639 5.58552H129.511L125.579 21.9612H137.571L133.639 5.58552ZM122.812 35.4939H136.77L142.078 57.3281H145.027V62.7867H138.932H120.65H114.555V57.3281H117.504L122.812 35.4939ZM135.787 57.3281L131.855 40.9524H127.727L123.795 57.3281H135.787ZM109.746 59.609C108.383 60.9477 106.784 62.0069 104.949 62.7867C103.114 63.5664 101.135 63.9565 99.0123 63.9565C96.8893 63.9565 94.91 63.5664 93.0751 62.7867C91.2403 62.0069 89.6415 60.9477 88.2787 59.609C86.9158 58.2704 85.8412 56.7041 85.0545 54.911C84.2682 53.1172 83.8751 51.1938 83.8751 49.1403C83.8751 47.0868 84.2682 45.1634 85.0545 43.3696C85.8412 41.5764 86.9158 40.0102 88.2787 38.6715C89.6415 37.3329 91.2403 36.2737 93.0751 35.4939C94.91 34.7142 96.8893 34.3241 99.0123 34.3241C101.135 34.3241 103.114 34.7142 104.949 35.4939C106.784 36.2737 108.383 37.3329 109.746 38.6715C111.109 40.0102 112.184 41.5764 112.97 43.3696C113.756 45.1634 114.15 47.0868 114.15 49.1403C114.15 51.1938 113.756 53.1172 112.97 54.911C112.184 56.7041 111.109 58.2704 109.746 59.609ZM107.328 45.4557C106.843 44.3251 106.188 43.3372 105.362 42.4926C104.536 41.6477 103.58 40.985 102.492 40.504C101.404 40.0233 100.244 39.7827 99.0123 39.7827C97.7802 39.7827 96.6204 40.0233 95.5328 40.504C94.4447 40.985 93.4881 41.6477 92.6624 42.4926C91.8368 43.3372 91.1816 44.3251 90.6969 45.4557C90.2118 46.5866 89.9693 47.8147 89.9693 49.1403C89.9693 50.4659 90.2118 51.694 90.6969 52.8248C91.1816 53.9555 91.8368 54.9433 92.6624 55.788C93.4881 56.6328 94.4447 57.2955 95.5328 57.7765C96.6204 58.2573 97.7802 58.4979 99.0123 58.4979C100.244 58.4979 101.404 58.2573 102.492 57.7765C103.58 57.2955 104.536 56.6328 105.362 55.788C106.188 54.9433 106.843 53.9555 107.328 52.8248C107.813 51.694 108.055 50.4659 108.055 49.1403C108.055 47.8147 107.813 46.5866 107.328 45.4557ZM105.497 21.7663H88.6164L87.2404 27.4198H80.9496L87.6333 0.126953H106.48L113.164 27.4198H106.873L105.497 21.7663ZM101.565 5.58552H92.548L89.9926 16.3077H104.121L101.565 5.58552ZM73.0716 27.4198H66.9771V0.126953H80.9736V5.58552H73.0716V27.4198ZM83.7436 62.7867H77.453L72.145 40.9524H68.8993L63.5916 62.7867H57.3008L63.9847 35.4939H77.0599L83.7436 62.7867ZM54.789 27.4198H48.695V5.58552H40.0454V0.126953H63.4391V5.58552H54.789V27.4198ZM35.3407 23.4153C34.0637 24.6696 32.5723 25.6416 30.9224 26.3429C29.184 27.0814 27.3417 27.4198 25.4544 27.4198H14.0828C12.1953 27.4198 10.353 27.0814 8.61474 26.3429C6.96464 25.6416 5.47324 24.6696 4.19644 23.4153C2.92706 22.1682 1.9384 20.7113 1.22646 19.0875C0.486475 17.3994 0.140625 15.611 0.140625 13.7734C0.140625 11.9357 0.486475 10.1475 1.22646 8.4592C1.9384 6.83569 2.92706 5.37831 4.19644 4.1315C5.47324 2.87737 6.96464 1.90493 8.61474 1.20409C10.353 0.465521 12.1953 0.126953 14.0828 0.126953H25.4544C27.3417 0.126953 29.184 0.465521 30.9224 1.20409C32.5723 1.90493 34.0637 2.87737 35.3407 4.1315C36.6099 5.37831 37.5988 6.83569 38.3103 8.4592C39.0505 10.1475 39.3961 11.9357 39.3961 13.7734C39.3961 15.611 39.0505 17.3994 38.3103 19.0875C37.5988 20.7113 36.6099 22.1682 35.3407 23.4153ZM33.2712 10.6316C32.8368 9.64083 32.2475 8.7628 31.4737 8.0029C30.687 7.22997 29.7755 6.64508 28.7582 6.21248C27.7048 5.76508 26.5979 5.57584 25.4544 5.57584H14.0828C12.9393 5.57584 11.8322 5.76508 10.7788 6.21248C9.76149 6.64508 8.84978 7.22997 8.0633 8.0029C7.28945 8.7628 6.70014 9.64083 6.26573 10.6316C5.8265 11.6337 5.63554 12.682 5.63554 13.7734C5.63554 14.8647 5.8265 15.9132 6.26573 16.9151C6.70014 17.9059 7.28945 18.7839 8.0633 19.544C8.84978 20.3166 9.76149 20.9017 10.7788 21.3341C11.8322 21.7815 12.9393 21.9709 14.0828 21.9709H25.4544C26.5979 21.9709 27.7048 21.7815 28.7582 21.3341C29.7755 20.9017 30.687 20.3166 31.4737 19.544C32.2475 18.7839 32.8368 17.9059 33.2712 16.9151C33.7105 15.9132 33.9012 14.8647 33.9012 13.7734C33.9012 12.682 33.7105 11.6337 33.2712 10.6316ZM15.2779 45.6313L23.6434 35.4939H30.4153V62.7867H24.2407V43.8767H23.8425L15.2779 54.2087L6.71357 43.8767H6.31542V62.7867H0.140625V35.4939H6.91274L15.2779 45.6313ZM58.8829 40.9524H33.7405V35.4939H60.2199L58.8829 40.9524ZM56.2095 51.8696H33.7405V46.411H57.5462L56.2095 51.8696ZM53.5359 62.7867H33.7405V57.3281H54.8726L53.5359 62.7867Z" fill="white"/>
</svg>
