<svg width="112" height="113" viewBox="0 0 112 113" fill="none" xmlns="http://www.w3.org/2000/svg">
<path fill-rule="evenodd" clip-rule="evenodd" d="M5.71915 67.5724C3.4517 20.4538 26.4241 6.89761 74.6364 26.9037C122.849 46.9098 123.983 70.469 78.0375 97.5816C32.0927 124.694 7.98661 114.691 5.71915 67.5724Z" fill="#FF4056"/>
<path d="M94.4913 29.0765L94.3284 29.3384L92.7867 31.8223L63.7252 78.6024L63.3994 79.126L61.918 81.5104C61.5365 82.1245 60.7747 82.3845 60.0971 82.1319L57.472 81.1532L54.9917 80.2289C54.1965 79.9326 53.7983 79.0424 54.1073 78.2523L55.0696 75.7926L55.2941 75.224L75.4041 24.0142L76.5535 21.0913L76.6639 20.8114C77.0902 20.8845 77.5149 20.9656 77.9351 21.0603C77.9774 21.0704 78.0173 21.0742 78.057 21.0901C80.6272 21.6348 82.9975 22.4699 85.0987 23.3968C89.0286 25.1229 91.9921 27.1542 93.4682 28.2643C93.6502 28.4005 93.8046 28.5209 93.9355 28.624C94.2656 28.8829 94.4518 29.0486 94.4876 29.0732L94.4913 29.0765Z" fill="#111827"/>
<g opacity="0.34">
<path d="M94.4913 29.0765L94.3284 29.3384L92.7867 31.8223L63.7252 78.6024L63.3994 79.126L61.918 81.5104C61.5365 82.1245 60.7747 82.3845 60.0971 82.1319L57.472 81.1532L54.9917 80.2289C54.1965 79.9326 53.7983 79.0424 54.1073 78.2523L55.0696 75.7926L55.2941 75.224L75.4041 24.0142L76.5535 21.0913L76.6639 20.8114C77.0902 20.8845 77.5149 20.9656 77.9351 21.0603C77.9774 21.0704 78.0173 21.0742 78.057 21.0901C80.6272 21.6348 82.9975 22.4699 85.0987 23.3968C89.0286 25.1229 91.9921 27.1542 93.4682 28.2643C93.6502 28.4005 93.8046 28.5209 93.9355 28.624C94.2656 28.8829 94.4518 29.0486 94.4876 29.0732L94.4913 29.0765Z" fill="#D0CED3"/>
</g>
<g opacity="0.39">
<path d="M97.2448 26.8793L94.6416 28.9617L94.498 29.0746L94.4918 29.077L94.3631 29.3592L94.3309 29.338L92.7871 31.8228L63.7253 78.6037L63.4016 79.1266L61.9174 81.5114C61.5357 82.1247 60.7748 82.3843 60.0977 82.1322L57.4722 81.1546L59.2436 77.462L59.5065 76.9122L83.1408 27.4881L84.4466 24.7593L84.5785 24.4854L84.6967 24.2384L84.7134 24.2008L85.0972 23.3981L85.9868 21.5371L91.771 20.7811L97.2448 26.8793Z" fill="#111827"/>
</g>
<path d="M63.7226 78.6038L63.3988 79.1267L59.2408 77.4622L55.069 75.7933L55.2936 75.2247L59.5037 76.9123L63.7226 78.6038Z" fill="white"/>
<path d="M103.124 8.54519C103.159 8.68527 103.19 8.83404 103.222 8.97782C103.327 9.54894 103.364 10.1317 103.335 10.721L103.255 12.2627L103.238 12.617L102.971 17.74L102.949 18.1009L102.851 20.048C102.82 20.6523 102.694 21.2404 102.471 21.794C102.394 21.9917 102.301 22.1879 102.192 22.3715C101.855 23.0147 101.373 23.6008 100.783 24.0658L97.2524 26.8794L94.6491 28.9617L94.5056 29.0746L94.4993 29.077L94.4906 29.0732L84.583 24.4841L76.6689 20.8106L76.6609 20.4227L76.4545 13.1367C76.4248 12.1265 76.6803 11.1406 77.1704 10.2778C77.2709 10.0904 77.3949 9.90828 77.5295 9.72214C77.7836 9.3796 78.0761 9.05583 78.4126 8.7775L79.2519 8.06794L79.5473 7.81984L83.5752 4.43074L83.8743 4.17396L85.9169 2.45401L86.1643 2.24353C86.1937 2.22021 86.216 2.19722 86.2499 2.17937C87.4386 1.19372 88.8926 0.628716 90.391 0.533477C90.5525 0.516829 90.7117 0.513039 90.8734 0.51551C91.4874 0.509187 92.1153 0.588653 92.7235 0.747664C92.8813 0.789984 93.0391 0.832302 93.2048 0.876383C93.3117 0.904756 93.4218 0.941483 93.5332 0.975316C94.5114 1.26039 95.5723 1.64791 96.6644 2.16009C96.757 2.20117 96.852 2.24851 96.9428 2.29746C97.9546 2.78785 98.9779 3.38893 99.9694 4.13174C100.056 4.18937 100.139 4.25358 100.212 4.31395C100.422 4.47079 100.618 4.63247 100.817 4.80041C101.5 5.37181 102.058 6.06381 102.466 6.82497C102.533 6.94801 102.592 7.07137 102.657 7.20227C102.854 7.62536 103.016 8.07834 103.124 8.54519Z" fill="#111827"/>
<path d="M102.458 21.7911C102.383 21.988 102.291 22.1843 102.182 22.3678C92.6191 13.8425 81.94 11.1081 77.1625 10.275C77.2663 10.0839 77.3875 9.90045 77.5216 9.71927C82.4757 10.6186 92.994 13.415 102.458 21.7911Z" fill="white"/>
<path d="M94.6213 28.7992L94.5653 28.9215L94.4936 29.0715L94.4873 29.0739L94.3586 29.3561L94.3265 29.3349L84.4429 24.7565L76.5511 21.0893L76.5338 21.0816L76.6607 20.8072L76.7902 20.5271L77.9327 21.0582L80.5797 22.2878L84.7097 24.1979L93.4622 28.2625L94.6213 28.7992Z" fill="#111827"/>
<path d="M90.8655 0.504675C90.0814 1.14023 89.3125 1.79634 88.5629 2.47139C88.4671 2.55871 88.3717 2.64104 88.2725 2.73206C87.5704 3.36241 86.8772 4.01574 86.2005 4.67468C86.1172 4.75717 86.0388 4.84014 85.9555 4.92262C84.8145 6.05075 83.7178 7.21933 82.6551 8.4324C82.5783 8.51954 82.5037 8.60589 82.4269 8.69303C81.9196 9.27472 81.4246 9.86364 80.9381 10.4685C80.8407 10.5828 80.7432 10.6971 80.6482 10.8177L80.4133 10.6252C80.4775 10.5429 80.5434 10.4647 80.6097 10.3816C81.0915 9.78337 81.5906 9.19284 82.0946 8.61485C82.1689 8.52144 82.2373 8.43751 82.3165 8.35663C83.3792 7.14356 84.4755 5.96791 85.6153 4.84268C85.6986 4.76019 85.777 4.67722 85.8603 4.59473C86.5265 3.93982 87.2117 3.29678 87.9075 2.66884C87.9971 2.58394 88.0922 2.49454 88.1876 2.4122C88.9023 1.76497 89.6355 1.13459 90.3839 0.524769C90.5446 0.50602 90.7038 0.502215 90.8655 0.504675Z" fill="white"/>
<path d="M93.5215 0.96627C92.8389 1.66582 92.1777 2.38352 91.5334 3.1139C91.4567 3.20103 91.3804 3.28319 91.3099 3.36791C90.6656 4.09829 90.042 4.83267 89.4336 5.58761C89.3607 5.66606 89.2973 5.75046 89.233 5.83277C88.2998 6.99588 87.3962 8.18595 86.5263 9.4014C86.4645 9.48997 86.4027 9.57856 86.338 9.66585C85.867 10.3294 85.4063 11.001 84.9609 11.6811C84.8516 11.8456 84.7465 12.0084 84.6372 12.1729L84.3816 12.0075C84.474 11.8616 84.5676 11.7248 84.6687 11.5827C85.1079 10.905 85.5644 10.235 86.0315 9.58008C86.0933 9.49151 86.1551 9.40294 86.2198 9.31565C87.0852 8.09474 87.9846 6.90627 88.9241 5.74074C88.9884 5.65843 89.0564 5.56744 89.1293 5.48898C89.7339 4.74273 90.3509 4.0037 90.9843 3.28233C91.0548 3.1976 91.1294 3.11127 91.2102 3.03458C91.8584 2.29552 92.5179 1.57365 93.196 0.868634C93.3029 0.897003 93.4122 0.931635 93.5215 0.96627Z" fill="white"/>
<path d="M96.9319 2.28802C96.3964 2.96447 95.8644 3.65635 95.3439 4.35336C95.2797 4.43566 95.2179 4.52423 95.1516 4.60734C94.5728 5.38923 94.0067 6.17335 93.4534 6.97177C93.3934 7.05246 93.3316 7.14104 93.2777 7.23138C92.4536 8.40996 91.6632 9.61389 90.8943 10.836C90.8367 10.9229 90.7811 11.0091 90.7314 11.0978C90.2513 11.856 89.7894 12.624 89.3362 13.3959C89.2438 13.5418 89.1592 13.6895 89.0746 13.8372L88.8168 13.6848C88.8967 13.5436 88.9819 13.4101 89.0643 13.2752C89.5133 12.505 89.9705 11.7436 90.4443 10.9878C90.4957 10.9032 90.5512 10.8171 90.6096 10.7322C91.372 9.50547 92.1689 8.30617 92.9906 7.12133C93.0466 7.03019 93.1038 6.94822 93.168 6.86591C93.7189 6.06123 94.2833 5.27293 94.8645 4.49731C94.9222 4.41035 94.9864 4.32804 95.0506 4.24574C95.5757 3.54214 96.1095 2.84239 96.6535 2.15067C96.7461 2.19174 96.8411 2.23907 96.9319 2.28802Z" fill="white"/>
<path d="M100.203 4.3067C99.9074 4.94089 99.5995 5.56079 99.2834 6.17187C99.2423 6.26444 99.1934 6.35525 99.1475 6.43529C98.7121 7.27219 98.2594 8.10137 97.7883 8.9137C97.7385 9.00242 97.6872 9.08698 97.6382 9.17779C96.922 10.4059 96.1611 11.6177 95.3664 12.8041C95.3063 12.8848 95.2508 12.971 95.1908 13.0517C94.6377 13.8692 94.0652 14.6678 93.4697 15.4561C93.3605 15.6085 93.2502 15.7517 93.1387 15.8978L92.8999 15.714C93.0013 15.579 93.1065 15.4473 93.2017 15.3147C93.7973 14.5264 94.3697 13.7278 94.9228 12.9103C94.9828 12.8296 95.0345 12.7521 95.0921 12.6651C95.8913 11.4842 96.6494 10.2711 97.364 9.03881C97.4216 8.95185 97.4693 8.86394 97.5182 8.77313C97.9956 7.95838 98.4462 7.12999 98.8774 6.29471C98.9287 6.21017 98.9722 6.12386 99.0133 6.03128C99.3379 5.40494 99.6522 4.77057 99.9554 4.12609C100.046 4.18002 100.128 4.24424 100.203 4.3067Z" fill="white"/>
<path d="M102.647 7.19492C102.553 7.46844 102.46 7.74197 102.352 8.01614C102.324 8.11095 102.285 8.20978 102.245 8.30653C101.926 9.17564 101.587 10.0329 101.233 10.8816C101.198 10.9718 101.155 11.0651 101.114 11.1577C100.552 12.4871 99.9449 13.7931 99.2918 15.0856C99.2421 15.1743 99.1994 15.2627 99.1583 15.3553C98.6884 16.2703 98.2007 17.1705 97.6878 18.0613C97.6222 18.1897 97.5479 18.3143 97.4736 18.4388L97.2157 18.2863C97.2939 18.1531 97.3682 18.0285 97.4356 17.8922C97.9464 17.0023 98.4353 16.0992 98.8998 15.1887C98.9471 15.0937 98.9898 15.0053 99.0396 14.9166C99.6863 13.6265 100.295 12.3176 100.855 10.9911C100.89 10.9009 100.933 10.8075 100.974 10.715C101.332 9.85757 101.667 8.99489 101.983 8.12948C102.022 8.03064 102.06 7.93181 102.088 7.837C102.214 7.49822 102.335 7.15687 102.453 6.81634C102.522 6.94066 102.584 7.06321 102.647 7.19492Z" fill="white"/>
<path d="M103.124 8.5426C103.159 8.68269 103.19 8.83145 103.221 8.97524C102.902 8.74551 102.577 8.52318 102.251 8.30792C102.169 8.2437 102.082 8.18608 101.992 8.13215C101.075 7.5212 100.123 6.95511 99.1529 6.43658C99.0641 6.38682 98.9757 6.34414 98.887 6.29438C97.6725 5.66386 96.431 5.09408 95.1573 4.60867C95.056 4.56375 94.9659 4.52894 94.871 4.50072C93.7049 4.05783 92.5175 3.67826 91.3173 3.37084C91.2104 3.34246 91.1027 3.312 90.9895 3.28604C90.0937 3.06519 89.1858 2.87535 88.2781 2.73581C88.1562 2.706 88.0343 2.68824 87.9123 2.67048C87.8787 2.66424 87.8517 2.66264 87.816 2.6572C87.224 2.57113 86.5811 2.49023 85.9183 2.45063L86.1657 2.24015C86.1951 2.21684 86.2174 2.19385 86.2513 2.17599C86.8136 2.21597 87.3618 2.28778 87.8663 2.36442C87.9754 2.37994 88.0845 2.39546 88.196 2.41724C88.3243 2.43259 88.4479 2.45453 88.5723 2.47856C89.4591 2.62615 90.3392 2.8123 91.2183 3.03959C91.3236 3.06378 91.4368 3.08974 91.5444 3.1202C92.733 3.43454 93.9067 3.80978 95.0608 4.25252C95.1572 4.28492 95.2569 4.32567 95.3533 4.35807C96.6103 4.84991 97.8349 5.40701 99.0266 6.03433C99.1153 6.08409 99.2037 6.12676 99.2925 6.17652C100.254 6.68621 101.189 7.24462 102.102 7.84512C102.189 7.90275 102.277 7.96454 102.361 8.02089C102.614 8.18494 102.87 8.36233 103.124 8.5426Z" fill="white"/>
<path d="M103.25 12.2608L103.234 12.6151C102.551 12.1131 101.849 11.6254 101.119 11.161C101.032 11.1034 100.946 11.0478 100.863 10.9957C100.415 10.7173 99.9618 10.4435 99.4996 10.1779C98.8963 9.83233 98.2737 9.49901 97.6409 9.17677C97.5522 9.12702 97.4575 9.08674 97.3688 9.03699C96.0697 8.38627 94.7085 7.78588 93.2786 7.23117C93.186 7.19009 93.0871 7.15143 92.9923 7.12321C91.7919 6.65993 90.5399 6.23091 89.2348 5.83197C89.1321 5.80198 89.022 5.76526 88.9238 5.74074C88.1288 5.4954 87.3078 5.26968 86.473 5.05169C86.3023 5.00713 86.1303 4.96546 85.9534 4.92331C85.8465 4.89494 85.7326 4.86689 85.6194 4.84093C85.6194 4.84093 85.6194 4.84093 85.6131 4.84334C84.9381 4.67891 84.2575 4.53104 83.568 4.42253L83.8672 4.16575C84.5412 4.2778 85.2035 4.42794 85.8574 4.59334C85.9705 4.6193 86.0845 4.64735 86.1976 4.67331C86.3194 4.70312 86.4313 4.73197 86.5469 4.7642C87.4326 4.99614 88.2904 5.23646 89.1261 5.48772C89.2329 5.51609 89.3364 5.54816 89.4353 5.58682C90.7309 5.97982 91.975 6.40709 93.1696 6.8678C93.2661 6.90019 93.3633 6.93468 93.4535 6.96949C94.8772 7.52662 96.228 8.13103 97.5222 8.76922C97.6109 8.81897 97.7017 8.86792 97.7881 8.91141C98.425 9.23204 99.045 9.57115 99.6484 9.91671C100.102 10.1785 100.545 10.4443 100.978 10.7162C101.065 10.7738 101.149 10.8231 101.234 10.8815C101.934 11.3289 102.603 11.7833 103.25 12.2608Z" fill="white"/>
<path d="M102.965 17.7368L102.944 18.0977C101.723 17.1338 100.468 16.2118 99.1626 15.3574C99.0819 15.2974 98.9957 15.2418 98.907 15.1921C98.3282 14.8107 97.7396 14.4474 97.1355 14.0998C96.5042 13.7314 95.8631 13.3813 95.1951 13.0486C95.1088 13.0051 95.018 12.9562 94.9292 12.9064C93.6008 12.2478 92.2063 11.6483 90.7347 11.0976C90.6359 11.0589 90.5449 11.022 90.4485 10.9896C89.1452 10.5084 87.7795 10.0705 86.3451 9.66615C86.2424 9.63617 86.141 9.6033 86.0357 9.5791C84.8788 9.25976 83.6784 8.96438 82.4294 8.6925C82.3225 8.66412 82.211 8.64234 82.0971 8.6143C81.1789 8.41643 80.2265 8.22936 79.2472 8.05981L79.5426 7.81171C80.494 7.97758 81.4152 8.16467 82.3127 8.35853C82.3189 8.35612 82.3189 8.35612 82.3189 8.35612C82.4321 8.38207 82.546 8.41012 82.6576 8.4319C83.8961 8.70781 85.0816 9.00176 86.224 9.31468C86.3309 9.34306 86.4344 9.37512 86.5334 9.40173C87.9636 9.80767 89.321 10.2488 90.6138 10.7341C90.7086 10.7623 90.7988 10.7971 90.8976 10.8358C92.3716 11.3927 93.7685 11.9985 95.0986 12.6613C95.1912 12.7024 95.282 12.7513 95.3707 12.8011C96.0266 13.1336 96.6653 13.4775 97.2863 13.8378C97.8834 14.1858 98.4662 14.5464 99.0468 14.92C99.1313 14.9713 99.2175 15.0269 99.2982 15.0869C100.561 15.9171 101.778 16.8103 102.965 17.7368Z" fill="white"/>
<path d="M94.6387 28.9573L94.4951 29.0702L94.4888 29.0727L94.3601 29.3549L94.328 29.3337L92.7841 31.8188L83.1386 27.4844L75.4033 24.0113L76.5529 21.0882L76.5355 21.0805L76.6624 20.8061L76.6544 20.4182L78.0562 21.0868L80.5813 22.2867L84.6947 24.2343L93.9309 28.6209L94.5668 28.9203L94.6387 28.9573Z" fill="white"/>
<path d="M79.9162 34.0425C79.8163 33.9515 79.7084 33.8707 79.5925 33.8003C78.9129 33.369 78.0726 33.2611 77.3036 33.4998C76.5282 33.741 75.9031 34.3032 75.5837 35.0427L69.965 47.9933C69.6644 48.6944 69.658 49.4619 69.9502 50.1576C70.239 50.857 70.786 51.3922 71.4845 51.6674L71.4932 51.6713L71.6152 51.7202C72.2914 51.9873 73.0065 51.9756 73.6268 51.7366C74.3034 51.4759 74.872 50.9474 75.1787 50.2249L80.6754 37.2253C81.1544 36.091 80.8346 34.8135 79.9162 34.0425ZM80.1197 36.9909L74.623 49.9905C74.1649 51.0856 72.9352 51.5978 71.8296 51.1627L71.7473 51.1297L71.7155 51.1156C71.1613 50.8974 70.7318 50.4801 70.5051 49.9294C70.275 49.3825 70.2789 48.7766 70.5139 48.2351L76.1311 35.2803C76.3622 34.7475 76.7985 34.33 77.3415 34.1208C77.3853 34.1039 77.4337 34.0924 77.4775 34.0756C78.0797 33.8891 78.737 33.9764 79.271 34.3103C79.4083 34.3989 79.5331 34.4923 79.6473 34.6018C80.2772 35.2154 80.4715 36.155 80.1197 36.9909Z" fill="white"/>
<path d="M73.7274 48.4907C74.3191 48.2627 74.6138 47.5983 74.3857 47.0067C74.1577 46.415 73.4931 46.1202 72.9014 46.3482C72.3097 46.5762 72.015 47.2406 72.2431 47.8323C72.4711 48.4239 73.1357 48.7187 73.7274 48.4907Z" fill="white"/>
<path d="M77.6854 39.1714C78.2771 38.9434 78.5718 38.279 78.3437 37.6873C78.1157 37.0957 77.4511 36.8009 76.8594 37.0289C76.2677 37.2568 75.973 37.9213 76.2011 38.5129C76.4292 39.1046 77.0937 39.3994 77.6854 39.1714Z" fill="white"/>
<path d="M51.1896 26.9882V26.9948C51.1896 28.9716 50.967 30.8911 50.5439 32.7357C50.491 32.9583 50.4381 33.1764 50.3786 33.3924C50.1494 34.2717 49.8739 35.1356 49.5632 35.9796C49.5632 35.9796 49.5698 35.9863 49.5566 35.9863C49.3097 36.6496 49.0277 37.3019 48.7235 37.9344V37.941C48.0536 39.3492 47.2624 40.6825 46.3523 41.9321C46.1341 42.2318 45.9115 42.5315 45.6779 42.818C43.7342 45.2774 41.3475 47.36 38.6302 48.9577C38.3768 49.1098 38.1255 49.2509 37.8677 49.3919C35.5912 50.6304 33.1075 51.5274 30.4784 52.0276C30.2668 52.0695 30.0619 52.1048 29.8503 52.14C28.8873 52.2987 27.9066 52.3979 26.9105 52.4441C26.7165 52.4552 26.5226 52.4618 26.3242 52.4684C26.1193 52.475 25.9188 52.475 25.7138 52.475C24.4158 52.475 23.1486 52.3758 21.9057 52.1929H21.899C21.6765 52.1576 21.4539 52.1224 21.2291 52.0805C19.098 51.6993 17.0551 51.0602 15.1422 50.1853C14.8844 50.0685 14.631 49.945 14.3797 49.815H14.3731C11.5787 48.4288 9.08403 46.5468 6.99043 44.2747C6.71937 43.9816 6.4505 43.6753 6.19266 43.3645C6.18164 43.3535 6.17503 43.3469 6.16842 43.3359C5.95024 43.078 5.74529 42.8202 5.54695 42.5557C3.38724 39.7613 1.79611 36.5108 0.945446 32.9715C0.892555 32.7599 0.846276 32.5439 0.797792 32.3258C0.434168 30.6068 0.240234 28.8284 0.240234 26.997V26.9904C0.240234 26.7965 0.240235 26.5981 0.246846 26.4042C0.288718 24.531 0.535542 22.7062 0.963076 20.952C1.02258 20.6986 1.0931 20.4474 1.16362 20.2005C2.04734 16.9698 3.55473 13.9991 5.55136 11.4229C5.80479 11.0945 6.06705 10.7705 6.33811 10.4554C7.48188 9.1177 8.76228 7.90341 10.1529 6.82135L10.1595 6.81474C10.5584 6.51503 10.9572 6.22192 11.3738 5.93543C13.9147 4.20325 16.7907 2.91845 19.8782 2.1912H19.8848C20.1713 2.12729 20.4534 2.06117 20.7421 2.00828C21.6919 1.82096 22.6616 1.68653 23.6466 1.60279C23.8825 1.58516 24.1161 1.56753 24.3563 1.56092C24.8014 1.53227 25.2532 1.51904 25.7116 1.51904C25.9165 1.51904 26.1171 1.51904 26.322 1.52565C26.5226 1.53227 26.7143 1.53667 26.9083 1.5499C27.36 1.56753 27.8052 1.60279 28.2526 1.64466C28.4751 1.6689 28.6977 1.69094 28.9225 1.72179C30.3373 1.89809 31.7169 2.1912 33.048 2.59669C33.3764 2.69146 33.7003 2.79724 34.0221 2.90743C36.8341 3.87489 39.4214 5.32498 41.6868 7.15633C41.6979 7.15633 41.6979 7.16294 41.6979 7.16294C42.2797 7.62574 42.8416 8.11938 43.3705 8.63066C43.4653 8.71881 43.5402 8.80035 43.6284 8.8841C43.6284 8.89071 43.635 8.89071 43.635 8.89071C43.8466 9.10227 44.0515 9.31384 44.2565 9.52981C47.1258 12.5754 49.2569 16.3329 50.3477 20.4981C50.4182 20.7515 50.4822 21.0027 50.5417 21.2606C50.9229 22.9156 51.1411 24.6412 51.1808 26.402C51.1896 26.5959 51.1896 26.7943 51.1896 26.9882Z" fill="#C2D72F"/>
<path d="M12.178 26.5573C11.945 25.3927 13.2455 19.2788 13.9248 16.3674L19.4562 15.7852L18.2916 26.5573C16.5448 26.6543 12.8765 26.7902 12.178 26.5573Z" fill="#D2E73E"/>
<path d="M11.622 34.4175C11.3891 33.253 11.2064 29.7593 11.8858 26.8479H18.2907V34.9998C16.5438 35.0968 12.3206 34.6504 11.622 34.4175Z" fill="#AFC800"/>
<path d="M26.7336 15.2023C26.5007 14.0378 26.0544 9.67067 26.7337 6.75928H30.2272L31.9741 15.4934C30.2272 15.5905 27.4321 15.4352 26.7336 15.2023Z" fill="#AFC800"/>
<path d="M41.5819 34.709C40.9997 38.2027 39.6025 42.8609 39.8354 44.0254C40.4264 44.2225 32.7232 44.9892 31.3954 45.1618L31.3922 45.19C31.1233 45.2049 31.1538 45.1932 31.3954 45.1618L32.5566 35.0001L41.5819 34.709Z" fill="#AFC800"/>
<path d="M6.35371 43.152C6.1208 41.9875 4.89775 37.0381 5.18902 33.5444L11.5939 34.4179L13.0499 44.3166C11.303 44.4136 7.05223 43.3849 6.35371 43.152Z" fill="#D2E73E"/>
<path d="M26.7335 35C26.7331 32.6709 26.1515 30.0507 26.7331 26.8481H32.5565V34.7089C30.8097 34.8059 27.432 35.2329 26.7335 35Z" fill="#D2E73E"/>
<path d="M32.5559 26.4889C32.5553 24.1792 32.2648 19.2785 31.9736 15.4937L40.1255 16.9493L40.9989 21.6076L41.5812 26.4889C39.0725 26.5852 33.559 26.7199 32.5559 26.4889Z" fill="#D2E73E"/>
<path d="M26.9065 1.55256V52.4424C26.7126 52.4534 26.5187 52.46 26.3203 52.4666V1.52832C26.5187 1.53493 26.7126 1.54154 26.9065 1.55256Z" fill="white"/>
<path d="M18.6676 26.9886C18.5199 29.4304 18.445 32.0485 18.5199 34.7128C18.5265 34.9134 18.5309 35.1051 18.5375 35.3056C18.5794 36.5508 18.661 37.8069 18.7778 39.0565C18.9717 41.0465 19.2582 42.966 19.6527 44.8018C19.6879 45.0067 19.7342 45.2073 19.7827 45.4012C20.3226 47.8077 21.0278 50.0732 21.8961 52.1911C21.6735 52.1558 21.4509 52.1205 21.2262 52.0787C20.3755 49.9718 19.6879 47.7306 19.1722 45.3593C19.126 45.1588 19.0841 44.9604 19.0422 44.7599C18.6676 42.9528 18.3855 41.0686 18.1982 39.1138C18.0747 37.8334 17.9932 36.5552 17.9513 35.2814C17.9447 35.0809 17.9403 34.8891 17.9337 34.6886C17.8566 32.0308 17.9337 29.4237 18.0814 26.9886C18.088 26.788 18.1056 26.5963 18.1166 26.4024C18.2334 24.5358 18.3921 22.7815 18.5508 21.1838C18.7205 19.4406 18.9254 17.6798 19.1899 15.93C19.2141 15.7294 19.2494 15.5311 19.278 15.3305C19.7122 12.567 20.305 9.82548 21.1799 7.21399C21.2438 7.00904 21.3143 6.80409 21.3848 6.60354H21.3914C22.0019 4.87137 22.7424 3.19428 23.6459 1.60315C23.8817 1.58552 24.1153 1.56789 24.3555 1.56128C23.4233 3.13478 22.6652 4.80084 22.0438 6.53302C21.9666 6.73357 21.8961 6.93852 21.8256 7.14347C20.9331 9.74834 20.3292 12.4899 19.8819 15.2666C19.8532 15.4672 19.8224 15.6655 19.7937 15.8661C19.5182 17.6511 19.3133 19.4516 19.137 21.2367C18.9783 22.8146 18.8196 24.5578 18.7028 26.4024C18.6918 26.5963 18.6786 26.7902 18.6676 26.9886Z" fill="white"/>
<path d="M32.9509 26.9886C32.9862 29.5185 32.9333 32.0484 32.7989 34.5652C32.7923 34.7657 32.7812 34.9641 32.7636 35.158C32.5763 38.4218 32.2413 41.6724 31.7653 44.9075C31.7366 45.1015 31.7058 45.2954 31.6771 45.4937C31.3422 47.6777 30.9433 49.8594 30.4739 52.0258C30.2623 52.0676 30.0574 52.1029 29.8458 52.1382C30.3152 49.9498 30.7207 47.7482 31.0557 45.529C31.0843 45.3285 31.1152 45.1367 31.1438 44.9362C31.6198 41.7032 31.9548 38.446 32.1465 35.1822C32.1642 34.9883 32.1752 34.79 32.1818 34.596C32.3228 32.0617 32.3757 29.5251 32.3471 26.9908C32.3471 26.7968 32.3471 26.6029 32.3405 26.4045C32.2876 23.2421 32.1003 20.0885 31.7763 16.9613C31.741 16.5911 31.6992 16.2098 31.6529 15.8176C31.6287 15.6236 31.6066 15.4253 31.589 15.2247C31.2849 12.6661 30.8265 9.81885 30.0507 6.92528C29.9979 6.72474 29.945 6.5264 29.8855 6.32585C29.4447 4.76557 28.9114 3.19207 28.248 1.64722C28.4706 1.67146 28.6932 1.6935 28.918 1.72435C29.5571 3.25598 30.0794 4.81185 30.5091 6.3545C30.562 6.55505 30.6149 6.75339 30.6678 6.95393C31.4369 9.87175 31.8821 12.7234 32.1884 15.282C32.2127 15.4826 32.2303 15.6809 32.2589 15.8749C32.2942 16.2275 32.3295 16.5668 32.3647 16.9018C32.6931 20.0709 32.8804 23.2399 32.9399 26.4045C32.9465 26.6007 32.9509 26.7946 32.9509 26.9886Z" fill="white"/>
<path d="M41.8576 29.9704C41.84 31.3434 41.7761 32.7163 41.6637 34.0915C41.646 34.292 41.6284 34.4837 41.6108 34.6843C41.3353 37.7586 40.824 40.8174 40.1034 43.8234H40.0968C40.0505 44.035 40.002 44.2465 39.9447 44.4515C39.5635 45.9721 39.1293 47.4751 38.6291 48.9582C38.3756 49.1103 38.1244 49.2513 37.8666 49.3924C38.4131 47.8078 38.8935 46.1991 39.3034 44.5793H39.31C39.3629 44.3743 39.4158 44.1628 39.4621 43.9512H39.4687C40.2136 40.9232 40.7315 37.8357 41.018 34.7262C41.0356 34.5256 41.0532 34.3339 41.0709 34.1333C41.1833 32.7428 41.2538 31.3522 41.2714 29.9594C41.2824 28.9567 41.2714 27.9649 41.2361 26.9887C41.2295 26.7881 41.2251 26.5964 41.2119 26.4025C41.0598 23.1805 40.6367 20.1107 39.9447 17.2105C39.8984 16.9923 39.8456 16.7829 39.7861 16.5714C39.4929 15.3924 39.147 14.242 38.7591 13.1269C38.0847 11.1897 37.2693 9.34075 36.3283 7.59756H36.3217C36.2093 7.37498 36.0859 7.15239 35.9647 6.93422H35.9581C35.0898 5.39598 34.1157 3.94148 33.0469 2.59717C33.3752 2.69193 33.6992 2.79771 34.0209 2.9079C35.0016 4.20593 35.8986 5.58991 36.6963 7.05763C36.8198 7.27581 36.9432 7.49839 37.0534 7.72097C37.9217 9.3694 38.6731 11.1126 39.3078 12.9329C39.7354 14.1648 40.1122 15.4276 40.4296 16.7301C40.4891 16.9416 40.5353 17.1576 40.5816 17.3758C41.245 20.2275 41.6505 23.2444 41.7959 26.4025C41.8069 26.5964 41.8135 26.7903 41.8201 26.9887C41.8576 27.9694 41.8708 28.9611 41.8576 29.9704Z" fill="white"/>
<path d="M49.7933 32.9349C49.7933 33.1398 49.7822 33.3448 49.7646 33.5519C49.7227 34.3563 49.6522 35.1651 49.5641 35.9827C49.5641 35.9827 49.5707 35.9893 49.5574 35.9893C49.3106 36.6527 49.0285 37.305 48.7244 37.9375C48.936 36.505 49.0814 35.0902 49.1696 33.6952C49.1806 33.4836 49.1938 33.2787 49.1982 33.0781C49.304 31.0066 49.2754 28.9747 49.1035 26.9913C49.0924 26.7907 49.0748 26.599 49.0506 26.4051C49.0153 25.9709 48.9624 25.5434 48.9095 25.1203C48.6803 23.3594 48.341 21.6405 47.8936 19.9678L47.887 19.9612C47.8275 19.7144 47.757 19.4742 47.6864 19.234C46.6418 15.5889 45.086 12.1906 43.1136 9.17367C42.9439 8.91582 42.7742 8.65798 42.5979 8.40454H42.5913C42.3048 7.98142 42.0051 7.57151 41.6943 7.16602C42.2761 7.62881 42.8381 8.12246 43.367 8.63374C43.4023 8.64476 43.4441 8.65798 43.4794 8.669C43.5257 8.73952 43.5786 8.81665 43.6271 8.88717C43.6271 8.89378 43.6337 8.89378 43.6337 8.89378C43.7505 9.0767 43.8629 9.25741 43.9731 9.44473H43.9797C45.8925 12.4904 47.3889 15.8996 48.3872 19.5447C48.4578 19.7915 48.5217 20.0317 48.5812 20.2785C48.9801 21.8278 49.2864 23.4233 49.4913 25.0431C49.5508 25.4949 49.6037 25.9467 49.6434 26.4051C49.661 26.599 49.6787 26.7929 49.6897 26.9913C49.8572 28.9262 49.8924 30.9162 49.7933 32.9349Z" fill="white"/>
<path d="M20.7386 2.01074C19.5948 3.53576 18.5612 5.25031 17.629 7.15218C17.5166 7.37035 17.4175 7.59293 17.3117 7.8089C16.1723 10.2441 15.1938 12.979 14.3586 16.0312H14.352C14.3344 16.1084 14.3101 16.1789 14.2925 16.2538C14.2572 16.3882 14.2154 16.5293 14.1867 16.6637C13.3074 19.9672 12.6903 23.22 12.3443 26.4C12.3157 26.6006 12.2981 26.7923 12.2804 26.9863C12.0226 29.4633 11.9278 31.8985 11.9984 34.2808C11.9984 34.4747 12.005 34.6731 12.016 34.867C12.0579 35.9468 12.1328 37.0201 12.2386 38.0779C12.4501 40.1495 12.7895 42.1814 13.2589 44.1471C13.3008 44.3521 13.3537 44.557 13.4066 44.7576C13.8694 46.6242 14.4446 48.4379 15.1387 50.1811C14.8809 50.0643 14.6275 49.9409 14.3762 49.8109H14.3696C13.7349 48.1558 13.2082 46.4369 12.7785 44.6694C12.7256 44.4645 12.6727 44.2595 12.6308 44.0524C12.1857 42.1329 11.8551 40.1561 11.6502 38.1374C11.5378 37.0399 11.4628 35.9314 11.4276 34.8097C11.4166 34.6158 11.4099 34.4174 11.4033 34.2169C11.3394 31.8522 11.432 29.4391 11.6854 26.9863C11.703 26.7857 11.7273 26.594 11.7493 26.4C12.0953 23.2596 12.6881 20.0487 13.5388 16.7871C13.5917 16.5756 13.6512 16.364 13.7041 16.1524C13.7107 16.1348 13.7151 16.1106 13.7217 16.0929C14.5371 13.076 15.4936 10.3653 16.5977 7.94113C16.6968 7.71855 16.8026 7.50037 16.9018 7.2844H16.9084C17.8009 5.41118 18.786 3.71647 19.8725 2.18925H19.8791C20.17 2.12754 20.4521 2.06363 20.7386 2.01074Z" fill="white"/>
<path d="M11.3743 5.93652C10.7639 6.89297 10.1997 7.90891 9.68402 8.97114C9.63774 9.0659 9.59587 9.15405 9.554 9.24661C9.43719 9.48682 9.3248 9.73365 9.21461 9.98708C8.159 12.3826 7.33037 15.0227 6.71993 17.9758C6.67365 18.1984 6.62516 18.4166 6.5855 18.6458C6.32104 20.0011 6.09846 21.4225 5.92216 22.9123C5.78111 24.0803 5.67533 25.2483 5.6004 26.4053C5.58938 26.6058 5.57175 26.7976 5.56514 26.9915C5.44173 29.1402 5.43071 31.269 5.51886 33.3715C5.52988 33.5764 5.53649 33.777 5.54751 33.9753C5.7128 37.0033 6.08744 39.9784 6.68687 42.861C6.72874 43.0725 6.77502 43.2885 6.8213 43.5001C6.87419 43.7579 6.93369 44.0157 6.99099 44.2758C6.71993 43.9827 6.45106 43.6764 6.19322 43.3656C6.18661 43.359 6.18661 43.348 6.18661 43.3414C6.14033 43.1232 6.09185 42.9138 6.05218 42.6957C5.47699 39.8263 5.10675 36.8733 4.96131 33.8695C4.94367 33.669 4.93706 33.464 4.93266 33.2657C4.8445 31.1941 4.85552 29.0983 4.97893 26.9915C4.98555 26.7976 4.99657 26.5992 5.0142 26.4053C5.08472 25.2263 5.19711 24.0406 5.33595 22.8484C5.50123 21.4644 5.69957 20.1421 5.93979 18.8683C5.98166 18.6458 6.02133 18.4232 6.06981 18.1984C6.65602 15.2762 7.44938 12.6471 8.45871 10.2581C8.5645 10.0113 8.67028 9.7645 8.78047 9.51768C8.90388 9.24661 9.02729 8.97775 9.15511 8.71329C9.46584 8.06758 9.80082 7.43289 10.1534 6.82245L10.16 6.81583C10.5589 6.51832 10.9578 6.22522 11.3743 5.93652Z" fill="white"/>
<path d="M51.1886 26.9885H0.239258C0.239258 26.7946 0.239258 26.5963 0.245869 26.4023H51.1842C51.1886 26.5963 51.1886 26.7946 51.1886 26.9885Z" fill="white"/>
<path d="M44.2561 9.52795C44.1614 9.49269 44.0732 9.46404 43.9807 9.4398H43.974C43.6876 9.34504 43.3989 9.25689 43.1168 9.16873C41.1268 8.5693 39.1015 8.08888 37.0542 7.71864C36.8073 7.67236 36.5737 7.63049 36.3269 7.59523H36.3203C34.4537 7.27789 32.565 7.06632 30.6676 6.94952C30.4626 6.9385 30.2577 6.92528 30.0505 6.92087C29.0059 6.86798 27.9547 6.84374 26.9057 6.85696H26.7537C26.606 6.85696 26.4672 6.86357 26.3195 6.86798C24.8165 6.89222 23.3135 6.98478 21.8238 7.14346C21.6122 7.16109 21.3963 7.18533 21.1781 7.21398C19.8867 7.36163 18.5952 7.55997 17.3104 7.8068C17.0746 7.84867 16.841 7.89495 16.6008 7.94123C14.0951 8.44589 11.6247 9.13347 9.21152 9.98414C8.95809 10.0723 8.70685 10.1604 8.45342 10.2552C7.47273 10.6188 6.50527 11.0067 5.54883 11.4232C5.80226 11.0948 6.06451 10.7709 6.33558 10.4557C7.13996 10.1208 7.95536 9.81004 8.77737 9.51693C9.03081 9.42217 9.28865 9.33402 9.55311 9.24587C11.953 8.42386 14.4125 7.76713 16.9071 7.2867H16.9138C17.1496 7.24042 17.3898 7.19194 17.63 7.15227C18.8751 6.92308 20.1247 6.74237 21.3852 6.60573H21.3918C21.61 6.57708 21.826 6.55284 22.0442 6.53521C23.4634 6.38756 24.8915 6.30602 26.3217 6.28178C26.4628 6.27516 26.6104 6.27076 26.7493 6.27076H26.9079C27.8996 6.25974 28.8979 6.27737 29.8896 6.32365C30.0946 6.33026 30.3062 6.34128 30.5111 6.3523C32.3358 6.45808 34.1562 6.65201 35.9567 6.9341H35.9633C36.2101 6.97597 36.4569 7.01564 36.6971 7.05751C38.6872 7.39689 40.6529 7.85087 42.5945 8.40182H42.6011C42.8589 8.47895 43.1124 8.55388 43.3702 8.63101C43.4055 8.64203 43.4473 8.65525 43.4826 8.66627C43.5289 8.73679 43.5818 8.81393 43.6302 8.88445C43.6302 8.89106 43.6369 8.89106 43.6369 8.89106C43.8462 9.10042 44.0512 9.31198 44.2561 9.52795Z" fill="white"/>
<path d="M50.5434 21.2602C49.9043 20.9208 49.2454 20.5902 48.5843 20.2751C48.3551 20.1627 48.1325 20.0569 47.8967 19.9643L47.8901 19.9577C45.5827 18.9131 43.1431 18.0492 40.5823 17.3749C40.3707 17.3154 40.1592 17.2625 39.9432 17.2096C37.4772 16.5881 34.9142 16.1408 32.2608 15.8719C32.0603 15.8477 31.8553 15.83 31.657 15.8124C30.1011 15.6714 28.5166 15.5832 26.91 15.5656C26.7161 15.559 26.5222 15.559 26.3238 15.559C24.8517 15.559 23.3663 15.6008 21.8567 15.7C21.1934 15.7419 20.5058 15.7948 19.7962 15.8653C19.5956 15.8829 19.3973 15.9072 19.1924 15.9292C17.6078 16.0945 15.9286 16.3281 14.192 16.6631C13.9804 16.6983 13.7644 16.7402 13.5463 16.7865C11.2984 17.2316 8.95136 17.8377 6.5867 18.6421C6.36853 18.7126 6.15917 18.7897 5.94099 18.8647C4.27934 19.4509 2.61328 20.1384 0.964844 20.9472C1.02435 20.6938 1.09487 20.4426 1.16539 20.1957C2.79619 19.42 4.44021 18.7589 6.07102 18.1947C6.28919 18.1176 6.50516 18.0426 6.72334 17.9721C9.10122 17.1854 11.4549 16.5925 13.7137 16.1518C13.9319 16.1099 14.1479 16.0702 14.3595 16.0284H14.3661C16.0806 15.7176 17.729 15.4885 19.2849 15.3298C19.4899 15.3055 19.6904 15.2879 19.8888 15.2659C20.5521 15.2064 21.1978 15.1535 21.8259 15.1138C23.3465 15.0146 24.8495 14.9662 26.3282 14.9728C26.5288 14.9728 26.7205 14.9728 26.9144 14.9794C28.4989 14.997 30.0592 15.0785 31.5975 15.2196C31.798 15.2372 31.9964 15.2548 32.1969 15.2791C34.815 15.5369 37.3493 15.9667 39.7911 16.5705C40.0093 16.6168 40.2253 16.6697 40.4369 16.7292C42.9712 17.3815 45.402 18.2145 47.6961 19.2305C47.9319 19.3252 48.1655 19.431 48.3947 19.5412C49.0581 19.8409 49.7148 20.1627 50.3539 20.4977C50.42 20.7489 50.4839 21.0023 50.5434 21.2602Z" fill="white"/>
<path d="M50.5437 32.7339C50.4908 32.9565 50.4379 33.1746 50.3784 33.3906C50.1734 33.4435 49.9685 33.4964 49.7613 33.5493C49.5608 33.5956 49.3624 33.644 49.1685 33.6903C46.6209 34.2589 44.0337 34.5123 41.6095 34.682C41.409 34.693 41.2106 34.7063 41.0167 34.7239C40.3952 34.7592 39.7782 34.7944 39.1854 34.8297C37.0146 34.9531 34.877 35.0655 32.7657 35.158C32.5608 35.1691 32.3558 35.1757 32.1487 35.1823C30.3812 35.2594 28.6336 35.3167 26.9081 35.352C26.7141 35.352 26.5158 35.3586 26.3219 35.3586C25.3368 35.3762 24.3561 35.3872 23.382 35.3872C21.7512 35.3872 20.1358 35.363 18.5403 35.3057C18.3397 35.2991 18.148 35.2947 17.9541 35.2815C15.953 35.1999 13.974 35.0699 12.0215 34.8716C11.8209 34.8605 11.6292 34.8363 11.4353 34.812C9.45187 34.6071 7.4905 34.3316 5.54896 33.9724C5.35503 33.9371 5.1611 33.9019 4.96276 33.8666C3.61845 33.6088 2.28075 33.3091 0.947458 32.9697C0.894568 32.7581 0.848288 32.5421 0.799805 32.324C2.16836 32.6876 3.54572 32.9939 4.9319 33.2628C5.12584 33.3047 5.32418 33.3399 5.51811 33.3686C7.46185 33.7322 9.42102 34.0077 11.411 34.2192C11.605 34.2435 11.8033 34.2655 12.0039 34.2831C13.9586 34.4771 15.9354 34.6115 17.9364 34.6886C18.1304 34.6997 18.3243 34.7129 18.5227 34.7129C21.0812 34.8076 23.6751 34.8187 26.3219 34.7724C26.5158 34.7724 26.7097 34.7658 26.9081 34.7658C28.6446 34.7305 30.4055 34.671 32.1839 34.5961C32.3889 34.5895 32.5938 34.5784 32.801 34.5674C34.8836 34.4793 37.0036 34.3669 39.1523 34.2457C39.7738 34.2104 40.4151 34.1752 41.0718 34.1333C41.2657 34.1157 41.4641 34.1046 41.6646 34.0914C44.0822 33.9217 46.6716 33.6639 49.2016 33.0755C49.4021 33.0336 49.5938 32.9873 49.7944 32.9344C50.0434 32.8705 50.2902 32.8044 50.5437 32.7339Z" fill="white"/>
<path d="M43.751 42.858C44.6303 42.5825 45.4942 42.2718 46.3515 41.9302C46.1333 42.2299 45.9107 42.5296 45.6771 42.8161C45.1019 43.0343 44.5157 43.2326 43.9273 43.4199C42.6072 43.8298 41.2739 44.1714 39.9428 44.4469C39.7313 44.4932 39.5197 44.535 39.3082 44.5769H39.3015C36.7077 45.0816 34.1315 45.3571 31.6786 45.4915C31.4737 45.5091 31.2621 45.5157 31.0572 45.5268C29.6379 45.5973 28.2628 45.6215 26.9537 45.6215H26.9074C26.7069 45.6215 26.5152 45.6215 26.3212 45.6149C25.6998 45.6149 25.0893 45.6039 24.5009 45.5907C22.8745 45.562 21.3032 45.4959 19.7826 45.3967C19.5777 45.3857 19.3771 45.3725 19.1722 45.3549C17.1645 45.2138 15.245 45.0155 13.4093 44.7554C13.1977 44.7268 12.9861 44.6959 12.7812 44.6673C10.6854 44.3565 8.70197 43.9621 6.81773 43.4927C6.60617 43.4398 6.39461 43.3869 6.18304 43.334C6.17643 43.334 6.17202 43.3274 6.16541 43.3274C5.94724 43.0695 5.74229 42.8117 5.54395 42.5472C5.70923 42.5935 5.87892 42.642 6.04861 42.6883C6.26018 42.7478 6.47174 42.8007 6.6833 42.8536C8.56093 43.334 10.5443 43.7329 12.6335 44.0502C12.8385 44.0789 13.05 44.1141 13.2616 44.145C15.0996 44.4094 17.0235 44.6078 19.0421 44.7554C19.2427 44.7731 19.4476 44.7841 19.6526 44.7973C21.2195 44.9031 22.8393 44.967 24.5119 45.0023C25.0981 45.0133 25.6976 45.0265 26.319 45.0265C26.513 45.0331 26.7069 45.0331 26.9052 45.0331C28.2496 45.0331 29.6754 45.0045 31.1431 44.9339C31.3481 44.9273 31.553 44.9163 31.7646 44.9053C34.2416 44.7576 36.8465 44.4778 39.458 43.9488H39.4646C39.6762 43.907 39.8878 43.8673 40.0927 43.8188H40.0993C41.3224 43.5566 42.5433 43.2392 43.751 42.858Z" fill="white"/>
<mask id="mask0_112_4950" style="mask-type:alpha" maskUnits="userSpaceOnUse" x="5" y="17" width="107" height="96">
<path fill-rule="evenodd" clip-rule="evenodd" d="M5.72013 67.5724C3.45267 20.4538 26.4251 6.89761 74.6373 26.9037C122.85 46.9098 123.984 70.469 78.0385 97.5816C32.0937 124.694 7.98759 114.691 5.72013 67.5724Z" fill="#FF4056"/>
</mask>
<g mask="url(#mask0_112_4950)">
<path d="M57.8496 81.0067C56.1695 85.0315 48.3702 93.0911 40.4206 91.8713C31.0549 90.4342 22.5532 78.4063 25.4338 69.4849C28.3144 60.5634 36.6811 65.0015 40.8339 73.9239C44.9867 82.8463 43.7108 87.4765 43.9814 96.2902C44.1458 101.645 43.3554 107.932 43.0167 112.473" stroke="#111827" stroke-width="1.13919"/>
<path d="M54.9513 65.2181C54.9513 65.2181 57.4853 65.6859 59.7178 63.3184C59.7523 63.2933 59.7775 63.2587 59.8026 63.2336L59.8183 63.1677L59.8528 63.0578L59.9376 62.7563L60.0381 62.816L61.853 63.9024L69.1189 68.2513L69.929 68.7443L69.9792 68.7694C69.9792 68.7694 69.9541 68.9201 69.9133 69.1964V69.2216C69.5867 71.2782 68.3402 79.9414 69.2947 84.6169C69.4611 85.4458 69.7469 86.2402 70.1048 87.0001C70.1142 87.0095 70.1143 87.0252 70.1205 87.0346C70.3623 87.537 70.6386 88.03 70.9401 88.5073C71.8004 89.8857 72.8554 91.1668 73.8665 92.3883C75.3203 94.1624 76.6768 95.8266 77.1541 97.5316C77.3142 98.0999 77.4963 99.1361 77.6973 100.493H96.6533C96.3613 99.7829 96.0756 99.0702 95.7992 98.3511C95.6579 97.9837 95.5229 97.6226 95.391 97.271C95.2654 96.9444 95.1399 96.6273 95.0237 96.3101C94.4805 94.9065 93.9875 93.6349 93.5353 92.4636C92.3484 89.3614 91.4535 87.0189 90.7659 85.0784C89.4534 81.3921 88.8756 79.1658 88.4234 76.0133C88.1471 74.0885 88.0372 71.1966 87.8802 68.0943C87.6887 64.2572 87.4375 60.0999 86.7498 57.0479C86.7404 57.0384 86.7404 57.0322 86.7404 57.0227C86.5803 56.3194 86.3982 55.6851 86.1878 55.1168C85.9366 54.4574 85.654 53.8953 85.3086 53.4683C85.1924 53.3082 85.0668 53.1763 84.9318 53.0601C84.1876 52.4007 82.4386 51.487 80.1998 50.4759C80.159 50.4508 80.1088 50.4351 80.0586 50.41C79.7979 50.2938 79.5248 50.1682 79.2484 50.0426C78.79 49.8416 78.3127 49.6407 77.8197 49.4334C77.7193 49.3926 77.6188 49.3486 77.5183 49.3078C76.8997 49.0409 76.256 48.774 75.6029 48.504C75.5024 48.4695 75.402 48.4286 75.3015 48.3784C73.7284 47.7504 72.1081 47.1161 70.5193 46.5038C70.4188 46.4693 70.3278 46.4285 70.2273 46.3877C70.0263 46.3123 69.8348 46.2464 69.6433 46.171C69.3826 46.0705 69.1157 45.97 68.8583 45.8695C65.3289 44.5413 62.167 43.4109 60.5216 42.8269C59.9376 42.6165 59.341 43.1284 59.4666 43.7375C59.8026 45.3358 60.8796 48.0361 64.3744 49.9421C64.3901 49.9578 64.4152 49.9672 64.4403 49.9829C64.4403 49.9829 64.3493 50.0489 64.1985 50.1933C63.7652 50.5952 62.8515 51.6314 62.393 53.4714C62.393 53.4714 62.3177 53.4871 62.1921 53.5374C62.1324 53.5531 62.0759 53.5782 62.0006 53.6127C62.0006 53.6127 62.0006 53.6127 61.9911 53.6127C61.3066 53.9299 59.9344 54.8091 59.4069 56.9756C59.3661 57.1012 59.341 57.2268 59.3159 57.3619C59.3159 57.3619 59.1903 57.3116 58.9642 57.3619C58.6722 57.4466 58.22 57.7135 57.6423 58.5237C57.4413 58.8157 57.2247 59.1768 56.9986 59.6195C55.6295 62.2728 54.9513 65.2181 54.9513 65.2181Z" fill="#FFD1B6"/>
<path d="M90.6105 85.1229C90.6513 85.1229 90.689 85.1166 90.7298 85.0978C90.8837 85.0319 90.9528 84.856 90.89 84.7022C90.8743 84.6645 89.3263 80.9844 88.6574 75.6967C88.3906 73.5835 88.1959 70.0353 87.9855 66.2799C87.5961 59.2401 87.2978 54.5615 86.6918 53.698C85.9351 52.6242 74.6186 48.0806 62.4983 43.333L60.8341 42.6799C60.4354 42.5229 59.9958 42.6076 59.6786 42.8965C59.3678 43.1822 59.2484 43.6093 59.3678 44.0112C59.8545 45.6503 61.145 48.6395 64.3101 50.2472C64.4577 50.3226 64.6398 50.2629 64.7151 50.1153C64.7905 49.9677 64.7308 49.7856 64.5833 49.7103C61.6191 48.2062 60.4071 45.3865 59.9455 43.8385C59.8921 43.6564 59.9424 43.468 60.0837 43.3392C60.2281 43.2042 60.4259 43.1697 60.6112 43.2419L62.2754 43.895C68.0058 46.1401 85.4421 52.9727 86.1957 54.0466C86.7483 54.8316 87.1 61.1963 87.3826 66.3145C87.5899 70.0824 87.7877 73.64 88.0577 75.7752C88.7391 81.1508 90.3185 84.9062 90.3342 84.9408C90.3813 85.057 90.4912 85.1229 90.6105 85.1229Z" fill="#111827"/>
<path d="M79.5433 55.5411C79.6626 55.5411 79.7788 55.4689 79.8228 55.3496C79.8824 55.1957 79.8039 55.0199 79.6501 54.9602L65.7808 49.6317C65.7494 49.6191 65.7149 49.6128 65.6803 49.6128C65.6364 49.6065 62.5246 49.5908 62.1604 53.8518C62.1478 54.0182 62.2703 54.1627 62.4367 54.1784C62.5969 54.1878 62.7476 54.0685 62.7633 53.902C63.0553 50.4543 65.2533 50.2283 65.6207 50.2157L79.4365 55.5223C79.4711 55.5348 79.5056 55.5411 79.5433 55.5411Z" fill="#111827"/>
<path d="M76.6718 59.5039C76.7942 59.5039 76.9104 59.4285 76.9544 59.3061C77.0109 59.1491 76.9324 58.9764 76.7754 58.9198L63.3174 53.9336C63.308 53.9241 62.1148 53.2773 60.9028 53.8331C59.9169 54.2852 59.2386 55.3811 58.8869 57.0924C58.8524 57.2557 58.9592 57.4158 59.1224 57.4472C59.2857 57.4817 59.4459 57.375 59.4773 57.2117C59.7881 55.7014 60.3502 54.7468 61.1509 54.3794C62.0834 53.9461 63.06 54.4705 63.0694 54.4768L76.5681 59.4819C76.6027 59.5007 76.6372 59.5039 76.6718 59.5039Z" fill="#111827"/>
<path d="M56.2164 65.6981C56.4268 65.6981 56.6591 65.673 56.9072 65.6133C58.1475 65.3119 59.2779 64.238 60.267 62.4231C60.3455 62.2786 60.2921 62.0934 60.1476 62.0149C60.0001 61.9364 59.8179 61.9898 59.7394 62.1342C58.8508 63.7639 57.8272 64.7624 56.7784 65.0261C56.0939 65.1957 55.5664 65.0198 55.3246 64.9068C55.3623 64.4232 55.5539 62.9663 56.5147 61.0478C57.7675 58.5421 58.9388 57.4462 60.424 57.3866C61.8024 57.3175 70.8989 61.0007 74.3026 62.42C74.4565 62.4828 74.6323 62.4105 74.6951 62.2567C74.7579 62.1028 74.6857 61.927 74.5319 61.8642C73.2759 61.3398 62.2891 56.7837 60.4397 56.7837C60.4271 56.7837 60.4114 56.7837 60.3988 56.7837C58.6624 56.8528 57.3374 58.046 55.9746 60.7746C54.728 63.2677 54.7123 65.0041 54.7123 65.0764C54.7123 65.1768 54.7626 65.271 54.8442 65.3244C54.8756 65.3464 55.4063 65.6981 56.2164 65.6981Z" fill="#111827"/>
<path d="M59.7773 63.0172L59.8527 63.058L59.8778 63.0737L61.7429 64.1853L68.9774 68.5184L69.3291 68.7288C69.2946 69.564 69.1187 73.1687 68.7608 75.6619C68.318 78.7893 68.1767 86.5168 70.6856 89.1324C71.3199 89.7855 72.4659 90.9818 73.6277 92.3854C75.3327 94.4326 77.0723 96.9258 77.2638 98.7909C77.2984 99.1081 77.3549 99.7015 77.4397 100.49H78.0488C77.964 99.6607 77.8981 99.061 77.8636 98.725C77.6626 96.8598 76.1743 94.552 74.4096 92.3854C73.3389 91.0634 72.1614 89.8012 71.1158 88.7147C71.0498 88.6488 70.9902 88.5797 70.9399 88.5044C70.6134 88.1119 70.3465 87.6095 70.1204 87.0317C70.111 87.0223 70.111 87.0066 70.1047 86.9972C68.9021 83.8603 68.9586 78.5004 69.3511 75.7404C69.6682 73.5487 69.8441 70.5217 69.91 69.2186V69.1935C69.9194 69.002 69.9257 68.8513 69.9257 68.7414C69.9351 68.6409 69.9351 68.5749 69.9351 68.5749C69.9445 68.4588 69.8849 68.3583 69.7938 68.2986L69.2663 67.9815L61.9565 63.6169L60.1918 62.5556L60.0819 62.4959C59.9406 62.4112 59.7553 62.4551 59.6706 62.5964C59.5921 62.7409 59.636 62.9261 59.7773 63.0172Z" fill="#111827"/>
</g>
</svg>
