<svg width="137" height="143" viewBox="0 0 137 143" fill="none" xmlns="http://www.w3.org/2000/svg">
<mask id="path-1-outside-1_273_1318" maskUnits="userSpaceOnUse" x="2.41547" y="1.93105" width="133" height="140" fill="black">
<rect fill="white" x="2.41547" y="1.93105" width="133" height="140"/>
<path fill-rule="evenodd" clip-rule="evenodd" d="M70.5503 25.3128C73.0029 20.2783 75.3835 15.2051 76.0694 13.1773C76.0962 13.0983 76.1229 13.0189 76.1497 12.9394C77.6013 8.63513 79.2462 3.75736 91.5541 5.18428C92.6341 5.30949 93.7578 5.4293 94.9051 5.55162C107.074 6.84908 121.888 8.42856 115.15 19.7172C113.608 22.2998 112.357 24.8506 111.173 27.2634C110.388 28.864 109.632 30.4039 108.841 31.852C120.235 36.7208 130.475 43.6225 131.482 47.6659C132.962 53.6054 131.233 65.1768 128.953 80.4425L128.952 80.449C128.708 82.0816 128.458 83.7565 128.205 85.4713C124.928 107.661 120.831 121.632 111.819 126.563C110.309 127.389 108.179 128.261 105.636 129.141C105.466 130.574 105.235 131.491 104.724 132.206C103.955 133.281 102.552 133.903 99.7617 135.137C99.4312 135.283 99.0813 135.438 98.7106 135.603C92.8119 138.233 86.4215 136.699 83.9637 135.603L85.5562 134.538C76.0984 136.604 66.9164 138.068 62.6627 138.068C58.2556 138.068 52.0851 136.692 45.5885 134.71C46.5813 136.046 47.5008 136.425 47.9158 136.425C46.2773 136.425 41.5255 136.097 35.6267 134.782C32.3515 134.052 30.6927 131.345 29.8651 129.082C28.4573 128.512 27.0947 127.943 25.7952 127.384C15.0091 122.747 12.1926 103.575 9.85114 87.6364L9.85105 87.6357L9.85063 87.6328C9.70237 86.6236 9.55602 85.6274 9.40966 84.6487C9.17634 83.0883 8.92068 81.4384 8.65503 79.724C6.68195 66.9903 4.15716 50.6961 6.13255 41.0912C6.6074 38.7823 9.92666 36.604 14.9976 34.6434C13.4138 28.9715 13.271 23.7124 14.1308 21.1705C15.6055 16.8106 21.5047 9.54422 31.8278 16.084C34.7368 17.9269 38.1142 20.5776 41.6301 23.3369C43.3784 24.7091 45.1611 26.1082 46.9373 27.4481C55.1484 26.3203 63.4323 25.5755 70.5503 25.3128Z"/>
</mask>
<path fill-rule="evenodd" clip-rule="evenodd" d="M70.5503 25.3128C73.0029 20.2783 75.3835 15.2051 76.0694 13.1773C76.0962 13.0983 76.1229 13.0189 76.1497 12.9394C77.6013 8.63513 79.2462 3.75736 91.5541 5.18428C92.6341 5.30949 93.7578 5.4293 94.9051 5.55162C107.074 6.84908 121.888 8.42856 115.15 19.7172C113.608 22.2998 112.357 24.8506 111.173 27.2634C110.388 28.864 109.632 30.4039 108.841 31.852C120.235 36.7208 130.475 43.6225 131.482 47.6659C132.962 53.6054 131.233 65.1768 128.953 80.4425L128.952 80.449C128.708 82.0816 128.458 83.7565 128.205 85.4713C124.928 107.661 120.831 121.632 111.819 126.563C110.309 127.389 108.179 128.261 105.636 129.141C105.466 130.574 105.235 131.491 104.724 132.206C103.955 133.281 102.552 133.903 99.7617 135.137C99.4312 135.283 99.0813 135.438 98.7106 135.603C92.8119 138.233 86.4215 136.699 83.9637 135.603L85.5562 134.538C76.0984 136.604 66.9164 138.068 62.6627 138.068C58.2556 138.068 52.0851 136.692 45.5885 134.71C46.5813 136.046 47.5008 136.425 47.9158 136.425C46.2773 136.425 41.5255 136.097 35.6267 134.782C32.3515 134.052 30.6927 131.345 29.8651 129.082C28.4573 128.512 27.0947 127.943 25.7952 127.384C15.0091 122.747 12.1926 103.575 9.85114 87.6364L9.85105 87.6357L9.85063 87.6328C9.70237 86.6236 9.55602 85.6274 9.40966 84.6487C9.17634 83.0883 8.92068 81.4384 8.65503 79.724C6.68195 66.9903 4.15716 50.6961 6.13255 41.0912C6.6074 38.7823 9.92666 36.604 14.9976 34.6434C13.4138 28.9715 13.271 23.7124 14.1308 21.1705C15.6055 16.8106 21.5047 9.54422 31.8278 16.084C34.7368 17.9269 38.1142 20.5776 41.6301 23.3369C43.3784 24.7091 45.1611 26.1082 46.9373 27.4481C55.1484 26.3203 63.4323 25.5755 70.5503 25.3128Z" fill="#D9D9D9"/>
<path d="M76.0694 13.1773L73.2276 12.216L73.2276 12.2161L76.0694 13.1773ZM70.5503 25.3128L70.661 28.3108L72.4593 28.2444L73.2473 26.6267L70.5503 25.3128ZM76.1497 12.9394L73.307 11.9808L73.307 11.9809L76.1497 12.9394ZM91.5541 5.18428L91.2086 8.16432L91.5541 5.18428ZM94.9051 5.55162L94.587 8.53472L94.9051 5.55162ZM115.15 19.7172L117.726 21.2548V21.2548L115.15 19.7172ZM111.173 27.2634L113.866 28.5848L113.866 28.5848L111.173 27.2634ZM108.841 31.852L106.208 30.4144L104.626 33.3131L107.663 34.6107L108.841 31.852ZM131.482 47.6659L134.393 46.9406V46.9406L131.482 47.6659ZM128.953 80.4425L131.92 80.8885L131.92 80.8857L128.953 80.4425ZM128.952 80.449L125.985 80.003L125.985 80.0058L128.952 80.449ZM128.205 85.4713L125.237 85.033L125.237 85.033L128.205 85.4713ZM111.819 126.563L110.379 123.931L111.819 126.563ZM105.636 129.141L104.656 126.306L102.879 126.92L102.657 128.787L105.636 129.141ZM104.724 132.206L102.283 130.461L102.283 130.461L104.724 132.206ZM99.7617 135.137L98.5477 132.394L98.5476 132.394L99.7617 135.137ZM98.7106 135.603L97.4891 132.863L97.4891 132.863L98.7106 135.603ZM83.9637 135.603L82.296 133.11L77.7787 136.131L82.7421 138.343L83.9637 135.603ZM85.5562 134.538L87.2239 137.032L84.9163 131.607L85.5562 134.538ZM45.5885 134.71L46.4642 131.84L37.7401 129.178L43.1806 136.499L45.5885 134.71ZM35.6267 134.782L36.2794 131.854H36.2794L35.6267 134.782ZM29.8651 129.082L32.6826 128.052L32.2253 126.802L30.9913 126.302L29.8651 129.082ZM25.7952 127.384L24.6103 130.14H24.6103L25.7952 127.384ZM9.85114 87.6364L6.88223 88.0671L6.883 88.0724L9.85114 87.6364ZM9.85105 87.6357L12.82 87.205L12.8194 87.2014L9.85105 87.6357ZM9.85063 87.6328L12.819 87.1985L12.8188 87.1968L9.85063 87.6328ZM9.40966 84.6487L6.44265 85.0923L9.40966 84.6487ZM8.65503 79.724L5.69041 80.1833H5.69041L8.65503 79.724ZM6.13255 41.0912L3.19405 40.4868L6.13255 41.0912ZM14.9976 34.6434L16.0795 37.4415L18.6195 36.4594L17.8871 33.8365L14.9976 34.6434ZM14.1308 21.1705L16.9726 22.1317L14.1308 21.1705ZM31.8278 16.084L30.2223 18.6183L31.8278 16.084ZM41.6301 23.3369L43.4822 20.977L41.6301 23.3369ZM46.9373 27.4481L45.1307 29.8431L46.119 30.5887L47.3456 30.4202L46.9373 27.4481ZM73.2276 12.2161C72.618 14.0184 70.3442 18.8858 67.8533 23.999L73.2473 26.6267C75.6616 21.6708 78.1491 16.3918 78.9113 14.1386L73.2276 12.2161ZM73.307 11.9809C73.2802 12.0605 73.2538 12.1385 73.2276 12.216L78.9112 14.1386C78.9385 14.058 78.9657 13.9774 78.9925 13.898L73.307 11.9809ZM91.8996 2.20424C85.4319 1.4544 81.0214 2.25964 77.9948 4.50224C75.0022 6.71963 73.9953 9.93984 73.307 11.9808L78.9924 13.8981C79.7557 11.6347 80.2971 10.2639 81.5668 9.32306C82.8026 8.40743 85.3685 7.48724 91.2086 8.16432L91.8996 2.20424ZM95.2231 2.56853C94.0731 2.44592 92.9634 2.32758 91.8996 2.20424L91.2086 8.16432C92.3047 8.2914 93.4425 8.41269 94.587 8.53472L95.2231 2.56853ZM117.726 21.2548C119.639 18.0495 120.424 14.8584 119.364 11.9088C118.328 9.02877 115.842 7.27182 113.347 6.15104C108.428 3.94182 101.117 3.19691 95.2231 2.56853L94.587 8.53472C100.862 9.2038 107.043 9.89736 110.889 11.6244C112.775 12.4717 113.49 13.3074 113.718 13.939C113.92 14.501 114.03 15.7406 112.574 18.1796L117.726 21.2548ZM113.866 28.5848C115.056 26.1598 116.257 23.7162 117.726 21.2548L112.574 18.1796C110.96 20.8834 109.657 23.5414 108.48 25.942L113.866 28.5848ZM111.474 33.2896C112.302 31.7738 113.087 30.1734 113.866 28.5848L108.48 25.942C107.688 27.5547 106.962 29.034 106.208 30.4144L111.474 33.2896ZM107.663 34.6107C113.206 36.9797 118.433 39.8295 122.351 42.5367C124.315 43.8932 125.885 45.1694 126.99 46.2852C128.179 47.4845 128.522 48.1945 128.571 48.3912L134.393 46.9406C133.938 45.1156 132.624 43.4466 131.253 42.0625C129.799 40.5949 127.908 39.0832 125.762 37.6003C121.46 34.6286 115.87 31.5932 110.02 29.0934L107.663 34.6107ZM128.571 48.3912C129.174 50.8125 129.173 54.729 128.641 60.2702C128.118 65.718 127.13 72.3397 125.986 79.9993L131.92 80.8857C133.056 73.2795 134.072 66.4827 134.614 60.8435C135.146 55.2977 135.27 50.4588 134.393 46.9406L128.571 48.3912ZM125.986 79.9964L125.985 80.003L131.919 80.8951L131.92 80.8885L125.986 79.9964ZM125.985 80.0058C125.741 81.6381 125.49 83.3154 125.237 85.033L131.172 85.9096C131.425 84.1977 131.675 82.5252 131.919 80.8922L125.985 80.0058ZM125.237 85.033C123.604 96.0885 121.796 104.87 119.351 111.443C116.899 118.034 113.967 121.968 110.379 123.931L113.259 129.195C118.683 126.227 122.305 120.71 124.974 113.535C127.649 106.343 129.528 97.0437 131.172 85.9096L125.237 85.033ZM110.379 123.931C109.088 124.638 107.142 125.446 104.656 126.306L106.617 131.976C109.217 131.077 111.531 130.14 113.259 129.195L110.379 123.931ZM102.657 128.787C102.495 130.152 102.323 130.406 102.283 130.461L107.164 133.951C108.148 132.575 108.437 130.996 108.615 129.495L102.657 128.787ZM102.283 130.461C102.263 130.49 102.148 130.652 101.539 130.992C100.893 131.353 99.994 131.754 98.5477 132.394L100.976 137.88C102.319 137.286 103.517 136.759 104.463 136.232C105.445 135.683 106.416 134.998 107.164 133.951L102.283 130.461ZM98.5476 132.394C98.2176 132.54 97.864 132.696 97.4891 132.863L99.9322 138.343C100.299 138.18 100.645 138.027 100.976 137.88L98.5476 132.394ZM97.4891 132.863C92.6338 135.028 87.1787 133.752 85.1852 132.863L82.7421 138.343C85.6643 139.646 92.9899 141.439 99.9322 138.343L97.4891 132.863ZM85.6314 138.097L87.2239 137.032L83.8885 132.045L82.296 133.11L85.6314 138.097ZM84.9163 131.607C75.4439 133.676 66.5534 135.068 62.6627 135.068V141.068C67.2794 141.068 76.7529 139.531 86.1962 137.469L84.9163 131.607ZM62.6627 135.068C58.728 135.068 52.9173 133.81 46.4642 131.84L44.7128 137.579C51.2529 139.575 57.7831 141.068 62.6627 141.068V135.068ZM43.1806 136.499C43.8572 137.41 44.5895 138.104 45.3422 138.589C46.0324 139.035 46.9318 139.425 47.9158 139.425V133.425C48.0867 133.425 48.2207 133.444 48.31 133.462C48.4022 133.479 48.4706 133.5 48.5146 133.516C48.601 133.546 48.6258 133.567 48.5954 133.548C48.5365 133.51 48.3126 133.346 47.9964 132.92L43.1806 136.499ZM47.9158 133.425C46.5187 133.425 41.9863 133.126 36.2794 131.854L34.9739 137.71C41.0646 139.067 46.0359 139.425 47.9158 139.425V133.425ZM36.2794 131.854C34.5028 131.457 33.3821 129.964 32.6826 128.052L27.0476 130.113C28.0034 132.726 30.2001 136.646 34.9739 137.71L36.2794 131.854ZM30.9913 126.302C29.603 125.739 28.2599 125.178 26.9801 124.628L24.6103 130.14C25.9295 130.707 27.3116 131.285 28.7389 131.863L30.9913 126.302ZM26.9801 124.628C22.8737 122.863 19.8175 118.07 17.515 110.838C15.2582 103.75 13.9988 95.2296 12.8193 87.2003L6.883 88.0724C8.04489 95.9815 9.36448 105.016 11.7978 112.659C14.1855 120.157 17.9306 127.269 24.6103 130.14L26.9801 124.628ZM12.8201 87.2056L12.82 87.205L6.88214 88.0665L6.88223 88.0671L12.8201 87.2056ZM12.8194 87.2014L12.819 87.1985L6.88224 88.0672L6.88266 88.0701L12.8194 87.2014ZM12.8188 87.1968C12.6706 86.1883 12.5237 85.1882 12.3767 84.205L6.44265 85.0923C6.58834 86.0666 6.73413 87.059 6.88249 88.0689L12.8188 87.1968ZM12.3767 84.205C12.142 82.6353 11.885 80.9773 11.6197 79.2646L5.69041 80.1833C5.95633 81.8995 6.21072 83.5413 6.44265 85.0923L12.3767 84.205ZM11.6197 79.2646C10.6305 72.8809 9.52144 65.7169 8.90053 58.9598C8.27388 52.1402 8.17784 46.0386 9.07105 41.6955L3.19405 40.4868C2.11188 45.7487 2.29054 52.5966 2.9257 59.5088C3.5666 66.4834 4.70648 73.8334 5.69041 80.1833L11.6197 79.2646ZM9.07105 41.6955C9.06827 41.709 9.09251 41.5718 9.32806 41.2836C9.56617 40.9921 9.96163 40.6194 10.575 40.1852C11.8125 39.309 13.6543 38.3792 16.0795 37.4415L13.9157 31.8452C11.27 32.8682 8.91662 34.0078 7.10807 35.2882C5.38654 36.507 3.66427 38.2005 3.19405 40.4868L9.07105 41.6955ZM11.289 20.2092C10.6819 22.004 10.5174 24.3933 10.6522 26.8946C10.7907 29.4655 11.2605 32.4145 12.1081 35.4502L17.8871 33.8365C17.1509 31.2003 16.7573 28.6839 16.6435 26.5717C16.5259 24.3901 16.7199 22.8789 16.9726 22.1317L11.289 20.2092ZM33.4332 13.5497C27.5387 9.8155 22.3364 9.75313 18.2697 11.8821C14.4604 13.8763 12.2016 17.5113 11.289 20.2092L16.9726 22.1317C17.5348 20.4698 18.9629 18.2917 21.0526 17.1977C22.885 16.2384 25.7937 15.8127 30.2223 18.6183L33.4332 13.5497ZM43.4822 20.977C40.0066 18.2491 36.4978 15.4911 33.4332 13.5497L30.2223 18.6183C32.9758 20.3626 36.2219 22.906 39.7779 25.6969L43.4822 20.977ZM48.744 25.0531C46.9945 23.7334 45.2346 22.3523 43.4822 20.977L39.7779 25.6969C41.5223 27.066 43.3276 28.4829 45.1307 29.8431L48.744 25.0531ZM47.3456 30.4202C55.4716 29.3041 63.6554 28.5694 70.661 28.3108L70.4397 22.3149C63.2091 22.5817 54.8251 23.3365 46.5291 24.476L47.3456 30.4202Z" fill="white" mask="url(#path-1-outside-1_273_1318)"/>
<path d="M9.40984 84.6486C7.44358 71.4992 3.89138 51.9893 6.13274 41.0912C8.37409 30.193 73.9893 22.2019 88.0604 26.2981C103.791 26.9555 129.844 41.0904 131.482 47.6659C133.12 54.2414 130.826 67.7195 128.205 85.4713C124.928 107.661 120.831 121.632 111.819 126.563C102.807 131.494 71.6749 138.068 62.6628 138.068C53.6508 138.068 37.2653 132.315 25.7954 127.384C14.3255 122.453 11.8677 101.085 9.40984 84.6486Z" fill="url(#paint0_linear_273_1318)"/>
<path d="M85.6024 96.977L63.4819 65.7471L88.8795 94.5115L108.542 90.4023L130.663 50.954L111.819 92.046L117.554 118.345L110.181 93.6897L89.6988 97.7988L63.4819 136.425L85.6024 96.977Z" fill="url(#paint1_linear_273_1318)"/>
<path d="M63.4819 64.9253L62.6626 132.316C61.2972 111.222 58.4024 68.2126 57.747 64.9253C57.0915 61.6379 36.7189 53.1456 26.6144 49.3103C34.5341 52.0498 52.3397 58.0218 60.2048 59.9943C68.0699 61.9667 105.538 54.7893 123.289 50.954L63.4819 64.9253Z" fill="url(#paint2_linear_273_1318)"/>
<path d="M17.6027 49.3103C18.5822 45.4898 19.2413 44.3793 20.0606 44.3793C26.3417 46.023 38.4124 49.9678 36.4461 52.5977C33.9883 55.8851 43.0003 129.851 44.6389 133.138C45.9497 135.768 47.3698 136.425 47.916 136.425C46.2774 136.425 41.5256 136.097 35.6268 134.782C29.728 133.467 29.0726 125.741 29.0726 125.741C29.0726 125.741 16.4876 53.6601 17.6027 49.3103Z" fill="url(#paint3_linear_273_1318)"/>
<path d="M91.3373 56.7069L70.0361 45.2011V42.7356L87.241 41.9138C93.5221 44.1054 106.904 48.8172 110.181 50.1322C113.458 51.4471 113.185 55.0632 112.639 56.7069C110.727 76.1571 106.74 116.866 106.084 124.098C105.265 133.138 106.084 132.316 98.7108 135.603C92.812 138.233 86.4217 136.699 83.9638 135.603L88.8795 132.316L91.3373 56.7069Z" fill="#91129D"/>
<path d="M91.3373 56.7069L70.0361 45.2011V42.7356L87.241 41.9138C93.5221 44.1054 106.904 48.8172 110.181 50.1322C113.458 51.4471 113.185 55.0632 112.639 56.7069C110.727 76.1571 106.74 116.866 106.084 124.098C105.265 133.138 106.084 132.316 98.7108 135.603C92.812 138.233 86.4217 136.699 83.9638 135.603L88.8795 132.316L91.3373 56.7069Z" fill="url(#paint4_linear_273_1318)"/>
<path d="M76.0697 13.1773C74.8899 16.6652 68.696 29.1634 65.7466 34.9766C58.3727 39.3363 42.1511 22.6238 31.828 16.084C21.5049 9.54422 15.6058 16.8106 14.131 21.1705C12.6563 25.5303 14.131 37.8832 20.7673 46.6029C27.4036 55.3226 48.0498 53.1427 56.1608 48.7828C64.2718 44.423 70.1707 42.2431 88.6049 42.9697C107.039 43.6964 107.776 32.0701 115.15 19.7172C122.524 7.36429 104.09 6.63756 91.5543 5.18428C79.0191 3.73099 77.5444 8.81748 76.0697 13.1773Z" fill="url(#paint5_linear_273_1318)"/>
<path d="M65.599 34.5172L62.7651 36.1281C65.599 39.3497 65.599 43.3768 65.599 44.1822C65.599 44.9876 72.6838 49.0147 74.1008 41.766C75.2344 35.967 68.9053 34.5172 65.599 34.5172Z" fill="#C8135F"/>
<path d="M42.1654 50.644C38.0143 48.827 35.4939 25.6607 36.9765 24.9038C38.459 24.1468 37.7178 24.9038 43.648 30.2032C48.3921 34.4428 59.4618 40.0451 64.4036 42.3163C58.7205 45.8492 46.3166 52.4609 42.1654 50.644Z" fill="#C8135F"/>
<path d="M99.46 25.5438C94.1925 32.1876 82.6332 37.8751 77.512 39.8883C94.3388 43.6632 99.46 37.6235 105.313 34.6036C111.166 31.5837 115.555 17.9941 112.629 14.2192C109.702 10.4443 106.044 17.2391 99.46 25.5438Z" fill="#C8135F"/>
<defs>
<linearGradient id="paint0_linear_273_1318" x1="68.7241" y1="40.2701" x2="68.7241" y2="138.068" gradientUnits="userSpaceOnUse">
<stop stop-color="#DCF148"/>
<stop offset="0.238086" stop-color="#BBD027"/>
<stop offset="1" stop-color="#96AA0B"/>
</linearGradient>
<linearGradient id="paint1_linear_273_1318" x1="97.0723" y1="50.954" x2="97.0723" y2="136.425" gradientUnits="userSpaceOnUse">
<stop stop-color="#A5B918"/>
<stop offset="1" stop-color="#87980F"/>
</linearGradient>
<linearGradient id="paint2_linear_273_1318" x1="74.9518" y1="49.3103" x2="74.9518" y2="132.316" gradientUnits="userSpaceOnUse">
<stop stop-color="#F6FFBA"/>
<stop offset="1" stop-color="#F6FFBA" stop-opacity="0"/>
</linearGradient>
<linearGradient id="paint3_linear_273_1318" x1="32.7244" y1="44.3793" x2="32.7244" y2="136.425" gradientUnits="userSpaceOnUse">
<stop stop-color="#FF378B"/>
<stop offset="1" stop-color="#CD1A66"/>
</linearGradient>
<linearGradient id="paint4_linear_273_1318" x1="91.5042" y1="41.9138" x2="91.5042" y2="137.056" gradientUnits="userSpaceOnUse">
<stop stop-color="#FF378B"/>
<stop offset="1" stop-color="#CD1A66"/>
</linearGradient>
<linearGradient id="paint5_linear_273_1318" x1="116.625" y1="20.4438" x2="13.3964" y2="23.4367" gradientUnits="userSpaceOnUse">
<stop stop-color="#DE0D65"/>
<stop offset="0.119792" stop-color="#FD529A"/>
<stop offset="0.515625" stop-color="#E41D71"/>
<stop offset="0.776974" stop-color="#F75E9E"/>
<stop offset="1" stop-color="#E9136D"/>
</linearGradient>
</defs>
</svg>
