<svg width="48" height="48" viewBox="0 0 48 48" fill="none" xmlns="http://www.w3.org/2000/svg">
<ellipse cx="24.0001" cy="24.0002" rx="21.3333" ry="18.6667" fill="white"/>
<path d="M29.9967 36.3755L29.9988 36.3769C30.5817 36.7893 31.3358 36.8943 32.0131 36.6403L32.0172 36.6387C32.6921 36.3813 33.193 35.8 33.3445 35.093L33.3447 35.0919C33.8524 32.707 34.7215 28.498 35.5782 24.3472L35.6405 24.0456C36.4762 19.9968 37.2914 16.0471 37.7406 13.9363C37.8706 13.3276 37.6549 12.6983 37.1823 12.2958L37.18 12.2939C36.7076 11.8947 36.0574 11.7819 35.48 11.9939L35.4778 11.9946C33.238 12.8243 28.904 14.4444 24.2641 16.1789C18.7145 18.2535 12.7273 20.4917 9.36215 21.7365L9.35931 21.7376C8.66206 21.9986 8.20078 22.6715 8.22254 23.4225L8.22267 23.4264C8.24818 24.1771 8.75383 24.8206 9.46851 25.035L9.46915 25.0352C10.8457 25.4468 12.4387 25.9397 13.6889 26.3302C14.3137 26.5253 14.8524 26.6946 15.2347 26.8152L15.4647 26.8878L15.6183 27.3509C15.7909 27.8713 16.0303 28.5923 16.2973 29.3946C16.831 30.9985 17.4756 32.9295 17.9174 34.2319L17.9179 34.2333C18.1067 34.786 18.5508 35.2466 19.1609 35.4064L19.162 35.4067C19.7586 35.562 20.3926 35.4 20.84 34.9775C21.5491 34.3084 22.4515 33.4565 23.1767 32.7718L23.9792 32.014L24.1452 32.1354C24.5732 32.4482 25.1684 32.8829 25.8376 33.3702C27.1753 34.3443 28.8111 35.5309 29.9967 36.3755ZM19.2246 27.9056L19.1944 28.1886L18.5174 25.9564L19.4858 25.3381L23.0845 23.0406L27.3181 20.3378C26.1184 21.4197 24.9034 22.5156 23.7996 23.5112L20.7266 26.2831L19.8105 27.1096L19.563 27.3329L19.4988 27.3908L19.4825 27.4056L19.4784 27.4093L19.4773 27.4102L19.4771 27.4104C19.477 27.4105 19.477 27.4105 19.998 27.988L19.477 27.4105L19.2561 27.6098L19.2246 27.9056ZM0.777778 24C0.777778 11.1736 11.1775 0.777778 24 0.777778C36.8245 0.777778 47.2222 11.1736 47.2222 24C47.2222 36.8244 36.8244 47.2222 24 47.2222C11.1775 47.2222 0.777778 36.8244 0.777778 24Z" fill="#C2D72F" stroke="#C2D72F" stroke-width="1.55556"/>
</svg>
