<svg width="71" height="50" viewBox="0 0 71 50" fill="none" xmlns="http://www.w3.org/2000/svg">
<path fill-rule="evenodd" clip-rule="evenodd" d="M62.2596 42.0346C60.0354 44.2631 57.4377 45.9902 54.5641 47.2361C51.5361 48.5483 48.3274 49.1495 45.0401 49.1495H25.2338C21.9462 49.1495 18.7375 48.5483 15.7099 47.2361C12.8358 45.9902 10.2382 44.2631 8.01437 42.0346C5.80343 39.819 4.08145 37.2303 2.84144 34.3455C1.55257 31.3462 0.950195 28.1687 0.950195 24.9038C0.950195 21.6388 1.55257 18.4617 2.84144 15.462C4.08145 12.5775 5.80343 9.98821 8.01437 7.77298C10.2382 5.54477 12.8358 3.81702 15.7099 2.57184C18.7375 1.25962 21.9462 0.658081 25.2338 0.658081H45.0401C48.3274 0.658081 51.5361 1.25962 54.5641 2.57184C57.4377 3.81702 60.0354 5.54477 62.2596 7.77298C64.4702 9.98821 66.1925 12.5775 67.4318 15.462C68.721 18.4617 69.323 21.6388 69.323 24.9038C69.323 28.1687 68.721 31.3462 67.4318 34.3455C66.1925 37.2303 64.4702 39.819 62.2596 42.0346ZM58.6551 19.3218C57.8984 17.5615 56.872 16.0015 55.5242 14.6513C54.154 13.2781 52.5664 12.2389 50.7945 11.4703C48.9598 10.6754 47.0319 10.3392 45.0401 10.3392H25.2338C23.2421 10.3392 21.3138 10.6754 19.4791 11.4703C17.7072 12.2389 16.1193 13.2781 14.7494 14.6513C13.4016 16.0015 12.3752 17.5615 11.6185 19.3218C10.8535 21.1022 10.5209 22.9647 10.5209 24.9038C10.5209 26.8428 10.8535 28.7057 11.6185 30.4857C12.3752 32.2461 13.4016 33.8061 14.7494 35.1566C16.1193 36.5291 17.7072 37.5687 19.4791 38.3369C21.3138 39.1318 23.2421 39.4684 25.2338 39.4684H45.0401C47.0319 39.4684 48.9598 39.1318 50.7945 38.3369C52.5664 37.5687 54.154 36.5291 55.5242 35.1566C56.872 33.8061 57.8984 32.2461 58.6551 30.4857C59.4201 28.7057 59.7523 26.8428 59.7523 24.9038C59.7523 22.9647 59.4201 21.1022 58.6551 19.3218Z" fill="#C2D72F"/>
<path opacity="0.302" fill-rule="evenodd" clip-rule="evenodd" d="M52.8945 24.6695C52.8945 29.4741 49.0065 33.3692 44.2104 33.3692L25.8 33.3692C21.0039 33.3692 17.1159 29.4741 17.1159 24.6695C17.1159 19.8648 21.0039 15.9697 25.8 15.9697L44.2104 15.9697C49.0065 15.9697 52.8945 19.8648 52.8945 24.6695Z" fill="#BDD42B"/>
<path opacity="0.302" fill-rule="evenodd" clip-rule="evenodd" d="M52.8945 24.6695C52.8945 29.4741 49.0065 33.3692 44.2104 33.3692L30.9563 33.3692C26.1602 33.3692 22.2722 29.4741 22.2722 24.6695C22.2722 19.8648 26.1602 15.9697 30.9563 15.9697L44.2104 15.9697C49.0065 15.9697 52.8945 19.8648 52.8945 24.6695Z" fill="#BDD42B"/>
<path opacity="0.4" fill-rule="evenodd" clip-rule="evenodd" d="M52.8945 24.6695C52.8945 29.4741 49.0065 33.3692 44.2104 33.3692L35.5047 33.3692C30.7083 33.3692 26.8206 29.4741 26.8206 24.6695C26.8206 19.8648 30.7083 15.9697 35.5047 15.9697L44.2104 15.9697C49.0065 15.9697 52.8945 19.8648 52.8945 24.6695Z" fill="#BDD42B"/>
<path opacity="0.6" fill-rule="evenodd" clip-rule="evenodd" d="M52.8945 24.6695C52.8945 29.4741 49.0065 33.3692 44.2104 33.3692L40.1073 33.3692C35.3109 33.3692 31.4232 29.4741 31.4232 24.6695C31.4232 19.8648 35.3109 15.9697 40.1073 15.9697L44.2104 15.9697C49.0065 15.9697 52.8945 19.8648 52.8945 24.6695Z" fill="#BDD42B"/>
<path fill-rule="evenodd" clip-rule="evenodd" d="M52.8945 24.6695C52.8945 29.4741 48.9992 33.3692 44.1941 33.3692C39.389 33.3692 35.4936 29.4741 35.4936 24.6695C35.4936 19.8648 39.389 15.9697 44.1941 15.9697C48.9992 15.9697 52.8945 19.8648 52.8945 24.6695Z" fill="#BDD42B"/>
</svg>
