<svg width="39" height="52" viewBox="0 0 39 52" fill="none" xmlns="http://www.w3.org/2000/svg">
<path d="M22.5549 3.64571L21.3217 4.0238L22.5549 3.64571C22.2968 2.8038 21.6158 2.24096 20.9131 2.02267C20.1946 1.79948 19.2051 1.87972 18.5355 2.69024C16.2027 5.51362 13.0363 10.5492 13.0363 15.8399C13.0363 17.3177 12.8165 18.51 12.5016 19.3957C12.1793 20.3023 11.7886 20.8047 11.5138 21.0184C11.4499 21.0681 11.3998 21.0963 11.3659 21.1118C11.3563 21.1162 11.3481 21.1195 11.3413 21.122C11.2641 21.0614 11.0039 20.7941 10.808 19.973C10.5952 19.0808 9.91313 18.4563 9.16037 18.2299C8.37434 17.9934 7.35524 18.1666 6.74412 19.0675C4.20946 22.8042 1.8243 28.202 2.16253 33.7764C2.50843 39.4773 5.68781 45.104 13.7604 49.1546L13.7935 49.1713L13.8275 49.186C14.6234 49.5306 15.6582 49.6899 16.6943 49.7584C17.7606 49.8288 18.953 49.8097 20.1352 49.7312C22.4487 49.5776 24.8674 49.1861 26.3627 48.709C30.0414 47.8278 37.1423 43.6748 37.1423 33.995C37.1423 24.2853 32.4175 18.5133 29.3321 14.7441C28.6991 13.9709 28.1351 13.2819 27.6951 12.6605C25.4943 9.55252 23.3409 6.20921 22.5549 3.64571Z" fill="white" stroke="white" stroke-width="2.62589"/>
<path d="M14.3492 15.8399C14.3492 11.0135 17.2754 6.27659 19.5476 3.52653C20.0414 2.92891 21.0724 3.28942 21.2996 4.03058C22.1567 6.82597 24.4382 10.3331 26.6236 13.4193C29.3853 17.3192 35.8293 22.833 35.8293 33.995C35.8293 40.487 32.3692 44.2448 29.2224 46.1054C28.4384 46.569 27.3021 45.2174 27.3852 44.3105C27.5611 42.3893 26.8569 39.8478 23.8619 37.2226C21.3833 35.0501 20.7944 32.5045 20.9755 30.3607C21.0545 29.4256 19.7333 28.4204 19.0612 29.0754C15.5691 32.4791 14.7194 36.085 14.8452 38.622C14.879 39.3043 13.9747 39.9187 13.4208 39.5189C13.0438 39.2467 12.5105 39.4183 12.397 39.8692C11.9033 41.8301 12.0372 43.5044 12.4374 44.8336C12.5871 45.3306 11.5513 46.3915 11.122 46.0998C-0.446295 38.2416 3.31444 26.4625 7.83068 19.8045C8.29128 19.1255 9.3405 19.4795 9.5309 20.2777C10.5432 24.521 14.3492 22.2529 14.3492 15.8399Z" fill="#FF4056"/>
</svg>
