<svg width="38" height="48" viewBox="0 0 38 48" fill="none" xmlns="http://www.w3.org/2000/svg">
<mask id="path-1-outside-1_284_1338" maskUnits="userSpaceOnUse" x="0.512695" y="-0.137306" width="38" height="48" fill="black">
<rect fill="white" x="0.512695" y="-0.137306" width="38" height="48"/>
<path fill-rule="evenodd" clip-rule="evenodd" d="M29.7295 14.0366L17.0846 9.95758V29.8155C17.2243 30.3625 17.2986 30.9358 17.2986 31.5263C17.2986 35.3332 14.2125 38.4193 10.4057 38.4193C6.59878 38.4193 3.5127 35.3332 3.5127 31.5263C3.5127 27.7195 6.59878 24.6334 10.4057 24.6334C11.2176 24.6334 11.9967 24.7738 12.7201 25.0316L11.28 3.86275H17.0845V3.86269L17.0846 3.86275L35.0787 9.66728H35.079V37.5293H35.0787C35.0787 37.5294 35.0787 37.5294 35.0787 37.5294C35.0787 41.3764 31.9602 44.4949 28.1132 44.4949C24.2663 44.4949 21.1477 41.3764 21.1477 37.5294C21.1477 33.6825 24.2663 30.5639 28.1132 30.5639C29.361 30.5639 30.5322 30.892 31.5451 31.4666L29.7295 14.0366Z"/>
</mask>
<path fill-rule="evenodd" clip-rule="evenodd" d="M29.7295 14.0366L17.0846 9.95758V29.8155C17.2243 30.3625 17.2986 30.9358 17.2986 31.5263C17.2986 35.3332 14.2125 38.4193 10.4057 38.4193C6.59878 38.4193 3.5127 35.3332 3.5127 31.5263C3.5127 27.7195 6.59878 24.6334 10.4057 24.6334C11.2176 24.6334 11.9967 24.7738 12.7201 25.0316L11.28 3.86275H17.0845V3.86269L17.0846 3.86275L35.0787 9.66728H35.079V37.5293H35.0787C35.0787 37.5294 35.0787 37.5294 35.0787 37.5294C35.0787 41.3764 31.9602 44.4949 28.1132 44.4949C24.2663 44.4949 21.1477 41.3764 21.1477 37.5294C21.1477 33.6825 24.2663 30.5639 28.1132 30.5639C29.361 30.5639 30.5322 30.892 31.5451 31.4666L29.7295 14.0366Z" fill="#C2D72F"/>
<path d="M17.0846 9.95758L17.8908 7.45849L14.4587 6.35138V9.95758H17.0846ZM29.7295 14.0366L32.3412 13.7645L32.164 12.0628L30.5356 11.5375L29.7295 14.0366ZM17.0846 29.8155H14.4587V30.1455L14.5404 30.4652L17.0846 29.8155ZM12.7201 25.0316L11.8386 27.5051L15.6118 28.8498L15.3399 24.8533L12.7201 25.0316ZM11.28 3.86275V1.23686H8.46944L8.66019 4.04097L11.28 3.86275ZM17.0845 3.86275V6.48864H19.7104V3.86275H17.0845ZM17.0845 3.86269L17.9349 1.37835L14.4586 0.188268V3.86269H17.0845ZM17.0846 3.86275L16.2342 6.3471L16.2562 6.35466L16.2785 6.36183L17.0846 3.86275ZM35.0787 9.66728L34.2725 12.1664L34.6656 12.2932H35.0787V9.66728ZM35.079 9.66728H37.7048V7.04139H35.079V9.66728ZM35.079 37.5293V40.1552H37.7048V37.5293H35.079ZM35.0787 37.5293V34.9035H32.4529V37.5293H35.0787ZM31.5451 31.4666L30.2495 33.7506L34.6852 36.2669L34.1569 31.1946L31.5451 31.4666ZM16.2785 12.4567L28.9233 16.5356L30.5356 11.5375L17.8908 7.45849L16.2785 12.4567ZM19.7105 29.8155V9.95758H14.4587V29.8155H19.7105ZM19.9245 31.5263C19.9245 30.7148 19.8223 29.9233 19.6289 29.1657L14.5404 30.4652C14.6263 30.8017 14.6727 31.1567 14.6727 31.5263H19.9245ZM10.4057 41.0452C15.6628 41.0452 19.9245 36.7835 19.9245 31.5263H14.6727C14.6727 33.883 12.7623 35.7934 10.4057 35.7934V41.0452ZM0.886805 31.5263C0.886805 36.7835 5.14854 41.0452 10.4057 41.0452V35.7934C8.04902 35.7934 6.13859 33.883 6.13859 31.5263H0.886805ZM10.4057 22.0075C5.14854 22.0075 0.886805 26.2692 0.886805 31.5263H6.13859C6.13859 29.1697 8.04902 27.2593 10.4057 27.2593V22.0075ZM13.6016 22.558C12.5992 22.2008 11.5222 22.0075 10.4057 22.0075V27.2593C10.913 27.2593 11.3942 27.3467 11.8386 27.5051L13.6016 22.558ZM8.66019 4.04097L10.1002 25.2098L15.3399 24.8533L13.8999 3.68453L8.66019 4.04097ZM17.0845 1.23686H11.28V6.48864H17.0845V1.23686ZM14.4586 3.86269V3.86275H19.7104V3.86269H14.4586ZM17.9351 1.3784L17.9349 1.37835L16.234 6.34704L16.2342 6.3471L17.9351 1.3784ZM35.8848 7.1682L17.8908 1.36367L16.2785 6.36183L34.2725 12.1664L35.8848 7.1682ZM35.079 7.04139H35.0787V12.2932H35.079V7.04139ZM37.7048 37.5293V9.66728H32.4531V37.5293H37.7048ZM35.0787 40.1552H35.079V34.9035H35.0787V40.1552ZM32.4529 37.5293C32.4529 37.5294 32.4529 37.5294 32.4529 37.5294C32.4529 37.5294 32.4529 37.5294 32.4529 37.5294C32.4529 37.5294 32.4529 37.5294 32.4529 37.5294C32.4529 37.5294 32.4529 37.5294 32.4529 37.5294C32.4529 37.5294 32.4529 37.5294 32.4529 37.5294C32.4529 37.5294 32.4529 37.5294 32.4529 37.5294C32.4529 37.5294 32.4529 37.5294 32.4529 37.5294C32.4529 37.5294 32.4529 37.5294 32.4529 37.5294C32.4529 37.5294 32.4529 37.5294 32.4529 37.5294C32.4529 37.5294 32.4529 37.5294 32.4529 37.5294C32.4529 37.5294 32.4529 37.5294 32.4529 37.5294C32.4529 37.5294 32.4529 37.5294 32.4529 37.5294V37.5294C32.4529 37.5294 32.4529 37.5294 32.4529 37.5294C32.4529 37.5294 32.4529 37.5294 32.4529 37.5294V37.5294V37.5294H37.7046V37.5294V37.5294C37.7046 37.5294 37.7046 37.5294 37.7046 37.5294C37.7046 37.5294 37.7046 37.5294 37.7046 37.5294V37.5294C37.7046 37.5294 37.7046 37.5294 37.7046 37.5294C37.7046 37.5294 37.7046 37.5294 37.7046 37.5294C37.7046 37.5294 37.7046 37.5294 37.7046 37.5294C37.7046 37.5294 37.7046 37.5294 37.7046 37.5294C37.7046 37.5294 37.7046 37.5294 37.7046 37.5294C37.7046 37.5294 37.7046 37.5294 37.7046 37.5294C37.7046 37.5294 37.7046 37.5294 37.7046 37.5294C37.7046 37.5294 37.7046 37.5294 37.7046 37.5294C37.7046 37.5294 37.7046 37.5294 37.7046 37.5294C37.7046 37.5294 37.7046 37.5294 37.7046 37.5294C37.7046 37.5294 37.7046 37.5294 37.7046 37.5294C37.7046 37.5294 37.7046 37.5294 37.7046 37.5293H32.4529ZM32.4529 37.5294C32.4529 39.9261 30.5099 41.869 28.1132 41.869V47.1208C33.4104 47.1208 37.7046 42.8266 37.7046 37.5294H32.4529ZM28.1132 41.869C25.7165 41.869 23.7736 39.9261 23.7736 37.5294H18.5218C18.5218 42.8266 22.816 47.1208 28.1132 47.1208V41.869ZM23.7736 37.5294C23.7736 35.1327 25.7165 33.1898 28.1132 33.1898V27.938C22.816 27.938 18.5218 32.2322 18.5218 37.5294H23.7736ZM28.1132 33.1898C28.895 33.1898 29.6212 33.3942 30.2495 33.7506L32.8408 29.1826C31.4431 28.3898 29.827 27.938 28.1132 27.938V33.1898ZM27.1177 14.3086L28.9334 31.7387L34.1569 31.1946L32.3412 13.7645L27.1177 14.3086Z" fill="white" mask="url(#path-1-outside-1_284_1338)"/>
</svg>
