<svg width="187" height="146" viewBox="0 0 187 146" fill="none" xmlns="http://www.w3.org/2000/svg">
<path d="M178.783 13.6018L177.632 14.2334L178.783 13.6018C176.58 9.58632 173.194 6.34588 169.087 4.3202C166.68 3.13363 163.983 2.57085 160.526 2.29363C157.098 2.01865 152.814 2.01865 147.21 2.01866H147.15H37.0001H36.9389C31.1081 2.01865 26.6521 2.01865 23.0957 2.30922C19.5115 2.60206 16.7255 3.19655 14.2627 4.4514C10.0629 6.5913 6.64837 10.0058 4.50847 14.2056C3.25362 16.6684 2.65913 19.4545 2.36629 23.0386C2.07572 26.5951 2.07572 31.051 2.07573 36.8818V36.943V106.907V106.967C2.07572 112.697 2.07572 117.077 2.35939 120.577C2.64531 124.104 3.22576 126.851 4.45035 129.289C6.53966 133.449 9.87722 136.851 13.9959 139.02C16.41 140.291 19.1451 140.924 22.6666 141.278C26.1604 141.629 30.5393 141.713 36.2685 141.823L36.3286 141.824L149.635 144.003L149.698 144.005C155.869 144.123 160.583 144.214 164.335 143.972C168.115 143.729 171.044 143.144 173.612 141.836C177.984 139.611 181.5 136.007 183.618 131.582C184.862 128.983 185.376 126.04 185.526 122.256C185.676 118.499 185.47 113.789 185.2 107.623L185.197 107.559L182.041 35.4165L182.039 35.3565C181.794 29.7583 181.606 25.4785 181.182 22.0652C180.754 18.6239 180.074 15.9539 178.783 13.6018Z" fill="#F01F77" stroke="white" stroke-width="2.62589"/>
</svg>
